G04 EAGLE Gerber RS-274X export*
G75*
%MOMM*%
%FSLAX34Y34*%
%LPD*%
%IN*%
%IPPOS*%
%AMOC8*
5,1,8,0,0,1.08239X$1,22.5*%
G01*
%ADD10C,0.508000*%
%ADD11C,0.254000*%


D10*
X140970Y358120D02*
X133350Y358120D01*
X133350Y292120D02*
X140970Y292120D01*
D11*
X0Y25400D02*
X97Y23186D01*
X386Y20989D01*
X865Y18826D01*
X1532Y16713D01*
X2380Y14666D01*
X3403Y12700D01*
X4594Y10831D01*
X5942Y9073D01*
X7440Y7440D01*
X9073Y5942D01*
X10831Y4594D01*
X12700Y3403D01*
X14666Y2380D01*
X16713Y1532D01*
X18826Y865D01*
X20989Y386D01*
X23186Y97D01*
X25400Y0D01*
X1346200Y0D01*
X1348414Y97D01*
X1350611Y386D01*
X1352774Y865D01*
X1354887Y1532D01*
X1356935Y2380D01*
X1358900Y3403D01*
X1360769Y4594D01*
X1362527Y5942D01*
X1364161Y7440D01*
X1365658Y9073D01*
X1367006Y10831D01*
X1368197Y12700D01*
X1369220Y14666D01*
X1370068Y16713D01*
X1370735Y18826D01*
X1371214Y20989D01*
X1371503Y23186D01*
X1371600Y25400D01*
X1371600Y177800D01*
X1371503Y180014D01*
X1371214Y182211D01*
X1370735Y184374D01*
X1370068Y186487D01*
X1369220Y188535D01*
X1368197Y190500D01*
X1367006Y192369D01*
X1365658Y194127D01*
X1364161Y195761D01*
X1362527Y197258D01*
X1360769Y198606D01*
X1358900Y199797D01*
X1356935Y200820D01*
X1354887Y201668D01*
X1352774Y202335D01*
X1350611Y202814D01*
X1348414Y203103D01*
X1346200Y203200D01*
X1282700Y203200D01*
X1280486Y203297D01*
X1278289Y203586D01*
X1276126Y204065D01*
X1274013Y204732D01*
X1271966Y205580D01*
X1270000Y206603D01*
X1268131Y207794D01*
X1266373Y209142D01*
X1264740Y210640D01*
X1263242Y212273D01*
X1261894Y214031D01*
X1260703Y215900D01*
X1259680Y217866D01*
X1258832Y219913D01*
X1258165Y222026D01*
X1257686Y224189D01*
X1257397Y226386D01*
X1257300Y228600D01*
X1257300Y355600D01*
X1257203Y357814D01*
X1256914Y360011D01*
X1256435Y362174D01*
X1255768Y364287D01*
X1254920Y366335D01*
X1253897Y368300D01*
X1252706Y370169D01*
X1251358Y371927D01*
X1249861Y373561D01*
X1248227Y375058D01*
X1246469Y376406D01*
X1244600Y377597D01*
X1242635Y378620D01*
X1240587Y379468D01*
X1238474Y380135D01*
X1236311Y380614D01*
X1234114Y380903D01*
X1231900Y381000D01*
X139700Y381000D01*
X137486Y380903D01*
X135289Y380614D01*
X133126Y380135D01*
X131013Y379468D01*
X128966Y378620D01*
X127000Y377597D01*
X125131Y376406D01*
X123373Y375058D01*
X121740Y373561D01*
X120242Y371927D01*
X118894Y370169D01*
X117703Y368300D01*
X116680Y366335D01*
X115832Y364287D01*
X115165Y362174D01*
X114686Y360011D01*
X114397Y357814D01*
X114300Y355600D01*
X114300Y228600D01*
X114203Y226386D01*
X113914Y224189D01*
X113435Y222026D01*
X112768Y219913D01*
X111920Y217866D01*
X110897Y215900D01*
X109706Y214031D01*
X108358Y212273D01*
X106861Y210640D01*
X105227Y209142D01*
X103469Y207794D01*
X101600Y206603D01*
X99635Y205580D01*
X97587Y204732D01*
X95474Y204065D01*
X93311Y203586D01*
X91114Y203297D01*
X88900Y203200D01*
X25400Y203200D01*
X23186Y203103D01*
X20989Y202814D01*
X18826Y202335D01*
X16713Y201668D01*
X14666Y200820D01*
X12700Y199797D01*
X10831Y198606D01*
X9073Y197258D01*
X7440Y195761D01*
X5942Y194127D01*
X4594Y192369D01*
X3403Y190500D01*
X2380Y188535D01*
X1532Y186487D01*
X865Y184374D01*
X386Y182211D01*
X97Y180014D01*
X0Y177800D01*
X0Y25400D01*
X76200Y151687D02*
X76120Y150264D01*
X75961Y148848D01*
X75722Y147443D01*
X75405Y146053D01*
X75010Y144684D01*
X74539Y143338D01*
X73994Y142021D01*
X73375Y140737D01*
X72686Y139490D01*
X71928Y138283D01*
X71103Y137121D01*
X70214Y136006D01*
X69264Y134943D01*
X68257Y133936D01*
X67194Y132986D01*
X66079Y132097D01*
X64917Y131272D01*
X63710Y130514D01*
X62463Y129825D01*
X61179Y129206D01*
X59862Y128661D01*
X58516Y128190D01*
X57147Y127795D01*
X55757Y127478D01*
X54352Y127240D01*
X52936Y127080D01*
X51513Y127000D01*
X50087Y127000D01*
X48664Y127080D01*
X47248Y127240D01*
X45843Y127478D01*
X44453Y127795D01*
X43084Y128190D01*
X41738Y128661D01*
X40421Y129206D01*
X39137Y129825D01*
X37890Y130514D01*
X36683Y131272D01*
X35521Y132097D01*
X34406Y132986D01*
X33343Y133936D01*
X32336Y134943D01*
X31386Y136006D01*
X30497Y137121D01*
X29672Y138283D01*
X28914Y139490D01*
X28225Y140737D01*
X27606Y142021D01*
X27061Y143338D01*
X26590Y144684D01*
X26195Y146053D01*
X25878Y147443D01*
X25640Y148848D01*
X25480Y150264D01*
X25400Y151687D01*
X25400Y153113D01*
X25480Y154536D01*
X25640Y155952D01*
X25878Y157357D01*
X26195Y158747D01*
X26590Y160116D01*
X27061Y161462D01*
X27606Y162779D01*
X28225Y164063D01*
X28914Y165310D01*
X29672Y166517D01*
X30497Y167679D01*
X31386Y168794D01*
X32336Y169857D01*
X33343Y170864D01*
X34406Y171814D01*
X35521Y172703D01*
X36683Y173528D01*
X37890Y174286D01*
X39137Y174975D01*
X40421Y175594D01*
X41738Y176139D01*
X43084Y176610D01*
X44453Y177005D01*
X45843Y177322D01*
X47248Y177561D01*
X48664Y177720D01*
X50087Y177800D01*
X51513Y177800D01*
X52936Y177720D01*
X54352Y177561D01*
X55757Y177322D01*
X57147Y177005D01*
X58516Y176610D01*
X59862Y176139D01*
X61179Y175594D01*
X62463Y174975D01*
X63710Y174286D01*
X64917Y173528D01*
X66079Y172703D01*
X67194Y171814D01*
X68257Y170864D01*
X69264Y169857D01*
X70214Y168794D01*
X71103Y167679D01*
X71928Y166517D01*
X72686Y165310D01*
X73375Y164063D01*
X73994Y162779D01*
X74539Y161462D01*
X75010Y160116D01*
X75405Y158747D01*
X75722Y157357D01*
X75961Y155952D01*
X76120Y154536D01*
X76200Y153113D01*
X76200Y151687D01*
X1346200Y151687D02*
X1346120Y150264D01*
X1345961Y148848D01*
X1345722Y147443D01*
X1345405Y146053D01*
X1345010Y144684D01*
X1344539Y143338D01*
X1343994Y142021D01*
X1343375Y140737D01*
X1342686Y139490D01*
X1341928Y138283D01*
X1341103Y137121D01*
X1340214Y136006D01*
X1339264Y134943D01*
X1338257Y133936D01*
X1337194Y132986D01*
X1336079Y132097D01*
X1334917Y131272D01*
X1333710Y130514D01*
X1332463Y129825D01*
X1331179Y129206D01*
X1329862Y128661D01*
X1328516Y128190D01*
X1327147Y127795D01*
X1325757Y127478D01*
X1324352Y127240D01*
X1322936Y127080D01*
X1321513Y127000D01*
X1320087Y127000D01*
X1318664Y127080D01*
X1317248Y127240D01*
X1315843Y127478D01*
X1314453Y127795D01*
X1313084Y128190D01*
X1311738Y128661D01*
X1310421Y129206D01*
X1309137Y129825D01*
X1307890Y130514D01*
X1306683Y131272D01*
X1305521Y132097D01*
X1304406Y132986D01*
X1303343Y133936D01*
X1302336Y134943D01*
X1301386Y136006D01*
X1300497Y137121D01*
X1299672Y138283D01*
X1298914Y139490D01*
X1298225Y140737D01*
X1297606Y142021D01*
X1297061Y143338D01*
X1296590Y144684D01*
X1296195Y146053D01*
X1295878Y147443D01*
X1295640Y148848D01*
X1295480Y150264D01*
X1295400Y151687D01*
X1295400Y153113D01*
X1295480Y154536D01*
X1295640Y155952D01*
X1295878Y157357D01*
X1296195Y158747D01*
X1296590Y160116D01*
X1297061Y161462D01*
X1297606Y162779D01*
X1298225Y164063D01*
X1298914Y165310D01*
X1299672Y166517D01*
X1300497Y167679D01*
X1301386Y168794D01*
X1302336Y169857D01*
X1303343Y170864D01*
X1304406Y171814D01*
X1305521Y172703D01*
X1306683Y173528D01*
X1307890Y174286D01*
X1309137Y174975D01*
X1310421Y175594D01*
X1311738Y176139D01*
X1313084Y176610D01*
X1314453Y177005D01*
X1315843Y177322D01*
X1317248Y177561D01*
X1318664Y177720D01*
X1320087Y177800D01*
X1321513Y177800D01*
X1322936Y177720D01*
X1324352Y177561D01*
X1325757Y177322D01*
X1327147Y177005D01*
X1328516Y176610D01*
X1329862Y176139D01*
X1331179Y175594D01*
X1332463Y174975D01*
X1333710Y174286D01*
X1334917Y173528D01*
X1336079Y172703D01*
X1337194Y171814D01*
X1338257Y170864D01*
X1339264Y169857D01*
X1340214Y168794D01*
X1341103Y167679D01*
X1341928Y166517D01*
X1342686Y165310D01*
X1343375Y164063D01*
X1343994Y162779D01*
X1344539Y161462D01*
X1345010Y160116D01*
X1345405Y158747D01*
X1345722Y157357D01*
X1345961Y155952D01*
X1346120Y154536D01*
X1346200Y153113D01*
X1346200Y151687D01*
X92710Y88360D02*
X92639Y87281D01*
X92498Y86209D01*
X92287Y85149D01*
X92008Y84105D01*
X91660Y83081D01*
X91246Y82083D01*
X90768Y81113D01*
X90228Y80177D01*
X89627Y79278D01*
X88969Y78421D01*
X88257Y77608D01*
X87492Y76844D01*
X86679Y76131D01*
X85822Y75473D01*
X84923Y74872D01*
X83987Y74332D01*
X83017Y73854D01*
X82019Y73440D01*
X80995Y73092D01*
X79951Y72813D01*
X78891Y72602D01*
X77819Y72461D01*
X76740Y72390D01*
X75660Y72390D01*
X74581Y72461D01*
X73509Y72602D01*
X72449Y72813D01*
X71405Y73092D01*
X70381Y73440D01*
X69383Y73854D01*
X68413Y74332D01*
X67477Y74872D01*
X66578Y75473D01*
X65721Y76131D01*
X64908Y76844D01*
X64144Y77608D01*
X63431Y78421D01*
X62773Y79278D01*
X62172Y80177D01*
X61632Y81113D01*
X61154Y82083D01*
X60740Y83081D01*
X60392Y84105D01*
X60113Y85149D01*
X59902Y86209D01*
X59761Y87281D01*
X59690Y88360D01*
X59690Y89440D01*
X59761Y90519D01*
X59902Y91591D01*
X60113Y92651D01*
X60392Y93695D01*
X60740Y94719D01*
X61154Y95717D01*
X61632Y96687D01*
X62172Y97623D01*
X62773Y98522D01*
X63431Y99379D01*
X64144Y100192D01*
X64908Y100957D01*
X65721Y101669D01*
X66578Y102327D01*
X67477Y102928D01*
X68413Y103468D01*
X69383Y103946D01*
X70381Y104360D01*
X71405Y104708D01*
X72449Y104987D01*
X73509Y105198D01*
X74581Y105339D01*
X75660Y105410D01*
X76740Y105410D01*
X77819Y105339D01*
X78891Y105198D01*
X79951Y104987D01*
X80995Y104708D01*
X82019Y104360D01*
X83017Y103946D01*
X83987Y103468D01*
X84923Y102928D01*
X85822Y102327D01*
X86679Y101669D01*
X87492Y100957D01*
X88257Y100192D01*
X88969Y99379D01*
X89627Y98522D01*
X90228Y97623D01*
X90768Y96687D01*
X91246Y95717D01*
X91660Y94719D01*
X92008Y93695D01*
X92287Y92651D01*
X92498Y91591D01*
X92639Y90519D01*
X92710Y89440D01*
X92710Y88360D01*
X92710Y31210D02*
X92639Y30131D01*
X92498Y29059D01*
X92287Y27999D01*
X92008Y26955D01*
X91660Y25931D01*
X91246Y24933D01*
X90768Y23963D01*
X90228Y23027D01*
X89627Y22128D01*
X88969Y21271D01*
X88257Y20458D01*
X87492Y19694D01*
X86679Y18981D01*
X85822Y18323D01*
X84923Y17722D01*
X83987Y17182D01*
X83017Y16704D01*
X82019Y16290D01*
X80995Y15942D01*
X79951Y15663D01*
X78891Y15452D01*
X77819Y15311D01*
X76740Y15240D01*
X75660Y15240D01*
X74581Y15311D01*
X73509Y15452D01*
X72449Y15663D01*
X71405Y15942D01*
X70381Y16290D01*
X69383Y16704D01*
X68413Y17182D01*
X67477Y17722D01*
X66578Y18323D01*
X65721Y18981D01*
X64908Y19694D01*
X64144Y20458D01*
X63431Y21271D01*
X62773Y22128D01*
X62172Y23027D01*
X61632Y23963D01*
X61154Y24933D01*
X60740Y25931D01*
X60392Y26955D01*
X60113Y27999D01*
X59902Y29059D01*
X59761Y30131D01*
X59690Y31210D01*
X59690Y32290D01*
X59761Y33369D01*
X59902Y34441D01*
X60113Y35501D01*
X60392Y36545D01*
X60740Y37569D01*
X61154Y38567D01*
X61632Y39537D01*
X62172Y40473D01*
X62773Y41372D01*
X63431Y42229D01*
X64144Y43042D01*
X64908Y43807D01*
X65721Y44519D01*
X66578Y45177D01*
X67477Y45778D01*
X68413Y46318D01*
X69383Y46796D01*
X70381Y47210D01*
X71405Y47558D01*
X72449Y47837D01*
X73509Y48048D01*
X74581Y48189D01*
X75660Y48260D01*
X76740Y48260D01*
X77819Y48189D01*
X78891Y48048D01*
X79951Y47837D01*
X80995Y47558D01*
X82019Y47210D01*
X83017Y46796D01*
X83987Y46318D01*
X84923Y45778D01*
X85822Y45177D01*
X86679Y44519D01*
X87492Y43807D01*
X88257Y43042D01*
X88969Y42229D01*
X89627Y41372D01*
X90228Y40473D01*
X90768Y39537D01*
X91246Y38567D01*
X91660Y37569D01*
X92008Y36545D01*
X92287Y35501D01*
X92498Y34441D01*
X92639Y33369D01*
X92710Y32290D01*
X92710Y31210D01*
X1311910Y31210D02*
X1311839Y30131D01*
X1311698Y29059D01*
X1311487Y27999D01*
X1311208Y26955D01*
X1310860Y25931D01*
X1310446Y24933D01*
X1309968Y23963D01*
X1309428Y23027D01*
X1308827Y22128D01*
X1308169Y21271D01*
X1307457Y20458D01*
X1306692Y19694D01*
X1305879Y18981D01*
X1305022Y18323D01*
X1304123Y17722D01*
X1303187Y17182D01*
X1302217Y16704D01*
X1301219Y16290D01*
X1300195Y15942D01*
X1299151Y15663D01*
X1298091Y15452D01*
X1297019Y15311D01*
X1295940Y15240D01*
X1294860Y15240D01*
X1293781Y15311D01*
X1292709Y15452D01*
X1291649Y15663D01*
X1290605Y15942D01*
X1289581Y16290D01*
X1288583Y16704D01*
X1287613Y17182D01*
X1286677Y17722D01*
X1285778Y18323D01*
X1284921Y18981D01*
X1284108Y19694D01*
X1283344Y20458D01*
X1282631Y21271D01*
X1281973Y22128D01*
X1281372Y23027D01*
X1280832Y23963D01*
X1280354Y24933D01*
X1279940Y25931D01*
X1279592Y26955D01*
X1279313Y27999D01*
X1279102Y29059D01*
X1278961Y30131D01*
X1278890Y31210D01*
X1278890Y32290D01*
X1278961Y33369D01*
X1279102Y34441D01*
X1279313Y35501D01*
X1279592Y36545D01*
X1279940Y37569D01*
X1280354Y38567D01*
X1280832Y39537D01*
X1281372Y40473D01*
X1281973Y41372D01*
X1282631Y42229D01*
X1283344Y43042D01*
X1284108Y43807D01*
X1284921Y44519D01*
X1285778Y45177D01*
X1286677Y45778D01*
X1287613Y46318D01*
X1288583Y46796D01*
X1289581Y47210D01*
X1290605Y47558D01*
X1291649Y47837D01*
X1292709Y48048D01*
X1293781Y48189D01*
X1294860Y48260D01*
X1295940Y48260D01*
X1297019Y48189D01*
X1298091Y48048D01*
X1299151Y47837D01*
X1300195Y47558D01*
X1301219Y47210D01*
X1302217Y46796D01*
X1303187Y46318D01*
X1304123Y45778D01*
X1305022Y45177D01*
X1305879Y44519D01*
X1306692Y43807D01*
X1307457Y43042D01*
X1308169Y42229D01*
X1308827Y41372D01*
X1309428Y40473D01*
X1309968Y39537D01*
X1310446Y38567D01*
X1310860Y37569D01*
X1311208Y36545D01*
X1311487Y35501D01*
X1311698Y34441D01*
X1311839Y33369D01*
X1311910Y32290D01*
X1311910Y31210D01*
X1311910Y88360D02*
X1311839Y87281D01*
X1311698Y86209D01*
X1311487Y85149D01*
X1311208Y84105D01*
X1310860Y83081D01*
X1310446Y82083D01*
X1309968Y81113D01*
X1309428Y80177D01*
X1308827Y79278D01*
X1308169Y78421D01*
X1307457Y77608D01*
X1306692Y76844D01*
X1305879Y76131D01*
X1305022Y75473D01*
X1304123Y74872D01*
X1303187Y74332D01*
X1302217Y73854D01*
X1301219Y73440D01*
X1300195Y73092D01*
X1299151Y72813D01*
X1298091Y72602D01*
X1297019Y72461D01*
X1295940Y72390D01*
X1294860Y72390D01*
X1293781Y72461D01*
X1292709Y72602D01*
X1291649Y72813D01*
X1290605Y73092D01*
X1289581Y73440D01*
X1288583Y73854D01*
X1287613Y74332D01*
X1286677Y74872D01*
X1285778Y75473D01*
X1284921Y76131D01*
X1284108Y76844D01*
X1283344Y77608D01*
X1282631Y78421D01*
X1281973Y79278D01*
X1281372Y80177D01*
X1280832Y81113D01*
X1280354Y82083D01*
X1279940Y83081D01*
X1279592Y84105D01*
X1279313Y85149D01*
X1279102Y86209D01*
X1278961Y87281D01*
X1278890Y88360D01*
X1278890Y89440D01*
X1278961Y90519D01*
X1279102Y91591D01*
X1279313Y92651D01*
X1279592Y93695D01*
X1279940Y94719D01*
X1280354Y95717D01*
X1280832Y96687D01*
X1281372Y97623D01*
X1281973Y98522D01*
X1282631Y99379D01*
X1283344Y100192D01*
X1284108Y100957D01*
X1284921Y101669D01*
X1285778Y102327D01*
X1286677Y102928D01*
X1287613Y103468D01*
X1288583Y103946D01*
X1289581Y104360D01*
X1290605Y104708D01*
X1291649Y104987D01*
X1292709Y105198D01*
X1293781Y105339D01*
X1294860Y105410D01*
X1295940Y105410D01*
X1297019Y105339D01*
X1298091Y105198D01*
X1299151Y104987D01*
X1300195Y104708D01*
X1301219Y104360D01*
X1302217Y103946D01*
X1303187Y103468D01*
X1304123Y102928D01*
X1305022Y102327D01*
X1305879Y101669D01*
X1306692Y100957D01*
X1307457Y100192D01*
X1308169Y99379D01*
X1308827Y98522D01*
X1309428Y97623D01*
X1309968Y96687D01*
X1310446Y95717D01*
X1310860Y94719D01*
X1311208Y93695D01*
X1311487Y92651D01*
X1311698Y91591D01*
X1311839Y90519D01*
X1311910Y89440D01*
X1311910Y88360D01*
X228049Y119398D02*
X226971Y119469D01*
X225900Y119610D01*
X224841Y119820D01*
X223797Y120100D01*
X222774Y120447D01*
X221776Y120861D01*
X220807Y121338D01*
X219872Y121879D01*
X218974Y122479D01*
X218117Y123136D01*
X217304Y123849D01*
X216540Y124613D01*
X215828Y125425D01*
X215170Y126282D01*
X214570Y127180D01*
X214030Y128116D01*
X213552Y129085D01*
X213139Y130083D01*
X212792Y131106D01*
X212512Y132149D01*
X212301Y133209D01*
X212160Y134280D01*
X212090Y135358D01*
X212090Y136438D01*
X212160Y137516D01*
X212301Y138587D01*
X212512Y139647D01*
X212792Y140690D01*
X213139Y141713D01*
X213552Y142711D01*
X214030Y143680D01*
X214570Y144616D01*
X215170Y145514D01*
X215828Y146371D01*
X216540Y147183D01*
X217304Y147947D01*
X218117Y148659D01*
X218974Y149317D01*
X219872Y149917D01*
X220807Y150457D01*
X221776Y150935D01*
X222774Y151349D01*
X223797Y151696D01*
X224841Y151976D01*
X225900Y152186D01*
X226971Y152327D01*
X228049Y152398D01*
X229130Y152398D01*
X230208Y152327D01*
X231279Y152186D01*
X232338Y151976D01*
X233382Y151696D01*
X234405Y151349D01*
X235403Y150935D01*
X236372Y150457D01*
X237307Y149917D01*
X238206Y149317D01*
X239063Y148659D01*
X239875Y147947D01*
X240639Y147183D01*
X241351Y146371D01*
X242009Y145514D01*
X242609Y144616D01*
X243149Y143680D01*
X243627Y142711D01*
X244040Y141713D01*
X244388Y140690D01*
X244667Y139647D01*
X244878Y138587D01*
X245019Y137516D01*
X245090Y136438D01*
X245090Y135358D01*
X245019Y134280D01*
X244878Y133209D01*
X244667Y132149D01*
X244388Y131106D01*
X244040Y130083D01*
X243627Y129085D01*
X243149Y128116D01*
X242609Y127180D01*
X242009Y126282D01*
X241351Y125425D01*
X240639Y124613D01*
X239875Y123849D01*
X239063Y123136D01*
X238206Y122479D01*
X237307Y121879D01*
X236372Y121338D01*
X235403Y120861D01*
X234405Y120447D01*
X233382Y120100D01*
X232338Y119820D01*
X231279Y119610D01*
X230208Y119469D01*
X229130Y119398D01*
X228049Y119398D01*
X228049Y233698D02*
X226971Y233769D01*
X225900Y233910D01*
X224841Y234120D01*
X223797Y234400D01*
X222774Y234747D01*
X221776Y235161D01*
X220807Y235638D01*
X219872Y236179D01*
X218974Y236779D01*
X218117Y237436D01*
X217304Y238149D01*
X216540Y238913D01*
X215828Y239725D01*
X215170Y240582D01*
X214570Y241480D01*
X214030Y242416D01*
X213552Y243385D01*
X213139Y244383D01*
X212792Y245406D01*
X212512Y246449D01*
X212301Y247509D01*
X212160Y248580D01*
X212090Y249658D01*
X212090Y250738D01*
X212160Y251816D01*
X212301Y252887D01*
X212512Y253947D01*
X212792Y254990D01*
X213139Y256013D01*
X213552Y257011D01*
X214030Y257980D01*
X214570Y258916D01*
X215170Y259814D01*
X215828Y260671D01*
X216540Y261483D01*
X217304Y262247D01*
X218117Y262959D01*
X218974Y263617D01*
X219872Y264217D01*
X220807Y264757D01*
X221776Y265235D01*
X222774Y265649D01*
X223797Y265996D01*
X224841Y266276D01*
X225900Y266486D01*
X226971Y266627D01*
X228049Y266698D01*
X229130Y266698D01*
X230208Y266627D01*
X231279Y266486D01*
X232338Y266276D01*
X233382Y265996D01*
X234405Y265649D01*
X235403Y265235D01*
X236372Y264757D01*
X237307Y264217D01*
X238206Y263617D01*
X239063Y262959D01*
X239875Y262247D01*
X240639Y261483D01*
X241351Y260671D01*
X242009Y259814D01*
X242609Y258916D01*
X243149Y257980D01*
X243627Y257011D01*
X244040Y256013D01*
X244388Y254990D01*
X244667Y253947D01*
X244878Y252887D01*
X245019Y251816D01*
X245090Y250738D01*
X245090Y249658D01*
X245019Y248580D01*
X244878Y247509D01*
X244667Y246449D01*
X244388Y245406D01*
X244040Y244383D01*
X243627Y243385D01*
X243149Y242416D01*
X242609Y241480D01*
X242009Y240582D01*
X241351Y239725D01*
X240639Y238913D01*
X239875Y238149D01*
X239063Y237436D01*
X238206Y236779D01*
X237307Y236179D01*
X236372Y235638D01*
X235403Y235161D01*
X234405Y234747D01*
X233382Y234400D01*
X232338Y234120D01*
X231279Y233910D01*
X230208Y233769D01*
X229130Y233698D01*
X228049Y233698D01*
M02*
