G04 EAGLE Gerber RS-274X export*
G75*
%MOMM*%
%FSLAX34Y34*%
%LPD*%
%INBottom Copper*%
%IPPOS*%
%AMOC8*
5,1,8,0,0,1.08239X$1,22.5*%
G01*
%ADD10C,1.016000*%
%ADD11C,1.778000*%
%ADD12C,1.700000*%
%ADD13C,2.540000*%
%ADD14R,3.810000X3.810000*%
%ADD15R,1.778000X1.778000*%
%ADD16C,0.711200*%
%ADD17C,0.756400*%
%ADD18C,0.203200*%
%ADD19C,0.279400*%
%ADD20C,0.609600*%
%ADD21C,0.228600*%
%ADD22C,0.812800*%
%ADD23C,0.956400*%
%ADD24C,2.540000*%
%ADD25C,0.406400*%

G36*
X379561Y3767D02*
X379561Y3767D01*
X379590Y3764D01*
X379701Y3787D01*
X379813Y3803D01*
X379840Y3815D01*
X379869Y3820D01*
X379969Y3873D01*
X380072Y3919D01*
X380095Y3938D01*
X380121Y3951D01*
X380203Y4029D01*
X380289Y4102D01*
X380306Y4127D01*
X380327Y4147D01*
X380384Y4245D01*
X380447Y4339D01*
X380456Y4367D01*
X380471Y4392D01*
X380499Y4502D01*
X380533Y4610D01*
X380534Y4640D01*
X380541Y4668D01*
X380537Y4781D01*
X380540Y4894D01*
X380533Y4923D01*
X380532Y4952D01*
X380497Y5060D01*
X380468Y5169D01*
X380453Y5195D01*
X380444Y5223D01*
X380399Y5287D01*
X380323Y5414D01*
X380277Y5457D01*
X380249Y5496D01*
X378967Y6778D01*
X378967Y46562D01*
X380158Y47753D01*
X419942Y47753D01*
X421133Y46562D01*
X421133Y6778D01*
X419851Y5496D01*
X419833Y5472D01*
X419811Y5453D01*
X419748Y5359D01*
X419680Y5269D01*
X419669Y5241D01*
X419653Y5217D01*
X419619Y5109D01*
X419578Y5003D01*
X419576Y4974D01*
X419567Y4946D01*
X419564Y4832D01*
X419555Y4720D01*
X419561Y4691D01*
X419560Y4662D01*
X419589Y4552D01*
X419611Y4441D01*
X419624Y4415D01*
X419632Y4387D01*
X419689Y4289D01*
X419742Y4189D01*
X419762Y4167D01*
X419777Y4142D01*
X419859Y4065D01*
X419938Y3983D01*
X419963Y3968D01*
X419984Y3948D01*
X420085Y3896D01*
X420183Y3839D01*
X420211Y3832D01*
X420237Y3818D01*
X420315Y3805D01*
X420458Y3769D01*
X420521Y3771D01*
X420568Y3763D01*
X477155Y3763D01*
X477184Y3767D01*
X477213Y3764D01*
X477324Y3787D01*
X477436Y3803D01*
X477463Y3815D01*
X477492Y3820D01*
X477592Y3873D01*
X477696Y3919D01*
X477718Y3938D01*
X477744Y3951D01*
X477826Y4029D01*
X477913Y4102D01*
X477929Y4127D01*
X477950Y4147D01*
X478007Y4245D01*
X478070Y4339D01*
X478079Y4367D01*
X478094Y4392D01*
X478122Y4502D01*
X478156Y4610D01*
X478157Y4640D01*
X478164Y4668D01*
X478160Y4781D01*
X478163Y4894D01*
X478156Y4923D01*
X478155Y4952D01*
X478120Y5060D01*
X478091Y5169D01*
X478077Y5195D01*
X478067Y5223D01*
X478022Y5287D01*
X477946Y5414D01*
X477901Y5457D01*
X477873Y5496D01*
X476714Y6655D01*
X464617Y18752D01*
X464547Y18804D01*
X464483Y18864D01*
X464433Y18890D01*
X464389Y18923D01*
X464308Y18954D01*
X464230Y18994D01*
X464182Y19002D01*
X464124Y19024D01*
X463976Y19036D01*
X463899Y19049D01*
X462539Y19049D01*
X460672Y19823D01*
X459243Y21252D01*
X458469Y23119D01*
X458469Y36322D01*
X458461Y36380D01*
X458463Y36438D01*
X458441Y36520D01*
X458429Y36604D01*
X458406Y36657D01*
X458391Y36713D01*
X458348Y36786D01*
X458313Y36863D01*
X458275Y36908D01*
X458246Y36958D01*
X458184Y37016D01*
X458130Y37080D01*
X458081Y37112D01*
X458038Y37152D01*
X457963Y37191D01*
X457893Y37238D01*
X457837Y37255D01*
X457785Y37282D01*
X457717Y37293D01*
X457622Y37323D01*
X457522Y37326D01*
X457454Y37337D01*
X443658Y37337D01*
X442467Y38528D01*
X442467Y78312D01*
X443658Y79503D01*
X483442Y79503D01*
X484633Y78312D01*
X484633Y38528D01*
X483442Y37337D01*
X469646Y37337D01*
X469588Y37329D01*
X469530Y37331D01*
X469448Y37309D01*
X469364Y37297D01*
X469311Y37274D01*
X469255Y37259D01*
X469182Y37216D01*
X469105Y37181D01*
X469060Y37143D01*
X469010Y37114D01*
X468952Y37052D01*
X468888Y36998D01*
X468856Y36949D01*
X468816Y36906D01*
X468777Y36831D01*
X468730Y36761D01*
X468713Y36705D01*
X468686Y36653D01*
X468675Y36585D01*
X468645Y36490D01*
X468642Y36390D01*
X468631Y36322D01*
X468631Y23781D01*
X468643Y23695D01*
X468646Y23607D01*
X468663Y23555D01*
X468671Y23500D01*
X468706Y23420D01*
X468733Y23337D01*
X468761Y23298D01*
X468787Y23240D01*
X468883Y23127D01*
X468928Y23063D01*
X481025Y10966D01*
X481095Y10914D01*
X481159Y10854D01*
X481209Y10828D01*
X481253Y10795D01*
X481334Y10764D01*
X481412Y10724D01*
X481460Y10716D01*
X481518Y10694D01*
X481666Y10682D01*
X481743Y10669D01*
X482600Y10669D01*
X482685Y10681D01*
X482771Y10683D01*
X482825Y10701D01*
X482882Y10709D01*
X482960Y10744D01*
X483042Y10770D01*
X483089Y10802D01*
X483141Y10825D01*
X483207Y10880D01*
X483278Y10928D01*
X483315Y10972D01*
X483358Y11008D01*
X483406Y11080D01*
X483461Y11146D01*
X483484Y11198D01*
X483516Y11245D01*
X483542Y11327D01*
X483576Y11406D01*
X483584Y11462D01*
X483601Y11516D01*
X483604Y11602D01*
X483615Y11687D01*
X483607Y11743D01*
X483609Y11800D01*
X483587Y11883D01*
X483575Y11969D01*
X483551Y12020D01*
X483537Y12075D01*
X483493Y12149D01*
X483458Y12228D01*
X483421Y12271D01*
X483392Y12320D01*
X483329Y12379D01*
X483273Y12444D01*
X483231Y12470D01*
X483184Y12514D01*
X483055Y12580D01*
X482989Y12622D01*
X481974Y13042D01*
X480402Y14614D01*
X479551Y16668D01*
X479551Y18892D01*
X480402Y20946D01*
X481974Y22518D01*
X484028Y23369D01*
X486252Y23369D01*
X488306Y22518D01*
X489878Y20946D01*
X490729Y18892D01*
X490729Y16668D01*
X489878Y14614D01*
X488306Y13042D01*
X487291Y12622D01*
X487217Y12578D01*
X487139Y12543D01*
X487096Y12506D01*
X487047Y12477D01*
X486988Y12415D01*
X486922Y12359D01*
X486890Y12312D01*
X486851Y12271D01*
X486812Y12194D01*
X486764Y12123D01*
X486747Y12069D01*
X486721Y12018D01*
X486705Y11934D01*
X486679Y11852D01*
X486677Y11795D01*
X486666Y11739D01*
X486674Y11654D01*
X486671Y11568D01*
X486686Y11513D01*
X486691Y11456D01*
X486721Y11375D01*
X486743Y11293D01*
X486772Y11244D01*
X486793Y11191D01*
X486845Y11122D01*
X486888Y11048D01*
X486930Y11009D01*
X486964Y10964D01*
X487033Y10912D01*
X487096Y10854D01*
X487146Y10828D01*
X487192Y10794D01*
X487272Y10763D01*
X487349Y10724D01*
X487398Y10716D01*
X487458Y10693D01*
X487603Y10682D01*
X487680Y10669D01*
X535940Y10669D01*
X536025Y10681D01*
X536111Y10683D01*
X536165Y10701D01*
X536222Y10709D01*
X536300Y10744D01*
X536382Y10770D01*
X536429Y10802D01*
X536481Y10825D01*
X536547Y10880D01*
X536618Y10928D01*
X536655Y10972D01*
X536698Y11008D01*
X536746Y11080D01*
X536801Y11146D01*
X536824Y11198D01*
X536856Y11245D01*
X536882Y11327D01*
X536916Y11406D01*
X536924Y11462D01*
X536941Y11516D01*
X536944Y11602D01*
X536955Y11687D01*
X536947Y11743D01*
X536949Y11800D01*
X536927Y11883D01*
X536915Y11969D01*
X536891Y12020D01*
X536877Y12075D01*
X536833Y12149D01*
X536798Y12228D01*
X536761Y12271D01*
X536732Y12320D01*
X536669Y12379D01*
X536613Y12444D01*
X536571Y12470D01*
X536524Y12514D01*
X536395Y12580D01*
X536329Y12622D01*
X535314Y13042D01*
X533742Y14614D01*
X532891Y16668D01*
X532891Y18892D01*
X533742Y20946D01*
X535314Y22518D01*
X537368Y23369D01*
X539592Y23369D01*
X541646Y22518D01*
X543218Y20946D01*
X544069Y18892D01*
X544069Y16668D01*
X543218Y14614D01*
X541646Y13042D01*
X540631Y12622D01*
X540557Y12578D01*
X540479Y12543D01*
X540436Y12506D01*
X540387Y12477D01*
X540328Y12415D01*
X540262Y12359D01*
X540230Y12312D01*
X540191Y12271D01*
X540152Y12194D01*
X540104Y12123D01*
X540087Y12069D01*
X540061Y12018D01*
X540045Y11934D01*
X540019Y11852D01*
X540017Y11795D01*
X540006Y11739D01*
X540014Y11654D01*
X540011Y11568D01*
X540026Y11513D01*
X540031Y11456D01*
X540061Y11375D01*
X540083Y11293D01*
X540112Y11244D01*
X540133Y11191D01*
X540185Y11122D01*
X540228Y11048D01*
X540270Y11009D01*
X540304Y10964D01*
X540373Y10912D01*
X540436Y10854D01*
X540486Y10828D01*
X540532Y10794D01*
X540612Y10763D01*
X540689Y10724D01*
X540738Y10716D01*
X540798Y10693D01*
X540943Y10682D01*
X541020Y10669D01*
X563253Y10669D01*
X563282Y10673D01*
X563311Y10670D01*
X563423Y10693D01*
X563535Y10709D01*
X563561Y10721D01*
X563590Y10726D01*
X563691Y10779D01*
X563794Y10825D01*
X563816Y10844D01*
X563843Y10857D01*
X563925Y10935D01*
X564011Y11008D01*
X564027Y11033D01*
X564049Y11053D01*
X564106Y11151D01*
X564169Y11245D01*
X564178Y11273D01*
X564192Y11298D01*
X564220Y11408D01*
X564254Y11516D01*
X564255Y11546D01*
X564262Y11574D01*
X564259Y11687D01*
X564262Y11800D01*
X564254Y11829D01*
X564253Y11858D01*
X564218Y11966D01*
X564190Y12075D01*
X564175Y12101D01*
X564166Y12129D01*
X564120Y12192D01*
X564045Y12320D01*
X563999Y12363D01*
X563971Y12402D01*
X562240Y14133D01*
X560577Y18147D01*
X560577Y22493D01*
X562240Y26507D01*
X565313Y29580D01*
X569327Y31243D01*
X573673Y31243D01*
X577687Y29580D01*
X580760Y26507D01*
X582423Y22493D01*
X582423Y18147D01*
X580760Y14133D01*
X579029Y12402D01*
X579011Y12378D01*
X578989Y12359D01*
X578926Y12265D01*
X578858Y12175D01*
X578848Y12147D01*
X578831Y12123D01*
X578797Y12015D01*
X578757Y11909D01*
X578754Y11880D01*
X578746Y11852D01*
X578743Y11738D01*
X578733Y11626D01*
X578739Y11597D01*
X578738Y11568D01*
X578767Y11458D01*
X578789Y11347D01*
X578803Y11321D01*
X578810Y11293D01*
X578868Y11195D01*
X578920Y11095D01*
X578940Y11073D01*
X578955Y11048D01*
X579038Y10971D01*
X579116Y10889D01*
X579141Y10874D01*
X579163Y10854D01*
X579263Y10802D01*
X579361Y10745D01*
X579390Y10738D01*
X579416Y10724D01*
X579493Y10711D01*
X579637Y10675D01*
X579699Y10677D01*
X579747Y10669D01*
X588653Y10669D01*
X588682Y10673D01*
X588711Y10670D01*
X588823Y10693D01*
X588935Y10709D01*
X588961Y10721D01*
X588990Y10726D01*
X589091Y10779D01*
X589194Y10825D01*
X589216Y10844D01*
X589243Y10857D01*
X589325Y10935D01*
X589411Y11008D01*
X589427Y11033D01*
X589449Y11053D01*
X589506Y11151D01*
X589569Y11245D01*
X589578Y11273D01*
X589592Y11298D01*
X589620Y11408D01*
X589654Y11516D01*
X589655Y11546D01*
X589662Y11574D01*
X589659Y11687D01*
X589662Y11800D01*
X589654Y11829D01*
X589653Y11858D01*
X589618Y11966D01*
X589590Y12075D01*
X589575Y12101D01*
X589566Y12129D01*
X589520Y12192D01*
X589445Y12320D01*
X589399Y12363D01*
X589371Y12402D01*
X587640Y14133D01*
X585977Y18147D01*
X585977Y22493D01*
X587640Y26507D01*
X590713Y29580D01*
X594727Y31243D01*
X599073Y31243D01*
X603087Y29580D01*
X606160Y26507D01*
X607823Y22493D01*
X607823Y18147D01*
X606160Y14133D01*
X604429Y12402D01*
X604411Y12378D01*
X604389Y12359D01*
X604326Y12265D01*
X604258Y12175D01*
X604248Y12147D01*
X604231Y12123D01*
X604197Y12015D01*
X604157Y11909D01*
X604154Y11880D01*
X604146Y11852D01*
X604143Y11738D01*
X604133Y11626D01*
X604139Y11597D01*
X604138Y11568D01*
X604167Y11458D01*
X604189Y11347D01*
X604203Y11321D01*
X604210Y11293D01*
X604268Y11195D01*
X604320Y11095D01*
X604340Y11073D01*
X604355Y11048D01*
X604438Y10971D01*
X604516Y10889D01*
X604541Y10874D01*
X604563Y10854D01*
X604663Y10802D01*
X604761Y10745D01*
X604790Y10738D01*
X604816Y10724D01*
X604893Y10711D01*
X605037Y10675D01*
X605099Y10677D01*
X605147Y10669D01*
X614053Y10669D01*
X614082Y10673D01*
X614111Y10670D01*
X614223Y10693D01*
X614335Y10709D01*
X614361Y10721D01*
X614390Y10726D01*
X614491Y10779D01*
X614594Y10825D01*
X614616Y10844D01*
X614643Y10857D01*
X614725Y10935D01*
X614811Y11008D01*
X614827Y11033D01*
X614849Y11053D01*
X614906Y11151D01*
X614969Y11245D01*
X614978Y11273D01*
X614992Y11298D01*
X615020Y11408D01*
X615054Y11516D01*
X615055Y11546D01*
X615062Y11574D01*
X615059Y11687D01*
X615062Y11800D01*
X615054Y11829D01*
X615053Y11858D01*
X615018Y11966D01*
X614990Y12075D01*
X614975Y12101D01*
X614966Y12129D01*
X614920Y12192D01*
X614845Y12320D01*
X614799Y12363D01*
X614771Y12402D01*
X613040Y14133D01*
X611377Y18147D01*
X611377Y22493D01*
X613040Y26507D01*
X616113Y29580D01*
X620127Y31243D01*
X624473Y31243D01*
X628487Y29580D01*
X631560Y26507D01*
X633223Y22493D01*
X633223Y18147D01*
X631560Y14133D01*
X629829Y12402D01*
X629811Y12378D01*
X629789Y12359D01*
X629726Y12265D01*
X629658Y12175D01*
X629648Y12147D01*
X629631Y12123D01*
X629597Y12015D01*
X629557Y11909D01*
X629554Y11880D01*
X629546Y11852D01*
X629543Y11738D01*
X629533Y11626D01*
X629539Y11597D01*
X629538Y11568D01*
X629567Y11458D01*
X629589Y11347D01*
X629603Y11321D01*
X629610Y11293D01*
X629668Y11195D01*
X629720Y11095D01*
X629740Y11073D01*
X629755Y11048D01*
X629838Y10971D01*
X629916Y10889D01*
X629941Y10874D01*
X629963Y10854D01*
X630063Y10802D01*
X630161Y10745D01*
X630190Y10738D01*
X630216Y10724D01*
X630293Y10711D01*
X630437Y10675D01*
X630499Y10677D01*
X630547Y10669D01*
X633317Y10669D01*
X633403Y10681D01*
X633491Y10684D01*
X633543Y10701D01*
X633598Y10709D01*
X633678Y10744D01*
X633761Y10771D01*
X633800Y10799D01*
X633858Y10825D01*
X633971Y10921D01*
X634035Y10966D01*
X637598Y14529D01*
X637598Y14530D01*
X637600Y14531D01*
X637686Y14647D01*
X637768Y14756D01*
X637769Y14758D01*
X637770Y14759D01*
X637820Y14891D01*
X637870Y15022D01*
X637870Y15024D01*
X637870Y15025D01*
X637882Y15170D01*
X637893Y15305D01*
X637893Y15307D01*
X637893Y15308D01*
X637890Y15324D01*
X637837Y15584D01*
X637823Y15611D01*
X637818Y15636D01*
X636777Y18147D01*
X636777Y22493D01*
X638440Y26507D01*
X641513Y29580D01*
X645527Y31243D01*
X649873Y31243D01*
X653887Y29580D01*
X656960Y26507D01*
X658623Y22493D01*
X658623Y18147D01*
X656960Y14133D01*
X653887Y11060D01*
X649873Y9397D01*
X645527Y9397D01*
X643016Y10438D01*
X643014Y10438D01*
X643013Y10439D01*
X642878Y10473D01*
X642740Y10509D01*
X642739Y10509D01*
X642737Y10509D01*
X642597Y10504D01*
X642456Y10500D01*
X642455Y10500D01*
X642453Y10500D01*
X642320Y10457D01*
X642185Y10414D01*
X642184Y10413D01*
X642183Y10412D01*
X642170Y10404D01*
X641949Y10256D01*
X641929Y10232D01*
X641909Y10218D01*
X638346Y6655D01*
X637187Y5496D01*
X637170Y5472D01*
X637147Y5453D01*
X637085Y5359D01*
X637017Y5269D01*
X637006Y5241D01*
X636990Y5217D01*
X636956Y5109D01*
X636915Y5003D01*
X636913Y4974D01*
X636904Y4946D01*
X636901Y4832D01*
X636892Y4720D01*
X636897Y4691D01*
X636897Y4662D01*
X636925Y4552D01*
X636948Y4441D01*
X636961Y4415D01*
X636969Y4387D01*
X637026Y4289D01*
X637079Y4189D01*
X637099Y4167D01*
X637114Y4142D01*
X637196Y4065D01*
X637274Y3983D01*
X637300Y3968D01*
X637321Y3948D01*
X637422Y3896D01*
X637520Y3839D01*
X637548Y3832D01*
X637574Y3818D01*
X637652Y3805D01*
X637795Y3769D01*
X637858Y3771D01*
X637905Y3763D01*
X951032Y3763D01*
X951061Y3767D01*
X951090Y3764D01*
X951201Y3787D01*
X951313Y3803D01*
X951340Y3815D01*
X951369Y3820D01*
X951469Y3873D01*
X951572Y3919D01*
X951595Y3938D01*
X951621Y3951D01*
X951703Y4029D01*
X951789Y4102D01*
X951806Y4127D01*
X951827Y4147D01*
X951884Y4245D01*
X951947Y4339D01*
X951956Y4367D01*
X951971Y4392D01*
X951999Y4502D01*
X952033Y4610D01*
X952034Y4640D01*
X952041Y4668D01*
X952037Y4781D01*
X952040Y4894D01*
X952033Y4923D01*
X952032Y4952D01*
X951997Y5060D01*
X951968Y5169D01*
X951953Y5195D01*
X951944Y5223D01*
X951899Y5287D01*
X951823Y5414D01*
X951777Y5457D01*
X951749Y5496D01*
X950467Y6778D01*
X950467Y46562D01*
X951658Y47753D01*
X991442Y47753D01*
X992633Y46562D01*
X992633Y6778D01*
X991351Y5496D01*
X991333Y5472D01*
X991311Y5453D01*
X991248Y5359D01*
X991180Y5269D01*
X991169Y5241D01*
X991153Y5217D01*
X991119Y5109D01*
X991078Y5003D01*
X991076Y4974D01*
X991067Y4946D01*
X991064Y4832D01*
X991055Y4720D01*
X991061Y4691D01*
X991060Y4662D01*
X991089Y4552D01*
X991111Y4441D01*
X991124Y4415D01*
X991132Y4387D01*
X991189Y4289D01*
X991242Y4189D01*
X991262Y4167D01*
X991277Y4142D01*
X991359Y4065D01*
X991438Y3983D01*
X991463Y3968D01*
X991484Y3948D01*
X991585Y3896D01*
X991683Y3839D01*
X991711Y3832D01*
X991737Y3818D01*
X991815Y3805D01*
X991958Y3769D01*
X992021Y3771D01*
X992068Y3763D01*
X1346200Y3763D01*
X1346244Y3769D01*
X1346280Y3766D01*
X1349506Y4020D01*
X1349664Y4055D01*
X1349740Y4066D01*
X1355876Y6060D01*
X1356131Y6185D01*
X1356145Y6197D01*
X1356159Y6204D01*
X1361379Y9997D01*
X1361583Y10194D01*
X1361592Y10211D01*
X1361603Y10221D01*
X1365396Y15441D01*
X1365529Y15692D01*
X1365533Y15710D01*
X1365540Y15724D01*
X1367534Y21860D01*
X1367562Y22020D01*
X1367580Y22094D01*
X1367834Y25320D01*
X1367831Y25365D01*
X1367837Y25400D01*
X1367837Y177800D01*
X1367831Y177844D01*
X1367834Y177880D01*
X1367580Y181106D01*
X1367545Y181264D01*
X1367534Y181340D01*
X1365540Y187476D01*
X1365415Y187731D01*
X1365403Y187745D01*
X1365396Y187759D01*
X1361603Y192979D01*
X1361406Y193183D01*
X1361389Y193192D01*
X1361379Y193203D01*
X1356159Y196996D01*
X1355908Y197129D01*
X1355890Y197133D01*
X1355876Y197140D01*
X1349740Y199134D01*
X1349580Y199162D01*
X1349506Y199180D01*
X1346280Y199434D01*
X1346235Y199431D01*
X1346200Y199437D01*
X1278081Y199437D01*
X1269295Y202292D01*
X1261822Y207722D01*
X1256392Y215195D01*
X1253537Y223981D01*
X1253537Y307340D01*
X1253529Y307395D01*
X1253531Y307439D01*
X1253530Y307440D01*
X1253531Y307456D01*
X1253509Y307538D01*
X1253497Y307622D01*
X1253474Y307675D01*
X1253459Y307731D01*
X1253416Y307804D01*
X1253381Y307881D01*
X1253343Y307926D01*
X1253314Y307976D01*
X1253252Y308034D01*
X1253198Y308098D01*
X1253149Y308130D01*
X1253106Y308170D01*
X1253031Y308209D01*
X1252961Y308256D01*
X1252905Y308273D01*
X1252853Y308300D01*
X1252785Y308311D01*
X1252690Y308341D01*
X1252590Y308344D01*
X1252522Y308355D01*
X1212596Y308355D01*
X1212482Y308339D01*
X1212368Y308329D01*
X1212342Y308319D01*
X1212314Y308315D01*
X1212210Y308268D01*
X1212103Y308227D01*
X1212080Y308211D01*
X1212055Y308199D01*
X1211967Y308125D01*
X1211876Y308056D01*
X1211859Y308033D01*
X1211838Y308016D01*
X1211774Y307920D01*
X1211706Y307828D01*
X1211696Y307802D01*
X1211680Y307779D01*
X1211646Y307669D01*
X1211605Y307562D01*
X1211603Y307534D01*
X1211595Y307508D01*
X1211592Y307393D01*
X1211583Y307279D01*
X1211588Y307254D01*
X1211587Y307224D01*
X1211654Y306967D01*
X1211658Y306951D01*
X1212089Y305912D01*
X1212089Y303688D01*
X1211238Y301634D01*
X1209666Y300062D01*
X1207612Y299211D01*
X1205388Y299211D01*
X1203334Y300062D01*
X1201762Y301634D01*
X1200911Y303688D01*
X1200911Y305912D01*
X1201342Y306951D01*
X1201371Y307063D01*
X1201405Y307172D01*
X1201406Y307200D01*
X1201413Y307227D01*
X1201410Y307341D01*
X1201413Y307456D01*
X1201406Y307483D01*
X1201405Y307511D01*
X1201370Y307620D01*
X1201341Y307731D01*
X1201327Y307755D01*
X1201318Y307782D01*
X1201254Y307877D01*
X1201196Y307976D01*
X1201175Y307995D01*
X1201160Y308018D01*
X1201072Y308092D01*
X1200988Y308170D01*
X1200963Y308183D01*
X1200942Y308201D01*
X1200837Y308247D01*
X1200735Y308300D01*
X1200710Y308304D01*
X1200682Y308316D01*
X1200419Y308353D01*
X1200404Y308355D01*
X1076139Y308355D01*
X1076110Y308351D01*
X1076081Y308354D01*
X1075970Y308331D01*
X1075858Y308315D01*
X1075831Y308303D01*
X1075802Y308298D01*
X1075702Y308246D01*
X1075599Y308199D01*
X1075576Y308180D01*
X1075550Y308167D01*
X1075468Y308089D01*
X1075382Y308016D01*
X1075365Y307991D01*
X1075344Y307971D01*
X1075287Y307873D01*
X1075224Y307779D01*
X1075215Y307751D01*
X1075200Y307726D01*
X1075172Y307616D01*
X1075138Y307508D01*
X1075137Y307478D01*
X1075130Y307450D01*
X1075134Y307337D01*
X1075131Y307224D01*
X1075138Y307195D01*
X1075139Y307166D01*
X1075174Y307058D01*
X1075203Y306949D01*
X1075218Y306923D01*
X1075227Y306895D01*
X1075272Y306832D01*
X1075348Y306704D01*
X1075364Y306689D01*
X1075365Y306687D01*
X1075396Y306658D01*
X1075422Y306622D01*
X1076618Y305426D01*
X1077469Y303372D01*
X1077469Y301148D01*
X1076618Y299094D01*
X1075046Y297522D01*
X1072992Y296671D01*
X1070768Y296671D01*
X1068714Y297522D01*
X1067142Y299094D01*
X1066291Y301148D01*
X1066291Y303372D01*
X1067142Y305426D01*
X1068338Y306622D01*
X1068350Y306638D01*
X1068361Y306647D01*
X1068365Y306653D01*
X1068378Y306665D01*
X1068441Y306759D01*
X1068509Y306849D01*
X1068520Y306877D01*
X1068536Y306901D01*
X1068570Y307009D01*
X1068611Y307115D01*
X1068613Y307144D01*
X1068622Y307172D01*
X1068625Y307286D01*
X1068634Y307398D01*
X1068628Y307427D01*
X1068629Y307456D01*
X1068601Y307566D01*
X1068578Y307677D01*
X1068565Y307703D01*
X1068557Y307731D01*
X1068499Y307829D01*
X1068447Y307929D01*
X1068427Y307951D01*
X1068412Y307976D01*
X1068330Y308053D01*
X1068251Y308135D01*
X1068226Y308150D01*
X1068205Y308170D01*
X1068104Y308222D01*
X1068006Y308279D01*
X1067978Y308286D01*
X1067952Y308300D01*
X1067874Y308313D01*
X1067731Y308349D01*
X1067668Y308347D01*
X1067621Y308355D01*
X735779Y308355D01*
X735750Y308351D01*
X735721Y308354D01*
X735610Y308331D01*
X735498Y308315D01*
X735471Y308303D01*
X735442Y308298D01*
X735342Y308246D01*
X735239Y308199D01*
X735216Y308180D01*
X735190Y308167D01*
X735108Y308089D01*
X735022Y308016D01*
X735005Y307991D01*
X734984Y307971D01*
X734927Y307873D01*
X734864Y307779D01*
X734855Y307751D01*
X734840Y307726D01*
X734812Y307616D01*
X734778Y307508D01*
X734777Y307478D01*
X734770Y307450D01*
X734774Y307337D01*
X734771Y307224D01*
X734778Y307195D01*
X734779Y307166D01*
X734814Y307058D01*
X734843Y306949D01*
X734858Y306923D01*
X734867Y306895D01*
X734912Y306832D01*
X734988Y306704D01*
X735004Y306689D01*
X735005Y306687D01*
X735036Y306658D01*
X735062Y306622D01*
X736258Y305426D01*
X737109Y303372D01*
X737109Y301148D01*
X736258Y299094D01*
X734686Y297522D01*
X732632Y296671D01*
X730408Y296671D01*
X728354Y297522D01*
X726782Y299094D01*
X725931Y301148D01*
X725931Y303372D01*
X726782Y305426D01*
X727978Y306622D01*
X727990Y306638D01*
X728001Y306647D01*
X728005Y306653D01*
X728018Y306665D01*
X728081Y306759D01*
X728149Y306849D01*
X728160Y306877D01*
X728176Y306901D01*
X728210Y307009D01*
X728251Y307115D01*
X728253Y307144D01*
X728262Y307172D01*
X728265Y307286D01*
X728274Y307398D01*
X728268Y307427D01*
X728269Y307456D01*
X728241Y307566D01*
X728218Y307677D01*
X728205Y307703D01*
X728197Y307731D01*
X728139Y307829D01*
X728087Y307929D01*
X728067Y307951D01*
X728052Y307976D01*
X727970Y308053D01*
X727891Y308135D01*
X727866Y308150D01*
X727845Y308170D01*
X727744Y308222D01*
X727646Y308279D01*
X727618Y308286D01*
X727592Y308300D01*
X727514Y308313D01*
X727371Y308349D01*
X727308Y308347D01*
X727261Y308355D01*
X682439Y308355D01*
X682410Y308351D01*
X682381Y308354D01*
X682270Y308331D01*
X682158Y308315D01*
X682131Y308303D01*
X682102Y308298D01*
X682002Y308246D01*
X681899Y308199D01*
X681876Y308180D01*
X681850Y308167D01*
X681768Y308089D01*
X681682Y308016D01*
X681665Y307991D01*
X681644Y307971D01*
X681587Y307873D01*
X681524Y307779D01*
X681515Y307751D01*
X681500Y307726D01*
X681472Y307616D01*
X681438Y307508D01*
X681437Y307478D01*
X681430Y307450D01*
X681434Y307337D01*
X681431Y307224D01*
X681438Y307195D01*
X681439Y307166D01*
X681474Y307058D01*
X681503Y306949D01*
X681518Y306923D01*
X681527Y306895D01*
X681572Y306832D01*
X681648Y306704D01*
X681664Y306689D01*
X681665Y306687D01*
X681696Y306658D01*
X681722Y306622D01*
X682918Y305426D01*
X683769Y303372D01*
X683769Y301148D01*
X682918Y299094D01*
X681346Y297522D01*
X679292Y296671D01*
X677068Y296671D01*
X675014Y297522D01*
X673442Y299094D01*
X672591Y301148D01*
X672591Y303372D01*
X673442Y305426D01*
X674638Y306622D01*
X674650Y306638D01*
X674661Y306647D01*
X674665Y306653D01*
X674678Y306665D01*
X674741Y306759D01*
X674809Y306849D01*
X674820Y306877D01*
X674836Y306901D01*
X674870Y307009D01*
X674911Y307115D01*
X674913Y307144D01*
X674922Y307172D01*
X674925Y307286D01*
X674934Y307398D01*
X674928Y307427D01*
X674929Y307456D01*
X674901Y307566D01*
X674878Y307677D01*
X674865Y307703D01*
X674857Y307731D01*
X674799Y307829D01*
X674747Y307929D01*
X674727Y307951D01*
X674712Y307976D01*
X674630Y308053D01*
X674551Y308135D01*
X674526Y308150D01*
X674505Y308170D01*
X674404Y308222D01*
X674306Y308279D01*
X674278Y308286D01*
X674252Y308300D01*
X674174Y308313D01*
X674031Y308349D01*
X673968Y308347D01*
X673921Y308355D01*
X577595Y308355D01*
X577595Y318321D01*
X577591Y318350D01*
X577594Y318379D01*
X577571Y318490D01*
X577555Y318602D01*
X577543Y318629D01*
X577538Y318658D01*
X577486Y318758D01*
X577439Y318861D01*
X577420Y318884D01*
X577407Y318910D01*
X577329Y318992D01*
X577256Y319078D01*
X577231Y319095D01*
X577211Y319116D01*
X577113Y319173D01*
X577019Y319236D01*
X576991Y319245D01*
X576966Y319260D01*
X576856Y319288D01*
X576748Y319322D01*
X576718Y319323D01*
X576690Y319330D01*
X576577Y319326D01*
X576464Y319329D01*
X576435Y319322D01*
X576406Y319321D01*
X576298Y319286D01*
X576189Y319257D01*
X576163Y319242D01*
X576135Y319233D01*
X576072Y319188D01*
X575944Y319112D01*
X575901Y319066D01*
X575862Y319038D01*
X574666Y317842D01*
X572612Y316991D01*
X570388Y316991D01*
X568334Y317842D01*
X566762Y319414D01*
X565911Y321468D01*
X565911Y323692D01*
X566762Y325746D01*
X568334Y327318D01*
X570388Y328169D01*
X572612Y328169D01*
X574666Y327318D01*
X575862Y326122D01*
X575886Y326104D01*
X575905Y326082D01*
X575999Y326019D01*
X576089Y325951D01*
X576117Y325940D01*
X576141Y325924D01*
X576249Y325890D01*
X576355Y325849D01*
X576384Y325847D01*
X576412Y325838D01*
X576526Y325835D01*
X576638Y325826D01*
X576667Y325832D01*
X576696Y325831D01*
X576806Y325859D01*
X576917Y325882D01*
X576943Y325895D01*
X576971Y325903D01*
X577069Y325961D01*
X577169Y326013D01*
X577191Y326033D01*
X577216Y326048D01*
X577293Y326130D01*
X577375Y326209D01*
X577390Y326234D01*
X577410Y326255D01*
X577462Y326356D01*
X577519Y326454D01*
X577526Y326482D01*
X577540Y326508D01*
X577553Y326586D01*
X577589Y326729D01*
X577587Y326792D01*
X577595Y326839D01*
X577595Y366581D01*
X577591Y366610D01*
X577594Y366639D01*
X577571Y366750D01*
X577555Y366862D01*
X577543Y366889D01*
X577538Y366918D01*
X577486Y367018D01*
X577439Y367121D01*
X577420Y367144D01*
X577407Y367170D01*
X577329Y367252D01*
X577256Y367338D01*
X577231Y367355D01*
X577211Y367376D01*
X577113Y367433D01*
X577019Y367496D01*
X576991Y367505D01*
X576966Y367520D01*
X576856Y367548D01*
X576748Y367582D01*
X576718Y367583D01*
X576690Y367590D01*
X576577Y367586D01*
X576464Y367589D01*
X576435Y367582D01*
X576406Y367581D01*
X576298Y367546D01*
X576189Y367517D01*
X576163Y367502D01*
X576135Y367493D01*
X576072Y367448D01*
X575944Y367372D01*
X575901Y367326D01*
X575862Y367298D01*
X574666Y366102D01*
X572612Y365251D01*
X570388Y365251D01*
X568334Y366102D01*
X566762Y367674D01*
X565911Y369728D01*
X565911Y371952D01*
X566762Y374006D01*
X568260Y375504D01*
X568278Y375528D01*
X568301Y375547D01*
X568363Y375641D01*
X568431Y375731D01*
X568442Y375759D01*
X568458Y375783D01*
X568492Y375891D01*
X568533Y375997D01*
X568535Y376026D01*
X568544Y376054D01*
X568547Y376168D01*
X568556Y376280D01*
X568550Y376309D01*
X568551Y376338D01*
X568523Y376448D01*
X568500Y376559D01*
X568487Y376585D01*
X568479Y376613D01*
X568422Y376711D01*
X568369Y376811D01*
X568349Y376833D01*
X568334Y376858D01*
X568252Y376935D01*
X568174Y377017D01*
X568148Y377032D01*
X568127Y377052D01*
X568026Y377104D01*
X567928Y377161D01*
X567900Y377168D01*
X567874Y377182D01*
X567796Y377195D01*
X567653Y377231D01*
X567590Y377229D01*
X567543Y377237D01*
X509417Y377237D01*
X509388Y377233D01*
X509359Y377236D01*
X509248Y377213D01*
X509136Y377197D01*
X509109Y377185D01*
X509080Y377180D01*
X508980Y377127D01*
X508876Y377081D01*
X508854Y377062D01*
X508828Y377049D01*
X508746Y376971D01*
X508659Y376898D01*
X508643Y376873D01*
X508622Y376853D01*
X508565Y376755D01*
X508502Y376661D01*
X508493Y376633D01*
X508478Y376608D01*
X508450Y376498D01*
X508416Y376390D01*
X508415Y376360D01*
X508408Y376332D01*
X508412Y376219D01*
X508409Y376106D01*
X508416Y376077D01*
X508417Y376048D01*
X508452Y375940D01*
X508481Y375831D01*
X508496Y375805D01*
X508505Y375777D01*
X508550Y375713D01*
X508626Y375586D01*
X508672Y375543D01*
X508700Y375504D01*
X510198Y374006D01*
X511049Y371952D01*
X511049Y369728D01*
X510198Y367674D01*
X508626Y366102D01*
X507795Y365758D01*
X507721Y365714D01*
X507642Y365679D01*
X507599Y365642D01*
X507550Y365613D01*
X507491Y365551D01*
X507425Y365495D01*
X507394Y365448D01*
X507355Y365407D01*
X507316Y365330D01*
X507268Y365259D01*
X507251Y365205D01*
X507225Y365154D01*
X507208Y365070D01*
X507182Y364988D01*
X507181Y364931D01*
X507170Y364875D01*
X507177Y364790D01*
X507175Y364704D01*
X507189Y364648D01*
X507194Y364592D01*
X507225Y364512D01*
X507247Y364429D01*
X507276Y364380D01*
X507296Y364327D01*
X507348Y364258D01*
X507392Y364184D01*
X507433Y364145D01*
X507468Y364100D01*
X507537Y364048D01*
X507599Y363990D01*
X507650Y363964D01*
X507695Y363930D01*
X507776Y363899D01*
X507852Y363860D01*
X507901Y363852D01*
X507961Y363829D01*
X508106Y363818D01*
X508183Y363805D01*
X509263Y363805D01*
X596191Y276876D01*
X596261Y276824D01*
X596325Y276764D01*
X596375Y276738D01*
X596419Y276705D01*
X596500Y276674D01*
X596578Y276634D01*
X596626Y276626D01*
X596684Y276604D01*
X596832Y276592D01*
X596909Y276579D01*
X726527Y276579D01*
X726556Y276583D01*
X726585Y276580D01*
X726696Y276603D01*
X726808Y276619D01*
X726835Y276631D01*
X726864Y276636D01*
X726964Y276689D01*
X727068Y276735D01*
X727090Y276754D01*
X727116Y276767D01*
X727198Y276845D01*
X727285Y276918D01*
X727301Y276943D01*
X727322Y276963D01*
X727379Y277061D01*
X727442Y277155D01*
X727451Y277183D01*
X727466Y277208D01*
X727494Y277318D01*
X727528Y277426D01*
X727529Y277456D01*
X727536Y277484D01*
X727532Y277597D01*
X727535Y277710D01*
X727528Y277739D01*
X727527Y277768D01*
X727492Y277876D01*
X727463Y277985D01*
X727448Y278011D01*
X727439Y278039D01*
X727394Y278103D01*
X727318Y278230D01*
X727272Y278273D01*
X727244Y278312D01*
X726782Y278774D01*
X725931Y280828D01*
X725931Y283052D01*
X726782Y285106D01*
X728354Y286678D01*
X730408Y287529D01*
X732632Y287529D01*
X734686Y286678D01*
X736258Y285106D01*
X737109Y283052D01*
X737109Y280828D01*
X736258Y278774D01*
X735796Y278312D01*
X735778Y278288D01*
X735755Y278269D01*
X735693Y278175D01*
X735625Y278085D01*
X735614Y278057D01*
X735598Y278033D01*
X735564Y277925D01*
X735523Y277819D01*
X735521Y277790D01*
X735512Y277762D01*
X735509Y277648D01*
X735500Y277536D01*
X735506Y277507D01*
X735505Y277478D01*
X735533Y277368D01*
X735556Y277257D01*
X735569Y277231D01*
X735577Y277203D01*
X735634Y277105D01*
X735687Y277005D01*
X735707Y276983D01*
X735722Y276958D01*
X735805Y276881D01*
X735882Y276799D01*
X735908Y276784D01*
X735929Y276764D01*
X736030Y276712D01*
X736128Y276655D01*
X736156Y276648D01*
X736182Y276634D01*
X736260Y276621D01*
X736403Y276585D01*
X736466Y276587D01*
X736513Y276579D01*
X947507Y276579D01*
X947536Y276583D01*
X947565Y276580D01*
X947676Y276603D01*
X947788Y276619D01*
X947815Y276631D01*
X947844Y276636D01*
X947944Y276689D01*
X948048Y276735D01*
X948070Y276754D01*
X948096Y276767D01*
X948178Y276845D01*
X948265Y276918D01*
X948281Y276943D01*
X948302Y276963D01*
X948359Y277061D01*
X948422Y277155D01*
X948431Y277183D01*
X948446Y277208D01*
X948474Y277318D01*
X948508Y277426D01*
X948509Y277456D01*
X948516Y277484D01*
X948512Y277597D01*
X948515Y277710D01*
X948508Y277739D01*
X948507Y277768D01*
X948472Y277876D01*
X948443Y277985D01*
X948428Y278011D01*
X948419Y278039D01*
X948374Y278103D01*
X948298Y278230D01*
X948252Y278273D01*
X948224Y278312D01*
X947762Y278774D01*
X946911Y280828D01*
X946911Y283052D01*
X947762Y285106D01*
X949334Y286678D01*
X951388Y287529D01*
X953612Y287529D01*
X955666Y286678D01*
X957238Y285106D01*
X958089Y283052D01*
X958089Y280828D01*
X957238Y278774D01*
X956776Y278312D01*
X956758Y278288D01*
X956735Y278269D01*
X956673Y278175D01*
X956605Y278085D01*
X956594Y278057D01*
X956578Y278033D01*
X956544Y277925D01*
X956503Y277819D01*
X956501Y277790D01*
X956492Y277762D01*
X956489Y277648D01*
X956480Y277536D01*
X956486Y277507D01*
X956485Y277478D01*
X956513Y277368D01*
X956536Y277257D01*
X956549Y277231D01*
X956557Y277203D01*
X956614Y277105D01*
X956667Y277005D01*
X956687Y276983D01*
X956702Y276958D01*
X956785Y276881D01*
X956862Y276799D01*
X956888Y276784D01*
X956909Y276764D01*
X957010Y276712D01*
X957108Y276655D01*
X957136Y276648D01*
X957162Y276634D01*
X957240Y276621D01*
X957383Y276585D01*
X957446Y276587D01*
X957493Y276579D01*
X1120227Y276579D01*
X1120256Y276583D01*
X1120285Y276580D01*
X1120396Y276603D01*
X1120508Y276619D01*
X1120535Y276631D01*
X1120564Y276636D01*
X1120664Y276689D01*
X1120768Y276735D01*
X1120790Y276754D01*
X1120816Y276767D01*
X1120898Y276845D01*
X1120985Y276918D01*
X1121001Y276943D01*
X1121022Y276963D01*
X1121079Y277061D01*
X1121142Y277155D01*
X1121151Y277183D01*
X1121166Y277208D01*
X1121194Y277318D01*
X1121228Y277426D01*
X1121229Y277456D01*
X1121236Y277484D01*
X1121232Y277597D01*
X1121235Y277710D01*
X1121228Y277739D01*
X1121227Y277768D01*
X1121192Y277876D01*
X1121163Y277985D01*
X1121148Y278011D01*
X1121139Y278039D01*
X1121094Y278103D01*
X1121018Y278230D01*
X1120972Y278273D01*
X1120944Y278312D01*
X1120482Y278774D01*
X1119631Y280828D01*
X1119631Y283052D01*
X1120482Y285106D01*
X1122054Y286678D01*
X1124108Y287529D01*
X1126332Y287529D01*
X1128386Y286678D01*
X1129958Y285106D01*
X1130809Y283052D01*
X1130809Y280828D01*
X1129958Y278774D01*
X1129496Y278312D01*
X1129478Y278288D01*
X1129455Y278269D01*
X1129393Y278175D01*
X1129325Y278085D01*
X1129314Y278057D01*
X1129298Y278033D01*
X1129264Y277925D01*
X1129223Y277819D01*
X1129221Y277790D01*
X1129212Y277762D01*
X1129209Y277648D01*
X1129200Y277536D01*
X1129206Y277507D01*
X1129205Y277478D01*
X1129233Y277368D01*
X1129256Y277257D01*
X1129269Y277231D01*
X1129277Y277203D01*
X1129334Y277105D01*
X1129387Y277005D01*
X1129407Y276983D01*
X1129422Y276958D01*
X1129505Y276881D01*
X1129582Y276799D01*
X1129608Y276784D01*
X1129629Y276764D01*
X1129730Y276712D01*
X1129828Y276655D01*
X1129856Y276648D01*
X1129882Y276634D01*
X1129960Y276621D01*
X1130103Y276585D01*
X1130166Y276587D01*
X1130213Y276579D01*
X1148147Y276579D01*
X1148233Y276591D01*
X1148321Y276594D01*
X1148373Y276611D01*
X1148428Y276619D01*
X1148508Y276654D01*
X1148591Y276681D01*
X1148630Y276709D01*
X1148688Y276735D01*
X1148801Y276831D01*
X1148865Y276876D01*
X1151897Y279909D01*
X1160585Y279909D01*
X1160671Y279921D01*
X1160759Y279924D01*
X1160811Y279941D01*
X1160866Y279949D01*
X1160946Y279984D01*
X1161029Y280011D01*
X1161068Y280039D01*
X1161125Y280065D01*
X1161239Y280161D01*
X1161302Y280206D01*
X1162694Y281598D01*
X1164748Y282449D01*
X1166972Y282449D01*
X1169026Y281598D01*
X1170598Y280026D01*
X1171449Y277972D01*
X1171449Y275748D01*
X1170598Y273694D01*
X1169026Y272122D01*
X1166972Y271271D01*
X1164844Y271271D01*
X1164786Y271263D01*
X1164728Y271265D01*
X1164646Y271243D01*
X1164562Y271231D01*
X1164509Y271208D01*
X1164453Y271193D01*
X1164380Y271150D01*
X1164303Y271115D01*
X1164258Y271077D01*
X1164208Y271048D01*
X1164150Y270986D01*
X1164086Y270932D01*
X1164054Y270883D01*
X1164014Y270840D01*
X1163975Y270765D01*
X1163928Y270695D01*
X1163911Y270639D01*
X1163884Y270587D01*
X1163873Y270519D01*
X1163843Y270424D01*
X1163840Y270324D01*
X1163829Y270256D01*
X1163829Y268128D01*
X1162978Y266074D01*
X1161406Y264502D01*
X1159352Y263651D01*
X1157128Y263651D01*
X1155074Y264502D01*
X1153682Y265894D01*
X1153613Y265946D01*
X1153549Y266006D01*
X1153499Y266032D01*
X1153455Y266065D01*
X1153374Y266096D01*
X1153296Y266136D01*
X1153248Y266144D01*
X1153190Y266166D01*
X1153042Y266178D01*
X1152965Y266191D01*
X876895Y266191D01*
X876781Y266175D01*
X876667Y266165D01*
X876641Y266155D01*
X876614Y266151D01*
X876509Y266104D01*
X876402Y266063D01*
X876380Y266047D01*
X876354Y266035D01*
X876267Y265961D01*
X876175Y265892D01*
X876158Y265869D01*
X876137Y265852D01*
X876074Y265756D01*
X876005Y265664D01*
X875995Y265638D01*
X875980Y265615D01*
X875945Y265505D01*
X875904Y265398D01*
X875902Y265370D01*
X875894Y265344D01*
X875891Y265229D01*
X875882Y265115D01*
X875887Y265090D01*
X875887Y265060D01*
X875954Y264803D01*
X875957Y264787D01*
X876809Y262732D01*
X876809Y260763D01*
X876821Y260677D01*
X876824Y260589D01*
X876841Y260537D01*
X876849Y260482D01*
X876884Y260402D01*
X876911Y260319D01*
X876939Y260280D01*
X876965Y260222D01*
X877061Y260109D01*
X877106Y260045D01*
X878789Y258362D01*
X878859Y258310D01*
X878923Y258250D01*
X878973Y258224D01*
X879017Y258191D01*
X879098Y258160D01*
X879176Y258120D01*
X879224Y258112D01*
X879282Y258090D01*
X879430Y258078D01*
X879507Y258065D01*
X882432Y258065D01*
X882519Y258077D01*
X882606Y258080D01*
X882659Y258097D01*
X882714Y258105D01*
X882793Y258140D01*
X882877Y258167D01*
X882916Y258195D01*
X882973Y258221D01*
X883086Y258317D01*
X883150Y258362D01*
X887933Y263145D01*
X1090574Y263145D01*
X1093582Y260137D01*
X1093652Y260084D01*
X1093716Y260024D01*
X1093765Y259999D01*
X1093810Y259966D01*
X1093891Y259935D01*
X1093969Y259895D01*
X1094017Y259887D01*
X1094075Y259864D01*
X1094223Y259852D01*
X1094300Y259839D01*
X1095601Y259839D01*
X1097655Y258988D01*
X1099227Y257416D01*
X1100078Y255362D01*
X1100078Y253139D01*
X1099227Y251085D01*
X1097655Y249513D01*
X1097592Y249486D01*
X1097493Y249428D01*
X1097391Y249375D01*
X1097371Y249356D01*
X1097347Y249342D01*
X1097268Y249258D01*
X1097185Y249179D01*
X1097171Y249155D01*
X1097152Y249135D01*
X1097100Y249033D01*
X1097041Y248934D01*
X1097035Y248907D01*
X1097022Y248883D01*
X1097000Y248770D01*
X1096971Y248659D01*
X1096972Y248631D01*
X1096967Y248604D01*
X1096977Y248489D01*
X1096980Y248374D01*
X1096989Y248348D01*
X1096991Y248320D01*
X1097033Y248213D01*
X1097068Y248104D01*
X1097082Y248084D01*
X1097093Y248055D01*
X1097254Y247842D01*
X1097263Y247831D01*
X1097297Y247796D01*
X1098148Y245742D01*
X1098148Y243518D01*
X1097297Y241464D01*
X1095725Y239892D01*
X1093671Y239041D01*
X1091703Y239041D01*
X1091616Y239029D01*
X1091529Y239026D01*
X1091476Y239009D01*
X1091421Y239001D01*
X1091342Y238966D01*
X1091258Y238939D01*
X1091219Y238911D01*
X1091162Y238885D01*
X1091049Y238789D01*
X1090985Y238744D01*
X1090703Y238462D01*
X1090685Y238438D01*
X1090663Y238419D01*
X1090600Y238325D01*
X1090532Y238235D01*
X1090522Y238207D01*
X1090505Y238183D01*
X1090471Y238075D01*
X1090431Y237969D01*
X1090429Y237940D01*
X1090420Y237912D01*
X1090417Y237799D01*
X1090407Y237686D01*
X1090413Y237657D01*
X1090412Y237628D01*
X1090441Y237518D01*
X1090463Y237407D01*
X1090477Y237381D01*
X1090484Y237353D01*
X1090542Y237255D01*
X1090594Y237155D01*
X1090614Y237133D01*
X1090629Y237108D01*
X1090712Y237031D01*
X1090790Y236949D01*
X1090815Y236934D01*
X1090837Y236914D01*
X1090937Y236862D01*
X1091035Y236805D01*
X1091064Y236798D01*
X1091090Y236784D01*
X1091167Y236771D01*
X1091311Y236735D01*
X1091373Y236737D01*
X1091421Y236729D01*
X1151477Y236729D01*
X1151563Y236741D01*
X1151651Y236744D01*
X1151703Y236761D01*
X1151758Y236769D01*
X1151838Y236804D01*
X1151921Y236831D01*
X1151960Y236859D01*
X1152018Y236885D01*
X1152131Y236981D01*
X1152195Y237026D01*
X1189515Y274346D01*
X1189550Y274393D01*
X1189592Y274433D01*
X1189635Y274506D01*
X1189685Y274573D01*
X1189706Y274628D01*
X1189736Y274678D01*
X1189757Y274760D01*
X1189787Y274839D01*
X1189791Y274897D01*
X1189806Y274954D01*
X1189803Y275038D01*
X1189810Y275122D01*
X1189799Y275180D01*
X1189797Y275238D01*
X1189771Y275318D01*
X1189754Y275401D01*
X1189727Y275453D01*
X1189709Y275509D01*
X1189669Y275565D01*
X1189623Y275653D01*
X1189555Y275726D01*
X1189515Y275782D01*
X1189062Y276234D01*
X1188211Y278288D01*
X1188211Y280512D01*
X1189062Y282566D01*
X1190634Y284138D01*
X1192688Y284989D01*
X1194912Y284989D01*
X1196966Y284138D01*
X1198538Y282566D01*
X1199212Y280938D01*
X1199227Y280913D01*
X1199236Y280885D01*
X1199299Y280791D01*
X1199357Y280693D01*
X1199378Y280673D01*
X1199394Y280649D01*
X1199481Y280576D01*
X1199563Y280498D01*
X1199589Y280485D01*
X1199612Y280466D01*
X1199715Y280420D01*
X1199816Y280368D01*
X1199845Y280362D01*
X1199872Y280350D01*
X1199984Y280335D01*
X1200095Y280313D01*
X1200124Y280316D01*
X1200153Y280312D01*
X1200265Y280328D01*
X1200378Y280337D01*
X1200405Y280348D01*
X1200434Y280352D01*
X1200538Y280399D01*
X1200643Y280439D01*
X1200667Y280457D01*
X1200694Y280469D01*
X1200780Y280543D01*
X1200870Y280611D01*
X1200888Y280635D01*
X1200910Y280654D01*
X1200952Y280720D01*
X1201040Y280839D01*
X1201062Y280897D01*
X1201088Y280938D01*
X1201762Y282566D01*
X1203334Y284138D01*
X1205388Y284989D01*
X1207612Y284989D01*
X1209666Y284138D01*
X1211238Y282566D01*
X1212089Y280512D01*
X1212089Y278288D01*
X1211238Y276234D01*
X1209666Y274662D01*
X1207612Y273811D01*
X1205643Y273811D01*
X1205557Y273799D01*
X1205469Y273796D01*
X1205417Y273779D01*
X1205362Y273771D01*
X1205282Y273736D01*
X1205199Y273709D01*
X1205160Y273681D01*
X1205102Y273655D01*
X1204989Y273559D01*
X1204925Y273514D01*
X1161745Y230334D01*
X1161728Y230310D01*
X1161705Y230291D01*
X1161643Y230197D01*
X1161575Y230107D01*
X1161564Y230079D01*
X1161548Y230055D01*
X1161514Y229947D01*
X1161473Y229841D01*
X1161471Y229812D01*
X1161462Y229784D01*
X1161459Y229670D01*
X1161450Y229558D01*
X1161455Y229529D01*
X1161455Y229500D01*
X1161483Y229390D01*
X1161506Y229279D01*
X1161519Y229253D01*
X1161527Y229225D01*
X1161584Y229127D01*
X1161637Y229027D01*
X1161657Y229005D01*
X1161672Y228980D01*
X1161754Y228903D01*
X1161832Y228821D01*
X1161858Y228806D01*
X1161879Y228786D01*
X1161980Y228734D01*
X1162078Y228677D01*
X1162106Y228670D01*
X1162132Y228656D01*
X1162210Y228643D01*
X1162353Y228607D01*
X1162416Y228609D01*
X1162463Y228601D01*
X1189069Y228601D01*
X1189155Y228613D01*
X1189243Y228616D01*
X1189295Y228633D01*
X1189350Y228641D01*
X1189430Y228676D01*
X1189513Y228703D01*
X1189552Y228731D01*
X1189610Y228757D01*
X1189723Y228853D01*
X1189787Y228898D01*
X1200614Y239725D01*
X1200666Y239795D01*
X1200726Y239859D01*
X1200752Y239909D01*
X1200785Y239953D01*
X1200816Y240034D01*
X1200856Y240112D01*
X1200864Y240160D01*
X1200886Y240218D01*
X1200898Y240366D01*
X1200911Y240443D01*
X1200911Y242412D01*
X1201762Y244466D01*
X1203334Y246038D01*
X1205388Y246889D01*
X1207612Y246889D01*
X1209666Y246038D01*
X1211238Y244466D01*
X1212089Y242412D01*
X1212089Y240188D01*
X1211238Y238134D01*
X1209666Y236562D01*
X1207612Y235711D01*
X1205643Y235711D01*
X1205557Y235699D01*
X1205469Y235696D01*
X1205417Y235679D01*
X1205362Y235671D01*
X1205282Y235636D01*
X1205199Y235609D01*
X1205160Y235581D01*
X1205102Y235555D01*
X1204989Y235459D01*
X1204925Y235414D01*
X1194098Y224587D01*
X1194098Y224586D01*
X1192813Y223302D01*
X1192778Y223255D01*
X1192736Y223215D01*
X1192693Y223142D01*
X1192642Y223074D01*
X1192621Y223020D01*
X1192592Y222969D01*
X1192571Y222888D01*
X1192541Y222809D01*
X1192536Y222750D01*
X1192522Y222694D01*
X1192524Y222610D01*
X1192517Y222525D01*
X1192529Y222468D01*
X1192531Y222410D01*
X1192557Y222329D01*
X1192573Y222247D01*
X1192600Y222195D01*
X1192618Y222139D01*
X1192658Y222083D01*
X1192704Y221994D01*
X1192773Y221922D01*
X1192813Y221866D01*
X1192893Y221786D01*
X1192963Y221734D01*
X1193027Y221674D01*
X1193076Y221648D01*
X1193120Y221615D01*
X1193202Y221584D01*
X1193280Y221544D01*
X1193327Y221536D01*
X1193386Y221514D01*
X1193533Y221502D01*
X1193611Y221489D01*
X1201225Y221489D01*
X1201311Y221501D01*
X1201399Y221504D01*
X1201451Y221521D01*
X1201506Y221529D01*
X1201586Y221564D01*
X1201669Y221591D01*
X1201708Y221619D01*
X1201765Y221645D01*
X1201879Y221741D01*
X1201942Y221786D01*
X1203334Y223178D01*
X1205388Y224029D01*
X1207612Y224029D01*
X1209666Y223178D01*
X1211238Y221606D01*
X1212089Y219552D01*
X1212089Y217328D01*
X1211238Y215274D01*
X1209666Y213702D01*
X1207612Y212851D01*
X1205388Y212851D01*
X1203334Y213702D01*
X1201942Y215094D01*
X1201873Y215146D01*
X1201809Y215206D01*
X1201759Y215232D01*
X1201715Y215265D01*
X1201633Y215296D01*
X1201556Y215336D01*
X1201508Y215344D01*
X1201450Y215366D01*
X1201302Y215378D01*
X1201225Y215391D01*
X1195991Y215391D01*
X1195962Y215387D01*
X1195933Y215390D01*
X1195822Y215367D01*
X1195710Y215351D01*
X1195683Y215339D01*
X1195654Y215334D01*
X1195554Y215282D01*
X1195450Y215235D01*
X1195428Y215216D01*
X1195402Y215203D01*
X1195320Y215125D01*
X1195233Y215052D01*
X1195217Y215027D01*
X1195196Y215007D01*
X1195139Y214909D01*
X1195076Y214815D01*
X1195067Y214787D01*
X1195052Y214762D01*
X1195024Y214652D01*
X1194990Y214544D01*
X1194989Y214514D01*
X1194982Y214486D01*
X1194986Y214373D01*
X1194983Y214260D01*
X1194990Y214231D01*
X1194991Y214202D01*
X1195026Y214094D01*
X1195055Y213985D01*
X1195070Y213959D01*
X1195079Y213931D01*
X1195124Y213868D01*
X1195200Y213740D01*
X1195245Y213697D01*
X1195273Y213658D01*
X1201446Y207485D01*
X1201493Y207450D01*
X1201533Y207408D01*
X1201606Y207365D01*
X1201673Y207315D01*
X1201728Y207294D01*
X1201778Y207264D01*
X1201860Y207243D01*
X1201939Y207213D01*
X1201997Y207209D01*
X1202054Y207194D01*
X1202138Y207197D01*
X1202222Y207190D01*
X1202280Y207201D01*
X1202338Y207203D01*
X1202418Y207229D01*
X1202501Y207246D01*
X1202553Y207273D01*
X1202609Y207291D01*
X1202665Y207331D01*
X1202753Y207377D01*
X1202826Y207445D01*
X1202882Y207485D01*
X1203334Y207938D01*
X1205388Y208789D01*
X1207612Y208789D01*
X1209666Y207938D01*
X1211238Y206366D01*
X1212089Y204312D01*
X1212089Y202088D01*
X1211238Y200034D01*
X1209666Y198462D01*
X1207612Y197611D01*
X1205388Y197611D01*
X1203334Y198462D01*
X1201942Y199854D01*
X1201873Y199906D01*
X1201809Y199966D01*
X1201759Y199992D01*
X1201715Y200025D01*
X1201634Y200056D01*
X1201556Y200096D01*
X1201508Y200104D01*
X1201450Y200126D01*
X1201302Y200138D01*
X1201225Y200151D01*
X1200157Y200151D01*
X1186231Y214078D01*
X1186161Y214130D01*
X1186097Y214190D01*
X1186047Y214216D01*
X1186003Y214249D01*
X1185922Y214280D01*
X1185844Y214320D01*
X1185796Y214328D01*
X1185738Y214350D01*
X1185590Y214362D01*
X1185513Y214375D01*
X1078679Y214375D01*
X1078650Y214371D01*
X1078621Y214374D01*
X1078510Y214351D01*
X1078398Y214335D01*
X1078371Y214323D01*
X1078342Y214318D01*
X1078242Y214265D01*
X1078138Y214219D01*
X1078116Y214200D01*
X1078090Y214187D01*
X1078008Y214109D01*
X1077921Y214036D01*
X1077905Y214011D01*
X1077884Y213991D01*
X1077827Y213893D01*
X1077764Y213799D01*
X1077755Y213771D01*
X1077740Y213746D01*
X1077712Y213636D01*
X1077678Y213528D01*
X1077677Y213498D01*
X1077670Y213470D01*
X1077674Y213357D01*
X1077671Y213244D01*
X1077678Y213215D01*
X1077679Y213186D01*
X1077714Y213078D01*
X1077743Y212969D01*
X1077758Y212943D01*
X1077767Y212915D01*
X1077812Y212851D01*
X1077888Y212724D01*
X1077934Y212681D01*
X1077962Y212642D01*
X1079158Y211446D01*
X1080009Y209392D01*
X1080009Y207168D01*
X1079158Y205114D01*
X1077586Y203542D01*
X1075532Y202691D01*
X1073308Y202691D01*
X1071254Y203542D01*
X1069682Y205114D01*
X1068831Y207168D01*
X1068831Y209392D01*
X1069682Y211446D01*
X1070878Y212642D01*
X1070896Y212666D01*
X1070919Y212685D01*
X1070981Y212779D01*
X1071049Y212869D01*
X1071060Y212897D01*
X1071076Y212921D01*
X1071110Y213029D01*
X1071151Y213135D01*
X1071153Y213164D01*
X1071162Y213192D01*
X1071165Y213306D01*
X1071174Y213418D01*
X1071168Y213447D01*
X1071169Y213476D01*
X1071141Y213586D01*
X1071118Y213697D01*
X1071105Y213723D01*
X1071097Y213751D01*
X1071040Y213849D01*
X1070987Y213949D01*
X1070967Y213971D01*
X1070952Y213996D01*
X1070870Y214073D01*
X1070792Y214155D01*
X1070766Y214170D01*
X1070745Y214190D01*
X1070644Y214242D01*
X1070546Y214299D01*
X1070518Y214306D01*
X1070492Y214320D01*
X1070414Y214333D01*
X1070271Y214369D01*
X1070208Y214367D01*
X1070161Y214375D01*
X1044607Y214375D01*
X1044578Y214371D01*
X1044549Y214374D01*
X1044438Y214351D01*
X1044326Y214335D01*
X1044299Y214323D01*
X1044270Y214318D01*
X1044170Y214266D01*
X1044066Y214219D01*
X1044044Y214200D01*
X1044018Y214187D01*
X1043936Y214109D01*
X1043849Y214036D01*
X1043833Y214011D01*
X1043812Y213991D01*
X1043755Y213893D01*
X1043692Y213799D01*
X1043683Y213771D01*
X1043668Y213746D01*
X1043640Y213636D01*
X1043606Y213528D01*
X1043605Y213498D01*
X1043598Y213470D01*
X1043602Y213357D01*
X1043599Y213244D01*
X1043606Y213215D01*
X1043607Y213186D01*
X1043642Y213078D01*
X1043671Y212969D01*
X1043686Y212943D01*
X1043695Y212915D01*
X1043740Y212852D01*
X1043816Y212724D01*
X1043861Y212681D01*
X1043889Y212642D01*
X1062685Y193846D01*
X1062755Y193794D01*
X1062819Y193734D01*
X1062869Y193708D01*
X1062913Y193675D01*
X1062994Y193644D01*
X1063072Y193604D01*
X1063120Y193596D01*
X1063178Y193574D01*
X1063326Y193562D01*
X1063403Y193549D01*
X1069145Y193549D01*
X1069231Y193561D01*
X1069319Y193564D01*
X1069371Y193581D01*
X1069426Y193589D01*
X1069506Y193624D01*
X1069589Y193651D01*
X1069628Y193679D01*
X1069685Y193705D01*
X1069799Y193801D01*
X1069862Y193846D01*
X1071254Y195238D01*
X1073308Y196089D01*
X1075532Y196089D01*
X1077586Y195238D01*
X1079158Y193666D01*
X1080009Y191612D01*
X1080009Y189388D01*
X1079158Y187334D01*
X1077586Y185762D01*
X1075958Y185088D01*
X1075933Y185073D01*
X1075905Y185064D01*
X1075811Y185001D01*
X1075713Y184943D01*
X1075693Y184922D01*
X1075669Y184906D01*
X1075596Y184819D01*
X1075518Y184737D01*
X1075505Y184711D01*
X1075486Y184688D01*
X1075440Y184585D01*
X1075388Y184484D01*
X1075382Y184455D01*
X1075370Y184428D01*
X1075355Y184316D01*
X1075333Y184205D01*
X1075336Y184176D01*
X1075332Y184147D01*
X1075348Y184035D01*
X1075357Y183922D01*
X1075368Y183895D01*
X1075372Y183865D01*
X1075419Y183762D01*
X1075460Y183657D01*
X1075477Y183633D01*
X1075489Y183606D01*
X1075563Y183520D01*
X1075631Y183430D01*
X1075655Y183412D01*
X1075674Y183390D01*
X1075740Y183348D01*
X1075859Y183260D01*
X1075917Y183238D01*
X1075958Y183212D01*
X1077586Y182538D01*
X1079158Y180966D01*
X1080009Y178912D01*
X1080009Y176688D01*
X1079158Y174634D01*
X1079116Y174592D01*
X1079064Y174523D01*
X1079005Y174461D01*
X1078979Y174410D01*
X1078945Y174365D01*
X1078914Y174285D01*
X1078875Y174208D01*
X1078864Y174152D01*
X1078844Y174099D01*
X1078836Y174014D01*
X1078820Y173929D01*
X1078825Y173873D01*
X1078820Y173816D01*
X1078837Y173732D01*
X1078844Y173646D01*
X1078865Y173593D01*
X1078876Y173537D01*
X1078915Y173461D01*
X1078946Y173381D01*
X1078981Y173335D01*
X1079007Y173285D01*
X1079066Y173223D01*
X1079118Y173154D01*
X1079163Y173120D01*
X1079203Y173079D01*
X1079277Y173035D01*
X1079346Y172984D01*
X1079399Y172964D01*
X1079448Y172935D01*
X1079531Y172914D01*
X1079612Y172883D01*
X1079668Y172879D01*
X1079723Y172865D01*
X1079809Y172868D01*
X1079895Y172861D01*
X1079943Y172872D01*
X1080008Y172874D01*
X1080146Y172919D01*
X1080222Y172936D01*
X1080928Y173229D01*
X1083152Y173229D01*
X1085206Y172378D01*
X1086778Y170806D01*
X1087629Y168752D01*
X1087629Y166528D01*
X1086778Y164474D01*
X1085206Y162902D01*
X1083152Y162051D01*
X1080928Y162051D01*
X1078874Y162902D01*
X1077482Y164294D01*
X1077413Y164346D01*
X1077349Y164406D01*
X1077299Y164432D01*
X1077255Y164465D01*
X1077174Y164496D01*
X1077096Y164536D01*
X1077048Y164544D01*
X1076990Y164566D01*
X1076842Y164578D01*
X1076765Y164591D01*
X1071125Y164591D01*
X1033831Y201886D01*
X1033761Y201938D01*
X1033697Y201998D01*
X1033647Y202024D01*
X1033603Y202057D01*
X1033522Y202088D01*
X1033444Y202128D01*
X1033396Y202136D01*
X1033338Y202158D01*
X1033190Y202170D01*
X1033113Y202183D01*
X1018699Y202183D01*
X1018670Y202179D01*
X1018641Y202182D01*
X1018530Y202159D01*
X1018418Y202143D01*
X1018391Y202131D01*
X1018362Y202126D01*
X1018262Y202074D01*
X1018158Y202027D01*
X1018136Y202008D01*
X1018110Y201995D01*
X1018028Y201917D01*
X1017941Y201844D01*
X1017925Y201819D01*
X1017904Y201799D01*
X1017847Y201701D01*
X1017784Y201607D01*
X1017775Y201579D01*
X1017760Y201554D01*
X1017732Y201444D01*
X1017698Y201336D01*
X1017697Y201306D01*
X1017690Y201278D01*
X1017694Y201165D01*
X1017691Y201052D01*
X1017698Y201023D01*
X1017699Y200994D01*
X1017734Y200886D01*
X1017763Y200777D01*
X1017778Y200751D01*
X1017787Y200723D01*
X1017832Y200660D01*
X1017908Y200532D01*
X1017953Y200489D01*
X1017981Y200450D01*
X1024919Y193512D01*
X1025011Y193443D01*
X1025100Y193369D01*
X1025125Y193358D01*
X1025146Y193341D01*
X1025254Y193300D01*
X1025360Y193254D01*
X1025387Y193250D01*
X1025412Y193240D01*
X1025527Y193231D01*
X1025641Y193215D01*
X1025668Y193219D01*
X1025695Y193217D01*
X1025808Y193239D01*
X1025923Y193256D01*
X1025947Y193267D01*
X1025974Y193273D01*
X1026073Y193324D01*
X1026086Y193328D01*
X1026093Y193333D01*
X1026182Y193373D01*
X1026202Y193391D01*
X1026226Y193404D01*
X1026310Y193483D01*
X1026344Y193512D01*
X1026359Y193523D01*
X1026374Y193537D01*
X1026398Y193558D01*
X1026404Y193567D01*
X1028074Y195238D01*
X1030128Y196089D01*
X1032352Y196089D01*
X1034406Y195238D01*
X1035978Y193666D01*
X1036829Y191612D01*
X1036829Y189388D01*
X1035978Y187334D01*
X1034406Y185762D01*
X1032352Y184911D01*
X1030128Y184911D01*
X1028073Y185763D01*
X1027961Y185791D01*
X1027852Y185826D01*
X1027824Y185827D01*
X1027797Y185834D01*
X1027683Y185830D01*
X1027568Y185833D01*
X1027541Y185826D01*
X1027513Y185826D01*
X1027404Y185791D01*
X1027293Y185762D01*
X1027269Y185747D01*
X1027242Y185739D01*
X1027147Y185675D01*
X1027048Y185616D01*
X1027029Y185596D01*
X1027006Y185581D01*
X1026932Y185493D01*
X1026854Y185409D01*
X1026841Y185384D01*
X1026823Y185363D01*
X1026777Y185258D01*
X1026724Y185156D01*
X1026720Y185131D01*
X1026708Y185103D01*
X1026671Y184840D01*
X1026669Y184825D01*
X1026669Y180535D01*
X1026681Y180449D01*
X1026684Y180361D01*
X1026701Y180309D01*
X1026709Y180254D01*
X1026744Y180174D01*
X1026771Y180091D01*
X1026799Y180052D01*
X1026825Y179995D01*
X1026921Y179881D01*
X1026966Y179818D01*
X1028358Y178426D01*
X1029209Y176372D01*
X1029209Y174148D01*
X1028358Y172094D01*
X1027162Y170898D01*
X1027126Y170851D01*
X1027084Y170811D01*
X1027041Y170738D01*
X1026991Y170671D01*
X1026970Y170616D01*
X1026940Y170566D01*
X1026919Y170484D01*
X1026889Y170405D01*
X1026885Y170347D01*
X1026870Y170290D01*
X1026873Y170206D01*
X1026866Y170122D01*
X1026877Y170064D01*
X1026879Y170006D01*
X1026905Y169926D01*
X1026922Y169843D01*
X1026949Y169791D01*
X1026967Y169735D01*
X1027007Y169679D01*
X1027053Y169591D01*
X1027121Y169518D01*
X1027162Y169462D01*
X1028358Y168266D01*
X1029209Y166212D01*
X1029209Y164243D01*
X1029221Y164157D01*
X1029224Y164069D01*
X1029241Y164017D01*
X1029249Y163962D01*
X1029284Y163882D01*
X1029311Y163799D01*
X1029339Y163760D01*
X1029365Y163702D01*
X1029461Y163589D01*
X1029506Y163525D01*
X1034971Y158060D01*
X1035041Y158008D01*
X1035105Y157948D01*
X1035155Y157922D01*
X1035199Y157889D01*
X1035280Y157858D01*
X1035358Y157818D01*
X1035406Y157810D01*
X1035464Y157788D01*
X1035612Y157776D01*
X1035689Y157763D01*
X1119953Y157763D01*
X1120039Y157775D01*
X1120127Y157778D01*
X1120179Y157795D01*
X1120234Y157803D01*
X1120314Y157838D01*
X1120397Y157865D01*
X1120436Y157893D01*
X1120494Y157919D01*
X1120607Y158015D01*
X1120671Y158060D01*
X1145999Y183389D01*
X1201225Y183389D01*
X1201311Y183401D01*
X1201399Y183404D01*
X1201451Y183421D01*
X1201506Y183429D01*
X1201586Y183464D01*
X1201669Y183491D01*
X1201708Y183519D01*
X1201765Y183545D01*
X1201879Y183641D01*
X1201942Y183686D01*
X1203334Y185078D01*
X1205388Y185929D01*
X1207612Y185929D01*
X1209666Y185078D01*
X1211238Y183506D01*
X1212089Y181452D01*
X1212089Y179228D01*
X1211238Y177174D01*
X1209666Y175602D01*
X1207612Y174751D01*
X1205388Y174751D01*
X1203334Y175602D01*
X1201942Y176994D01*
X1201873Y177046D01*
X1201809Y177106D01*
X1201759Y177132D01*
X1201715Y177165D01*
X1201634Y177196D01*
X1201556Y177236D01*
X1201508Y177244D01*
X1201450Y177266D01*
X1201302Y177278D01*
X1201225Y177291D01*
X1190911Y177291D01*
X1190882Y177287D01*
X1190853Y177290D01*
X1190742Y177267D01*
X1190630Y177251D01*
X1190603Y177239D01*
X1190574Y177234D01*
X1190474Y177182D01*
X1190370Y177135D01*
X1190348Y177116D01*
X1190322Y177103D01*
X1190240Y177025D01*
X1190153Y176952D01*
X1190137Y176927D01*
X1190116Y176907D01*
X1190059Y176809D01*
X1189996Y176715D01*
X1189987Y176687D01*
X1189972Y176662D01*
X1189944Y176552D01*
X1189910Y176444D01*
X1189909Y176414D01*
X1189902Y176386D01*
X1189906Y176273D01*
X1189903Y176160D01*
X1189910Y176131D01*
X1189911Y176102D01*
X1189946Y175994D01*
X1189975Y175885D01*
X1189990Y175859D01*
X1189999Y175831D01*
X1190044Y175768D01*
X1190120Y175640D01*
X1190165Y175597D01*
X1190193Y175558D01*
X1225197Y140555D01*
X1225197Y127195D01*
X1225209Y127109D01*
X1225212Y127021D01*
X1225229Y126969D01*
X1225237Y126914D01*
X1225272Y126834D01*
X1225299Y126751D01*
X1225327Y126712D01*
X1225353Y126655D01*
X1225449Y126541D01*
X1225494Y126478D01*
X1226886Y125086D01*
X1227737Y123032D01*
X1227737Y120808D01*
X1226886Y118754D01*
X1225314Y117182D01*
X1223260Y116331D01*
X1221036Y116331D01*
X1218982Y117182D01*
X1217410Y118754D01*
X1216559Y120808D01*
X1216559Y123032D01*
X1217410Y125086D01*
X1218802Y126478D01*
X1218854Y126547D01*
X1218914Y126611D01*
X1218940Y126661D01*
X1218973Y126705D01*
X1219004Y126786D01*
X1219044Y126864D01*
X1219052Y126912D01*
X1219074Y126970D01*
X1219086Y127118D01*
X1219099Y127195D01*
X1219099Y137609D01*
X1219087Y137695D01*
X1219084Y137783D01*
X1219067Y137835D01*
X1219059Y137890D01*
X1219024Y137970D01*
X1218997Y138053D01*
X1218969Y138092D01*
X1218943Y138150D01*
X1218847Y138263D01*
X1218802Y138327D01*
X1185215Y171914D01*
X1185145Y171966D01*
X1185081Y172026D01*
X1185031Y172052D01*
X1184987Y172085D01*
X1184906Y172116D01*
X1184828Y172156D01*
X1184780Y172164D01*
X1184722Y172186D01*
X1184574Y172198D01*
X1184497Y172211D01*
X1184235Y172211D01*
X1184121Y172195D01*
X1184007Y172185D01*
X1183981Y172175D01*
X1183954Y172171D01*
X1183849Y172124D01*
X1183742Y172083D01*
X1183720Y172067D01*
X1183694Y172055D01*
X1183607Y171981D01*
X1183515Y171912D01*
X1183498Y171889D01*
X1183477Y171872D01*
X1183414Y171776D01*
X1183345Y171684D01*
X1183335Y171658D01*
X1183320Y171635D01*
X1183285Y171525D01*
X1183244Y171418D01*
X1183242Y171390D01*
X1183234Y171364D01*
X1183231Y171249D01*
X1183222Y171135D01*
X1183227Y171110D01*
X1183227Y171080D01*
X1183294Y170822D01*
X1183297Y170807D01*
X1184149Y168752D01*
X1184149Y166528D01*
X1183298Y164474D01*
X1181726Y162902D01*
X1179672Y162051D01*
X1177448Y162051D01*
X1175394Y162902D01*
X1173822Y164474D01*
X1172971Y166528D01*
X1172971Y168752D01*
X1173823Y170807D01*
X1173851Y170919D01*
X1173886Y171028D01*
X1173887Y171056D01*
X1173894Y171083D01*
X1173891Y171197D01*
X1173893Y171312D01*
X1173886Y171339D01*
X1173886Y171367D01*
X1173851Y171476D01*
X1173822Y171587D01*
X1173807Y171611D01*
X1173799Y171638D01*
X1173735Y171733D01*
X1173676Y171832D01*
X1173656Y171851D01*
X1173641Y171874D01*
X1173553Y171948D01*
X1173469Y172026D01*
X1173444Y172039D01*
X1173423Y172057D01*
X1173318Y172103D01*
X1173216Y172156D01*
X1173191Y172160D01*
X1173163Y172172D01*
X1172900Y172209D01*
X1172885Y172211D01*
X1156295Y172211D01*
X1156181Y172195D01*
X1156067Y172185D01*
X1156041Y172175D01*
X1156014Y172171D01*
X1155909Y172124D01*
X1155802Y172083D01*
X1155780Y172067D01*
X1155754Y172055D01*
X1155667Y171981D01*
X1155575Y171912D01*
X1155558Y171889D01*
X1155537Y171872D01*
X1155474Y171776D01*
X1155405Y171684D01*
X1155395Y171658D01*
X1155380Y171635D01*
X1155345Y171525D01*
X1155304Y171418D01*
X1155302Y171390D01*
X1155294Y171364D01*
X1155291Y171249D01*
X1155282Y171135D01*
X1155287Y171110D01*
X1155287Y171080D01*
X1155354Y170822D01*
X1155357Y170807D01*
X1156209Y168752D01*
X1156209Y166528D01*
X1155358Y164474D01*
X1153786Y162902D01*
X1151732Y162051D01*
X1149414Y162051D01*
X1149389Y162058D01*
X1149387Y162058D01*
X1149385Y162058D01*
X1149245Y162054D01*
X1149105Y162050D01*
X1149103Y162049D01*
X1149101Y162049D01*
X1148967Y162006D01*
X1148834Y161963D01*
X1148833Y161962D01*
X1148831Y161962D01*
X1148817Y161952D01*
X1148598Y161805D01*
X1148578Y161781D01*
X1148557Y161767D01*
X1118695Y131905D01*
X1116612Y129821D01*
X963147Y129821D01*
X959155Y133814D01*
X959085Y133866D01*
X959021Y133926D01*
X958971Y133952D01*
X958927Y133985D01*
X958846Y134016D01*
X958768Y134056D01*
X958720Y134064D01*
X958662Y134086D01*
X958514Y134098D01*
X958437Y134111D01*
X956468Y134111D01*
X954414Y134962D01*
X952842Y136534D01*
X951991Y138588D01*
X951991Y140812D01*
X952842Y142866D01*
X954414Y144438D01*
X956468Y145289D01*
X958692Y145289D01*
X960746Y144438D01*
X962318Y142866D01*
X963169Y140812D01*
X963169Y138843D01*
X963181Y138757D01*
X963184Y138669D01*
X963201Y138617D01*
X963209Y138562D01*
X963244Y138482D01*
X963271Y138399D01*
X963299Y138360D01*
X963325Y138302D01*
X963421Y138189D01*
X963445Y138156D01*
X963445Y138155D01*
X963466Y138125D01*
X965375Y136216D01*
X965445Y136164D01*
X965509Y136104D01*
X965559Y136078D01*
X965603Y136045D01*
X965684Y136014D01*
X965762Y135974D01*
X965810Y135966D01*
X965868Y135944D01*
X966016Y135932D01*
X966093Y135919D01*
X1004918Y135919D01*
X1005031Y135935D01*
X1005146Y135945D01*
X1005172Y135955D01*
X1005199Y135959D01*
X1005304Y136006D01*
X1005411Y136047D01*
X1005433Y136063D01*
X1005459Y136075D01*
X1005546Y136149D01*
X1005638Y136218D01*
X1005654Y136241D01*
X1005676Y136258D01*
X1005739Y136354D01*
X1005808Y136446D01*
X1005818Y136472D01*
X1005833Y136495D01*
X1005868Y136604D01*
X1005908Y136712D01*
X1005911Y136740D01*
X1005919Y136766D01*
X1005922Y136881D01*
X1005931Y136995D01*
X1005925Y137020D01*
X1005926Y137050D01*
X1005859Y137307D01*
X1005856Y137323D01*
X1005331Y138588D01*
X1005331Y140812D01*
X1006182Y142866D01*
X1007754Y144438D01*
X1009808Y145289D01*
X1012032Y145289D01*
X1014086Y144438D01*
X1015658Y142866D01*
X1016509Y140812D01*
X1016509Y138588D01*
X1015984Y137323D01*
X1015956Y137211D01*
X1015921Y137102D01*
X1015920Y137074D01*
X1015913Y137047D01*
X1015917Y136933D01*
X1015914Y136818D01*
X1015921Y136791D01*
X1015922Y136763D01*
X1015957Y136654D01*
X1015986Y136543D01*
X1016000Y136519D01*
X1016008Y136492D01*
X1016072Y136397D01*
X1016131Y136298D01*
X1016151Y136279D01*
X1016167Y136256D01*
X1016254Y136182D01*
X1016338Y136104D01*
X1016363Y136091D01*
X1016384Y136073D01*
X1016489Y136027D01*
X1016591Y135974D01*
X1016616Y135970D01*
X1016644Y135958D01*
X1016908Y135921D01*
X1016922Y135919D01*
X1113666Y135919D01*
X1113752Y135931D01*
X1113840Y135934D01*
X1113892Y135951D01*
X1113947Y135959D01*
X1114027Y135994D01*
X1114110Y136021D01*
X1114150Y136049D01*
X1114207Y136075D01*
X1114320Y136171D01*
X1114384Y136216D01*
X1124036Y145868D01*
X1124053Y145892D01*
X1124076Y145911D01*
X1124139Y146005D01*
X1124207Y146095D01*
X1124217Y146123D01*
X1124233Y146147D01*
X1124268Y146255D01*
X1124308Y146361D01*
X1124310Y146390D01*
X1124319Y146418D01*
X1124322Y146532D01*
X1124331Y146644D01*
X1124326Y146673D01*
X1124326Y146702D01*
X1124298Y146812D01*
X1124276Y146923D01*
X1124262Y146949D01*
X1124255Y146977D01*
X1124197Y147075D01*
X1124145Y147175D01*
X1124124Y147197D01*
X1124109Y147222D01*
X1124027Y147299D01*
X1123949Y147381D01*
X1123923Y147396D01*
X1123902Y147416D01*
X1123801Y147468D01*
X1123703Y147525D01*
X1123675Y147532D01*
X1123649Y147546D01*
X1123572Y147559D01*
X1123428Y147595D01*
X1123365Y147593D01*
X1123318Y147601D01*
X960607Y147601D01*
X942895Y165313D01*
X942825Y165366D01*
X942761Y165426D01*
X942712Y165451D01*
X942668Y165484D01*
X942586Y165516D01*
X942508Y165555D01*
X942461Y165563D01*
X942402Y165586D01*
X942254Y165598D01*
X942177Y165611D01*
X908496Y165611D01*
X908409Y165599D01*
X908322Y165596D01*
X908269Y165579D01*
X908214Y165571D01*
X908135Y165535D01*
X908051Y165508D01*
X908012Y165480D01*
X907955Y165455D01*
X907842Y165359D01*
X907778Y165313D01*
X906386Y163922D01*
X904332Y163071D01*
X902109Y163071D01*
X900055Y163922D01*
X898483Y165494D01*
X897632Y167548D01*
X897632Y169771D01*
X898483Y171825D01*
X898885Y172228D01*
X898903Y172252D01*
X898925Y172271D01*
X898988Y172365D01*
X899056Y172455D01*
X899067Y172483D01*
X899083Y172507D01*
X899117Y172615D01*
X899157Y172721D01*
X899160Y172750D01*
X899169Y172778D01*
X899172Y172892D01*
X899181Y173004D01*
X899175Y173033D01*
X899176Y173062D01*
X899147Y173172D01*
X899125Y173283D01*
X899112Y173309D01*
X899104Y173337D01*
X899046Y173435D01*
X898994Y173535D01*
X898974Y173557D01*
X898959Y173582D01*
X898876Y173659D01*
X898798Y173741D01*
X898773Y173756D01*
X898752Y173776D01*
X898651Y173828D01*
X898553Y173885D01*
X898525Y173892D01*
X898499Y173906D01*
X898421Y173919D01*
X898278Y173955D01*
X898215Y173953D01*
X898167Y173961D01*
X811153Y173961D01*
X811067Y173949D01*
X810979Y173946D01*
X810927Y173929D01*
X810872Y173921D01*
X810792Y173886D01*
X810709Y173859D01*
X810670Y173831D01*
X810612Y173805D01*
X810499Y173709D01*
X810435Y173664D01*
X786123Y149351D01*
X708453Y149351D01*
X708423Y149347D01*
X708392Y149349D01*
X708315Y149332D01*
X708172Y149311D01*
X708113Y149285D01*
X708065Y149274D01*
X706511Y148630D01*
X704287Y148630D01*
X702233Y149481D01*
X700661Y151053D01*
X699810Y153107D01*
X699810Y155331D01*
X700661Y157385D01*
X702233Y158957D01*
X704287Y159808D01*
X706511Y159808D01*
X708565Y158957D01*
X710137Y157385D01*
X710679Y156075D01*
X710680Y156074D01*
X710680Y156073D01*
X710750Y155954D01*
X710824Y155831D01*
X710825Y155830D01*
X710826Y155828D01*
X710931Y155729D01*
X711030Y155635D01*
X711032Y155635D01*
X711033Y155634D01*
X711159Y155569D01*
X711283Y155505D01*
X711285Y155505D01*
X711286Y155504D01*
X711301Y155502D01*
X711562Y155450D01*
X711592Y155453D01*
X711617Y155449D01*
X753785Y155449D01*
X753899Y155465D01*
X754013Y155475D01*
X754039Y155485D01*
X754066Y155489D01*
X754171Y155536D01*
X754278Y155577D01*
X754300Y155593D01*
X754326Y155605D01*
X754413Y155679D01*
X754505Y155748D01*
X754522Y155771D01*
X754543Y155788D01*
X754606Y155884D01*
X754675Y155976D01*
X754685Y156002D01*
X754700Y156025D01*
X754735Y156135D01*
X754776Y156242D01*
X754778Y156270D01*
X754786Y156296D01*
X754789Y156411D01*
X754798Y156525D01*
X754793Y156550D01*
X754793Y156580D01*
X754726Y156837D01*
X754723Y156853D01*
X753871Y158908D01*
X753871Y161132D01*
X754723Y163187D01*
X754751Y163299D01*
X754786Y163408D01*
X754787Y163436D01*
X754794Y163463D01*
X754791Y163577D01*
X754793Y163692D01*
X754786Y163719D01*
X754786Y163747D01*
X754751Y163856D01*
X754722Y163967D01*
X754707Y163991D01*
X754699Y164018D01*
X754635Y164113D01*
X754576Y164212D01*
X754556Y164231D01*
X754541Y164254D01*
X754453Y164328D01*
X754369Y164406D01*
X754344Y164419D01*
X754323Y164437D01*
X754218Y164483D01*
X754116Y164536D01*
X754091Y164540D01*
X754063Y164552D01*
X753800Y164589D01*
X753785Y164591D01*
X712628Y164591D01*
X710574Y165442D01*
X709002Y167014D01*
X708151Y169068D01*
X708151Y171292D01*
X709002Y173346D01*
X710574Y174918D01*
X712628Y175769D01*
X714852Y175769D01*
X716906Y174918D01*
X718478Y173346D01*
X719319Y171315D01*
X719320Y171314D01*
X719320Y171313D01*
X719393Y171190D01*
X719463Y171071D01*
X719465Y171070D01*
X719465Y171068D01*
X719571Y170969D01*
X719670Y170875D01*
X719672Y170875D01*
X719673Y170874D01*
X719799Y170809D01*
X719923Y170745D01*
X719924Y170745D01*
X719926Y170744D01*
X719941Y170742D01*
X720202Y170690D01*
X720232Y170693D01*
X720257Y170689D01*
X783177Y170689D01*
X783263Y170701D01*
X783351Y170704D01*
X783403Y170721D01*
X783458Y170729D01*
X783538Y170764D01*
X783621Y170791D01*
X783660Y170819D01*
X783718Y170845D01*
X783831Y170941D01*
X783895Y170986D01*
X803917Y191009D01*
X998025Y191009D01*
X998111Y191021D01*
X998199Y191024D01*
X998251Y191041D01*
X998306Y191049D01*
X998386Y191084D01*
X998469Y191111D01*
X998508Y191139D01*
X998565Y191165D01*
X998679Y191261D01*
X998742Y191306D01*
X1000134Y192698D01*
X1002188Y193549D01*
X1004412Y193549D01*
X1006466Y192698D01*
X1008038Y191126D01*
X1008889Y189072D01*
X1008889Y186848D01*
X1008038Y184794D01*
X1006466Y183222D01*
X1004412Y182371D01*
X1002188Y182371D01*
X1000134Y183222D01*
X998742Y184614D01*
X998673Y184666D01*
X998609Y184726D01*
X998559Y184752D01*
X998515Y184785D01*
X998434Y184816D01*
X998356Y184856D01*
X998308Y184864D01*
X998250Y184886D01*
X998102Y184898D01*
X998025Y184911D01*
X990251Y184911D01*
X990222Y184907D01*
X990193Y184910D01*
X990082Y184887D01*
X989970Y184871D01*
X989943Y184859D01*
X989914Y184854D01*
X989814Y184801D01*
X989710Y184755D01*
X989688Y184736D01*
X989662Y184723D01*
X989580Y184645D01*
X989493Y184572D01*
X989477Y184547D01*
X989456Y184527D01*
X989399Y184429D01*
X989336Y184335D01*
X989327Y184307D01*
X989312Y184282D01*
X989284Y184172D01*
X989250Y184064D01*
X989249Y184034D01*
X989242Y184006D01*
X989246Y183893D01*
X989243Y183780D01*
X989250Y183751D01*
X989251Y183722D01*
X989286Y183614D01*
X989315Y183505D01*
X989330Y183479D01*
X989339Y183451D01*
X989384Y183388D01*
X989460Y183260D01*
X989505Y183217D01*
X989533Y183178D01*
X991565Y181146D01*
X991635Y181094D01*
X991699Y181034D01*
X991749Y181008D01*
X991793Y180975D01*
X991874Y180944D01*
X991952Y180904D01*
X992000Y180896D01*
X992058Y180874D01*
X992206Y180862D01*
X992283Y180849D01*
X994252Y180849D01*
X996306Y179998D01*
X997878Y178426D01*
X998729Y176372D01*
X998729Y174148D01*
X997878Y172094D01*
X996306Y170522D01*
X994252Y169671D01*
X992028Y169671D01*
X989974Y170522D01*
X988402Y172094D01*
X987551Y174148D01*
X987551Y176117D01*
X987539Y176203D01*
X987536Y176291D01*
X987519Y176343D01*
X987511Y176398D01*
X987476Y176478D01*
X987449Y176561D01*
X987421Y176600D01*
X987395Y176658D01*
X987299Y176771D01*
X987254Y176835D01*
X984555Y179534D01*
X984485Y179586D01*
X984421Y179646D01*
X984371Y179672D01*
X984327Y179705D01*
X984246Y179736D01*
X984168Y179776D01*
X984120Y179784D01*
X984062Y179806D01*
X983914Y179818D01*
X983837Y179831D01*
X964851Y179831D01*
X964822Y179827D01*
X964793Y179830D01*
X964682Y179807D01*
X964570Y179791D01*
X964543Y179779D01*
X964514Y179774D01*
X964414Y179721D01*
X964310Y179675D01*
X964288Y179656D01*
X964262Y179643D01*
X964180Y179565D01*
X964093Y179492D01*
X964077Y179467D01*
X964056Y179447D01*
X963999Y179349D01*
X963936Y179255D01*
X963927Y179227D01*
X963912Y179202D01*
X963884Y179092D01*
X963850Y178984D01*
X963849Y178954D01*
X963842Y178926D01*
X963846Y178813D01*
X963843Y178700D01*
X963850Y178671D01*
X963851Y178642D01*
X963886Y178534D01*
X963915Y178425D01*
X963930Y178399D01*
X963939Y178371D01*
X963984Y178308D01*
X964060Y178180D01*
X964105Y178137D01*
X964133Y178098D01*
X966006Y176225D01*
X971245Y170986D01*
X971315Y170934D01*
X971379Y170874D01*
X971429Y170848D01*
X971473Y170815D01*
X971554Y170784D01*
X971632Y170744D01*
X971680Y170736D01*
X971738Y170714D01*
X971886Y170702D01*
X971963Y170689D01*
X973932Y170689D01*
X975986Y169838D01*
X977558Y168266D01*
X978409Y166212D01*
X978409Y163988D01*
X977558Y161934D01*
X976136Y160512D01*
X976118Y160488D01*
X976095Y160469D01*
X976033Y160375D01*
X975965Y160285D01*
X975954Y160257D01*
X975938Y160233D01*
X975904Y160125D01*
X975863Y160019D01*
X975861Y159990D01*
X975852Y159962D01*
X975849Y159848D01*
X975840Y159736D01*
X975846Y159707D01*
X975845Y159678D01*
X975873Y159568D01*
X975896Y159457D01*
X975909Y159431D01*
X975917Y159403D01*
X975974Y159305D01*
X976027Y159205D01*
X976047Y159183D01*
X976062Y159158D01*
X976144Y159081D01*
X976222Y158999D01*
X976248Y158984D01*
X976269Y158964D01*
X976370Y158912D01*
X976468Y158855D01*
X976496Y158848D01*
X976522Y158834D01*
X976600Y158821D01*
X976743Y158785D01*
X976806Y158787D01*
X976853Y158779D01*
X979046Y158779D01*
X979132Y158791D01*
X979220Y158794D01*
X979272Y158811D01*
X979327Y158819D01*
X979407Y158854D01*
X979490Y158881D01*
X979530Y158909D01*
X979587Y158935D01*
X979700Y159031D01*
X979764Y159076D01*
X982790Y162102D01*
X982808Y162127D01*
X982832Y162147D01*
X982873Y162214D01*
X982960Y162329D01*
X982983Y162389D01*
X983010Y162431D01*
X983322Y163186D01*
X984894Y164758D01*
X986948Y165609D01*
X989172Y165609D01*
X991226Y164758D01*
X992798Y163186D01*
X993649Y161132D01*
X993649Y158908D01*
X992798Y156854D01*
X991376Y155432D01*
X991358Y155408D01*
X991335Y155389D01*
X991273Y155295D01*
X991205Y155205D01*
X991194Y155177D01*
X991178Y155153D01*
X991144Y155045D01*
X991103Y154939D01*
X991101Y154910D01*
X991092Y154882D01*
X991089Y154768D01*
X991080Y154656D01*
X991086Y154627D01*
X991085Y154598D01*
X991113Y154488D01*
X991136Y154377D01*
X991149Y154351D01*
X991157Y154323D01*
X991214Y154225D01*
X991267Y154125D01*
X991287Y154103D01*
X991302Y154078D01*
X991384Y154001D01*
X991462Y153919D01*
X991488Y153904D01*
X991509Y153884D01*
X991610Y153832D01*
X991708Y153775D01*
X991736Y153768D01*
X991762Y153754D01*
X991840Y153741D01*
X991983Y153705D01*
X992046Y153707D01*
X992093Y153699D01*
X1028259Y153699D01*
X1028288Y153703D01*
X1028317Y153700D01*
X1028428Y153723D01*
X1028540Y153739D01*
X1028567Y153751D01*
X1028596Y153756D01*
X1028696Y153808D01*
X1028800Y153855D01*
X1028822Y153874D01*
X1028848Y153887D01*
X1028930Y153965D01*
X1029017Y154038D01*
X1029033Y154063D01*
X1029054Y154083D01*
X1029111Y154181D01*
X1029174Y154275D01*
X1029183Y154303D01*
X1029198Y154328D01*
X1029226Y154438D01*
X1029260Y154546D01*
X1029261Y154576D01*
X1029268Y154604D01*
X1029264Y154717D01*
X1029267Y154830D01*
X1029260Y154859D01*
X1029259Y154888D01*
X1029224Y154996D01*
X1029195Y155105D01*
X1029180Y155131D01*
X1029171Y155159D01*
X1029126Y155222D01*
X1029050Y155350D01*
X1029005Y155393D01*
X1028977Y155432D01*
X1025195Y159214D01*
X1025125Y159266D01*
X1025061Y159326D01*
X1025011Y159352D01*
X1024967Y159385D01*
X1024886Y159416D01*
X1024808Y159456D01*
X1024760Y159464D01*
X1024702Y159486D01*
X1024554Y159498D01*
X1024477Y159511D01*
X1022508Y159511D01*
X1020454Y160362D01*
X1018882Y161934D01*
X1018031Y163988D01*
X1018031Y166212D01*
X1018882Y168266D01*
X1020078Y169462D01*
X1020114Y169509D01*
X1020156Y169549D01*
X1020199Y169622D01*
X1020249Y169689D01*
X1020270Y169744D01*
X1020300Y169794D01*
X1020320Y169876D01*
X1020351Y169955D01*
X1020355Y170013D01*
X1020370Y170070D01*
X1020367Y170154D01*
X1020374Y170238D01*
X1020363Y170296D01*
X1020361Y170354D01*
X1020335Y170434D01*
X1020318Y170517D01*
X1020291Y170569D01*
X1020273Y170625D01*
X1020233Y170681D01*
X1020187Y170769D01*
X1020118Y170842D01*
X1020078Y170898D01*
X1018882Y172094D01*
X1018031Y174148D01*
X1018031Y176372D01*
X1018882Y178426D01*
X1020274Y179818D01*
X1020326Y179887D01*
X1020386Y179951D01*
X1020412Y180001D01*
X1020445Y180045D01*
X1020476Y180126D01*
X1020516Y180204D01*
X1020524Y180252D01*
X1020546Y180310D01*
X1020558Y180458D01*
X1020571Y180535D01*
X1020571Y188817D01*
X1020559Y188903D01*
X1020556Y188991D01*
X1020539Y189043D01*
X1020531Y189098D01*
X1020496Y189178D01*
X1020469Y189261D01*
X1020441Y189300D01*
X1020415Y189358D01*
X1020319Y189471D01*
X1020274Y189535D01*
X1011987Y197822D01*
X1011917Y197874D01*
X1011853Y197934D01*
X1011803Y197960D01*
X1011759Y197993D01*
X1011678Y198024D01*
X1011600Y198064D01*
X1011552Y198072D01*
X1011494Y198094D01*
X1011346Y198106D01*
X1011269Y198119D01*
X605187Y198119D01*
X605101Y198107D01*
X605013Y198104D01*
X604961Y198087D01*
X604906Y198079D01*
X604826Y198044D01*
X604743Y198017D01*
X604704Y197989D01*
X604646Y197963D01*
X604533Y197867D01*
X604469Y197822D01*
X566508Y159860D01*
X508075Y159860D01*
X507989Y159848D01*
X507901Y159845D01*
X507849Y159828D01*
X507794Y159820D01*
X507714Y159784D01*
X507631Y159758D01*
X507592Y159730D01*
X507535Y159704D01*
X507421Y159608D01*
X507358Y159563D01*
X505966Y158171D01*
X503912Y157320D01*
X501688Y157320D01*
X499634Y158171D01*
X498062Y159743D01*
X497211Y161797D01*
X497211Y164020D01*
X498062Y166075D01*
X499634Y167647D01*
X501688Y168498D01*
X503912Y168498D01*
X505966Y167647D01*
X507358Y166255D01*
X507427Y166202D01*
X507491Y166142D01*
X507541Y166117D01*
X507585Y166084D01*
X507666Y166053D01*
X507744Y166013D01*
X507792Y166005D01*
X507850Y165983D01*
X507998Y165971D01*
X508075Y165958D01*
X563561Y165958D01*
X563648Y165970D01*
X563735Y165973D01*
X563788Y165990D01*
X563843Y165997D01*
X563923Y166033D01*
X564006Y166060D01*
X564045Y166088D01*
X564102Y166114D01*
X564215Y166209D01*
X564279Y166255D01*
X588315Y190290D01*
X588332Y190314D01*
X588355Y190333D01*
X588417Y190427D01*
X588485Y190517D01*
X588496Y190545D01*
X588512Y190569D01*
X588546Y190677D01*
X588587Y190783D01*
X588589Y190812D01*
X588598Y190840D01*
X588601Y190954D01*
X588610Y191066D01*
X588605Y191095D01*
X588605Y191124D01*
X588577Y191234D01*
X588554Y191345D01*
X588541Y191371D01*
X588533Y191399D01*
X588476Y191497D01*
X588423Y191597D01*
X588403Y191619D01*
X588388Y191644D01*
X588306Y191721D01*
X588228Y191803D01*
X588202Y191818D01*
X588181Y191838D01*
X588080Y191890D01*
X587982Y191947D01*
X587954Y191954D01*
X587928Y191968D01*
X587850Y191981D01*
X587707Y192017D01*
X587644Y192015D01*
X587597Y192023D01*
X560585Y192023D01*
X555295Y197314D01*
X555225Y197366D01*
X555161Y197426D01*
X555111Y197452D01*
X555067Y197485D01*
X554986Y197516D01*
X554908Y197556D01*
X554860Y197564D01*
X554802Y197586D01*
X554654Y197598D01*
X554577Y197611D01*
X552608Y197611D01*
X550554Y198462D01*
X548982Y200034D01*
X548131Y202088D01*
X548131Y204312D01*
X548982Y206366D01*
X550554Y207938D01*
X552608Y208789D01*
X554832Y208789D01*
X556886Y207938D01*
X557487Y207337D01*
X557555Y207286D01*
X557618Y207226D01*
X557668Y207200D01*
X557714Y207166D01*
X557794Y207136D01*
X557870Y207096D01*
X557926Y207085D01*
X557979Y207065D01*
X558065Y207058D01*
X558149Y207041D01*
X558206Y207046D01*
X558263Y207041D01*
X558347Y207058D01*
X558433Y207066D01*
X558486Y207086D01*
X558541Y207097D01*
X558618Y207137D01*
X558698Y207168D01*
X558743Y207202D01*
X558794Y207228D01*
X558856Y207287D01*
X558925Y207339D01*
X558959Y207385D01*
X559000Y207424D01*
X559043Y207498D01*
X559095Y207567D01*
X559115Y207620D01*
X559144Y207669D01*
X559165Y207753D01*
X559195Y207833D01*
X559200Y207890D01*
X559214Y207945D01*
X559211Y208031D01*
X559218Y208116D01*
X559207Y208165D01*
X559205Y208229D01*
X559160Y208367D01*
X559142Y208443D01*
X558291Y210498D01*
X558291Y212722D01*
X559142Y214776D01*
X560714Y216348D01*
X562768Y217199D01*
X564963Y217199D01*
X564992Y217203D01*
X565021Y217200D01*
X565132Y217223D01*
X565244Y217239D01*
X565271Y217251D01*
X565300Y217256D01*
X565400Y217309D01*
X565504Y217355D01*
X565526Y217374D01*
X565552Y217387D01*
X565634Y217465D01*
X565721Y217538D01*
X565737Y217563D01*
X565758Y217583D01*
X565815Y217681D01*
X565878Y217775D01*
X565887Y217803D01*
X565902Y217828D01*
X565930Y217938D01*
X565964Y218046D01*
X565965Y218076D01*
X565972Y218104D01*
X565968Y218217D01*
X565971Y218330D01*
X565964Y218359D01*
X565963Y218388D01*
X565928Y218496D01*
X565899Y218605D01*
X565885Y218631D01*
X565875Y218659D01*
X565830Y218723D01*
X565754Y218850D01*
X565709Y218893D01*
X565681Y218932D01*
X564090Y220523D01*
X557581Y227032D01*
X557511Y227084D01*
X557447Y227144D01*
X557397Y227170D01*
X557353Y227203D01*
X557272Y227234D01*
X557194Y227274D01*
X557146Y227282D01*
X557088Y227304D01*
X556940Y227316D01*
X556863Y227329D01*
X535845Y227329D01*
X535759Y227317D01*
X535671Y227314D01*
X535619Y227297D01*
X535564Y227289D01*
X535484Y227254D01*
X535401Y227227D01*
X535362Y227199D01*
X535304Y227173D01*
X535191Y227077D01*
X535127Y227032D01*
X523487Y215391D01*
X501149Y215391D01*
X491255Y225285D01*
X491185Y225338D01*
X491121Y225398D01*
X491072Y225423D01*
X491028Y225456D01*
X490946Y225487D01*
X490868Y225527D01*
X490821Y225535D01*
X490762Y225558D01*
X490614Y225570D01*
X490537Y225583D01*
X489077Y225583D01*
X487023Y226434D01*
X485451Y228006D01*
X484600Y230060D01*
X484600Y232156D01*
X484592Y232214D01*
X484593Y232272D01*
X484572Y232354D01*
X484560Y232438D01*
X484536Y232491D01*
X484521Y232547D01*
X484478Y232620D01*
X484444Y232697D01*
X484406Y232742D01*
X484376Y232792D01*
X484314Y232850D01*
X484260Y232914D01*
X484211Y232946D01*
X484169Y232986D01*
X484094Y233025D01*
X484023Y233072D01*
X483968Y233089D01*
X483916Y233116D01*
X483847Y233127D01*
X483752Y233157D01*
X483653Y233160D01*
X483584Y233171D01*
X481488Y233171D01*
X479434Y234022D01*
X477862Y235594D01*
X477011Y237648D01*
X477011Y239872D01*
X477862Y241926D01*
X479434Y243498D01*
X481488Y244349D01*
X483712Y244349D01*
X485766Y243498D01*
X487158Y242106D01*
X487227Y242054D01*
X487291Y241994D01*
X487341Y241968D01*
X487385Y241935D01*
X487466Y241904D01*
X487544Y241864D01*
X487592Y241856D01*
X487650Y241834D01*
X487798Y241822D01*
X487875Y241809D01*
X503167Y241809D01*
X514045Y230930D01*
X514115Y230878D01*
X514179Y230818D01*
X514229Y230792D01*
X514273Y230759D01*
X514354Y230728D01*
X514432Y230688D01*
X514480Y230680D01*
X514538Y230658D01*
X514686Y230646D01*
X514763Y230633D01*
X516477Y230633D01*
X516563Y230645D01*
X516651Y230648D01*
X516703Y230665D01*
X516758Y230673D01*
X516838Y230708D01*
X516921Y230735D01*
X516960Y230763D01*
X517018Y230789D01*
X517131Y230885D01*
X517195Y230930D01*
X518437Y232172D01*
X518454Y232196D01*
X518477Y232215D01*
X518539Y232309D01*
X518607Y232399D01*
X518618Y232427D01*
X518634Y232451D01*
X518668Y232559D01*
X518709Y232665D01*
X518711Y232694D01*
X518720Y232722D01*
X518723Y232836D01*
X518732Y232948D01*
X518727Y232977D01*
X518727Y233006D01*
X518699Y233116D01*
X518676Y233227D01*
X518663Y233253D01*
X518655Y233281D01*
X518598Y233379D01*
X518545Y233479D01*
X518525Y233501D01*
X518510Y233526D01*
X518428Y233603D01*
X518350Y233685D01*
X518324Y233700D01*
X518303Y233720D01*
X518202Y233772D01*
X518104Y233829D01*
X518076Y233836D01*
X518050Y233850D01*
X517972Y233863D01*
X517829Y233899D01*
X517766Y233897D01*
X517719Y233905D01*
X517048Y233905D01*
X514994Y234756D01*
X513422Y236328D01*
X512571Y238382D01*
X512571Y240606D01*
X513422Y242660D01*
X514994Y244232D01*
X517048Y245083D01*
X519017Y245083D01*
X519103Y245095D01*
X519191Y245098D01*
X519243Y245115D01*
X519298Y245123D01*
X519378Y245158D01*
X519461Y245185D01*
X519500Y245213D01*
X519558Y245239D01*
X519671Y245335D01*
X519735Y245380D01*
X521977Y247623D01*
X560955Y247623D01*
X560984Y247627D01*
X561013Y247624D01*
X561124Y247647D01*
X561236Y247663D01*
X561263Y247675D01*
X561292Y247680D01*
X561392Y247732D01*
X561496Y247779D01*
X561518Y247798D01*
X561544Y247811D01*
X561626Y247889D01*
X561713Y247962D01*
X561729Y247987D01*
X561750Y248007D01*
X561807Y248105D01*
X561870Y248199D01*
X561879Y248227D01*
X561894Y248252D01*
X561922Y248362D01*
X561956Y248470D01*
X561957Y248500D01*
X561964Y248528D01*
X561960Y248641D01*
X561963Y248754D01*
X561956Y248783D01*
X561955Y248812D01*
X561920Y248920D01*
X561891Y249029D01*
X561876Y249055D01*
X561867Y249083D01*
X561822Y249146D01*
X561746Y249274D01*
X561701Y249317D01*
X561673Y249356D01*
X555295Y255734D01*
X555225Y255786D01*
X555161Y255846D01*
X555111Y255872D01*
X555067Y255905D01*
X554986Y255936D01*
X554908Y255976D01*
X554860Y255984D01*
X554802Y256006D01*
X554654Y256018D01*
X554577Y256031D01*
X553915Y256031D01*
X553829Y256019D01*
X553741Y256016D01*
X553689Y255999D01*
X553634Y255991D01*
X553554Y255956D01*
X553471Y255929D01*
X553432Y255901D01*
X553375Y255875D01*
X553261Y255779D01*
X553198Y255734D01*
X551806Y254342D01*
X549752Y253491D01*
X547528Y253491D01*
X545474Y254342D01*
X543902Y255914D01*
X543051Y257968D01*
X543051Y260192D01*
X543902Y262246D01*
X545474Y263818D01*
X547528Y264669D01*
X549752Y264669D01*
X551806Y263818D01*
X553198Y262426D01*
X553267Y262374D01*
X553331Y262314D01*
X553381Y262288D01*
X553425Y262255D01*
X553507Y262224D01*
X553584Y262184D01*
X553632Y262176D01*
X553690Y262154D01*
X553838Y262142D01*
X553915Y262129D01*
X557523Y262129D01*
X576755Y242896D01*
X576825Y242844D01*
X576889Y242784D01*
X576938Y242758D01*
X576983Y242725D01*
X577064Y242694D01*
X577142Y242654D01*
X577190Y242646D01*
X577248Y242624D01*
X577396Y242612D01*
X577473Y242599D01*
X865892Y242599D01*
X866006Y242615D01*
X866120Y242625D01*
X866146Y242635D01*
X866173Y242639D01*
X866278Y242686D01*
X866385Y242727D01*
X866407Y242743D01*
X866433Y242755D01*
X866520Y242829D01*
X866612Y242898D01*
X866629Y242921D01*
X866650Y242938D01*
X866713Y243034D01*
X866782Y243126D01*
X866792Y243152D01*
X866807Y243175D01*
X866842Y243285D01*
X866883Y243392D01*
X866885Y243420D01*
X866893Y243446D01*
X866896Y243561D01*
X866905Y243675D01*
X866900Y243700D01*
X866900Y243730D01*
X866833Y243987D01*
X866830Y244003D01*
X866305Y245268D01*
X866305Y247492D01*
X867156Y249546D01*
X868728Y251118D01*
X870783Y251969D01*
X873006Y251969D01*
X874357Y251409D01*
X874440Y251388D01*
X874521Y251357D01*
X874577Y251352D01*
X874633Y251338D01*
X874718Y251340D01*
X874804Y251333D01*
X874860Y251345D01*
X874917Y251346D01*
X874998Y251372D01*
X875083Y251389D01*
X875133Y251415D01*
X875187Y251433D01*
X875259Y251481D01*
X875335Y251520D01*
X875376Y251559D01*
X875424Y251591D01*
X875479Y251657D01*
X875541Y251716D01*
X875570Y251765D01*
X875607Y251809D01*
X875641Y251887D01*
X875685Y251961D01*
X875699Y252016D01*
X875722Y252068D01*
X875734Y252154D01*
X875755Y252237D01*
X875753Y252294D01*
X875761Y252350D01*
X875749Y252435D01*
X875746Y252521D01*
X875728Y252575D01*
X875720Y252631D01*
X875685Y252710D01*
X875659Y252791D01*
X875630Y252832D01*
X875603Y252890D01*
X875509Y253001D01*
X875464Y253065D01*
X872795Y255734D01*
X872725Y255786D01*
X872661Y255846D01*
X872611Y255872D01*
X872567Y255905D01*
X872486Y255936D01*
X872408Y255976D01*
X872360Y255984D01*
X872302Y256006D01*
X872154Y256018D01*
X872077Y256031D01*
X870108Y256031D01*
X868054Y256882D01*
X866482Y258454D01*
X865631Y260508D01*
X865631Y262732D01*
X866483Y264787D01*
X866511Y264899D01*
X866546Y265008D01*
X866547Y265036D01*
X866554Y265063D01*
X866550Y265177D01*
X866553Y265292D01*
X866546Y265319D01*
X866546Y265347D01*
X866511Y265456D01*
X866482Y265567D01*
X866467Y265591D01*
X866459Y265618D01*
X866395Y265713D01*
X866336Y265812D01*
X866316Y265831D01*
X866301Y265854D01*
X866213Y265928D01*
X866129Y266006D01*
X866104Y266019D01*
X866083Y266037D01*
X865978Y266083D01*
X865876Y266136D01*
X865851Y266140D01*
X865823Y266152D01*
X865560Y266189D01*
X865545Y266191D01*
X590557Y266191D01*
X507035Y349714D01*
X506965Y349766D01*
X506901Y349826D01*
X506851Y349852D01*
X506807Y349885D01*
X506726Y349916D01*
X506648Y349956D01*
X506600Y349964D01*
X506542Y349986D01*
X506394Y349998D01*
X506317Y350011D01*
X437395Y350011D01*
X437308Y349999D01*
X437221Y349996D01*
X437168Y349979D01*
X437114Y349971D01*
X437034Y349936D01*
X436951Y349909D01*
X436911Y349881D01*
X436854Y349855D01*
X436741Y349759D01*
X436677Y349714D01*
X435094Y348131D01*
X432957Y347245D01*
X430643Y347245D01*
X428506Y348131D01*
X426871Y349766D01*
X426868Y349772D01*
X426824Y349846D01*
X426789Y349925D01*
X426752Y349968D01*
X426724Y350017D01*
X426661Y350076D01*
X426605Y350142D01*
X426558Y350173D01*
X426517Y350212D01*
X426440Y350252D01*
X426369Y350299D01*
X426315Y350317D01*
X426264Y350343D01*
X426180Y350359D01*
X426098Y350385D01*
X426041Y350387D01*
X425985Y350398D01*
X425900Y350390D01*
X425814Y350392D01*
X425759Y350378D01*
X425702Y350373D01*
X425622Y350342D01*
X425539Y350321D01*
X425490Y350292D01*
X425437Y350271D01*
X425368Y350219D01*
X425294Y350175D01*
X425255Y350134D01*
X425210Y350100D01*
X425158Y350031D01*
X425100Y349968D01*
X425074Y349917D01*
X425040Y349872D01*
X425009Y349792D01*
X424970Y349715D01*
X424962Y349666D01*
X424939Y349606D01*
X424929Y349473D01*
X424029Y347302D01*
X422394Y345667D01*
X420257Y344781D01*
X417943Y344781D01*
X415806Y345667D01*
X414171Y347302D01*
X413285Y349439D01*
X413285Y351753D01*
X414171Y353890D01*
X415806Y355525D01*
X417943Y356411D01*
X420183Y356411D01*
X420269Y356423D01*
X420357Y356426D01*
X420409Y356443D01*
X420464Y356451D01*
X420544Y356486D01*
X420627Y356513D01*
X420666Y356541D01*
X420724Y356567D01*
X420837Y356663D01*
X420901Y356708D01*
X427997Y363805D01*
X502737Y363805D01*
X502822Y363817D01*
X502908Y363819D01*
X502962Y363837D01*
X503018Y363845D01*
X503096Y363880D01*
X503178Y363906D01*
X503226Y363938D01*
X503278Y363961D01*
X503343Y364016D01*
X503414Y364064D01*
X503451Y364108D01*
X503495Y364144D01*
X503542Y364216D01*
X503597Y364282D01*
X503621Y364334D01*
X503652Y364381D01*
X503678Y364463D01*
X503713Y364542D01*
X503721Y364598D01*
X503738Y364652D01*
X503740Y364738D01*
X503752Y364823D01*
X503744Y364879D01*
X503745Y364936D01*
X503723Y365019D01*
X503711Y365104D01*
X503688Y365156D01*
X503673Y365211D01*
X503629Y365285D01*
X503594Y365364D01*
X503557Y365407D01*
X503528Y365456D01*
X503465Y365515D01*
X503410Y365580D01*
X503368Y365606D01*
X503321Y365650D01*
X503192Y365716D01*
X503125Y365758D01*
X502294Y366102D01*
X500722Y367674D01*
X499871Y369728D01*
X499871Y371952D01*
X500722Y374006D01*
X502220Y375504D01*
X502238Y375528D01*
X502261Y375547D01*
X502323Y375641D01*
X502391Y375731D01*
X502402Y375759D01*
X502418Y375783D01*
X502452Y375891D01*
X502493Y375997D01*
X502495Y376026D01*
X502504Y376054D01*
X502507Y376168D01*
X502516Y376280D01*
X502510Y376309D01*
X502511Y376338D01*
X502483Y376448D01*
X502460Y376559D01*
X502447Y376585D01*
X502439Y376613D01*
X502382Y376711D01*
X502329Y376811D01*
X502309Y376833D01*
X502294Y376858D01*
X502212Y376935D01*
X502134Y377017D01*
X502108Y377032D01*
X502087Y377052D01*
X501986Y377104D01*
X501888Y377161D01*
X501860Y377168D01*
X501834Y377182D01*
X501756Y377195D01*
X501613Y377231D01*
X501550Y377229D01*
X501503Y377237D01*
X139700Y377237D01*
X139656Y377231D01*
X139620Y377234D01*
X136394Y376980D01*
X136236Y376945D01*
X136160Y376934D01*
X130024Y374940D01*
X129769Y374815D01*
X129755Y374803D01*
X129741Y374796D01*
X124521Y371003D01*
X124317Y370806D01*
X124308Y370789D01*
X124297Y370779D01*
X120504Y365559D01*
X120371Y365308D01*
X120367Y365290D01*
X120360Y365276D01*
X118366Y359140D01*
X118338Y358980D01*
X118320Y358906D01*
X118066Y355680D01*
X118069Y355635D01*
X118063Y355600D01*
X118063Y223981D01*
X115208Y215195D01*
X109778Y207722D01*
X102305Y202292D01*
X93519Y199437D01*
X25400Y199437D01*
X25356Y199431D01*
X25320Y199434D01*
X22094Y199180D01*
X21936Y199145D01*
X21860Y199134D01*
X15724Y197140D01*
X15469Y197015D01*
X15455Y197003D01*
X15441Y196996D01*
X10221Y193203D01*
X10017Y193006D01*
X10008Y192989D01*
X9997Y192979D01*
X6204Y187759D01*
X6071Y187508D01*
X6067Y187490D01*
X6060Y187476D01*
X4066Y181340D01*
X4038Y181180D01*
X4020Y181106D01*
X3766Y177880D01*
X3769Y177835D01*
X3763Y177800D01*
X3763Y25400D01*
X3769Y25356D01*
X3766Y25320D01*
X4020Y22094D01*
X4055Y21936D01*
X4066Y21860D01*
X6060Y15724D01*
X6185Y15469D01*
X6197Y15455D01*
X6204Y15441D01*
X9997Y10221D01*
X10194Y10017D01*
X10211Y10008D01*
X10221Y9997D01*
X15441Y6204D01*
X15692Y6071D01*
X15710Y6067D01*
X15724Y6060D01*
X21860Y4066D01*
X22020Y4038D01*
X22094Y4020D01*
X25320Y3766D01*
X25365Y3769D01*
X25400Y3763D01*
X379532Y3763D01*
X379561Y3767D01*
G37*
%LPC*%
G36*
X721727Y67817D02*
X721727Y67817D01*
X717713Y69480D01*
X714640Y72553D01*
X712977Y76567D01*
X712977Y80913D01*
X714640Y84927D01*
X715609Y85896D01*
X715627Y85920D01*
X715649Y85939D01*
X715712Y86033D01*
X715780Y86123D01*
X715790Y86151D01*
X715807Y86175D01*
X715841Y86283D01*
X715881Y86389D01*
X715884Y86418D01*
X715892Y86446D01*
X715895Y86560D01*
X715905Y86672D01*
X715899Y86701D01*
X715900Y86730D01*
X715871Y86840D01*
X715849Y86951D01*
X715835Y86977D01*
X715828Y87005D01*
X715770Y87103D01*
X715718Y87203D01*
X715698Y87225D01*
X715683Y87250D01*
X715600Y87327D01*
X715522Y87409D01*
X715497Y87424D01*
X715475Y87444D01*
X715374Y87496D01*
X715277Y87553D01*
X715248Y87560D01*
X715222Y87574D01*
X715145Y87587D01*
X715001Y87623D01*
X714939Y87621D01*
X714891Y87629D01*
X562251Y87629D01*
X562137Y87613D01*
X562023Y87603D01*
X561997Y87593D01*
X561969Y87589D01*
X561864Y87542D01*
X561757Y87501D01*
X561735Y87485D01*
X561710Y87473D01*
X561622Y87399D01*
X561531Y87330D01*
X561514Y87307D01*
X561493Y87290D01*
X561429Y87194D01*
X561360Y87102D01*
X561351Y87076D01*
X561335Y87053D01*
X561301Y86943D01*
X561260Y86836D01*
X561258Y86808D01*
X561249Y86782D01*
X561247Y86667D01*
X561237Y86553D01*
X561243Y86528D01*
X561242Y86498D01*
X561309Y86241D01*
X561313Y86225D01*
X561849Y84932D01*
X561849Y82804D01*
X561857Y82746D01*
X561855Y82688D01*
X561877Y82606D01*
X561889Y82522D01*
X561912Y82469D01*
X561927Y82413D01*
X561970Y82340D01*
X562005Y82263D01*
X562043Y82218D01*
X562072Y82168D01*
X562134Y82110D01*
X562188Y82046D01*
X562237Y82014D01*
X562280Y81974D01*
X562355Y81935D01*
X562425Y81888D01*
X562481Y81871D01*
X562533Y81844D01*
X562601Y81833D01*
X562696Y81803D01*
X562796Y81800D01*
X562864Y81789D01*
X564992Y81789D01*
X567046Y80938D01*
X568618Y79366D01*
X569469Y77312D01*
X569469Y75088D01*
X568618Y73034D01*
X567046Y71462D01*
X564992Y70611D01*
X562768Y70611D01*
X560714Y71462D01*
X559142Y73034D01*
X558291Y75088D01*
X558291Y77216D01*
X558283Y77274D01*
X558285Y77332D01*
X558263Y77414D01*
X558251Y77498D01*
X558228Y77551D01*
X558213Y77607D01*
X558170Y77680D01*
X558135Y77757D01*
X558097Y77802D01*
X558068Y77852D01*
X558006Y77910D01*
X557952Y77974D01*
X557903Y78006D01*
X557860Y78046D01*
X557785Y78085D01*
X557715Y78132D01*
X557659Y78149D01*
X557607Y78176D01*
X557539Y78187D01*
X557444Y78217D01*
X557344Y78220D01*
X557276Y78231D01*
X555148Y78231D01*
X553094Y79082D01*
X551522Y80654D01*
X550671Y82708D01*
X550671Y84932D01*
X551207Y86225D01*
X551236Y86337D01*
X551271Y86446D01*
X551271Y86474D01*
X551278Y86501D01*
X551275Y86615D01*
X551278Y86730D01*
X551271Y86757D01*
X551270Y86785D01*
X551235Y86894D01*
X551206Y87005D01*
X551192Y87029D01*
X551183Y87056D01*
X551119Y87151D01*
X551061Y87250D01*
X551040Y87269D01*
X551025Y87292D01*
X550937Y87366D01*
X550853Y87444D01*
X550829Y87457D01*
X550807Y87475D01*
X550703Y87521D01*
X550600Y87574D01*
X550576Y87578D01*
X550548Y87590D01*
X550284Y87627D01*
X550269Y87629D01*
X533400Y87629D01*
X533342Y87621D01*
X533284Y87623D01*
X533202Y87601D01*
X533118Y87589D01*
X533065Y87566D01*
X533009Y87551D01*
X532936Y87508D01*
X532859Y87473D01*
X532814Y87435D01*
X532764Y87406D01*
X532706Y87344D01*
X532642Y87290D01*
X532610Y87241D01*
X532570Y87198D01*
X532531Y87123D01*
X532484Y87053D01*
X532467Y86997D01*
X532440Y86945D01*
X532429Y86877D01*
X532399Y86782D01*
X532396Y86682D01*
X532385Y86614D01*
X532385Y85859D01*
X532397Y85772D01*
X532400Y85685D01*
X532417Y85632D01*
X532425Y85578D01*
X532460Y85498D01*
X532487Y85414D01*
X532515Y85375D01*
X532541Y85318D01*
X532637Y85205D01*
X532682Y85141D01*
X533249Y84574D01*
X534135Y82437D01*
X534135Y80123D01*
X533249Y77986D01*
X531614Y76351D01*
X529477Y75465D01*
X527163Y75465D01*
X525026Y76351D01*
X523391Y77986D01*
X522505Y80123D01*
X522505Y82437D01*
X523391Y84574D01*
X523958Y85141D01*
X524010Y85211D01*
X524070Y85275D01*
X524096Y85324D01*
X524129Y85368D01*
X524160Y85450D01*
X524200Y85528D01*
X524208Y85575D01*
X524230Y85634D01*
X524242Y85782D01*
X524255Y85859D01*
X524255Y86614D01*
X524247Y86672D01*
X524249Y86730D01*
X524227Y86812D01*
X524215Y86896D01*
X524192Y86949D01*
X524177Y87005D01*
X524134Y87078D01*
X524099Y87155D01*
X524061Y87200D01*
X524032Y87250D01*
X523970Y87308D01*
X523916Y87372D01*
X523867Y87404D01*
X523824Y87444D01*
X523749Y87483D01*
X523679Y87530D01*
X523623Y87547D01*
X523571Y87574D01*
X523503Y87585D01*
X523408Y87615D01*
X523308Y87618D01*
X523240Y87629D01*
X422148Y87629D01*
X422090Y87621D01*
X422032Y87623D01*
X421950Y87601D01*
X421866Y87589D01*
X421813Y87566D01*
X421757Y87551D01*
X421684Y87508D01*
X421607Y87473D01*
X421562Y87435D01*
X421512Y87406D01*
X421454Y87344D01*
X421390Y87290D01*
X421358Y87241D01*
X421318Y87198D01*
X421279Y87123D01*
X421232Y87053D01*
X421215Y86997D01*
X421188Y86945D01*
X421177Y86877D01*
X421147Y86782D01*
X421144Y86682D01*
X421133Y86614D01*
X421133Y70278D01*
X419942Y69087D01*
X380158Y69087D01*
X378967Y70278D01*
X378967Y110062D01*
X380158Y111253D01*
X399877Y111253D01*
X399964Y111265D01*
X400051Y111268D01*
X400104Y111285D01*
X400159Y111293D01*
X400238Y111328D01*
X400322Y111355D01*
X400361Y111383D01*
X400418Y111409D01*
X400531Y111505D01*
X400595Y111550D01*
X402750Y113706D01*
X402768Y113729D01*
X402790Y113748D01*
X402853Y113842D01*
X402921Y113933D01*
X402932Y113960D01*
X402948Y113985D01*
X402982Y114093D01*
X403022Y114198D01*
X403025Y114228D01*
X403034Y114256D01*
X403037Y114369D01*
X403046Y114482D01*
X403040Y114510D01*
X403041Y114540D01*
X403012Y114649D01*
X402990Y114760D01*
X402977Y114787D01*
X402969Y114815D01*
X402911Y114912D01*
X402859Y115013D01*
X402839Y115034D01*
X402824Y115059D01*
X402741Y115137D01*
X402663Y115219D01*
X402638Y115234D01*
X402617Y115254D01*
X402516Y115305D01*
X402418Y115363D01*
X402390Y115370D01*
X402364Y115383D01*
X402286Y115396D01*
X402143Y115433D01*
X402080Y115431D01*
X402032Y115439D01*
X308130Y115439D01*
X308044Y115426D01*
X307956Y115424D01*
X307904Y115407D01*
X307849Y115399D01*
X307769Y115363D01*
X307686Y115336D01*
X307647Y115308D01*
X307590Y115283D01*
X307476Y115187D01*
X307413Y115141D01*
X275618Y83347D01*
X273377Y82419D01*
X181667Y82419D01*
X179426Y83347D01*
X154851Y107922D01*
X153923Y110163D01*
X153923Y330011D01*
X154851Y332252D01*
X170668Y348069D01*
X172909Y348997D01*
X191713Y348997D01*
X193954Y348069D01*
X195669Y346354D01*
X196597Y344113D01*
X196597Y341687D01*
X195997Y340241D01*
X195969Y340129D01*
X195934Y340020D01*
X195933Y339992D01*
X195927Y339965D01*
X195930Y339851D01*
X195927Y339736D01*
X195934Y339709D01*
X195935Y339681D01*
X195970Y339572D01*
X195999Y339461D01*
X196013Y339437D01*
X196021Y339410D01*
X196085Y339315D01*
X196144Y339216D01*
X196164Y339197D01*
X196180Y339174D01*
X196267Y339100D01*
X196351Y339022D01*
X196376Y339009D01*
X196397Y338991D01*
X196502Y338945D01*
X196604Y338892D01*
X196629Y338888D01*
X196657Y338876D01*
X196921Y338839D01*
X196935Y338837D01*
X199401Y338837D01*
X201538Y337951D01*
X203174Y336316D01*
X204059Y334179D01*
X204059Y331865D01*
X203174Y329728D01*
X201538Y328093D01*
X199401Y327207D01*
X197087Y327207D01*
X194950Y328093D01*
X193748Y329295D01*
X193678Y329347D01*
X193614Y329407D01*
X193565Y329433D01*
X193521Y329466D01*
X193439Y329497D01*
X193361Y329537D01*
X193313Y329545D01*
X193255Y329567D01*
X193107Y329579D01*
X193030Y329592D01*
X192465Y329592D01*
X192379Y329580D01*
X192291Y329577D01*
X192239Y329560D01*
X192184Y329552D01*
X192104Y329517D01*
X192021Y329490D01*
X191981Y329462D01*
X191924Y329436D01*
X191811Y329340D01*
X191747Y329295D01*
X184143Y321690D01*
X182596Y321690D01*
X182595Y321690D01*
X182593Y321690D01*
X182453Y321670D01*
X182315Y321650D01*
X182314Y321650D01*
X182312Y321650D01*
X182186Y321593D01*
X182056Y321534D01*
X182054Y321533D01*
X182053Y321532D01*
X181946Y321441D01*
X181839Y321351D01*
X181838Y321349D01*
X181836Y321348D01*
X181828Y321335D01*
X181681Y321114D01*
X181672Y321085D01*
X181659Y321064D01*
X181440Y320537D01*
X179805Y318902D01*
X177668Y318016D01*
X175354Y318016D01*
X173217Y318902D01*
X171582Y320537D01*
X170696Y322674D01*
X170696Y324988D01*
X171582Y327125D01*
X173217Y328760D01*
X175354Y329646D01*
X177668Y329646D01*
X179840Y328746D01*
X179852Y328735D01*
X179901Y328709D01*
X179945Y328676D01*
X180027Y328645D01*
X180105Y328605D01*
X180153Y328597D01*
X180211Y328575D01*
X180359Y328563D01*
X180436Y328550D01*
X180881Y328550D01*
X180968Y328562D01*
X181055Y328565D01*
X181108Y328582D01*
X181162Y328590D01*
X181242Y328625D01*
X181325Y328652D01*
X181365Y328680D01*
X181422Y328706D01*
X181535Y328802D01*
X181599Y328847D01*
X187822Y335070D01*
X187839Y335094D01*
X187862Y335113D01*
X187925Y335207D01*
X187993Y335297D01*
X188003Y335325D01*
X188019Y335349D01*
X188054Y335457D01*
X188094Y335563D01*
X188096Y335592D01*
X188105Y335620D01*
X188108Y335734D01*
X188118Y335846D01*
X188112Y335875D01*
X188113Y335904D01*
X188084Y336014D01*
X188062Y336125D01*
X188048Y336151D01*
X188041Y336179D01*
X187983Y336277D01*
X187931Y336377D01*
X187910Y336399D01*
X187895Y336424D01*
X187813Y336501D01*
X187735Y336583D01*
X187710Y336598D01*
X187688Y336618D01*
X187587Y336670D01*
X187490Y336727D01*
X187461Y336734D01*
X187435Y336748D01*
X187358Y336761D01*
X187214Y336797D01*
X187152Y336795D01*
X187104Y336803D01*
X177068Y336803D01*
X176981Y336791D01*
X176893Y336788D01*
X176841Y336771D01*
X176786Y336763D01*
X176706Y336728D01*
X176623Y336701D01*
X176584Y336673D01*
X176527Y336647D01*
X176413Y336551D01*
X176350Y336506D01*
X166414Y326570D01*
X166362Y326501D01*
X166302Y326437D01*
X166276Y326387D01*
X166243Y326343D01*
X166212Y326261D01*
X166172Y326184D01*
X166164Y326136D01*
X166142Y326078D01*
X166130Y325930D01*
X166117Y325852D01*
X166117Y114321D01*
X166129Y114235D01*
X166132Y114147D01*
X166149Y114095D01*
X166157Y114040D01*
X166192Y113960D01*
X166219Y113877D01*
X166247Y113838D01*
X166273Y113780D01*
X166369Y113667D01*
X166414Y113603D01*
X185108Y94910D01*
X185178Y94857D01*
X185242Y94797D01*
X185291Y94772D01*
X185335Y94739D01*
X185417Y94708D01*
X185495Y94668D01*
X185542Y94660D01*
X185601Y94637D01*
X185749Y94625D01*
X185826Y94612D01*
X269219Y94612D01*
X269305Y94624D01*
X269393Y94627D01*
X269445Y94644D01*
X269500Y94652D01*
X269580Y94688D01*
X269663Y94715D01*
X269702Y94743D01*
X269760Y94768D01*
X269873Y94864D01*
X269937Y94910D01*
X301731Y126704D01*
X303972Y127632D01*
X486492Y127632D01*
X486522Y127636D01*
X486553Y127634D01*
X486630Y127652D01*
X486773Y127672D01*
X486832Y127698D01*
X486880Y127709D01*
X489249Y128691D01*
X491960Y128691D01*
X494465Y127653D01*
X496382Y125736D01*
X497419Y123232D01*
X497419Y120520D01*
X496582Y118499D01*
X496553Y118387D01*
X496518Y118278D01*
X496518Y118250D01*
X496511Y118223D01*
X496514Y118109D01*
X496511Y117994D01*
X496518Y117967D01*
X496519Y117939D01*
X496554Y117830D01*
X496583Y117719D01*
X496597Y117695D01*
X496606Y117668D01*
X496670Y117573D01*
X496728Y117474D01*
X496748Y117455D01*
X496764Y117432D01*
X496852Y117358D01*
X496936Y117280D01*
X496960Y117267D01*
X496981Y117249D01*
X497086Y117203D01*
X497189Y117150D01*
X497213Y117146D01*
X497241Y117134D01*
X497505Y117097D01*
X497520Y117095D01*
X902818Y117095D01*
X902903Y117107D01*
X902989Y117109D01*
X903043Y117127D01*
X903099Y117135D01*
X903178Y117170D01*
X903259Y117196D01*
X903307Y117228D01*
X903359Y117251D01*
X903424Y117306D01*
X903496Y117354D01*
X903532Y117398D01*
X903576Y117434D01*
X903623Y117506D01*
X903679Y117572D01*
X903702Y117624D01*
X903733Y117671D01*
X903759Y117753D01*
X903794Y117832D01*
X903802Y117888D01*
X903819Y117942D01*
X903821Y118028D01*
X903833Y118113D01*
X903825Y118169D01*
X903826Y118226D01*
X903805Y118309D01*
X903792Y118395D01*
X903769Y118446D01*
X903755Y118501D01*
X903711Y118575D01*
X903675Y118654D01*
X903638Y118697D01*
X903609Y118746D01*
X903547Y118805D01*
X903491Y118870D01*
X903449Y118896D01*
X903402Y118940D01*
X903273Y119006D01*
X903206Y119048D01*
X901579Y119722D01*
X900007Y121294D01*
X899156Y123348D01*
X899156Y125572D01*
X900007Y127626D01*
X901579Y129198D01*
X903633Y130049D01*
X905856Y130049D01*
X907910Y129198D01*
X909302Y127806D01*
X909372Y127754D01*
X909436Y127694D01*
X909485Y127668D01*
X909529Y127635D01*
X909611Y127604D01*
X909689Y127564D01*
X909736Y127556D01*
X909795Y127534D01*
X909943Y127522D01*
X910020Y127509D01*
X1040123Y127509D01*
X1042206Y125426D01*
X1042206Y125425D01*
X1049575Y118056D01*
X1049667Y117987D01*
X1049755Y117913D01*
X1049780Y117902D01*
X1049802Y117885D01*
X1049910Y117845D01*
X1050015Y117798D01*
X1050042Y117794D01*
X1050068Y117784D01*
X1050182Y117775D01*
X1050296Y117759D01*
X1050324Y117763D01*
X1050351Y117761D01*
X1050464Y117783D01*
X1050578Y117800D01*
X1050603Y117811D01*
X1050630Y117817D01*
X1050732Y117869D01*
X1050837Y117917D01*
X1050858Y117935D01*
X1050882Y117948D01*
X1050966Y118026D01*
X1051053Y118101D01*
X1051066Y118122D01*
X1051089Y118143D01*
X1051223Y118372D01*
X1051231Y118386D01*
X1051902Y120006D01*
X1053474Y121578D01*
X1055528Y122429D01*
X1057752Y122429D01*
X1059806Y121578D01*
X1061378Y120006D01*
X1062229Y117952D01*
X1062229Y115983D01*
X1062241Y115897D01*
X1062244Y115809D01*
X1062261Y115757D01*
X1062269Y115702D01*
X1062304Y115622D01*
X1062331Y115539D01*
X1062359Y115500D01*
X1062385Y115442D01*
X1062481Y115329D01*
X1062526Y115265D01*
X1073456Y104336D01*
X1073457Y104335D01*
X1073458Y104334D01*
X1073571Y104249D01*
X1073683Y104165D01*
X1073684Y104165D01*
X1073686Y104164D01*
X1073817Y104114D01*
X1073948Y104064D01*
X1073950Y104064D01*
X1073951Y104063D01*
X1074091Y104052D01*
X1074232Y104040D01*
X1074233Y104041D01*
X1074235Y104040D01*
X1074249Y104044D01*
X1074510Y104096D01*
X1074538Y104110D01*
X1074562Y104116D01*
X1075848Y104649D01*
X1076960Y104649D01*
X1077045Y104661D01*
X1077131Y104663D01*
X1077185Y104681D01*
X1077242Y104689D01*
X1077320Y104724D01*
X1077402Y104750D01*
X1077449Y104782D01*
X1077501Y104805D01*
X1077567Y104860D01*
X1077638Y104908D01*
X1077675Y104952D01*
X1077718Y104988D01*
X1077766Y105060D01*
X1077821Y105126D01*
X1077844Y105178D01*
X1077876Y105225D01*
X1077902Y105307D01*
X1077936Y105386D01*
X1077944Y105442D01*
X1077961Y105496D01*
X1077964Y105582D01*
X1077975Y105667D01*
X1077967Y105723D01*
X1077969Y105780D01*
X1077947Y105863D01*
X1077935Y105948D01*
X1077911Y106000D01*
X1077897Y106055D01*
X1077853Y106129D01*
X1077818Y106208D01*
X1077781Y106251D01*
X1077752Y106300D01*
X1077689Y106359D01*
X1077633Y106424D01*
X1077591Y106450D01*
X1077544Y106494D01*
X1077415Y106560D01*
X1077349Y106602D01*
X1076334Y107022D01*
X1074762Y108594D01*
X1073911Y110648D01*
X1073911Y112872D01*
X1074762Y114926D01*
X1076334Y116498D01*
X1078388Y117349D01*
X1080612Y117349D01*
X1082666Y116498D01*
X1084238Y114926D01*
X1085089Y112872D01*
X1085089Y110648D01*
X1084238Y108594D01*
X1082666Y107022D01*
X1080612Y106171D01*
X1079500Y106171D01*
X1079415Y106159D01*
X1079329Y106157D01*
X1079275Y106139D01*
X1079218Y106131D01*
X1079140Y106096D01*
X1079058Y106070D01*
X1079011Y106038D01*
X1078959Y106015D01*
X1078893Y105960D01*
X1078822Y105912D01*
X1078785Y105868D01*
X1078742Y105832D01*
X1078694Y105760D01*
X1078639Y105694D01*
X1078616Y105642D01*
X1078584Y105595D01*
X1078558Y105513D01*
X1078524Y105434D01*
X1078516Y105378D01*
X1078499Y105324D01*
X1078496Y105238D01*
X1078485Y105153D01*
X1078493Y105097D01*
X1078491Y105040D01*
X1078513Y104957D01*
X1078525Y104872D01*
X1078549Y104820D01*
X1078563Y104765D01*
X1078607Y104691D01*
X1078642Y104612D01*
X1078679Y104569D01*
X1078708Y104520D01*
X1078771Y104461D01*
X1078827Y104396D01*
X1078869Y104370D01*
X1078916Y104326D01*
X1079045Y104260D01*
X1079111Y104218D01*
X1080126Y103798D01*
X1081698Y102226D01*
X1082549Y100172D01*
X1082549Y97948D01*
X1082118Y96909D01*
X1082089Y96797D01*
X1082055Y96688D01*
X1082054Y96660D01*
X1082047Y96633D01*
X1082050Y96519D01*
X1082047Y96404D01*
X1082054Y96377D01*
X1082055Y96349D01*
X1082090Y96240D01*
X1082119Y96129D01*
X1082133Y96105D01*
X1082142Y96078D01*
X1082206Y95983D01*
X1082264Y95884D01*
X1082285Y95865D01*
X1082300Y95842D01*
X1082388Y95768D01*
X1082472Y95690D01*
X1082497Y95677D01*
X1082518Y95659D01*
X1082623Y95613D01*
X1082725Y95560D01*
X1082750Y95556D01*
X1082778Y95544D01*
X1083041Y95507D01*
X1083056Y95505D01*
X1171992Y95505D01*
X1172079Y95517D01*
X1172166Y95520D01*
X1172219Y95537D01*
X1172274Y95545D01*
X1172353Y95580D01*
X1172437Y95607D01*
X1172476Y95635D01*
X1172533Y95661D01*
X1172646Y95757D01*
X1172710Y95802D01*
X1180294Y103386D01*
X1180346Y103456D01*
X1180406Y103520D01*
X1180432Y103569D01*
X1180465Y103613D01*
X1180496Y103695D01*
X1180536Y103773D01*
X1180544Y103820D01*
X1180566Y103879D01*
X1180578Y104027D01*
X1180591Y104104D01*
X1180591Y105252D01*
X1181442Y107306D01*
X1183014Y108878D01*
X1185068Y109729D01*
X1187292Y109729D01*
X1189346Y108878D01*
X1190918Y107306D01*
X1191769Y105252D01*
X1191769Y103028D01*
X1190918Y100974D01*
X1189346Y99402D01*
X1187292Y98551D01*
X1185068Y98551D01*
X1184998Y98580D01*
X1184996Y98581D01*
X1184995Y98582D01*
X1184862Y98615D01*
X1184723Y98651D01*
X1184721Y98651D01*
X1184719Y98652D01*
X1184579Y98647D01*
X1184438Y98643D01*
X1184437Y98643D01*
X1184435Y98643D01*
X1184302Y98600D01*
X1184168Y98557D01*
X1184166Y98556D01*
X1184165Y98555D01*
X1184153Y98547D01*
X1183931Y98398D01*
X1183912Y98375D01*
X1183891Y98360D01*
X1174938Y89407D01*
X1069601Y89407D01*
X1067518Y91490D01*
X1067518Y91491D01*
X1037895Y121114D01*
X1037825Y121166D01*
X1037761Y121226D01*
X1037711Y121252D01*
X1037667Y121285D01*
X1037586Y121316D01*
X1037508Y121356D01*
X1037460Y121364D01*
X1037402Y121386D01*
X1037254Y121398D01*
X1037177Y121411D01*
X910020Y121411D01*
X909933Y121399D01*
X909846Y121396D01*
X909793Y121379D01*
X909738Y121371D01*
X909659Y121336D01*
X909575Y121309D01*
X909536Y121281D01*
X909479Y121255D01*
X909366Y121159D01*
X909302Y121114D01*
X907910Y119722D01*
X906283Y119048D01*
X906209Y119004D01*
X906130Y118969D01*
X906087Y118932D01*
X906038Y118903D01*
X905979Y118841D01*
X905913Y118785D01*
X905882Y118738D01*
X905843Y118697D01*
X905803Y118620D01*
X905756Y118549D01*
X905738Y118495D01*
X905712Y118444D01*
X905696Y118360D01*
X905670Y118278D01*
X905668Y118221D01*
X905657Y118165D01*
X905665Y118080D01*
X905663Y117994D01*
X905677Y117939D01*
X905682Y117882D01*
X905713Y117802D01*
X905734Y117719D01*
X905763Y117670D01*
X905784Y117617D01*
X905836Y117548D01*
X905880Y117474D01*
X905921Y117435D01*
X905955Y117390D01*
X906024Y117338D01*
X906087Y117280D01*
X906138Y117254D01*
X906183Y117220D01*
X906264Y117189D01*
X906340Y117150D01*
X906389Y117142D01*
X906449Y117119D01*
X906594Y117108D01*
X906671Y117095D01*
X962289Y117095D01*
X967703Y114852D01*
X971005Y111550D01*
X971075Y111498D01*
X971139Y111438D01*
X971188Y111412D01*
X971232Y111379D01*
X971314Y111348D01*
X971392Y111308D01*
X971439Y111300D01*
X971498Y111278D01*
X971646Y111266D01*
X971723Y111253D01*
X991442Y111253D01*
X992633Y110062D01*
X992633Y70278D01*
X991442Y69087D01*
X951658Y69087D01*
X950467Y70278D01*
X950467Y86614D01*
X950459Y86672D01*
X950461Y86730D01*
X950439Y86812D01*
X950427Y86896D01*
X950404Y86949D01*
X950389Y87005D01*
X950346Y87078D01*
X950311Y87155D01*
X950273Y87200D01*
X950244Y87250D01*
X950182Y87308D01*
X950128Y87372D01*
X950079Y87404D01*
X950036Y87444D01*
X949961Y87483D01*
X949891Y87530D01*
X949835Y87547D01*
X949783Y87574D01*
X949715Y87585D01*
X949620Y87615D01*
X949520Y87618D01*
X949452Y87629D01*
X874671Y87629D01*
X874557Y87613D01*
X874443Y87603D01*
X874417Y87593D01*
X874389Y87589D01*
X874284Y87542D01*
X874177Y87501D01*
X874155Y87485D01*
X874130Y87473D01*
X874042Y87399D01*
X873951Y87330D01*
X873934Y87307D01*
X873913Y87290D01*
X873849Y87194D01*
X873780Y87102D01*
X873771Y87076D01*
X873755Y87053D01*
X873721Y86943D01*
X873680Y86836D01*
X873678Y86808D01*
X873669Y86782D01*
X873667Y86667D01*
X873657Y86553D01*
X873663Y86528D01*
X873662Y86498D01*
X873729Y86241D01*
X873733Y86225D01*
X874269Y84932D01*
X874269Y82708D01*
X873418Y80654D01*
X871846Y79082D01*
X869792Y78231D01*
X867568Y78231D01*
X865514Y79082D01*
X863942Y80654D01*
X863091Y82708D01*
X863091Y84932D01*
X863627Y86225D01*
X863656Y86337D01*
X863691Y86446D01*
X863691Y86474D01*
X863698Y86501D01*
X863695Y86615D01*
X863698Y86730D01*
X863691Y86757D01*
X863690Y86785D01*
X863655Y86894D01*
X863626Y87005D01*
X863612Y87029D01*
X863603Y87056D01*
X863539Y87151D01*
X863481Y87250D01*
X863460Y87269D01*
X863445Y87292D01*
X863357Y87366D01*
X863273Y87444D01*
X863249Y87457D01*
X863227Y87475D01*
X863123Y87521D01*
X863020Y87574D01*
X862996Y87578D01*
X862968Y87590D01*
X862704Y87627D01*
X862689Y87629D01*
X761746Y87629D01*
X761688Y87621D01*
X761630Y87623D01*
X761548Y87601D01*
X761464Y87589D01*
X761411Y87566D01*
X761355Y87551D01*
X761282Y87508D01*
X761205Y87473D01*
X761160Y87435D01*
X761110Y87406D01*
X761052Y87344D01*
X760988Y87290D01*
X760956Y87241D01*
X760916Y87198D01*
X760877Y87123D01*
X760830Y87053D01*
X760813Y86997D01*
X760786Y86945D01*
X760775Y86877D01*
X760745Y86782D01*
X760742Y86682D01*
X760731Y86614D01*
X760731Y80771D01*
X750316Y80771D01*
X750258Y80763D01*
X750200Y80765D01*
X750118Y80743D01*
X750035Y80731D01*
X749981Y80707D01*
X749925Y80693D01*
X749852Y80650D01*
X749775Y80615D01*
X749731Y80577D01*
X749680Y80547D01*
X749623Y80486D01*
X749558Y80431D01*
X749526Y80383D01*
X749486Y80340D01*
X749447Y80265D01*
X749401Y80195D01*
X749383Y80139D01*
X749356Y80087D01*
X749345Y80019D01*
X749315Y79924D01*
X749312Y79824D01*
X749301Y79756D01*
X749301Y78739D01*
X749299Y78739D01*
X749299Y79756D01*
X749291Y79814D01*
X749292Y79872D01*
X749271Y79954D01*
X749259Y80037D01*
X749235Y80091D01*
X749221Y80147D01*
X749178Y80220D01*
X749143Y80297D01*
X749105Y80342D01*
X749075Y80392D01*
X749014Y80450D01*
X748959Y80514D01*
X748911Y80546D01*
X748868Y80586D01*
X748793Y80625D01*
X748723Y80671D01*
X748667Y80689D01*
X748615Y80716D01*
X748547Y80727D01*
X748452Y80757D01*
X748352Y80760D01*
X748284Y80771D01*
X737869Y80771D01*
X737869Y86614D01*
X737861Y86672D01*
X737863Y86730D01*
X737841Y86812D01*
X737829Y86896D01*
X737806Y86949D01*
X737791Y87005D01*
X737748Y87078D01*
X737713Y87155D01*
X737675Y87200D01*
X737646Y87250D01*
X737584Y87308D01*
X737530Y87372D01*
X737481Y87404D01*
X737438Y87444D01*
X737363Y87483D01*
X737293Y87530D01*
X737237Y87547D01*
X737185Y87574D01*
X737117Y87585D01*
X737022Y87615D01*
X736922Y87618D01*
X736854Y87629D01*
X732909Y87629D01*
X732880Y87625D01*
X732851Y87628D01*
X732739Y87605D01*
X732627Y87589D01*
X732601Y87577D01*
X732572Y87572D01*
X732471Y87519D01*
X732368Y87473D01*
X732346Y87454D01*
X732319Y87441D01*
X732237Y87363D01*
X732151Y87290D01*
X732135Y87265D01*
X732113Y87245D01*
X732056Y87147D01*
X731993Y87053D01*
X731984Y87025D01*
X731970Y87000D01*
X731942Y86890D01*
X731908Y86782D01*
X731907Y86752D01*
X731900Y86724D01*
X731903Y86611D01*
X731900Y86498D01*
X731908Y86469D01*
X731909Y86440D01*
X731944Y86332D01*
X731972Y86223D01*
X731987Y86197D01*
X731996Y86169D01*
X732042Y86105D01*
X732117Y85978D01*
X732163Y85935D01*
X732191Y85896D01*
X733160Y84927D01*
X734823Y80913D01*
X734823Y76567D01*
X733160Y72553D01*
X730087Y69480D01*
X726073Y67817D01*
X721727Y67817D01*
G37*
%LPD*%
%LPC*%
G36*
X314396Y129666D02*
X314396Y129666D01*
X293984Y150078D01*
X293915Y150130D01*
X293851Y150190D01*
X293801Y150216D01*
X293757Y150249D01*
X293675Y150280D01*
X293597Y150320D01*
X293550Y150328D01*
X293491Y150350D01*
X293344Y150362D01*
X293266Y150375D01*
X289917Y150375D01*
X285902Y152038D01*
X282830Y155111D01*
X281167Y159125D01*
X281167Y163471D01*
X282830Y167485D01*
X285902Y170558D01*
X289917Y172221D01*
X294262Y172221D01*
X298277Y170558D01*
X301349Y167485D01*
X303012Y163471D01*
X303012Y159125D01*
X301349Y155111D01*
X300360Y154121D01*
X300324Y154074D01*
X300282Y154034D01*
X300239Y153961D01*
X300189Y153894D01*
X300168Y153839D01*
X300138Y153788D01*
X300117Y153707D01*
X300087Y153628D01*
X300083Y153570D01*
X300068Y153513D01*
X300071Y153429D01*
X300064Y153345D01*
X300075Y153287D01*
X300077Y153229D01*
X300103Y153149D01*
X300120Y153066D01*
X300147Y153014D01*
X300165Y152958D01*
X300205Y152902D01*
X300251Y152814D01*
X300319Y152741D01*
X300359Y152685D01*
X304834Y148211D01*
X304857Y148193D01*
X304876Y148171D01*
X304928Y148136D01*
X304953Y148113D01*
X304987Y148096D01*
X305061Y148040D01*
X305088Y148029D01*
X305113Y148013D01*
X305221Y147979D01*
X305327Y147939D01*
X305356Y147936D01*
X305384Y147927D01*
X305497Y147924D01*
X305610Y147915D01*
X305639Y147921D01*
X305668Y147920D01*
X305778Y147949D01*
X305889Y147971D01*
X305915Y147984D01*
X305943Y147992D01*
X306040Y148050D01*
X306141Y148102D01*
X306162Y148122D01*
X306187Y148137D01*
X306265Y148220D01*
X306347Y148298D01*
X306362Y148323D01*
X306382Y148344D01*
X306433Y148445D01*
X306491Y148543D01*
X306498Y148571D01*
X306511Y148598D01*
X306524Y148675D01*
X306538Y148728D01*
X306553Y148776D01*
X306553Y148788D01*
X306561Y148819D01*
X306559Y148881D01*
X306567Y148929D01*
X306567Y150771D01*
X308230Y154785D01*
X311302Y157858D01*
X315317Y159521D01*
X319662Y159521D01*
X323677Y157858D01*
X326749Y154785D01*
X328412Y150771D01*
X328412Y146425D01*
X327425Y144040D01*
X327424Y144039D01*
X327423Y144038D01*
X327389Y143905D01*
X327354Y143765D01*
X327354Y143764D01*
X327353Y143762D01*
X327358Y143621D01*
X327362Y143481D01*
X327362Y143480D01*
X327362Y143478D01*
X327406Y143344D01*
X327448Y143210D01*
X327449Y143209D01*
X327450Y143207D01*
X327458Y143195D01*
X327607Y142974D01*
X327630Y142954D01*
X327645Y142934D01*
X329946Y140633D01*
X330015Y140581D01*
X330079Y140521D01*
X330129Y140495D01*
X330173Y140462D01*
X330254Y140431D01*
X330332Y140391D01*
X330380Y140383D01*
X330438Y140361D01*
X330586Y140349D01*
X330663Y140336D01*
X391732Y140336D01*
X391819Y140348D01*
X391906Y140351D01*
X391959Y140368D01*
X392014Y140376D01*
X392094Y140411D01*
X392177Y140438D01*
X392216Y140466D01*
X392273Y140492D01*
X392387Y140588D01*
X392450Y140633D01*
X437228Y185411D01*
X437281Y185481D01*
X437341Y185545D01*
X437366Y185594D01*
X437399Y185638D01*
X437430Y185720D01*
X437470Y185798D01*
X437478Y185845D01*
X437500Y185904D01*
X437512Y186051D01*
X437525Y186129D01*
X437525Y187917D01*
X438376Y189972D01*
X439948Y191544D01*
X441296Y192102D01*
X441322Y192117D01*
X441350Y192126D01*
X441444Y192189D01*
X441541Y192247D01*
X441561Y192268D01*
X441586Y192284D01*
X441659Y192371D01*
X441736Y192453D01*
X441750Y192479D01*
X441769Y192502D01*
X441815Y192605D01*
X441867Y192706D01*
X441872Y192735D01*
X441884Y192762D01*
X441900Y192874D01*
X441922Y192985D01*
X441919Y193014D01*
X441923Y193043D01*
X441907Y193155D01*
X441897Y193268D01*
X441887Y193295D01*
X441882Y193325D01*
X441836Y193428D01*
X441795Y193533D01*
X441777Y193557D01*
X441765Y193584D01*
X441692Y193670D01*
X441623Y193760D01*
X441600Y193778D01*
X441581Y193800D01*
X441515Y193842D01*
X441396Y193930D01*
X441337Y193952D01*
X441296Y193978D01*
X439948Y194536D01*
X438376Y196108D01*
X437525Y198163D01*
X437525Y199951D01*
X437513Y200038D01*
X437510Y200125D01*
X437493Y200178D01*
X437486Y200233D01*
X437450Y200313D01*
X437423Y200396D01*
X437395Y200435D01*
X437369Y200492D01*
X437273Y200605D01*
X437228Y200669D01*
X428010Y209887D01*
X427941Y209939D01*
X427877Y209999D01*
X427827Y210025D01*
X427783Y210058D01*
X427701Y210089D01*
X427623Y210129D01*
X427576Y210137D01*
X427517Y210159D01*
X427370Y210171D01*
X427292Y210184D01*
X324601Y210184D01*
X324572Y210180D01*
X324543Y210183D01*
X324432Y210160D01*
X324320Y210144D01*
X324293Y210132D01*
X324264Y210127D01*
X324164Y210074D01*
X324060Y210028D01*
X324038Y210009D01*
X324012Y209996D01*
X323930Y209918D01*
X323843Y209845D01*
X323827Y209820D01*
X323806Y209800D01*
X323749Y209702D01*
X323686Y209608D01*
X323677Y209580D01*
X323662Y209555D01*
X323634Y209445D01*
X323600Y209337D01*
X323599Y209307D01*
X323592Y209279D01*
X323596Y209166D01*
X323593Y209053D01*
X323600Y209024D01*
X323601Y208995D01*
X323636Y208887D01*
X323665Y208778D01*
X323680Y208752D01*
X323689Y208724D01*
X323734Y208661D01*
X323810Y208533D01*
X323855Y208490D01*
X323883Y208451D01*
X326749Y205585D01*
X328412Y201571D01*
X328412Y197225D01*
X326749Y193211D01*
X323677Y190138D01*
X319662Y188475D01*
X315317Y188475D01*
X311302Y190138D01*
X308230Y193211D01*
X306567Y197225D01*
X306567Y201571D01*
X308230Y205585D01*
X310971Y208327D01*
X311006Y208373D01*
X311049Y208414D01*
X311092Y208487D01*
X311142Y208554D01*
X311163Y208609D01*
X311193Y208659D01*
X311213Y208741D01*
X311243Y208820D01*
X311248Y208878D01*
X311263Y208934D01*
X311260Y209019D01*
X311267Y209103D01*
X311255Y209160D01*
X311254Y209219D01*
X311228Y209299D01*
X311211Y209382D01*
X311184Y209433D01*
X311166Y209489D01*
X311126Y209545D01*
X311080Y209634D01*
X311011Y209706D01*
X310971Y209762D01*
X309019Y211715D01*
X304181Y216552D01*
X304113Y216604D01*
X304050Y216663D01*
X304000Y216689D01*
X303954Y216723D01*
X303874Y216754D01*
X303797Y216793D01*
X303742Y216804D01*
X303688Y216825D01*
X303603Y216832D01*
X303519Y216848D01*
X303462Y216843D01*
X303405Y216848D01*
X303321Y216831D01*
X303235Y216824D01*
X303182Y216803D01*
X303126Y216792D01*
X303050Y216753D01*
X302970Y216722D01*
X302925Y216687D01*
X302874Y216661D01*
X302812Y216602D01*
X302743Y216550D01*
X302709Y216505D01*
X302668Y216465D01*
X302624Y216391D01*
X302573Y216323D01*
X302553Y216269D01*
X302524Y216220D01*
X302503Y216137D01*
X302473Y216057D01*
X302468Y216000D01*
X302454Y215945D01*
X302457Y215859D01*
X302450Y215773D01*
X302461Y215725D01*
X302463Y215661D01*
X302508Y215523D01*
X302525Y215446D01*
X303012Y214271D01*
X303012Y209925D01*
X301349Y205911D01*
X298277Y202838D01*
X294262Y201175D01*
X289917Y201175D01*
X285902Y202838D01*
X282830Y205911D01*
X281167Y209925D01*
X281167Y214271D01*
X282830Y218285D01*
X285902Y221358D01*
X289917Y223021D01*
X294262Y223021D01*
X295438Y222534D01*
X295521Y222512D01*
X295601Y222482D01*
X295658Y222477D01*
X295713Y222463D01*
X295799Y222465D01*
X295885Y222458D01*
X295940Y222469D01*
X295997Y222471D01*
X296079Y222497D01*
X296163Y222514D01*
X296214Y222540D01*
X296268Y222558D01*
X296339Y222605D01*
X296416Y222645D01*
X296457Y222684D01*
X296504Y222716D01*
X296559Y222782D01*
X296622Y222841D01*
X296651Y222890D01*
X296687Y222933D01*
X296722Y223012D01*
X296765Y223086D01*
X296779Y223141D01*
X296803Y223193D01*
X296814Y223278D01*
X296836Y223362D01*
X296834Y223418D01*
X296842Y223475D01*
X296829Y223560D01*
X296826Y223646D01*
X296809Y223700D01*
X296801Y223756D01*
X296765Y223835D01*
X296739Y223916D01*
X296710Y223956D01*
X296684Y224015D01*
X296590Y224126D01*
X296544Y224190D01*
X294066Y226668D01*
X293996Y226720D01*
X293932Y226780D01*
X293883Y226806D01*
X293839Y226839D01*
X293757Y226870D01*
X293679Y226910D01*
X293632Y226918D01*
X293573Y226940D01*
X293425Y226952D01*
X293348Y226965D01*
X289995Y226965D01*
X286123Y228569D01*
X283160Y231532D01*
X281557Y235403D01*
X281557Y239593D01*
X283160Y243464D01*
X286123Y246427D01*
X289995Y248031D01*
X294185Y248031D01*
X298056Y246427D01*
X301019Y243464D01*
X302622Y239593D01*
X302622Y235403D01*
X301019Y231532D01*
X300320Y230832D01*
X300284Y230786D01*
X300242Y230745D01*
X300199Y230672D01*
X300149Y230605D01*
X300128Y230550D01*
X300098Y230500D01*
X300078Y230418D01*
X300047Y230339D01*
X300043Y230281D01*
X300028Y230225D01*
X300031Y230140D01*
X300024Y230056D01*
X300035Y229999D01*
X300037Y229940D01*
X300063Y229860D01*
X300080Y229777D01*
X300107Y229725D01*
X300125Y229670D01*
X300165Y229614D01*
X300211Y229525D01*
X300280Y229453D01*
X300320Y229397D01*
X304834Y224882D01*
X304857Y224865D01*
X304876Y224842D01*
X304971Y224779D01*
X305061Y224711D01*
X305088Y224701D01*
X305113Y224685D01*
X305221Y224651D01*
X305327Y224610D01*
X305356Y224608D01*
X305384Y224599D01*
X305497Y224596D01*
X305610Y224587D01*
X305639Y224592D01*
X305668Y224592D01*
X305778Y224620D01*
X305889Y224643D01*
X305915Y224656D01*
X305943Y224663D01*
X306040Y224721D01*
X306141Y224774D01*
X306162Y224794D01*
X306187Y224809D01*
X306265Y224891D01*
X306347Y224969D01*
X306362Y224995D01*
X306382Y225016D01*
X306434Y225117D01*
X306491Y225215D01*
X306498Y225243D01*
X306511Y225269D01*
X306524Y225347D01*
X306561Y225490D01*
X306559Y225553D01*
X306567Y225600D01*
X306567Y226971D01*
X308230Y230985D01*
X311302Y234058D01*
X315317Y235721D01*
X319662Y235721D01*
X323677Y234058D01*
X326749Y230985D01*
X328412Y226971D01*
X328412Y222625D01*
X328260Y222258D01*
X328231Y222147D01*
X328197Y222037D01*
X328196Y222009D01*
X328189Y221982D01*
X328192Y221868D01*
X328189Y221753D01*
X328196Y221726D01*
X328197Y221698D01*
X328232Y221589D01*
X328261Y221478D01*
X328275Y221454D01*
X328284Y221427D01*
X328348Y221332D01*
X328406Y221233D01*
X328427Y221214D01*
X328442Y221191D01*
X328530Y221117D01*
X328614Y221039D01*
X328638Y221026D01*
X328660Y221008D01*
X328765Y220961D01*
X328867Y220909D01*
X328891Y220905D01*
X328919Y220893D01*
X329183Y220856D01*
X329198Y220854D01*
X432607Y220854D01*
X434765Y218696D01*
X443740Y209721D01*
X443810Y209669D01*
X443874Y209609D01*
X443923Y209583D01*
X443967Y209550D01*
X444049Y209519D01*
X444127Y209479D01*
X444174Y209471D01*
X444233Y209449D01*
X444381Y209437D01*
X444458Y209424D01*
X444940Y209424D01*
X445026Y209436D01*
X445114Y209439D01*
X445166Y209456D01*
X445221Y209464D01*
X445301Y209499D01*
X445384Y209526D01*
X445423Y209554D01*
X445480Y209580D01*
X445594Y209676D01*
X445657Y209721D01*
X446414Y210478D01*
X448468Y211329D01*
X450692Y211329D01*
X452746Y210478D01*
X454318Y208906D01*
X455169Y206852D01*
X455169Y204628D01*
X454318Y202574D01*
X452746Y201002D01*
X450692Y200151D01*
X449718Y200151D01*
X449660Y200143D01*
X449602Y200145D01*
X449520Y200123D01*
X449437Y200111D01*
X449383Y200088D01*
X449327Y200073D01*
X449254Y200030D01*
X449177Y199995D01*
X449133Y199957D01*
X449082Y199928D01*
X449025Y199866D01*
X448960Y199812D01*
X448928Y199763D01*
X448888Y199720D01*
X448849Y199645D01*
X448803Y199575D01*
X448785Y199519D01*
X448758Y199467D01*
X448747Y199399D01*
X448717Y199304D01*
X448714Y199204D01*
X448703Y199136D01*
X448703Y198163D01*
X447852Y196108D01*
X446280Y194536D01*
X444932Y193978D01*
X444907Y193963D01*
X444879Y193954D01*
X444785Y193891D01*
X444687Y193833D01*
X444667Y193812D01*
X444643Y193796D01*
X444570Y193709D01*
X444492Y193627D01*
X444479Y193601D01*
X444460Y193578D01*
X444414Y193475D01*
X444362Y193374D01*
X444356Y193345D01*
X444344Y193318D01*
X444329Y193206D01*
X444307Y193095D01*
X444309Y193066D01*
X444305Y193037D01*
X444322Y192925D01*
X444331Y192812D01*
X444342Y192785D01*
X444346Y192756D01*
X444393Y192652D01*
X444433Y192547D01*
X444451Y192523D01*
X444463Y192496D01*
X444537Y192410D01*
X444605Y192320D01*
X444628Y192302D01*
X444647Y192280D01*
X444714Y192238D01*
X444833Y192150D01*
X444891Y192128D01*
X444932Y192102D01*
X446280Y191544D01*
X447852Y189972D01*
X448703Y187917D01*
X448703Y186944D01*
X448711Y186886D01*
X448710Y186828D01*
X448731Y186746D01*
X448743Y186662D01*
X448767Y186609D01*
X448781Y186553D01*
X448824Y186480D01*
X448859Y186403D01*
X448897Y186358D01*
X448927Y186308D01*
X448988Y186250D01*
X449043Y186186D01*
X449091Y186154D01*
X449134Y186114D01*
X449209Y186075D01*
X449279Y186028D01*
X449335Y186011D01*
X449387Y185984D01*
X449455Y185973D01*
X449550Y185943D01*
X449650Y185940D01*
X449718Y185929D01*
X450692Y185929D01*
X452746Y185078D01*
X454318Y183506D01*
X455169Y181452D01*
X455169Y179228D01*
X454318Y177174D01*
X452746Y175602D01*
X450692Y174751D01*
X448468Y174751D01*
X446414Y175602D01*
X445657Y176359D01*
X445588Y176411D01*
X445524Y176471D01*
X445474Y176497D01*
X445430Y176530D01*
X445349Y176561D01*
X445271Y176601D01*
X445223Y176609D01*
X445165Y176631D01*
X445017Y176643D01*
X444940Y176656D01*
X444458Y176656D01*
X444371Y176644D01*
X444284Y176641D01*
X444231Y176624D01*
X444176Y176616D01*
X444097Y176581D01*
X444013Y176554D01*
X443974Y176526D01*
X443917Y176500D01*
X443804Y176404D01*
X443740Y176359D01*
X397047Y129666D01*
X314396Y129666D01*
G37*
%LPD*%
%LPC*%
G36*
X721727Y9397D02*
X721727Y9397D01*
X717713Y11060D01*
X714640Y14133D01*
X712977Y18147D01*
X712977Y22493D01*
X714640Y26507D01*
X717713Y29580D01*
X720225Y30620D01*
X720226Y30621D01*
X720227Y30621D01*
X720346Y30692D01*
X720469Y30765D01*
X720470Y30766D01*
X720472Y30767D01*
X720569Y30870D01*
X720665Y30971D01*
X720665Y30973D01*
X720666Y30974D01*
X720731Y31100D01*
X720795Y31224D01*
X720795Y31226D01*
X720796Y31227D01*
X720798Y31242D01*
X720850Y31503D01*
X720847Y31534D01*
X720851Y31558D01*
X720851Y34283D01*
X732797Y46229D01*
X854703Y46229D01*
X862025Y38906D01*
X862095Y38854D01*
X862159Y38794D01*
X862209Y38768D01*
X862253Y38735D01*
X862334Y38704D01*
X862412Y38664D01*
X862460Y38656D01*
X862518Y38634D01*
X862666Y38622D01*
X862743Y38609D01*
X871474Y38609D01*
X871561Y38621D01*
X871648Y38624D01*
X871701Y38641D01*
X871756Y38649D01*
X871835Y38684D01*
X871919Y38711D01*
X871958Y38739D01*
X872015Y38765D01*
X872128Y38861D01*
X872192Y38906D01*
X872652Y39366D01*
X874789Y40251D01*
X877102Y40251D01*
X879239Y39366D01*
X880875Y37730D01*
X881760Y35593D01*
X881760Y33280D01*
X880875Y31142D01*
X879239Y29507D01*
X877102Y28622D01*
X874720Y28622D01*
X874662Y28613D01*
X874604Y28615D01*
X874522Y28594D01*
X874438Y28582D01*
X874385Y28558D01*
X874329Y28543D01*
X874256Y28500D01*
X874179Y28465D01*
X874134Y28428D01*
X874084Y28398D01*
X874026Y28336D01*
X873962Y28282D01*
X873930Y28233D01*
X873890Y28191D01*
X873851Y28115D01*
X873804Y28045D01*
X873787Y27989D01*
X873760Y27937D01*
X873749Y27869D01*
X873719Y27774D01*
X873716Y27674D01*
X873705Y27606D01*
X873705Y26783D01*
X872819Y24646D01*
X871184Y23011D01*
X869047Y22125D01*
X868588Y22125D01*
X868475Y22109D01*
X868360Y22099D01*
X868334Y22089D01*
X868307Y22085D01*
X868202Y22039D01*
X868095Y21997D01*
X868073Y21981D01*
X868047Y21969D01*
X867960Y21895D01*
X867868Y21826D01*
X867851Y21803D01*
X867830Y21786D01*
X867767Y21690D01*
X867698Y21598D01*
X867688Y21572D01*
X867673Y21549D01*
X867638Y21439D01*
X867598Y21332D01*
X867595Y21304D01*
X867587Y21278D01*
X867584Y21163D01*
X867575Y21049D01*
X867580Y21024D01*
X867580Y20994D01*
X867647Y20737D01*
X867650Y20721D01*
X867665Y20687D01*
X867665Y18373D01*
X866779Y16236D01*
X865144Y14601D01*
X863007Y13715D01*
X860693Y13715D01*
X858556Y14601D01*
X856921Y16236D01*
X856035Y18373D01*
X856035Y20025D01*
X856027Y20080D01*
X856029Y20123D01*
X856022Y20149D01*
X856020Y20199D01*
X856003Y20252D01*
X855995Y20306D01*
X855960Y20385D01*
X855957Y20398D01*
X855955Y20402D01*
X855933Y20469D01*
X855905Y20509D01*
X855879Y20566D01*
X855783Y20679D01*
X855738Y20743D01*
X844855Y31626D01*
X844785Y31679D01*
X844721Y31739D01*
X844671Y31764D01*
X844627Y31797D01*
X844546Y31828D01*
X844468Y31868D01*
X844420Y31876D01*
X844362Y31898D01*
X844214Y31911D01*
X844137Y31924D01*
X811602Y31924D01*
X811573Y31919D01*
X811544Y31922D01*
X811433Y31900D01*
X811321Y31884D01*
X811294Y31872D01*
X811265Y31866D01*
X811165Y31814D01*
X811061Y31767D01*
X811039Y31749D01*
X811013Y31735D01*
X810931Y31657D01*
X810844Y31584D01*
X810828Y31559D01*
X810807Y31539D01*
X810749Y31442D01*
X810687Y31347D01*
X810678Y31319D01*
X810663Y31294D01*
X810635Y31184D01*
X810601Y31076D01*
X810600Y31047D01*
X810593Y31018D01*
X810596Y30905D01*
X810594Y30792D01*
X810601Y30764D01*
X810602Y30734D01*
X810637Y30626D01*
X810665Y30517D01*
X810680Y30492D01*
X810689Y30464D01*
X810735Y30400D01*
X810811Y30273D01*
X810856Y30230D01*
X810884Y30190D01*
X811023Y30052D01*
X811023Y10588D01*
X809832Y9397D01*
X790368Y9397D01*
X789177Y10588D01*
X789177Y28035D01*
X789173Y28064D01*
X789176Y28093D01*
X789153Y28204D01*
X789137Y28316D01*
X789125Y28343D01*
X789120Y28372D01*
X789068Y28472D01*
X789021Y28576D01*
X789002Y28598D01*
X788989Y28624D01*
X788911Y28706D01*
X788838Y28793D01*
X788813Y28809D01*
X788793Y28830D01*
X788695Y28887D01*
X788601Y28950D01*
X788573Y28959D01*
X788548Y28974D01*
X788438Y29002D01*
X788330Y29036D01*
X788300Y29037D01*
X788272Y29044D01*
X788159Y29040D01*
X788046Y29043D01*
X788017Y29036D01*
X787988Y29035D01*
X787880Y29000D01*
X787771Y28971D01*
X787745Y28956D01*
X787717Y28947D01*
X787654Y28902D01*
X787526Y28826D01*
X787483Y28781D01*
X787444Y28753D01*
X784802Y26111D01*
X784801Y26110D01*
X784800Y26109D01*
X784714Y25994D01*
X784632Y25884D01*
X784631Y25882D01*
X784630Y25881D01*
X784580Y25747D01*
X784530Y25618D01*
X784530Y25616D01*
X784530Y25615D01*
X784518Y25470D01*
X784507Y25335D01*
X784507Y25333D01*
X784507Y25332D01*
X784510Y25316D01*
X784563Y25056D01*
X784577Y25029D01*
X784582Y25004D01*
X785623Y22493D01*
X785623Y18147D01*
X783960Y14133D01*
X780887Y11060D01*
X776873Y9397D01*
X772527Y9397D01*
X768513Y11060D01*
X765440Y14133D01*
X763777Y18147D01*
X763777Y22493D01*
X765440Y26507D01*
X768513Y29580D01*
X772527Y31243D01*
X776873Y31243D01*
X779384Y30202D01*
X779386Y30202D01*
X779387Y30201D01*
X779522Y30167D01*
X779660Y30131D01*
X779661Y30131D01*
X779663Y30131D01*
X779803Y30136D01*
X779944Y30140D01*
X779945Y30140D01*
X779947Y30140D01*
X780080Y30183D01*
X780215Y30226D01*
X780216Y30227D01*
X780218Y30228D01*
X780230Y30236D01*
X780347Y30315D01*
X780348Y30315D01*
X780350Y30317D01*
X780451Y30384D01*
X780471Y30408D01*
X780491Y30422D01*
X784323Y34254D01*
X784340Y34278D01*
X784363Y34297D01*
X784426Y34391D01*
X784494Y34482D01*
X784504Y34509D01*
X784521Y34533D01*
X784555Y34642D01*
X784595Y34747D01*
X784597Y34777D01*
X784606Y34804D01*
X784609Y34918D01*
X784619Y35031D01*
X784613Y35059D01*
X784614Y35089D01*
X784585Y35198D01*
X784563Y35309D01*
X784549Y35335D01*
X784542Y35364D01*
X784484Y35461D01*
X784432Y35562D01*
X784412Y35583D01*
X784397Y35608D01*
X784314Y35686D01*
X784236Y35768D01*
X784211Y35783D01*
X784189Y35803D01*
X784088Y35854D01*
X783991Y35911D01*
X783962Y35919D01*
X783936Y35932D01*
X783859Y35945D01*
X783715Y35982D01*
X783653Y35980D01*
X783605Y35988D01*
X769700Y35988D01*
X769613Y35975D01*
X769526Y35973D01*
X769473Y35956D01*
X769418Y35948D01*
X769338Y35912D01*
X769255Y35885D01*
X769216Y35857D01*
X769159Y35831D01*
X769046Y35736D01*
X768982Y35690D01*
X759402Y26111D01*
X759401Y26110D01*
X759400Y26109D01*
X759317Y25997D01*
X759232Y25884D01*
X759231Y25882D01*
X759230Y25881D01*
X759180Y25749D01*
X759130Y25618D01*
X759130Y25616D01*
X759130Y25615D01*
X759118Y25470D01*
X759107Y25335D01*
X759107Y25333D01*
X759107Y25332D01*
X759110Y25316D01*
X759163Y25056D01*
X759177Y25029D01*
X759182Y25004D01*
X760223Y22493D01*
X760223Y18147D01*
X758560Y14133D01*
X755487Y11060D01*
X751473Y9397D01*
X747127Y9397D01*
X743113Y11060D01*
X740040Y14133D01*
X738377Y18147D01*
X738377Y22493D01*
X740040Y26507D01*
X743113Y29580D01*
X747127Y31243D01*
X751473Y31243D01*
X753984Y30202D01*
X753986Y30202D01*
X753987Y30201D01*
X754122Y30167D01*
X754260Y30131D01*
X754261Y30131D01*
X754263Y30131D01*
X754403Y30136D01*
X754544Y30140D01*
X754545Y30140D01*
X754547Y30140D01*
X754680Y30183D01*
X754815Y30226D01*
X754816Y30227D01*
X754818Y30228D01*
X754830Y30236D01*
X754947Y30315D01*
X754948Y30315D01*
X754950Y30317D01*
X755051Y30384D01*
X755071Y30408D01*
X755091Y30422D01*
X763067Y38398D01*
X763084Y38422D01*
X763107Y38441D01*
X763170Y38535D01*
X763237Y38625D01*
X763248Y38653D01*
X763264Y38677D01*
X763298Y38785D01*
X763339Y38891D01*
X763341Y38920D01*
X763350Y38948D01*
X763353Y39062D01*
X763362Y39174D01*
X763357Y39203D01*
X763357Y39232D01*
X763329Y39342D01*
X763306Y39453D01*
X763293Y39479D01*
X763285Y39507D01*
X763228Y39605D01*
X763175Y39705D01*
X763155Y39727D01*
X763140Y39752D01*
X763058Y39829D01*
X762980Y39911D01*
X762954Y39926D01*
X762933Y39946D01*
X762832Y39998D01*
X762734Y40055D01*
X762706Y40062D01*
X762680Y40076D01*
X762602Y40089D01*
X762459Y40125D01*
X762396Y40123D01*
X762349Y40131D01*
X735743Y40131D01*
X735657Y40119D01*
X735569Y40116D01*
X735517Y40099D01*
X735462Y40091D01*
X735382Y40056D01*
X735299Y40029D01*
X735260Y40001D01*
X735202Y39975D01*
X735089Y39879D01*
X735025Y39834D01*
X727403Y32211D01*
X727334Y32120D01*
X727260Y32032D01*
X727249Y32006D01*
X727232Y31984D01*
X727191Y31877D01*
X727144Y31772D01*
X727141Y31744D01*
X727131Y31718D01*
X727121Y31604D01*
X727105Y31490D01*
X727109Y31463D01*
X727107Y31435D01*
X727130Y31323D01*
X727146Y31209D01*
X727157Y31184D01*
X727163Y31156D01*
X727216Y31054D01*
X727263Y30950D01*
X727281Y30929D01*
X727294Y30904D01*
X727373Y30821D01*
X727447Y30733D01*
X727469Y30720D01*
X727490Y30698D01*
X727719Y30563D01*
X727732Y30555D01*
X730087Y29580D01*
X733160Y26507D01*
X734823Y22493D01*
X734823Y18147D01*
X733160Y14133D01*
X730087Y11060D01*
X726073Y9397D01*
X721727Y9397D01*
G37*
%LPD*%
%LPC*%
G36*
X47061Y123999D02*
X47061Y123999D01*
X39838Y125935D01*
X33361Y129674D01*
X28074Y134961D01*
X24335Y141438D01*
X22399Y148661D01*
X22399Y156139D01*
X24335Y163362D01*
X28074Y169839D01*
X33361Y175126D01*
X39838Y178865D01*
X47061Y180801D01*
X54539Y180801D01*
X61762Y178865D01*
X68239Y175126D01*
X73526Y169839D01*
X77265Y163362D01*
X79201Y156139D01*
X79201Y148661D01*
X77265Y141438D01*
X73526Y134961D01*
X68239Y129674D01*
X61762Y125935D01*
X54539Y123999D01*
X47061Y123999D01*
G37*
%LPD*%
%LPC*%
G36*
X1317061Y123999D02*
X1317061Y123999D01*
X1309838Y125935D01*
X1303361Y129674D01*
X1298074Y134961D01*
X1294335Y141438D01*
X1292399Y148661D01*
X1292399Y156139D01*
X1294335Y163362D01*
X1298074Y169839D01*
X1303361Y175126D01*
X1309838Y178865D01*
X1317061Y180801D01*
X1324539Y180801D01*
X1331762Y178865D01*
X1338239Y175126D01*
X1343526Y169839D01*
X1347265Y163362D01*
X1349201Y156139D01*
X1349201Y148661D01*
X1347265Y141438D01*
X1343526Y134961D01*
X1338239Y129674D01*
X1331762Y125935D01*
X1324539Y123999D01*
X1317061Y123999D01*
G37*
%LPD*%
%LPC*%
G36*
X888158Y37337D02*
X888158Y37337D01*
X886967Y38528D01*
X886967Y78312D01*
X888158Y79503D01*
X927942Y79503D01*
X929133Y78312D01*
X929133Y38528D01*
X927942Y37337D01*
X888158Y37337D01*
G37*
%LPD*%
%LPC*%
G36*
X1291519Y69389D02*
X1291519Y69389D01*
X1284348Y72360D01*
X1278860Y77848D01*
X1275889Y85019D01*
X1275889Y92781D01*
X1278860Y99952D01*
X1284348Y105440D01*
X1291519Y108411D01*
X1299281Y108411D01*
X1306452Y105440D01*
X1311940Y99952D01*
X1314911Y92781D01*
X1314911Y85019D01*
X1311940Y77848D01*
X1306452Y72360D01*
X1299281Y69389D01*
X1291519Y69389D01*
G37*
%LPD*%
%LPC*%
G36*
X72319Y69389D02*
X72319Y69389D01*
X65148Y72360D01*
X59660Y77848D01*
X56689Y85019D01*
X56689Y92781D01*
X59660Y99952D01*
X65148Y105440D01*
X72319Y108411D01*
X80081Y108411D01*
X87252Y105440D01*
X92740Y99952D01*
X95711Y92781D01*
X95711Y85019D01*
X92740Y77848D01*
X87252Y72360D01*
X80081Y69389D01*
X72319Y69389D01*
G37*
%LPD*%
%LPC*%
G36*
X1291519Y12239D02*
X1291519Y12239D01*
X1284348Y15210D01*
X1278860Y20698D01*
X1275889Y27869D01*
X1275889Y35631D01*
X1278860Y42802D01*
X1284348Y48290D01*
X1291519Y51261D01*
X1299281Y51261D01*
X1306452Y48290D01*
X1311940Y42802D01*
X1314911Y35631D01*
X1314911Y27869D01*
X1311940Y20698D01*
X1306452Y15210D01*
X1299281Y12239D01*
X1291519Y12239D01*
G37*
%LPD*%
%LPC*%
G36*
X72319Y12239D02*
X72319Y12239D01*
X65148Y15210D01*
X59660Y20698D01*
X56689Y27869D01*
X56689Y35631D01*
X59660Y42802D01*
X65148Y48290D01*
X72319Y51261D01*
X80081Y51261D01*
X87252Y48290D01*
X92740Y42802D01*
X95711Y35631D01*
X95711Y27869D01*
X92740Y20698D01*
X87252Y15210D01*
X80081Y12239D01*
X72319Y12239D01*
G37*
%LPD*%
%LPC*%
G36*
X224711Y230697D02*
X224711Y230697D01*
X217543Y233666D01*
X212058Y239152D01*
X209089Y246319D01*
X209089Y254077D01*
X212058Y261244D01*
X217543Y266730D01*
X224711Y269699D01*
X232469Y269699D01*
X239636Y266730D01*
X245121Y261244D01*
X248090Y254077D01*
X248090Y246319D01*
X245121Y239152D01*
X239636Y233666D01*
X232469Y230697D01*
X224711Y230697D01*
G37*
%LPD*%
%LPC*%
G36*
X224711Y116397D02*
X224711Y116397D01*
X217543Y119366D01*
X212058Y124852D01*
X209089Y132019D01*
X209089Y139777D01*
X212058Y146944D01*
X217543Y152430D01*
X224711Y155399D01*
X232469Y155399D01*
X239636Y152430D01*
X245121Y146944D01*
X248090Y139777D01*
X248090Y132019D01*
X245121Y124852D01*
X239636Y119366D01*
X232469Y116397D01*
X224711Y116397D01*
G37*
%LPD*%
%LPC*%
G36*
X256159Y99565D02*
X256159Y99565D01*
X250744Y101808D01*
X246600Y105952D01*
X244357Y111367D01*
X244357Y117228D01*
X246600Y122643D01*
X250744Y126788D01*
X256159Y129031D01*
X262020Y129031D01*
X267435Y126788D01*
X271579Y122643D01*
X273822Y117228D01*
X273822Y111367D01*
X271579Y105952D01*
X267435Y101808D01*
X262020Y99565D01*
X256159Y99565D01*
G37*
%LPD*%
%LPC*%
G36*
X256159Y257065D02*
X256159Y257065D01*
X250744Y259308D01*
X246600Y263452D01*
X244357Y268867D01*
X244357Y274728D01*
X246600Y280143D01*
X250744Y284288D01*
X256159Y286531D01*
X262020Y286531D01*
X267435Y284288D01*
X271579Y280143D01*
X273822Y274728D01*
X273822Y268867D01*
X271579Y263452D01*
X267435Y259308D01*
X262020Y257065D01*
X256159Y257065D01*
G37*
%LPD*%
%LPC*%
G36*
X486568Y179831D02*
X486568Y179831D01*
X484514Y180682D01*
X482942Y182254D01*
X482091Y184308D01*
X482091Y186532D01*
X482942Y188586D01*
X484514Y190158D01*
X486568Y191009D01*
X488696Y191009D01*
X488754Y191017D01*
X488812Y191015D01*
X488894Y191037D01*
X488978Y191049D01*
X489031Y191072D01*
X489087Y191087D01*
X489160Y191130D01*
X489237Y191165D01*
X489282Y191203D01*
X489332Y191232D01*
X489390Y191294D01*
X489454Y191348D01*
X489486Y191397D01*
X489526Y191440D01*
X489565Y191515D01*
X489612Y191585D01*
X489629Y191641D01*
X489656Y191693D01*
X489667Y191761D01*
X489697Y191856D01*
X489700Y191956D01*
X489711Y192024D01*
X489711Y194056D01*
X489703Y194114D01*
X489705Y194172D01*
X489683Y194254D01*
X489671Y194338D01*
X489648Y194391D01*
X489633Y194447D01*
X489590Y194520D01*
X489555Y194597D01*
X489517Y194642D01*
X489488Y194692D01*
X489426Y194750D01*
X489372Y194814D01*
X489323Y194846D01*
X489280Y194886D01*
X489205Y194925D01*
X489135Y194972D01*
X489079Y194989D01*
X489027Y195016D01*
X488959Y195027D01*
X488864Y195057D01*
X488764Y195060D01*
X488696Y195071D01*
X486568Y195071D01*
X484514Y195922D01*
X482942Y197494D01*
X482091Y199548D01*
X482091Y201772D01*
X482942Y203826D01*
X484514Y205398D01*
X486568Y206249D01*
X488792Y206249D01*
X490846Y205398D01*
X492418Y203826D01*
X493269Y201772D01*
X493269Y199644D01*
X493276Y199596D01*
X493275Y199590D01*
X493277Y199584D01*
X493275Y199528D01*
X493297Y199446D01*
X493309Y199362D01*
X493332Y199309D01*
X493347Y199253D01*
X493390Y199180D01*
X493425Y199103D01*
X493463Y199058D01*
X493492Y199008D01*
X493554Y198950D01*
X493608Y198886D01*
X493657Y198854D01*
X493700Y198814D01*
X493775Y198775D01*
X493845Y198728D01*
X493901Y198711D01*
X493953Y198684D01*
X494021Y198673D01*
X494116Y198643D01*
X494216Y198640D01*
X494284Y198629D01*
X496316Y198629D01*
X496374Y198637D01*
X496432Y198635D01*
X496514Y198657D01*
X496598Y198669D01*
X496651Y198692D01*
X496707Y198707D01*
X496780Y198750D01*
X496857Y198785D01*
X496902Y198823D01*
X496952Y198852D01*
X497010Y198914D01*
X497074Y198968D01*
X497106Y199017D01*
X497146Y199060D01*
X497185Y199135D01*
X497232Y199205D01*
X497249Y199261D01*
X497276Y199313D01*
X497287Y199381D01*
X497317Y199476D01*
X497320Y199576D01*
X497331Y199644D01*
X497331Y201772D01*
X498182Y203826D01*
X499754Y205398D01*
X501808Y206249D01*
X504032Y206249D01*
X506086Y205398D01*
X507658Y203826D01*
X508509Y201772D01*
X508509Y199548D01*
X507658Y197494D01*
X506086Y195922D01*
X504032Y195071D01*
X501904Y195071D01*
X501846Y195063D01*
X501788Y195065D01*
X501706Y195043D01*
X501622Y195031D01*
X501569Y195008D01*
X501513Y194993D01*
X501440Y194950D01*
X501363Y194915D01*
X501318Y194877D01*
X501268Y194848D01*
X501210Y194786D01*
X501146Y194732D01*
X501114Y194683D01*
X501074Y194640D01*
X501035Y194565D01*
X500988Y194495D01*
X500971Y194439D01*
X500944Y194387D01*
X500933Y194319D01*
X500903Y194224D01*
X500900Y194124D01*
X500889Y194056D01*
X500889Y192024D01*
X500897Y191966D01*
X500895Y191908D01*
X500917Y191826D01*
X500929Y191742D01*
X500952Y191689D01*
X500967Y191633D01*
X501010Y191560D01*
X501045Y191483D01*
X501083Y191438D01*
X501112Y191388D01*
X501174Y191330D01*
X501228Y191266D01*
X501277Y191234D01*
X501320Y191194D01*
X501395Y191155D01*
X501465Y191108D01*
X501521Y191091D01*
X501573Y191064D01*
X501641Y191053D01*
X501736Y191023D01*
X501836Y191020D01*
X501904Y191009D01*
X504032Y191009D01*
X506086Y190158D01*
X507658Y188586D01*
X508509Y186532D01*
X508509Y184308D01*
X507658Y182254D01*
X506086Y180682D01*
X504032Y179831D01*
X501808Y179831D01*
X499754Y180682D01*
X498182Y182254D01*
X497331Y184308D01*
X497331Y186436D01*
X497323Y186494D01*
X497325Y186552D01*
X497303Y186634D01*
X497291Y186718D01*
X497268Y186771D01*
X497253Y186827D01*
X497210Y186900D01*
X497175Y186977D01*
X497137Y187022D01*
X497108Y187072D01*
X497046Y187130D01*
X496992Y187194D01*
X496943Y187226D01*
X496900Y187266D01*
X496825Y187305D01*
X496755Y187352D01*
X496699Y187369D01*
X496647Y187396D01*
X496579Y187407D01*
X496484Y187437D01*
X496384Y187440D01*
X496316Y187451D01*
X494284Y187451D01*
X494226Y187443D01*
X494168Y187445D01*
X494086Y187423D01*
X494002Y187411D01*
X493949Y187388D01*
X493893Y187373D01*
X493820Y187330D01*
X493743Y187295D01*
X493698Y187257D01*
X493648Y187228D01*
X493590Y187166D01*
X493526Y187112D01*
X493494Y187063D01*
X493454Y187020D01*
X493415Y186945D01*
X493368Y186875D01*
X493351Y186819D01*
X493324Y186767D01*
X493313Y186699D01*
X493283Y186604D01*
X493280Y186504D01*
X493269Y186436D01*
X493269Y184308D01*
X492418Y182254D01*
X490846Y180682D01*
X488792Y179831D01*
X486568Y179831D01*
G37*
%LPD*%
%LPC*%
G36*
X804068Y51561D02*
X804068Y51561D01*
X802014Y52412D01*
X800442Y53984D01*
X799591Y56038D01*
X799591Y58262D01*
X800442Y60316D01*
X801834Y61708D01*
X801886Y61777D01*
X801946Y61841D01*
X801972Y61891D01*
X802005Y61935D01*
X802036Y62016D01*
X802076Y62094D01*
X802084Y62142D01*
X802106Y62200D01*
X802118Y62348D01*
X802131Y62425D01*
X802131Y69437D01*
X802119Y69523D01*
X802116Y69611D01*
X802099Y69663D01*
X802091Y69718D01*
X802056Y69798D01*
X802029Y69881D01*
X802001Y69920D01*
X801975Y69978D01*
X801879Y70091D01*
X801834Y70155D01*
X800490Y71499D01*
X800420Y71551D01*
X800356Y71611D01*
X800306Y71637D01*
X800262Y71670D01*
X800181Y71701D01*
X800103Y71741D01*
X800055Y71749D01*
X799997Y71771D01*
X799849Y71783D01*
X799772Y71796D01*
X797803Y71796D01*
X795749Y72647D01*
X794177Y74219D01*
X793764Y75216D01*
X793706Y75314D01*
X793653Y75416D01*
X793634Y75437D01*
X793620Y75460D01*
X793536Y75539D01*
X793457Y75622D01*
X793433Y75637D01*
X793413Y75656D01*
X793311Y75708D01*
X793212Y75766D01*
X793185Y75773D01*
X793161Y75786D01*
X793048Y75808D01*
X792937Y75836D01*
X792909Y75835D01*
X792882Y75841D01*
X792767Y75831D01*
X792652Y75827D01*
X792626Y75819D01*
X792598Y75816D01*
X792491Y75775D01*
X792382Y75740D01*
X792362Y75725D01*
X792333Y75714D01*
X792121Y75554D01*
X792109Y75545D01*
X790566Y74002D01*
X788512Y73151D01*
X786288Y73151D01*
X784234Y74002D01*
X782662Y75574D01*
X781811Y77628D01*
X781811Y79852D01*
X782662Y81906D01*
X784234Y83478D01*
X786288Y84329D01*
X788512Y84329D01*
X790566Y83478D01*
X792138Y81906D01*
X792551Y80909D01*
X792609Y80811D01*
X792662Y80709D01*
X792681Y80688D01*
X792695Y80665D01*
X792779Y80586D01*
X792858Y80503D01*
X792882Y80488D01*
X792902Y80469D01*
X793004Y80417D01*
X793103Y80359D01*
X793130Y80352D01*
X793154Y80339D01*
X793267Y80317D01*
X793378Y80289D01*
X793406Y80290D01*
X793433Y80284D01*
X793548Y80294D01*
X793663Y80298D01*
X793689Y80306D01*
X793717Y80309D01*
X793824Y80350D01*
X793933Y80385D01*
X793953Y80400D01*
X793982Y80411D01*
X794194Y80571D01*
X794206Y80580D01*
X795749Y82123D01*
X797803Y82974D01*
X800027Y82974D01*
X802081Y82123D01*
X803653Y80551D01*
X804504Y78497D01*
X804504Y76528D01*
X804516Y76442D01*
X804519Y76354D01*
X804536Y76302D01*
X804544Y76247D01*
X804579Y76167D01*
X804606Y76084D01*
X804634Y76045D01*
X804660Y75987D01*
X804756Y75874D01*
X804801Y75810D01*
X805478Y75133D01*
X805502Y75116D01*
X805521Y75093D01*
X805615Y75031D01*
X805705Y74963D01*
X805733Y74952D01*
X805757Y74936D01*
X805865Y74902D01*
X805971Y74861D01*
X806000Y74859D01*
X806028Y74850D01*
X806142Y74847D01*
X806254Y74838D01*
X806283Y74843D01*
X806312Y74843D01*
X806422Y74871D01*
X806533Y74894D01*
X806559Y74907D01*
X806587Y74915D01*
X806685Y74972D01*
X806785Y75025D01*
X806807Y75045D01*
X806832Y75060D01*
X806909Y75142D01*
X806991Y75220D01*
X807006Y75246D01*
X807026Y75267D01*
X807078Y75368D01*
X807135Y75466D01*
X807142Y75494D01*
X807156Y75520D01*
X807169Y75598D01*
X807205Y75741D01*
X807203Y75804D01*
X807211Y75851D01*
X807211Y77312D01*
X808062Y79366D01*
X809634Y80938D01*
X811688Y81789D01*
X813912Y81789D01*
X815966Y80938D01*
X817538Y79366D01*
X818389Y77312D01*
X818389Y75088D01*
X817538Y73034D01*
X815966Y71462D01*
X813912Y70611D01*
X811688Y70611D01*
X809633Y71463D01*
X809521Y71491D01*
X809412Y71526D01*
X809384Y71527D01*
X809357Y71534D01*
X809243Y71531D01*
X809128Y71533D01*
X809101Y71526D01*
X809073Y71526D01*
X808964Y71491D01*
X808853Y71462D01*
X808829Y71447D01*
X808802Y71439D01*
X808707Y71375D01*
X808608Y71316D01*
X808589Y71296D01*
X808566Y71281D01*
X808492Y71193D01*
X808414Y71109D01*
X808401Y71084D01*
X808383Y71063D01*
X808337Y70958D01*
X808284Y70856D01*
X808280Y70831D01*
X808268Y70803D01*
X808231Y70540D01*
X808229Y70525D01*
X808229Y62425D01*
X808241Y62339D01*
X808244Y62251D01*
X808261Y62199D01*
X808269Y62144D01*
X808304Y62064D01*
X808331Y61981D01*
X808359Y61942D01*
X808385Y61885D01*
X808481Y61771D01*
X808526Y61708D01*
X809918Y60316D01*
X810769Y58262D01*
X810769Y56038D01*
X809918Y53984D01*
X808346Y52412D01*
X806292Y51561D01*
X804068Y51561D01*
G37*
%LPD*%
%LPC*%
G36*
X450843Y286346D02*
X450843Y286346D01*
X448789Y287197D01*
X447217Y288769D01*
X446366Y290823D01*
X446366Y293122D01*
X446358Y293178D01*
X446359Y293225D01*
X446352Y293252D01*
X446351Y293296D01*
X446334Y293349D01*
X446326Y293404D01*
X446294Y293475D01*
X446287Y293500D01*
X446282Y293510D01*
X446263Y293567D01*
X446235Y293606D01*
X446210Y293663D01*
X446146Y293739D01*
X446142Y293745D01*
X446135Y293752D01*
X446114Y293776D01*
X446068Y293840D01*
X414088Y325820D01*
X414088Y327465D01*
X414076Y327551D01*
X414073Y327639D01*
X414056Y327691D01*
X414048Y327746D01*
X414013Y327826D01*
X413986Y327909D01*
X413958Y327948D01*
X413932Y328005D01*
X413836Y328119D01*
X413791Y328182D01*
X412399Y329574D01*
X411548Y331628D01*
X411548Y333852D01*
X412399Y335906D01*
X413971Y337478D01*
X416025Y338329D01*
X418249Y338329D01*
X420303Y337478D01*
X421875Y335906D01*
X422726Y333852D01*
X422726Y331628D01*
X421875Y329574D01*
X421134Y328833D01*
X421099Y328787D01*
X421056Y328746D01*
X421014Y328674D01*
X420963Y328606D01*
X420942Y328552D01*
X420913Y328501D01*
X420892Y328420D01*
X420862Y328341D01*
X420857Y328282D01*
X420843Y328226D01*
X420845Y328141D01*
X420838Y328057D01*
X420850Y328000D01*
X420852Y327941D01*
X420878Y327861D01*
X420894Y327779D01*
X420921Y327727D01*
X420939Y327671D01*
X420979Y327615D01*
X421025Y327526D01*
X421094Y327454D01*
X421134Y327398D01*
X450711Y297821D01*
X450781Y297768D01*
X450845Y297708D01*
X450894Y297683D01*
X450938Y297650D01*
X451020Y297619D01*
X451098Y297579D01*
X451145Y297571D01*
X451204Y297549D01*
X451351Y297536D01*
X451429Y297523D01*
X453066Y297523D01*
X455120Y296672D01*
X456692Y295100D01*
X457543Y293046D01*
X457543Y290823D01*
X456692Y288769D01*
X455120Y287197D01*
X453066Y286346D01*
X450843Y286346D01*
G37*
%LPD*%
%LPC*%
G36*
X689768Y47751D02*
X689768Y47751D01*
X687714Y48602D01*
X686142Y50174D01*
X685291Y52228D01*
X685291Y52745D01*
X685275Y52859D01*
X685265Y52973D01*
X685255Y52999D01*
X685251Y53026D01*
X685204Y53131D01*
X685163Y53238D01*
X685147Y53260D01*
X685135Y53286D01*
X685061Y53373D01*
X684992Y53465D01*
X684969Y53482D01*
X684952Y53503D01*
X684856Y53566D01*
X684764Y53635D01*
X684738Y53645D01*
X684715Y53660D01*
X684605Y53695D01*
X684498Y53736D01*
X684470Y53738D01*
X684444Y53746D01*
X684329Y53749D01*
X684215Y53758D01*
X684190Y53753D01*
X684160Y53753D01*
X683903Y53686D01*
X683887Y53683D01*
X681832Y52831D01*
X679608Y52831D01*
X677554Y53682D01*
X675982Y55254D01*
X675131Y57308D01*
X675131Y59532D01*
X675982Y61586D01*
X677554Y63158D01*
X679608Y64009D01*
X681832Y64009D01*
X683887Y63157D01*
X683999Y63129D01*
X684108Y63094D01*
X684136Y63093D01*
X684163Y63086D01*
X684277Y63089D01*
X684392Y63087D01*
X684419Y63094D01*
X684447Y63094D01*
X684556Y63129D01*
X684667Y63158D01*
X684691Y63173D01*
X684718Y63181D01*
X684813Y63245D01*
X684912Y63304D01*
X684931Y63324D01*
X684954Y63339D01*
X685028Y63427D01*
X685106Y63511D01*
X685119Y63536D01*
X685137Y63557D01*
X685183Y63661D01*
X685236Y63764D01*
X685240Y63789D01*
X685252Y63817D01*
X685289Y64080D01*
X685291Y64095D01*
X685291Y64612D01*
X686142Y66666D01*
X687714Y68238D01*
X689768Y69089D01*
X691992Y69089D01*
X694046Y68238D01*
X695618Y66666D01*
X696469Y64612D01*
X696469Y64095D01*
X696485Y63981D01*
X696495Y63867D01*
X696505Y63841D01*
X696509Y63814D01*
X696556Y63709D01*
X696597Y63602D01*
X696613Y63580D01*
X696625Y63554D01*
X696699Y63467D01*
X696768Y63375D01*
X696791Y63358D01*
X696808Y63337D01*
X696904Y63274D01*
X696996Y63205D01*
X697022Y63195D01*
X697045Y63180D01*
X697155Y63145D01*
X697262Y63104D01*
X697290Y63102D01*
X697316Y63094D01*
X697431Y63091D01*
X697545Y63082D01*
X697570Y63087D01*
X697600Y63087D01*
X697857Y63154D01*
X697873Y63157D01*
X699928Y64009D01*
X702152Y64009D01*
X704206Y63158D01*
X705778Y61586D01*
X706629Y59532D01*
X706629Y57308D01*
X705778Y55254D01*
X704206Y53682D01*
X702152Y52831D01*
X699928Y52831D01*
X697873Y53683D01*
X697761Y53711D01*
X697652Y53746D01*
X697624Y53747D01*
X697597Y53754D01*
X697483Y53751D01*
X697368Y53753D01*
X697341Y53746D01*
X697313Y53746D01*
X697204Y53711D01*
X697093Y53682D01*
X697069Y53667D01*
X697042Y53659D01*
X696947Y53595D01*
X696848Y53536D01*
X696829Y53516D01*
X696806Y53501D01*
X696732Y53413D01*
X696654Y53329D01*
X696641Y53304D01*
X696623Y53283D01*
X696577Y53178D01*
X696524Y53076D01*
X696520Y53051D01*
X696508Y53023D01*
X696471Y52760D01*
X696469Y52745D01*
X696469Y52228D01*
X695618Y50174D01*
X694046Y48602D01*
X691992Y47751D01*
X689768Y47751D01*
G37*
%LPD*%
%LPC*%
G36*
X670927Y9397D02*
X670927Y9397D01*
X666913Y11060D01*
X663840Y14133D01*
X662177Y18147D01*
X662177Y22493D01*
X663840Y26507D01*
X666913Y29580D01*
X670927Y31243D01*
X675273Y31243D01*
X679287Y29580D01*
X682360Y26507D01*
X684023Y22493D01*
X684023Y18147D01*
X682360Y14133D01*
X679287Y11060D01*
X675273Y9397D01*
X670927Y9397D01*
G37*
%LPD*%
%LPC*%
G36*
X315317Y163075D02*
X315317Y163075D01*
X311302Y164738D01*
X308230Y167811D01*
X306567Y171825D01*
X306567Y176171D01*
X308230Y180185D01*
X311302Y183258D01*
X315317Y184921D01*
X319662Y184921D01*
X323677Y183258D01*
X326749Y180185D01*
X328412Y176171D01*
X328412Y171825D01*
X326749Y167811D01*
X323677Y164738D01*
X319662Y163075D01*
X315317Y163075D01*
G37*
%LPD*%
%LPC*%
G36*
X192636Y219981D02*
X192636Y219981D01*
X188621Y221644D01*
X185549Y224717D01*
X183886Y228731D01*
X183886Y233076D01*
X185549Y237091D01*
X188621Y240164D01*
X192636Y241827D01*
X196981Y241827D01*
X200996Y240164D01*
X204069Y237091D01*
X205731Y233076D01*
X205731Y228731D01*
X204069Y224717D01*
X200996Y221644D01*
X196981Y219981D01*
X192636Y219981D01*
G37*
%LPD*%
%LPC*%
G36*
X177431Y245363D02*
X177431Y245363D01*
X173416Y247025D01*
X170344Y250098D01*
X168681Y254113D01*
X168681Y258458D01*
X170344Y262473D01*
X173416Y265545D01*
X177431Y267208D01*
X181776Y267208D01*
X185791Y265545D01*
X188864Y262473D01*
X190526Y258458D01*
X190526Y254113D01*
X188864Y250098D01*
X185791Y247025D01*
X181776Y245363D01*
X177431Y245363D01*
G37*
%LPD*%
%LPC*%
G36*
X177436Y144281D02*
X177436Y144281D01*
X173421Y145944D01*
X170349Y149017D01*
X168686Y153031D01*
X168686Y157376D01*
X170349Y161391D01*
X173421Y164464D01*
X177436Y166127D01*
X181781Y166127D01*
X185796Y164464D01*
X188869Y161391D01*
X190531Y157376D01*
X190531Y153031D01*
X188869Y149017D01*
X185796Y145944D01*
X181781Y144281D01*
X177436Y144281D01*
G37*
%LPD*%
%LPC*%
G36*
X192631Y118863D02*
X192631Y118863D01*
X188616Y120525D01*
X185544Y123598D01*
X183881Y127613D01*
X183881Y131958D01*
X185544Y135973D01*
X188616Y139045D01*
X192631Y140708D01*
X196976Y140708D01*
X200991Y139045D01*
X204064Y135973D01*
X205726Y131958D01*
X205726Y127613D01*
X204064Y123598D01*
X200991Y120525D01*
X196976Y118863D01*
X192631Y118863D01*
G37*
%LPD*%
%LPC*%
G36*
X289917Y175775D02*
X289917Y175775D01*
X285902Y177438D01*
X282830Y180511D01*
X281167Y184525D01*
X281167Y188871D01*
X282830Y192885D01*
X285902Y195958D01*
X289917Y197621D01*
X294262Y197621D01*
X298277Y195958D01*
X301349Y192885D01*
X303012Y188871D01*
X303012Y184525D01*
X301349Y180511D01*
X298277Y177438D01*
X294262Y175775D01*
X289917Y175775D01*
G37*
%LPD*%
%LPC*%
G36*
X532288Y273811D02*
X532288Y273811D01*
X530234Y274662D01*
X528662Y276234D01*
X527811Y278288D01*
X527811Y280512D01*
X528662Y282566D01*
X530234Y284138D01*
X532288Y284989D01*
X534512Y284989D01*
X536566Y284138D01*
X537958Y282746D01*
X538027Y282694D01*
X538091Y282634D01*
X538141Y282608D01*
X538185Y282575D01*
X538266Y282544D01*
X538344Y282504D01*
X538392Y282496D01*
X538450Y282474D01*
X538598Y282462D01*
X538675Y282449D01*
X558605Y282449D01*
X558691Y282461D01*
X558779Y282464D01*
X558831Y282481D01*
X558886Y282489D01*
X558966Y282524D01*
X559049Y282551D01*
X559088Y282579D01*
X559145Y282605D01*
X559259Y282701D01*
X559322Y282746D01*
X560714Y284138D01*
X562768Y284989D01*
X564992Y284989D01*
X567046Y284138D01*
X568618Y282566D01*
X569469Y280512D01*
X569469Y278288D01*
X568618Y276234D01*
X567046Y274662D01*
X564992Y273811D01*
X562768Y273811D01*
X560714Y274662D01*
X559322Y276054D01*
X559253Y276106D01*
X559189Y276166D01*
X559139Y276192D01*
X559095Y276225D01*
X559013Y276256D01*
X558936Y276296D01*
X558888Y276304D01*
X558830Y276326D01*
X558682Y276338D01*
X558605Y276351D01*
X538675Y276351D01*
X538589Y276339D01*
X538501Y276336D01*
X538449Y276319D01*
X538394Y276311D01*
X538314Y276276D01*
X538231Y276249D01*
X538192Y276221D01*
X538135Y276195D01*
X538021Y276099D01*
X537958Y276054D01*
X536566Y274662D01*
X534512Y273811D01*
X532288Y273811D01*
G37*
%LPD*%
%LPC*%
G36*
X131855Y351007D02*
X131855Y351007D01*
X129241Y352090D01*
X127240Y354091D01*
X126157Y356705D01*
X126157Y359535D01*
X127240Y362149D01*
X129241Y364150D01*
X131855Y365233D01*
X144845Y365233D01*
X147459Y364150D01*
X149460Y362149D01*
X150543Y359535D01*
X150543Y356705D01*
X149460Y354091D01*
X147459Y352090D01*
X144845Y351007D01*
X131855Y351007D01*
G37*
%LPD*%
%LPC*%
G36*
X131855Y285007D02*
X131855Y285007D01*
X129241Y286090D01*
X127240Y288091D01*
X126157Y290705D01*
X126157Y293535D01*
X127240Y296149D01*
X129241Y298150D01*
X131855Y299233D01*
X144845Y299233D01*
X147459Y298150D01*
X149460Y296149D01*
X150543Y293535D01*
X150543Y290705D01*
X149460Y288091D01*
X147459Y286090D01*
X144845Y285007D01*
X131855Y285007D01*
G37*
%LPD*%
%LPC*%
G36*
X224903Y352325D02*
X224903Y352325D01*
X222766Y353211D01*
X221131Y354846D01*
X220245Y356983D01*
X220245Y359297D01*
X221131Y361434D01*
X222766Y363069D01*
X224903Y363955D01*
X227217Y363955D01*
X229354Y363069D01*
X230989Y361434D01*
X231875Y359297D01*
X231875Y356983D01*
X230989Y354846D01*
X229354Y353211D01*
X227217Y352325D01*
X224903Y352325D01*
G37*
%LPD*%
%LPC*%
G36*
X369683Y354865D02*
X369683Y354865D01*
X367546Y355751D01*
X365911Y357386D01*
X365025Y359523D01*
X365025Y361837D01*
X365911Y363974D01*
X367546Y365609D01*
X369683Y366495D01*
X371997Y366495D01*
X374134Y365609D01*
X375769Y363974D01*
X376655Y361837D01*
X376655Y359523D01*
X375769Y357386D01*
X374134Y355751D01*
X371997Y354865D01*
X369683Y354865D01*
G37*
%LPD*%
%LPC*%
G36*
X369683Y337085D02*
X369683Y337085D01*
X367546Y337971D01*
X365911Y339606D01*
X365025Y341743D01*
X365025Y344057D01*
X365911Y346194D01*
X367546Y347829D01*
X369683Y348715D01*
X371997Y348715D01*
X374134Y347829D01*
X375769Y346194D01*
X376655Y344057D01*
X376655Y341743D01*
X375769Y339606D01*
X374134Y337971D01*
X371997Y337085D01*
X369683Y337085D01*
G37*
%LPD*%
%LPC*%
G36*
X179183Y360001D02*
X179183Y360001D01*
X177046Y360887D01*
X175411Y362522D01*
X174525Y364659D01*
X174525Y366973D01*
X175411Y369110D01*
X177046Y370745D01*
X179183Y371631D01*
X181497Y371631D01*
X183634Y370745D01*
X185269Y369110D01*
X186155Y366973D01*
X186155Y364659D01*
X185269Y362522D01*
X183634Y360887D01*
X181497Y360001D01*
X179183Y360001D01*
G37*
%LPD*%
%LPC*%
G36*
X656703Y136425D02*
X656703Y136425D01*
X654566Y137311D01*
X652931Y138946D01*
X652045Y141083D01*
X652045Y143397D01*
X652931Y145534D01*
X654566Y147169D01*
X656703Y148055D01*
X659017Y148055D01*
X661154Y147169D01*
X662789Y145534D01*
X663675Y143397D01*
X663675Y141083D01*
X662789Y138946D01*
X661154Y137311D01*
X659017Y136425D01*
X656703Y136425D01*
G37*
%LPD*%
%LPC*%
G36*
X176643Y304065D02*
X176643Y304065D01*
X174506Y304951D01*
X172871Y306586D01*
X171985Y308723D01*
X171985Y311037D01*
X172871Y313174D01*
X174506Y314809D01*
X176643Y315695D01*
X178957Y315695D01*
X181094Y314809D01*
X182729Y313174D01*
X183615Y311037D01*
X183615Y308723D01*
X182729Y306586D01*
X181094Y304951D01*
X178957Y304065D01*
X176643Y304065D01*
G37*
%LPD*%
%LPC*%
G36*
X555148Y174751D02*
X555148Y174751D01*
X553094Y175602D01*
X551522Y177174D01*
X550671Y179228D01*
X550671Y181452D01*
X551522Y183506D01*
X553094Y185078D01*
X555148Y185929D01*
X557372Y185929D01*
X559426Y185078D01*
X560998Y183506D01*
X561849Y181452D01*
X561849Y179228D01*
X560998Y177174D01*
X559426Y175602D01*
X557372Y174751D01*
X555148Y174751D01*
G37*
%LPD*%
%LPC*%
G36*
X1126648Y192531D02*
X1126648Y192531D01*
X1124594Y193382D01*
X1123022Y194954D01*
X1122171Y197008D01*
X1122171Y199232D01*
X1123022Y201286D01*
X1124594Y202858D01*
X1126648Y203709D01*
X1128872Y203709D01*
X1130926Y202858D01*
X1132498Y201286D01*
X1133349Y199232D01*
X1133349Y197008D01*
X1132498Y194954D01*
X1130926Y193382D01*
X1128872Y192531D01*
X1126648Y192531D01*
G37*
%LPD*%
%LPC*%
G36*
X1164748Y200151D02*
X1164748Y200151D01*
X1162694Y201002D01*
X1161122Y202574D01*
X1160271Y204628D01*
X1160271Y206852D01*
X1161122Y208906D01*
X1162694Y210478D01*
X1164748Y211329D01*
X1166972Y211329D01*
X1169026Y210478D01*
X1170598Y208906D01*
X1171449Y206852D01*
X1171449Y204628D01*
X1170598Y202574D01*
X1169026Y201002D01*
X1166972Y200151D01*
X1164748Y200151D01*
G37*
%LPD*%
%LPC*%
G36*
X346868Y167131D02*
X346868Y167131D01*
X344814Y167982D01*
X343242Y169554D01*
X342391Y171608D01*
X342391Y173832D01*
X343242Y175886D01*
X344814Y177458D01*
X346868Y178309D01*
X349092Y178309D01*
X351146Y177458D01*
X352718Y175886D01*
X353569Y173832D01*
X353569Y171608D01*
X352718Y169554D01*
X351146Y167982D01*
X349092Y167131D01*
X346868Y167131D01*
G37*
%LPD*%
%LPC*%
G36*
X468788Y162051D02*
X468788Y162051D01*
X466734Y162902D01*
X465162Y164474D01*
X464311Y166528D01*
X464311Y168752D01*
X465162Y170806D01*
X466734Y172378D01*
X468788Y173229D01*
X471012Y173229D01*
X473066Y172378D01*
X474638Y170806D01*
X475489Y168752D01*
X475489Y166528D01*
X474638Y164474D01*
X473066Y162902D01*
X471012Y162051D01*
X468788Y162051D01*
G37*
%LPD*%
%LPC*%
G36*
X463708Y223011D02*
X463708Y223011D01*
X461654Y223862D01*
X460082Y225434D01*
X459231Y227488D01*
X459231Y229712D01*
X460082Y231766D01*
X461654Y233338D01*
X463708Y234189D01*
X465932Y234189D01*
X467986Y233338D01*
X469558Y231766D01*
X470409Y229712D01*
X470409Y227488D01*
X469558Y225434D01*
X467986Y223862D01*
X465932Y223011D01*
X463708Y223011D01*
G37*
%LPD*%
%LPC*%
G36*
X1253648Y146811D02*
X1253648Y146811D01*
X1251594Y147662D01*
X1250022Y149234D01*
X1249171Y151288D01*
X1249171Y153512D01*
X1250022Y155566D01*
X1251594Y157138D01*
X1253648Y157989D01*
X1255872Y157989D01*
X1257926Y157138D01*
X1259498Y155566D01*
X1260349Y153512D01*
X1260349Y151288D01*
X1259498Y149234D01*
X1257926Y147662D01*
X1255872Y146811D01*
X1253648Y146811D01*
G37*
%LPD*%
%LPC*%
G36*
X885348Y144271D02*
X885348Y144271D01*
X883294Y145122D01*
X881722Y146694D01*
X880871Y148748D01*
X880871Y150972D01*
X881722Y153026D01*
X883294Y154598D01*
X885348Y155449D01*
X887572Y155449D01*
X889626Y154598D01*
X891198Y153026D01*
X892049Y150972D01*
X892049Y148748D01*
X891198Y146694D01*
X889626Y145122D01*
X887572Y144271D01*
X885348Y144271D01*
G37*
%LPD*%
%LPC*%
G36*
X341788Y235711D02*
X341788Y235711D01*
X339734Y236562D01*
X338162Y238134D01*
X337311Y240188D01*
X337311Y242412D01*
X338162Y244466D01*
X339734Y246038D01*
X341788Y246889D01*
X344012Y246889D01*
X346066Y246038D01*
X347638Y244466D01*
X348489Y242412D01*
X348489Y240188D01*
X347638Y238134D01*
X346066Y236562D01*
X344012Y235711D01*
X341788Y235711D01*
G37*
%LPD*%
%LPC*%
G36*
X461168Y141731D02*
X461168Y141731D01*
X459114Y142582D01*
X457542Y144154D01*
X456691Y146208D01*
X456691Y148432D01*
X457542Y150486D01*
X459114Y152058D01*
X461168Y152909D01*
X463392Y152909D01*
X465446Y152058D01*
X467018Y150486D01*
X467869Y148432D01*
X467869Y146208D01*
X467018Y144154D01*
X465446Y142582D01*
X463392Y141731D01*
X461168Y141731D01*
G37*
%LPD*%
%LPC*%
G36*
X839628Y248411D02*
X839628Y248411D01*
X837574Y249262D01*
X836002Y250834D01*
X835151Y252888D01*
X835151Y255112D01*
X836002Y257166D01*
X837574Y258738D01*
X839628Y259589D01*
X841852Y259589D01*
X843906Y258738D01*
X845478Y257166D01*
X846329Y255112D01*
X846329Y252888D01*
X845478Y250834D01*
X843906Y249262D01*
X841852Y248411D01*
X839628Y248411D01*
G37*
%LPD*%
%LPC*%
G36*
X616108Y248411D02*
X616108Y248411D01*
X614054Y249262D01*
X612482Y250834D01*
X611631Y252888D01*
X611631Y255112D01*
X612482Y257166D01*
X614054Y258738D01*
X616108Y259589D01*
X618332Y259589D01*
X620386Y258738D01*
X621958Y257166D01*
X622809Y255112D01*
X622809Y252888D01*
X621958Y250834D01*
X620386Y249262D01*
X618332Y248411D01*
X616108Y248411D01*
G37*
%LPD*%
%LPC*%
G36*
X499268Y129031D02*
X499268Y129031D01*
X497214Y129882D01*
X495642Y131454D01*
X494791Y133508D01*
X494791Y135732D01*
X495642Y137786D01*
X497214Y139358D01*
X499268Y140209D01*
X501492Y140209D01*
X503546Y139358D01*
X505118Y137786D01*
X505969Y135732D01*
X505969Y133508D01*
X505118Y131454D01*
X503546Y129882D01*
X501492Y129031D01*
X499268Y129031D01*
G37*
%LPD*%
%LPC*%
G36*
X423068Y253491D02*
X423068Y253491D01*
X421014Y254342D01*
X419442Y255914D01*
X418591Y257968D01*
X418591Y260192D01*
X419442Y262246D01*
X421014Y263818D01*
X423068Y264669D01*
X425292Y264669D01*
X427346Y263818D01*
X428918Y262246D01*
X429769Y260192D01*
X429769Y257968D01*
X428918Y255914D01*
X427346Y254342D01*
X425292Y253491D01*
X423068Y253491D01*
G37*
%LPD*%
%LPC*%
G36*
X1157128Y103631D02*
X1157128Y103631D01*
X1155074Y104482D01*
X1153502Y106054D01*
X1152651Y108108D01*
X1152651Y110332D01*
X1153502Y112386D01*
X1155074Y113958D01*
X1157128Y114809D01*
X1159352Y114809D01*
X1161406Y113958D01*
X1162978Y112386D01*
X1163829Y110332D01*
X1163829Y108108D01*
X1162978Y106054D01*
X1161406Y104482D01*
X1159352Y103631D01*
X1157128Y103631D01*
G37*
%LPD*%
%LPC*%
G36*
X496728Y263651D02*
X496728Y263651D01*
X494674Y264502D01*
X493102Y266074D01*
X492251Y268128D01*
X492251Y270352D01*
X493102Y272406D01*
X494674Y273978D01*
X496728Y274829D01*
X498952Y274829D01*
X501006Y273978D01*
X502578Y272406D01*
X503429Y270352D01*
X503429Y268128D01*
X502578Y266074D01*
X501006Y264502D01*
X498952Y263651D01*
X496728Y263651D01*
G37*
%LPD*%
%LPC*%
G36*
X296068Y281431D02*
X296068Y281431D01*
X294014Y282282D01*
X292442Y283854D01*
X291591Y285908D01*
X291591Y288132D01*
X292442Y290186D01*
X294014Y291758D01*
X296068Y292609D01*
X298292Y292609D01*
X300346Y291758D01*
X301918Y290186D01*
X302769Y288132D01*
X302769Y285908D01*
X301918Y283854D01*
X300346Y282282D01*
X298292Y281431D01*
X296068Y281431D01*
G37*
%LPD*%
%LPC*%
G36*
X351948Y96011D02*
X351948Y96011D01*
X349894Y96862D01*
X348322Y98434D01*
X347471Y100488D01*
X347471Y102712D01*
X348322Y104766D01*
X349894Y106338D01*
X351948Y107189D01*
X354172Y107189D01*
X356226Y106338D01*
X357798Y104766D01*
X358649Y102712D01*
X358649Y100488D01*
X357798Y98434D01*
X356226Y96862D01*
X354172Y96011D01*
X351948Y96011D01*
G37*
%LPD*%
%LPC*%
G36*
X1195228Y84891D02*
X1195228Y84891D01*
X1193174Y85742D01*
X1191602Y87314D01*
X1190751Y89368D01*
X1190751Y91592D01*
X1191602Y93646D01*
X1193174Y95218D01*
X1195228Y96069D01*
X1197452Y96069D01*
X1199506Y95218D01*
X1201078Y93646D01*
X1201929Y91592D01*
X1201929Y89368D01*
X1201078Y87314D01*
X1199506Y85742D01*
X1197452Y84891D01*
X1195228Y84891D01*
G37*
%LPD*%
%LPC*%
G36*
X138588Y80771D02*
X138588Y80771D01*
X136534Y81622D01*
X134962Y83194D01*
X134111Y85248D01*
X134111Y87472D01*
X134962Y89526D01*
X136534Y91098D01*
X138588Y91949D01*
X140812Y91949D01*
X142866Y91098D01*
X144438Y89526D01*
X145289Y87472D01*
X145289Y85248D01*
X144438Y83194D01*
X142866Y81622D01*
X140812Y80771D01*
X138588Y80771D01*
G37*
%LPD*%
%LPC*%
G36*
X275748Y281431D02*
X275748Y281431D01*
X273694Y282282D01*
X272122Y283854D01*
X271271Y285908D01*
X271271Y288132D01*
X272122Y290186D01*
X273694Y291758D01*
X275748Y292609D01*
X277972Y292609D01*
X280026Y291758D01*
X281598Y290186D01*
X282449Y288132D01*
X282449Y285908D01*
X281598Y283854D01*
X280026Y282282D01*
X277972Y281431D01*
X275748Y281431D01*
G37*
%LPD*%
%LPC*%
G36*
X506888Y73151D02*
X506888Y73151D01*
X504834Y74002D01*
X503262Y75574D01*
X502411Y77628D01*
X502411Y79852D01*
X503262Y81906D01*
X504834Y83478D01*
X506888Y84329D01*
X509112Y84329D01*
X511166Y83478D01*
X512738Y81906D01*
X513589Y79852D01*
X513589Y77628D01*
X512738Y75574D01*
X511166Y74002D01*
X509112Y73151D01*
X506888Y73151D01*
G37*
%LPD*%
%LPC*%
G36*
X1050448Y70611D02*
X1050448Y70611D01*
X1048394Y71462D01*
X1046822Y73034D01*
X1045971Y75088D01*
X1045971Y77312D01*
X1046822Y79366D01*
X1048394Y80938D01*
X1050448Y81789D01*
X1052672Y81789D01*
X1054726Y80938D01*
X1056298Y79366D01*
X1057149Y77312D01*
X1057149Y75088D01*
X1056298Y73034D01*
X1054726Y71462D01*
X1052672Y70611D01*
X1050448Y70611D01*
G37*
%LPD*%
%LPC*%
G36*
X859948Y283971D02*
X859948Y283971D01*
X857894Y284822D01*
X856322Y286394D01*
X855471Y288448D01*
X855471Y290672D01*
X856322Y292726D01*
X857894Y294298D01*
X859948Y295149D01*
X862172Y295149D01*
X864226Y294298D01*
X865798Y292726D01*
X866649Y290672D01*
X866649Y288448D01*
X865798Y286394D01*
X864226Y284822D01*
X862172Y283971D01*
X859948Y283971D01*
G37*
%LPD*%
%LPC*%
G36*
X918368Y9651D02*
X918368Y9651D01*
X916314Y10502D01*
X914742Y12074D01*
X913891Y14128D01*
X913891Y16352D01*
X914742Y18406D01*
X916314Y19978D01*
X918368Y20829D01*
X920592Y20829D01*
X922646Y19978D01*
X924218Y18406D01*
X925069Y16352D01*
X925069Y14128D01*
X924218Y12074D01*
X922646Y10502D01*
X920592Y9651D01*
X918368Y9651D01*
G37*
%LPD*%
%LPC*%
G36*
X826928Y9651D02*
X826928Y9651D01*
X824874Y10502D01*
X823302Y12074D01*
X822451Y14128D01*
X822451Y16352D01*
X823302Y18406D01*
X824874Y19978D01*
X826928Y20829D01*
X829152Y20829D01*
X831206Y19978D01*
X832778Y18406D01*
X833629Y16352D01*
X833629Y14128D01*
X832778Y12074D01*
X831206Y10502D01*
X829152Y9651D01*
X826928Y9651D01*
G37*
%LPD*%
%LPC*%
G36*
X237648Y286703D02*
X237648Y286703D01*
X235594Y287554D01*
X234022Y289126D01*
X233171Y291180D01*
X233171Y293404D01*
X234022Y295458D01*
X235594Y297030D01*
X237648Y297881D01*
X239872Y297881D01*
X241926Y297030D01*
X243498Y295458D01*
X244349Y293404D01*
X244349Y291180D01*
X243498Y289126D01*
X241926Y287554D01*
X239872Y286703D01*
X237648Y286703D01*
G37*
%LPD*%
%LPC*%
G36*
X862488Y52831D02*
X862488Y52831D01*
X860434Y53682D01*
X858862Y55254D01*
X858011Y57308D01*
X858011Y59532D01*
X858862Y61586D01*
X860434Y63158D01*
X862488Y64009D01*
X864712Y64009D01*
X866766Y63158D01*
X868338Y61586D01*
X869189Y59532D01*
X869189Y57308D01*
X868338Y55254D01*
X866766Y53682D01*
X864712Y52831D01*
X862488Y52831D01*
G37*
%LPD*%
%LPC*%
G36*
X788828Y51561D02*
X788828Y51561D01*
X786774Y52412D01*
X785202Y53984D01*
X784351Y56038D01*
X784351Y58262D01*
X785202Y60316D01*
X786774Y61888D01*
X788828Y62739D01*
X791052Y62739D01*
X793106Y61888D01*
X794678Y60316D01*
X795529Y58262D01*
X795529Y56038D01*
X794678Y53984D01*
X793106Y52412D01*
X791052Y51561D01*
X788828Y51561D01*
G37*
%LPD*%
%LPC*%
G36*
X992028Y289051D02*
X992028Y289051D01*
X989974Y289902D01*
X988402Y291474D01*
X987551Y293528D01*
X987551Y295752D01*
X988402Y297806D01*
X989974Y299378D01*
X992028Y300229D01*
X994252Y300229D01*
X996306Y299378D01*
X997878Y297806D01*
X998729Y295752D01*
X998729Y293528D01*
X997878Y291474D01*
X996306Y289902D01*
X994252Y289051D01*
X992028Y289051D01*
G37*
%LPD*%
%LPC*%
G36*
X951388Y291591D02*
X951388Y291591D01*
X949334Y292442D01*
X947762Y294014D01*
X946911Y296068D01*
X946911Y298292D01*
X947762Y300346D01*
X949334Y301918D01*
X951388Y302769D01*
X953612Y302769D01*
X955666Y301918D01*
X957238Y300346D01*
X958089Y298292D01*
X958089Y296068D01*
X957238Y294014D01*
X955666Y292442D01*
X953612Y291591D01*
X951388Y291591D01*
G37*
%LPD*%
%LPC*%
G36*
X275748Y306831D02*
X275748Y306831D01*
X273694Y307682D01*
X272122Y309254D01*
X271271Y311308D01*
X271271Y313532D01*
X272122Y315586D01*
X273694Y317158D01*
X275748Y318009D01*
X277972Y318009D01*
X280026Y317158D01*
X281598Y315586D01*
X282449Y313532D01*
X282449Y311308D01*
X281598Y309254D01*
X280026Y307682D01*
X277972Y306831D01*
X275748Y306831D01*
G37*
%LPD*%
%LPC*%
G36*
X265588Y12191D02*
X265588Y12191D01*
X263534Y13042D01*
X261962Y14614D01*
X261111Y16668D01*
X261111Y18892D01*
X261962Y20946D01*
X263534Y22518D01*
X265588Y23369D01*
X267812Y23369D01*
X269866Y22518D01*
X271438Y20946D01*
X272289Y18892D01*
X272289Y16668D01*
X271438Y14614D01*
X269866Y13042D01*
X267812Y12191D01*
X265588Y12191D01*
G37*
%LPD*%
%LPC*%
G36*
X357028Y306831D02*
X357028Y306831D01*
X354974Y307682D01*
X353402Y309254D01*
X352551Y311308D01*
X352551Y313532D01*
X353402Y315586D01*
X354974Y317158D01*
X357028Y318009D01*
X359252Y318009D01*
X361306Y317158D01*
X362878Y315586D01*
X363729Y313532D01*
X363729Y311308D01*
X362878Y309254D01*
X361306Y307682D01*
X359252Y306831D01*
X357028Y306831D01*
G37*
%LPD*%
%LPC*%
G36*
X751331Y67309D02*
X751331Y67309D01*
X751331Y76709D01*
X760731Y76709D01*
X760731Y69516D01*
X760558Y68869D01*
X760223Y68290D01*
X759750Y67817D01*
X759171Y67482D01*
X758524Y67309D01*
X751331Y67309D01*
G37*
%LPD*%
%LPC*%
G36*
X740076Y67309D02*
X740076Y67309D01*
X739429Y67482D01*
X738850Y67817D01*
X738377Y68290D01*
X738042Y68869D01*
X737869Y69516D01*
X737869Y76709D01*
X747269Y76709D01*
X747269Y67309D01*
X740076Y67309D01*
G37*
%LPD*%
%LPC*%
G36*
X700531Y22351D02*
X700531Y22351D01*
X700531Y31572D01*
X701177Y31469D01*
X702888Y30913D01*
X704491Y30096D01*
X705947Y29039D01*
X707219Y27767D01*
X708276Y26311D01*
X709093Y24708D01*
X709649Y22997D01*
X709752Y22351D01*
X700531Y22351D01*
G37*
%LPD*%
%LPC*%
G36*
X687248Y22351D02*
X687248Y22351D01*
X687351Y22997D01*
X687907Y24708D01*
X688724Y26311D01*
X689781Y27767D01*
X691053Y29039D01*
X692509Y30096D01*
X694112Y30913D01*
X695823Y31469D01*
X696469Y31572D01*
X696469Y22351D01*
X687248Y22351D01*
G37*
%LPD*%
%LPC*%
G36*
X700531Y18289D02*
X700531Y18289D01*
X709752Y18289D01*
X709649Y17643D01*
X709093Y15932D01*
X708276Y14329D01*
X707219Y12873D01*
X705947Y11601D01*
X704491Y10544D01*
X702888Y9727D01*
X701177Y9171D01*
X700531Y9068D01*
X700531Y18289D01*
G37*
%LPD*%
%LPC*%
G36*
X695823Y9171D02*
X695823Y9171D01*
X694112Y9727D01*
X692509Y10544D01*
X691053Y11601D01*
X689781Y12873D01*
X688724Y14329D01*
X687907Y15932D01*
X687351Y17643D01*
X687248Y18289D01*
X696469Y18289D01*
X696469Y9068D01*
X695823Y9171D01*
G37*
%LPD*%
%LPC*%
G36*
X698499Y20319D02*
X698499Y20319D01*
X698499Y20321D01*
X698501Y20321D01*
X698501Y20319D01*
X698499Y20319D01*
G37*
%LPD*%
D10*
X133270Y358120D02*
X143430Y358120D01*
X143430Y292120D02*
X133270Y292120D01*
D11*
X317490Y148598D03*
X292090Y161298D03*
X317490Y173998D03*
X292090Y186698D03*
X317490Y199398D03*
X292090Y212098D03*
X317490Y224798D03*
D12*
X292090Y237498D03*
D13*
X259090Y271798D03*
X259090Y114298D03*
D11*
X194804Y129785D03*
X179604Y256285D03*
X194809Y230904D03*
X179609Y155204D03*
D14*
X400050Y26670D03*
X400050Y90170D03*
X463550Y58420D03*
X971550Y26670D03*
X971550Y90170D03*
X908050Y58420D03*
D15*
X800100Y20320D03*
D11*
X774700Y20320D03*
X749300Y20320D03*
X723900Y20320D03*
X698500Y20320D03*
X673100Y20320D03*
X647700Y20320D03*
X622300Y20320D03*
X596900Y20320D03*
X571500Y20320D03*
D15*
X749300Y78740D03*
D11*
X723900Y78740D03*
D16*
X680720Y58420D03*
X276860Y287020D03*
X297180Y287020D03*
D17*
X180340Y365816D03*
D16*
X563880Y76200D03*
X464820Y228600D03*
X424180Y259080D03*
X462280Y147320D03*
X469900Y167640D03*
X500380Y134620D03*
X556260Y180340D03*
X1206500Y304800D03*
X1051560Y76200D03*
X863600Y58420D03*
X886460Y149860D03*
X939800Y246380D03*
X1010920Y139700D03*
X1079500Y111760D03*
X1127760Y198120D03*
D17*
X657860Y142240D03*
D16*
X861060Y289560D03*
X952500Y297180D03*
X952500Y281940D03*
X960120Y246380D03*
X1071880Y302260D03*
D17*
X177800Y309880D03*
D16*
X347980Y172720D03*
X497840Y269240D03*
X495300Y193040D03*
X487680Y185420D03*
X502920Y185420D03*
X502920Y200660D03*
X487680Y200660D03*
X993140Y294640D03*
X690880Y63500D03*
X701040Y58420D03*
X690880Y53340D03*
D17*
X370840Y342900D03*
X370840Y360680D03*
X226060Y358140D03*
D16*
X238760Y292292D03*
X276860Y312420D03*
X556260Y83820D03*
X731520Y281940D03*
X840740Y254000D03*
X731520Y302260D03*
X678180Y302260D03*
X571500Y370840D03*
X571500Y322580D03*
X505460Y370840D03*
X358140Y312420D03*
X342900Y241300D03*
X617220Y254000D03*
X1165860Y205740D03*
X1125220Y281940D03*
X1254760Y152400D03*
X1158240Y109220D03*
X919480Y15240D03*
X828040Y15240D03*
X266700Y17780D03*
X139700Y86360D03*
X353060Y101600D03*
X1178560Y167640D03*
X1074420Y208280D03*
X1196340Y90480D03*
X868680Y83820D03*
X787400Y78740D03*
X789940Y57150D03*
X812800Y76200D03*
X508000Y78740D03*
X538480Y17780D03*
X485140Y17780D03*
X985520Y246380D03*
X1026160Y246380D03*
X1031240Y190500D03*
X1193800Y279400D03*
D18*
X1193800Y274320D01*
X1153160Y233680D01*
D16*
X518160Y239494D03*
D18*
X573532Y233680D02*
X1153160Y233680D01*
X573532Y233680D02*
X562638Y244574D01*
X523240Y244574D01*
X518160Y239494D01*
D16*
X1206500Y203200D03*
X563880Y211610D03*
D18*
X564162Y211610D02*
X569976Y217424D01*
X564162Y211610D02*
X563880Y211610D01*
X1187196Y217424D02*
X1201420Y203200D01*
X1206500Y203200D01*
X1187196Y217424D02*
X569976Y217424D01*
D16*
X502800Y162909D03*
X1023620Y175260D03*
D18*
X1023620Y190500D01*
X1012952Y201168D01*
X603504Y201168D01*
X565245Y162909D02*
X502800Y162909D01*
X565245Y162909D02*
X603504Y201168D01*
D16*
X1206500Y241300D03*
D18*
X1190752Y225552D01*
D16*
X499816Y231140D03*
D18*
X569468Y225552D02*
X1190752Y225552D01*
X569468Y225552D02*
X558800Y236220D01*
X532892Y236220D01*
X520192Y223520D01*
X507436Y223520D01*
X499816Y231140D01*
D16*
X1206500Y218440D03*
X490188Y231172D03*
D18*
X502412Y218440D02*
X522224Y218440D01*
X502412Y218440D02*
X490188Y230664D01*
X490188Y231172D01*
X522224Y218440D02*
X534162Y230378D01*
X558546Y230378D01*
X567436Y221488D01*
X1188879Y221488D02*
X1191927Y218440D01*
X1188879Y221488D02*
X567436Y221488D01*
X1191927Y218440D02*
X1206500Y218440D01*
D16*
X1206500Y279400D03*
D18*
X1156716Y229616D01*
D16*
X482600Y238760D03*
D18*
X501904Y238760D02*
X513080Y227584D01*
X501904Y238760D02*
X482600Y238760D01*
X571500Y229616D02*
X1156716Y229616D01*
X571500Y229616D02*
X560832Y240284D01*
X530860Y240284D01*
X518160Y227584D01*
X513080Y227584D01*
D16*
X1074420Y190500D03*
X566332Y202014D03*
D18*
X576580Y213360D02*
X1038860Y213360D01*
X1061720Y190500D02*
X1074420Y190500D01*
X1061720Y190500D02*
X1038860Y213360D01*
X576580Y213360D02*
X566332Y203112D01*
X566332Y202014D01*
D16*
X1074420Y177800D03*
D18*
X1068324Y177800D01*
X1036828Y209296D01*
X587756Y209296D01*
X581660Y203200D01*
D16*
X581660Y203200D03*
X1082040Y167640D03*
D18*
X1072388Y167640D01*
X1034796Y205232D01*
D16*
X553720Y203200D03*
D18*
X596392Y205232D02*
X1034796Y205232D01*
X596392Y205232D02*
X586232Y195072D01*
X561848Y195072D01*
X553720Y203200D01*
D16*
X1165860Y276860D03*
D17*
X419100Y350596D03*
D18*
X1153160Y276860D02*
X1165860Y276860D01*
X1153160Y276860D02*
X1149830Y273530D01*
X595226Y273530D01*
X508000Y360756D01*
X429260Y360756D01*
X419100Y350596D01*
D16*
X1158240Y269240D03*
D18*
X591820Y269240D01*
X508000Y353060D01*
X431800Y353060D01*
D17*
X431800Y353060D03*
D16*
X1222148Y121920D03*
D18*
X1222148Y139292D01*
X1186180Y175260D01*
X1148080Y175260D01*
D16*
X903220Y168660D03*
D18*
X943860Y168660D01*
X961870Y150650D02*
X1123470Y150650D01*
X961870Y150650D02*
X943860Y168660D01*
X1123470Y150650D02*
X1148080Y175260D01*
D17*
X198244Y333022D03*
D19*
X190624Y333022D01*
X182722Y325120D01*
X177800Y325120D01*
X176511Y323831D01*
D17*
X176511Y323831D03*
D16*
X993140Y175260D03*
D18*
X985520Y182880D01*
D16*
X759460Y160020D03*
D18*
X784860Y160020D02*
X807720Y182880D01*
X784860Y160020D02*
X759460Y160020D01*
X807720Y182880D02*
X985520Y182880D01*
D16*
X972820Y165100D03*
D18*
X962660Y175260D01*
X955040Y175260D01*
D16*
X955040Y175260D03*
D18*
X723900Y33020D02*
X723900Y20320D01*
X723900Y33020D02*
X734060Y43180D01*
X853440Y43180D01*
X861060Y35560D01*
X874822Y35560D02*
X875945Y34436D01*
X874822Y35560D02*
X861060Y35560D01*
D17*
X875945Y34436D03*
D16*
X1003300Y187960D03*
X713740Y170180D03*
D18*
X716280Y167640D01*
X784860Y167640D01*
X805180Y187960D01*
X1003300Y187960D01*
D16*
X1186180Y104140D03*
D18*
X1185360Y104140D01*
X1173676Y92456D01*
X1070864Y92456D01*
X1038860Y124460D01*
X904744Y124460D01*
D16*
X904744Y124460D03*
X1150620Y167640D03*
X957580Y139700D03*
D18*
X1150119Y167640D02*
X1150620Y167640D01*
X1150119Y167640D02*
X1115349Y132870D01*
X964410Y132870D02*
X957580Y139700D01*
X964410Y132870D02*
X1115349Y132870D01*
X768016Y39036D02*
X749300Y20320D01*
X768016Y39036D02*
X849964Y39036D01*
X861060Y27940D01*
X867890Y27940D01*
D17*
X867890Y27940D03*
D16*
X1084940Y252250D03*
D18*
X1083190Y254000D01*
X889667Y254000D01*
X882047Y246380D01*
D16*
X871894Y246380D03*
D18*
X882047Y246380D01*
D20*
X463550Y58420D02*
X463550Y24130D01*
D18*
X635000Y7620D02*
X647700Y20320D01*
X480060Y7620D02*
X463550Y24130D01*
X480060Y7620D02*
X635000Y7620D01*
D16*
X443114Y186806D03*
D21*
X393468Y137160D01*
X328928Y137160D01*
X317490Y148598D01*
D16*
X449580Y180340D03*
D21*
X449072Y179832D01*
X442722Y179832D01*
X395732Y132842D01*
X292090Y156464D02*
X292090Y161298D01*
X292090Y156464D02*
X315711Y132842D01*
X395732Y132842D01*
D16*
X449580Y205740D03*
D21*
X449072Y206248D01*
X442722Y206248D01*
X431292Y217678D01*
X324610Y217678D02*
X317490Y224798D01*
X324610Y217678D02*
X431292Y217678D01*
D16*
X443114Y199274D03*
D21*
X429028Y213360D01*
X322580Y213360D01*
X292090Y233135D02*
X292090Y237498D01*
X292090Y233135D02*
X312492Y212733D01*
X321953Y212733D01*
X322580Y213360D01*
D16*
X1206500Y180340D03*
X1023620Y165100D03*
D18*
X1034006Y154714D02*
X1121636Y154714D01*
X1147262Y180340D02*
X1206500Y180340D01*
X1147262Y180340D02*
X1121636Y154714D01*
X1034006Y154714D02*
X1023620Y165100D01*
D16*
X406400Y317500D03*
X866140Y48260D03*
X541020Y170180D03*
X469900Y256540D03*
X548205Y221415D03*
X668020Y154914D03*
X848360Y152400D03*
X543560Y134620D03*
X1221740Y99060D03*
X881380Y261620D03*
D18*
X883920Y264160D01*
X1150620Y264160D01*
X1153160Y261620D01*
X1170273Y261620D01*
X1178560Y269907D01*
X1178560Y289560D01*
D16*
X1178560Y289560D03*
X1005840Y294640D03*
D18*
X1173480Y294640D02*
X1178560Y289560D01*
X1173480Y294640D02*
X1005840Y294640D01*
X541020Y206611D02*
X541020Y170180D01*
X541020Y206611D02*
X548205Y213795D01*
X548205Y221415D01*
X543560Y134620D02*
X513080Y134620D01*
X492760Y154940D01*
X492760Y165100D01*
X497840Y170180D01*
X541020Y170180D01*
X563854Y154914D02*
X668020Y154914D01*
X563854Y154914D02*
X543560Y134620D01*
X467360Y256540D02*
X406400Y317500D01*
X467360Y256540D02*
X469900Y256540D01*
X469900Y238760D01*
X495300Y213360D01*
X532529Y213360D01*
X540585Y221415D01*
X548205Y221415D01*
X1221740Y99060D02*
X1229360Y99060D01*
X1247140Y116840D01*
X1229360Y202184D02*
X1229360Y279400D01*
X1219489Y289271D01*
X1178849Y289271D02*
X1178560Y289560D01*
X1178849Y289271D02*
X1219489Y289271D01*
X1221740Y99060D02*
X1211580Y99060D01*
X1181834Y128806D01*
X910054Y128806D02*
X906780Y132080D01*
X886460Y132080D02*
X866140Y152400D01*
X848360Y152400D01*
X910054Y128806D02*
X1181834Y128806D01*
D16*
X754380Y127000D03*
D18*
X695934Y127000D01*
X668020Y154914D01*
X754380Y127000D02*
X822960Y127000D01*
X848360Y152400D01*
X866140Y48260D02*
X769620Y48260D01*
X749300Y68580D02*
X749300Y78740D01*
X749300Y68580D02*
X769620Y48260D01*
D17*
X386080Y345440D03*
D18*
X406400Y325120D01*
X406400Y317500D01*
D17*
X226060Y347980D03*
D18*
X366261Y347980D01*
X368011Y349730D01*
X381790Y349730D01*
X386080Y345440D01*
D16*
X1247140Y116840D03*
D18*
X1247140Y184404D01*
X1229360Y202184D01*
D17*
X861060Y76200D03*
D18*
X863600Y76200D01*
X872744Y67056D02*
X872744Y54864D01*
X866140Y48260D01*
X872744Y67056D02*
X863600Y76200D01*
X698500Y27940D02*
X698500Y20320D01*
X698500Y27940D02*
X749300Y78740D01*
D16*
X805180Y57150D03*
X798915Y77385D03*
D18*
X805180Y71120D01*
X805180Y57150D01*
D16*
X417137Y332740D03*
D18*
X417137Y327083D02*
X451955Y292265D01*
X417137Y327083D02*
X417137Y332740D01*
X451955Y292265D02*
X451955Y291935D01*
D16*
X451955Y291935D03*
D17*
X190500Y342900D03*
D22*
X174122Y342900D01*
X160020Y328798D01*
X182880Y88515D02*
X272165Y88515D01*
X182880Y88515D02*
X160020Y111375D01*
X160020Y328798D01*
X305185Y121535D02*
X490605Y121535D01*
X305185Y121535D02*
X272165Y88515D01*
X490605Y121535D02*
X490605Y121876D01*
D23*
X490605Y121876D03*
D16*
X563880Y279400D03*
D18*
X533400Y279400D01*
D16*
X533400Y279400D03*
D17*
X528320Y81280D03*
D24*
X959358Y102362D02*
X971550Y90170D01*
X412242Y102362D02*
X400050Y90170D01*
X528320Y102362D02*
X959358Y102362D01*
X528320Y102362D02*
X412242Y102362D01*
D25*
X528320Y102362D02*
X528320Y81280D01*
D16*
X1094490Y254250D03*
D18*
X1094490Y254918D01*
X1089311Y260096D01*
X889196Y260096D02*
X884116Y255016D01*
X877824Y255016D01*
X871220Y261620D01*
D16*
X871220Y261620D03*
D18*
X889196Y260096D02*
X1089311Y260096D01*
D16*
X988060Y160020D03*
D18*
X985019Y160020D01*
X980729Y155730D01*
X962537Y155730D01*
X941257Y177010D01*
X809470Y177010D01*
X784860Y152400D01*
D16*
X705399Y154219D03*
D18*
X705399Y153121D01*
X706120Y152400D01*
X784860Y152400D01*
D16*
X1076960Y99060D03*
D18*
X1074420Y99060D01*
X1056640Y116840D01*
D16*
X1056640Y116840D03*
X1092560Y244630D03*
D18*
X1087480Y239550D02*
X575790Y239550D01*
X1087480Y239550D02*
X1092560Y244630D01*
D16*
X548640Y259080D03*
D18*
X556260Y259080D01*
X575790Y239550D01*
X789352Y34972D02*
X774700Y20320D01*
X789352Y34972D02*
X845820Y34972D01*
X861262Y19530D02*
X861850Y19530D01*
X861262Y19530D02*
X845820Y34972D01*
D17*
X861850Y19530D03*
M02*
