M48
;GenerationSoftware,Autodesk,EAGLE,9.4.2*%
;CreationDate,2019-06-28T04:47:29Z*%
FMAT,2
ICI,OFF
METRIC,TZ,000.000
T11C0.305
T10C0.350
T9C0.508
T8C0.550
T7C0.900
T6C1.016
T5C1.600
T4C1.651
T3C3.300
T2C3.302
T1C5.080
%
G90
M71
T1
X5080Y15240
X132080Y15240
T2
X7620Y8890
X7620Y3175
X129540Y3175
X129540Y8890
T3
X22859Y13590
X22859Y25020
T4
X90805Y5842
X97155Y9017
X97155Y2667
X46355Y5842
X40005Y9017
X40005Y2667
T5
X25909Y11430
X25909Y27180
T6
X72390Y7874
X74930Y7874
X57150Y2032
X59690Y2032
X62230Y2032
X64770Y2032
X67310Y2032
X69850Y2032
X72390Y2032
X74930Y2032
X77470Y2032
X80010Y2032
T7
X29209Y18670
X31749Y17400
X29209Y16130
X31749Y14860
X31749Y19940
X29209Y21210
X31749Y22480
X29209Y23750
X19480Y12979
X17960Y25629
X19481Y23090
X17961Y15520
T8
X49060Y12188
T9
X13835Y29212
X13835Y35812
T10
X19824Y33302
X18034Y36582
X65786Y14224
X17780Y30988
X37084Y34290
X37084Y36068
X22606Y35814
X86185Y1953
X52832Y8128
X19050Y34290
X86106Y7620
X22606Y34798
X38608Y34544
X86789Y2794
X87595Y3444
X17651Y32383
X43180Y35306
X41910Y35060
T11
X35306Y10160
X117856Y16764
X107442Y20828
X119634Y9048
X86868Y8382
X78740Y7874
X78994Y5715
X81280Y7620
X50800Y7874
X53848Y1778
X48514Y1778
X98552Y24638
X102616Y24638
X103124Y19050
X119380Y27940
X51816Y23949
X120650Y20320
X56388Y21161
X50280Y16291
X102362Y17526
X120650Y24130
X49982Y23114
X120650Y21844
X49019Y23117
X120650Y27940
X48260Y23876
X107442Y19050
X56633Y20201
X107442Y17780
X58166Y20320
X108204Y16764
X55372Y20320
X116586Y27686
X13970Y8636
X115824Y26924
X26670Y1778
X122215Y12192
X90322Y16866
X73152Y28194
X82804Y1524
X99314Y17526
X75946Y16002
X97282Y16510
X95504Y17526
X91948Y1524
X100330Y18796
X71374Y17018
X118618Y10414
X90474Y12446
X115062Y16764
X95758Y13970
X115824Y10922
X108494Y25225
X87189Y24638
X44311Y18681
X44958Y18034
X44958Y20574
X44311Y19927
X120650Y18034
X102362Y16510
X40640Y31750
X86614Y4826
X54102Y17018
X46990Y25654
X54820Y22142
X66802Y15491
X84836Y15240
X54356Y13462
X122174Y9906
X88138Y26162
X117856Y28956
X100584Y29464
X75438Y12700
X125476Y15240
X112522Y28194
X124714Y11684
X116586Y20574
X80518Y5715
X79892Y7738
X41714Y33274
X45195Y29193
X61722Y25400
X55626Y8382
X56388Y27940
X53340Y27940
X34290Y24130
X109449Y25425
X87122Y26162
X98806Y16002
X70540Y15422
X107696Y9906
X105664Y11684
X109256Y24463
X54864Y25908
X35814Y31242
X27686Y31242
X23876Y29229
X50546Y37084
X57150Y32258
X57150Y37084
X69088Y5334
X70104Y5842
X69088Y6350
X99314Y29464
X48768Y20066
X50292Y20066
X50292Y18542
X48768Y18542
X49530Y19304
X49784Y26924
X34798Y17272
X67818Y30226
X107188Y30226
X96012Y24638
X95250Y28194
X95250Y29718
X86106Y28956
X73152Y30226
X112776Y19812
X107950Y11176
X101092Y13970
X93980Y24638
X88646Y14986
X86360Y5842
X105156Y7620
X120650Y30480
X55626Y18034
X50038Y13462
X46990Y16764
X46228Y14732
X42418Y25908
X46482Y22860
X56388Y7620
X84074Y25400
X29718Y28702
X27686Y28702
X68072Y5842
M30