G04 EAGLE Gerber RS-274X export*
G75*
%MOMM*%
%FSLAX34Y34*%
%LPD*%
%INSoldermask Top*%
%IPPOS*%
%AMOC8*
5,1,8,0,0,1.08239X$1,22.5*%
G01*
%ADD10C,5.334000*%
%ADD11C,3.556000*%
%ADD12C,0.450238*%
%ADD13C,0.601919*%
%ADD14C,0.490878*%
%ADD15C,0.668838*%
%ADD16C,0.572516*%
%ADD17C,0.744300*%
%ADD18C,0.735559*%
%ADD19C,0.565459*%
%ADD20C,1.270000*%
%ADD21C,0.451259*%
%ADD22C,0.959319*%
%ADD23C,1.206238*%
%ADD24C,0.344378*%
%ADD25C,0.743578*%
%ADD26C,2.032000*%
%ADD27C,1.954000*%
%ADD28C,2.794000*%
%ADD29C,3.554000*%
%ADD30R,4.064000X4.064000*%
%ADD31C,0.461159*%
%ADD32R,2.032000X2.032000*%
%ADD33C,0.392400*%
%ADD34C,0.659878*%
%ADD35C,0.377950*%
%ADD36C,1.000000*%
%ADD37C,1.210400*%


D10*
X50800Y152400D03*
X1320800Y152400D03*
D11*
X76200Y88900D03*
X76200Y31750D03*
X1295400Y31750D03*
X1295400Y88900D03*
D12*
X248399Y346041D02*
X248399Y349579D01*
X248399Y346041D02*
X244361Y346041D01*
X244361Y349579D01*
X248399Y349579D01*
X248399Y356541D02*
X248399Y360079D01*
X248399Y356541D02*
X244361Y356541D01*
X244361Y360079D01*
X248399Y360079D01*
X345961Y194979D02*
X345961Y191441D01*
X345961Y194979D02*
X349999Y194979D01*
X349999Y191441D01*
X345961Y191441D01*
X345961Y184479D02*
X345961Y180941D01*
X345961Y184479D02*
X349999Y184479D01*
X349999Y180941D01*
X345961Y180941D01*
X499859Y246981D02*
X499859Y250519D01*
X499859Y246981D02*
X495821Y246981D01*
X495821Y250519D01*
X499859Y250519D01*
X499859Y257481D02*
X499859Y261019D01*
X499859Y257481D02*
X495821Y257481D01*
X495821Y261019D01*
X499859Y261019D01*
D13*
X579841Y66881D02*
X579841Y59359D01*
X573319Y59359D01*
X573319Y66881D01*
X579841Y66881D01*
X579841Y65077D02*
X573319Y65077D01*
X579841Y75359D02*
X579841Y82881D01*
X579841Y75359D02*
X573319Y75359D01*
X573319Y82881D01*
X579841Y82881D01*
X579841Y81077D02*
X573319Y81077D01*
X352339Y70181D02*
X352339Y62659D01*
X352339Y70181D02*
X358861Y70181D01*
X358861Y62659D01*
X352339Y62659D01*
X352339Y68377D02*
X358861Y68377D01*
X352339Y54181D02*
X352339Y46659D01*
X352339Y54181D02*
X358861Y54181D01*
X358861Y46659D01*
X352339Y46659D01*
X352339Y52377D02*
X358861Y52377D01*
D12*
X691401Y163501D02*
X691401Y167039D01*
X695439Y167039D01*
X695439Y163501D01*
X691401Y163501D01*
X691401Y156539D02*
X691401Y153001D01*
X691401Y156539D02*
X695439Y156539D01*
X695439Y153001D01*
X691401Y153001D01*
X995159Y272381D02*
X995159Y275919D01*
X995159Y272381D02*
X991121Y272381D01*
X991121Y275919D01*
X995159Y275919D01*
X995159Y282881D02*
X995159Y286419D01*
X995159Y282881D02*
X991121Y282881D01*
X991121Y286419D01*
X995159Y286419D01*
X865619Y156539D02*
X865619Y153001D01*
X861581Y153001D01*
X861581Y156539D01*
X865619Y156539D01*
X865619Y163501D02*
X865619Y167039D01*
X865619Y163501D02*
X861581Y163501D01*
X861581Y167039D01*
X865619Y167039D01*
D13*
X498499Y296459D02*
X498499Y302981D01*
X509021Y302981D01*
X509021Y296459D01*
X498499Y296459D01*
X498499Y302177D02*
X509021Y302177D01*
X476499Y293481D02*
X476499Y286959D01*
X476499Y293481D02*
X487021Y293481D01*
X487021Y286959D01*
X476499Y286959D01*
X476499Y292677D02*
X487021Y292677D01*
X476499Y305959D02*
X476499Y312481D01*
X487021Y312481D01*
X487021Y305959D01*
X476499Y305959D01*
X476499Y311677D02*
X487021Y311677D01*
X457859Y326939D02*
X457859Y333461D01*
X468381Y333461D01*
X468381Y326939D01*
X457859Y326939D01*
X457859Y332657D02*
X468381Y332657D01*
X435859Y323961D02*
X435859Y317439D01*
X435859Y323961D02*
X446381Y323961D01*
X446381Y317439D01*
X435859Y317439D01*
X435859Y323157D02*
X446381Y323157D01*
X435859Y336439D02*
X435859Y342961D01*
X446381Y342961D01*
X446381Y336439D01*
X435859Y336439D01*
X435859Y342157D02*
X446381Y342157D01*
D12*
X1029221Y98459D02*
X1029221Y94921D01*
X1029221Y98459D02*
X1033259Y98459D01*
X1033259Y94921D01*
X1029221Y94921D01*
X1029221Y87959D02*
X1029221Y84421D01*
X1029221Y87959D02*
X1033259Y87959D01*
X1033259Y84421D01*
X1029221Y84421D01*
X704101Y143181D02*
X704101Y146719D01*
X708139Y146719D01*
X708139Y143181D01*
X704101Y143181D01*
X704101Y136219D02*
X704101Y132681D01*
X704101Y136219D02*
X708139Y136219D01*
X708139Y132681D01*
X704101Y132681D01*
X1252821Y140221D02*
X1256359Y140221D01*
X1252821Y140221D02*
X1252821Y144259D01*
X1256359Y144259D01*
X1256359Y140221D01*
X1263321Y140221D02*
X1266859Y140221D01*
X1263321Y140221D02*
X1263321Y144259D01*
X1266859Y144259D01*
X1266859Y140221D01*
X540419Y261099D02*
X536881Y261099D01*
X540419Y261099D02*
X540419Y257061D01*
X536881Y257061D01*
X536881Y261099D01*
X529919Y261099D02*
X526381Y261099D01*
X529919Y261099D02*
X529919Y257061D01*
X526381Y257061D01*
X526381Y261099D01*
X676161Y167039D02*
X676161Y163501D01*
X676161Y167039D02*
X680199Y167039D01*
X680199Y163501D01*
X676161Y163501D01*
X676161Y156539D02*
X676161Y153001D01*
X676161Y156539D02*
X680199Y156539D01*
X680199Y153001D01*
X676161Y153001D01*
X1007859Y272381D02*
X1007859Y275919D01*
X1007859Y272381D02*
X1003821Y272381D01*
X1003821Y275919D01*
X1007859Y275919D01*
X1007859Y282881D02*
X1007859Y286419D01*
X1007859Y282881D02*
X1003821Y282881D01*
X1003821Y286419D01*
X1007859Y286419D01*
X874281Y167039D02*
X874281Y163501D01*
X874281Y167039D02*
X878319Y167039D01*
X878319Y163501D01*
X874281Y163501D01*
X874281Y156539D02*
X874281Y153001D01*
X874281Y156539D02*
X878319Y156539D01*
X878319Y153001D01*
X874281Y153001D01*
X1178039Y100659D02*
X1178039Y97121D01*
X1174001Y97121D01*
X1174001Y100659D01*
X1178039Y100659D01*
X1178039Y107621D02*
X1178039Y111159D01*
X1178039Y107621D02*
X1174001Y107621D01*
X1174001Y111159D01*
X1178039Y111159D01*
X1033179Y141719D02*
X1029641Y141719D01*
X1033179Y141719D02*
X1033179Y137681D01*
X1029641Y137681D01*
X1029641Y141719D01*
X1022679Y141719D02*
X1019141Y141719D01*
X1022679Y141719D02*
X1022679Y137681D01*
X1019141Y137681D01*
X1019141Y141719D01*
X979839Y256019D02*
X976301Y256019D01*
X979839Y256019D02*
X979839Y251981D01*
X976301Y251981D01*
X976301Y256019D01*
X969339Y256019D02*
X965801Y256019D01*
X969339Y256019D02*
X969339Y251981D01*
X965801Y251981D01*
X965801Y256019D01*
X1043419Y87959D02*
X1043419Y84421D01*
X1039381Y84421D01*
X1039381Y87959D01*
X1043419Y87959D01*
X1043419Y94921D02*
X1043419Y98459D01*
X1043419Y94921D02*
X1039381Y94921D01*
X1039381Y98459D01*
X1043419Y98459D01*
X441359Y212839D02*
X437821Y212839D01*
X441359Y212839D02*
X441359Y208801D01*
X437821Y208801D01*
X437821Y212839D01*
X430859Y212839D02*
X427321Y212839D01*
X430859Y212839D02*
X430859Y208801D01*
X427321Y208801D01*
X427321Y212839D01*
X437821Y177279D02*
X441359Y177279D01*
X441359Y173241D01*
X437821Y173241D01*
X437821Y177279D01*
X430859Y177279D02*
X427321Y177279D01*
X430859Y177279D02*
X430859Y173241D01*
X427321Y173241D01*
X427321Y177279D01*
X430201Y187439D02*
X433739Y187439D01*
X433739Y183401D01*
X430201Y183401D01*
X430201Y187439D01*
X423239Y187439D02*
X419701Y187439D01*
X423239Y187439D02*
X423239Y183401D01*
X419701Y183401D01*
X419701Y187439D01*
X430201Y202679D02*
X433739Y202679D01*
X433739Y198641D01*
X430201Y198641D01*
X430201Y202679D01*
X423239Y202679D02*
X419701Y202679D01*
X423239Y202679D02*
X423239Y198641D01*
X419701Y198641D01*
X419701Y202679D01*
X526381Y201181D02*
X529919Y201181D01*
X526381Y201181D02*
X526381Y205219D01*
X529919Y205219D01*
X529919Y201181D01*
X536881Y201181D02*
X540419Y201181D01*
X536881Y201181D02*
X536881Y205219D01*
X540419Y205219D01*
X540419Y201181D01*
X554321Y152921D02*
X557859Y152921D01*
X554321Y152921D02*
X554321Y156959D01*
X557859Y156959D01*
X557859Y152921D01*
X564821Y152921D02*
X568359Y152921D01*
X564821Y152921D02*
X564821Y156959D01*
X568359Y156959D01*
X568359Y152921D01*
X568439Y178401D02*
X568439Y181939D01*
X568439Y178401D02*
X564401Y178401D01*
X564401Y181939D01*
X568439Y181939D01*
X568439Y188901D02*
X568439Y192439D01*
X568439Y188901D02*
X564401Y188901D01*
X564401Y192439D01*
X568439Y192439D01*
X529919Y226581D02*
X526381Y226581D01*
X526381Y230619D01*
X529919Y230619D01*
X529919Y226581D01*
X536881Y226581D02*
X540419Y226581D01*
X536881Y226581D02*
X536881Y230619D01*
X540419Y230619D01*
X540419Y226581D01*
X461759Y169239D02*
X461759Y165701D01*
X457721Y165701D01*
X457721Y169239D01*
X461759Y169239D01*
X461759Y176201D02*
X461759Y179739D01*
X461759Y176201D02*
X457721Y176201D01*
X457721Y179739D01*
X461759Y179739D01*
X441359Y141719D02*
X437821Y141719D01*
X441359Y141719D02*
X441359Y137681D01*
X437821Y137681D01*
X437821Y141719D01*
X430859Y141719D02*
X427321Y141719D01*
X430859Y141719D02*
X430859Y137681D01*
X427321Y137681D01*
X427321Y141719D01*
X439941Y305741D02*
X439941Y309279D01*
X443979Y309279D01*
X443979Y305741D01*
X439941Y305741D01*
X439941Y298779D02*
X439941Y295241D01*
X439941Y298779D02*
X443979Y298779D01*
X443979Y295241D01*
X439941Y295241D01*
X441359Y129019D02*
X437821Y129019D01*
X441359Y129019D02*
X441359Y124981D01*
X437821Y124981D01*
X437821Y129019D01*
X430859Y129019D02*
X427321Y129019D01*
X430859Y129019D02*
X430859Y124981D01*
X427321Y124981D01*
X427321Y129019D01*
X549581Y192519D02*
X553119Y192519D01*
X553119Y188481D01*
X549581Y188481D01*
X549581Y192519D01*
X542619Y192519D02*
X539081Y192519D01*
X542619Y192519D02*
X542619Y188481D01*
X539081Y188481D01*
X539081Y192519D01*
X529919Y213881D02*
X526381Y213881D01*
X526381Y217919D01*
X529919Y217919D01*
X529919Y213881D01*
X536881Y213881D02*
X540419Y213881D01*
X536881Y213881D02*
X536881Y217919D01*
X540419Y217919D01*
X540419Y213881D01*
X541541Y156879D02*
X541541Y153341D01*
X541541Y156879D02*
X545579Y156879D01*
X545579Y153341D01*
X541541Y153341D01*
X541541Y146379D02*
X541541Y142841D01*
X541541Y146379D02*
X545579Y146379D01*
X545579Y142841D01*
X541541Y142841D01*
X564821Y172199D02*
X568359Y172199D01*
X568359Y168161D01*
X564821Y168161D01*
X564821Y172199D01*
X557859Y172199D02*
X554321Y172199D01*
X557859Y172199D02*
X557859Y168161D01*
X554321Y168161D01*
X554321Y172199D01*
X487159Y246981D02*
X487159Y250519D01*
X487159Y246981D02*
X483121Y246981D01*
X483121Y250519D01*
X487159Y250519D01*
X487159Y257481D02*
X487159Y261019D01*
X487159Y257481D02*
X483121Y257481D01*
X483121Y261019D01*
X487159Y261019D01*
X464299Y295241D02*
X464299Y298779D01*
X464299Y295241D02*
X460261Y295241D01*
X460261Y298779D01*
X464299Y298779D01*
X464299Y305741D02*
X464299Y309279D01*
X464299Y305741D02*
X460261Y305741D01*
X460261Y309279D01*
X464299Y309279D01*
X352119Y361201D02*
X348581Y361201D01*
X348581Y365239D01*
X352119Y365239D01*
X352119Y361201D01*
X359081Y361201D02*
X362619Y361201D01*
X359081Y361201D02*
X359081Y365239D01*
X362619Y365239D01*
X362619Y361201D01*
X1213599Y100659D02*
X1213599Y97121D01*
X1209561Y97121D01*
X1209561Y100659D01*
X1213599Y100659D01*
X1213599Y107621D02*
X1213599Y111159D01*
X1213599Y107621D02*
X1209561Y107621D01*
X1209561Y111159D01*
X1213599Y111159D01*
X751239Y162039D02*
X747701Y162039D01*
X751239Y162039D02*
X751239Y158001D01*
X747701Y158001D01*
X747701Y162039D01*
X740739Y162039D02*
X737201Y162039D01*
X740739Y162039D02*
X740739Y158001D01*
X737201Y158001D01*
X737201Y162039D01*
X715339Y158001D02*
X711801Y158001D01*
X711801Y162039D01*
X715339Y162039D01*
X715339Y158001D01*
X722301Y158001D02*
X725839Y158001D01*
X722301Y158001D02*
X722301Y162039D01*
X725839Y162039D01*
X725839Y158001D01*
D13*
X456261Y262341D02*
X448739Y262341D01*
X456261Y262341D02*
X456261Y255819D01*
X448739Y255819D01*
X448739Y262341D01*
X448739Y261537D02*
X456261Y261537D01*
X440261Y262341D02*
X432739Y262341D01*
X440261Y262341D02*
X440261Y255819D01*
X432739Y255819D01*
X432739Y262341D01*
X432739Y261537D02*
X440261Y261537D01*
X440261Y225339D02*
X432739Y225339D01*
X432739Y231861D01*
X440261Y231861D01*
X440261Y225339D01*
X440261Y231057D02*
X432739Y231057D01*
X448739Y225339D02*
X456261Y225339D01*
X448739Y225339D02*
X448739Y231861D01*
X456261Y231861D01*
X456261Y225339D01*
X456261Y231057D02*
X448739Y231057D01*
D12*
X1035799Y166699D02*
X1035799Y163161D01*
X1031761Y163161D01*
X1031761Y166699D01*
X1035799Y166699D01*
X1035799Y173661D02*
X1035799Y177199D01*
X1035799Y173661D02*
X1031761Y173661D01*
X1031761Y177199D01*
X1035799Y177199D01*
X464299Y206341D02*
X464299Y209879D01*
X464299Y206341D02*
X460261Y206341D01*
X460261Y209879D01*
X464299Y209879D01*
X464299Y216841D02*
X464299Y220379D01*
X464299Y216841D02*
X460261Y216841D01*
X460261Y220379D01*
X464299Y220379D01*
X470421Y159419D02*
X470421Y155881D01*
X470421Y159419D02*
X474459Y159419D01*
X474459Y155881D01*
X470421Y155881D01*
X470421Y148919D02*
X470421Y145381D01*
X470421Y148919D02*
X474459Y148919D01*
X474459Y145381D01*
X470421Y145381D01*
D13*
X524939Y137881D02*
X532461Y137881D01*
X532461Y131359D01*
X524939Y131359D01*
X524939Y137881D01*
X524939Y137077D02*
X532461Y137077D01*
X516461Y137881D02*
X508939Y137881D01*
X516461Y137881D02*
X516461Y131359D01*
X508939Y131359D01*
X508939Y137881D01*
X508939Y137077D02*
X516461Y137077D01*
X1024341Y282879D02*
X1024341Y290401D01*
X1024341Y282879D02*
X1017819Y282879D01*
X1017819Y290401D01*
X1024341Y290401D01*
X1024341Y288597D02*
X1017819Y288597D01*
X1024341Y298879D02*
X1024341Y306401D01*
X1024341Y298879D02*
X1017819Y298879D01*
X1017819Y306401D01*
X1024341Y306401D01*
X1024341Y304597D02*
X1017819Y304597D01*
D12*
X1035799Y293699D02*
X1035799Y290161D01*
X1031761Y290161D01*
X1031761Y293699D01*
X1035799Y293699D01*
X1035799Y300661D02*
X1035799Y304199D01*
X1035799Y300661D02*
X1031761Y300661D01*
X1031761Y304199D01*
X1035799Y304199D01*
D13*
X1012739Y70181D02*
X1012739Y62659D01*
X1012739Y70181D02*
X1019261Y70181D01*
X1019261Y62659D01*
X1012739Y62659D01*
X1012739Y68377D02*
X1019261Y68377D01*
X1012739Y54181D02*
X1012739Y46659D01*
X1012739Y54181D02*
X1019261Y54181D01*
X1019261Y46659D01*
X1012739Y46659D01*
X1012739Y52377D02*
X1019261Y52377D01*
X685079Y88059D02*
X685079Y95581D01*
X691601Y95581D01*
X691601Y88059D01*
X685079Y88059D01*
X685079Y93777D02*
X691601Y93777D01*
X685079Y79581D02*
X685079Y72059D01*
X685079Y79581D02*
X691601Y79581D01*
X691601Y72059D01*
X685079Y72059D01*
X685079Y77777D02*
X691601Y77777D01*
D12*
X1049541Y94921D02*
X1049541Y98459D01*
X1053579Y98459D01*
X1053579Y94921D01*
X1049541Y94921D01*
X1049541Y87959D02*
X1049541Y84421D01*
X1049541Y87959D02*
X1053579Y87959D01*
X1053579Y84421D01*
X1049541Y84421D01*
X511061Y155881D02*
X511061Y159419D01*
X515099Y159419D01*
X515099Y155881D01*
X511061Y155881D01*
X511061Y148919D02*
X511061Y145381D01*
X511061Y148919D02*
X515099Y148919D01*
X515099Y145381D01*
X511061Y145381D01*
X523761Y155881D02*
X523761Y159419D01*
X527799Y159419D01*
X527799Y155881D01*
X523761Y155881D01*
X523761Y148919D02*
X523761Y145381D01*
X523761Y148919D02*
X527799Y148919D01*
X527799Y145381D01*
X523761Y145381D01*
X348501Y351461D02*
X348501Y354999D01*
X352539Y354999D01*
X352539Y351461D01*
X348501Y351461D01*
X348501Y344499D02*
X348501Y340961D01*
X348501Y344499D02*
X352539Y344499D01*
X352539Y340961D01*
X348501Y340961D01*
X358661Y351461D02*
X358661Y354999D01*
X362699Y354999D01*
X362699Y351461D01*
X358661Y351461D01*
X358661Y344499D02*
X358661Y340961D01*
X358661Y344499D02*
X362699Y344499D01*
X362699Y340961D01*
X358661Y340961D01*
X238239Y346041D02*
X238239Y349579D01*
X238239Y346041D02*
X234201Y346041D01*
X234201Y349579D01*
X238239Y349579D01*
X238239Y356541D02*
X238239Y360079D01*
X238239Y356541D02*
X234201Y356541D01*
X234201Y360079D01*
X238239Y360079D01*
X182359Y344499D02*
X182359Y340961D01*
X178321Y340961D01*
X178321Y344499D01*
X182359Y344499D01*
X182359Y351461D02*
X182359Y354999D01*
X182359Y351461D02*
X178321Y351461D01*
X178321Y354999D01*
X182359Y354999D01*
D13*
X448739Y247101D02*
X456261Y247101D01*
X456261Y240579D01*
X448739Y240579D01*
X448739Y247101D01*
X448739Y246297D02*
X456261Y246297D01*
X440261Y247101D02*
X432739Y247101D01*
X440261Y247101D02*
X440261Y240579D01*
X432739Y240579D01*
X432739Y247101D01*
X432739Y246297D02*
X440261Y246297D01*
D14*
X611754Y105716D02*
X611754Y98084D01*
X611754Y105716D02*
X616286Y105716D01*
X616286Y98084D01*
X611754Y98084D01*
X611754Y102748D02*
X616286Y102748D01*
X602254Y105716D02*
X602254Y98084D01*
X602254Y105716D02*
X606786Y105716D01*
X606786Y98084D01*
X602254Y98084D01*
X602254Y102748D02*
X606786Y102748D01*
X592754Y105716D02*
X592754Y98084D01*
X592754Y105716D02*
X597286Y105716D01*
X597286Y98084D01*
X592754Y98084D01*
X592754Y102748D02*
X597286Y102748D01*
X592754Y79716D02*
X592754Y72084D01*
X592754Y79716D02*
X597286Y79716D01*
X597286Y72084D01*
X592754Y72084D01*
X592754Y76748D02*
X597286Y76748D01*
X602254Y79716D02*
X602254Y72084D01*
X602254Y79716D02*
X606786Y79716D01*
X606786Y72084D01*
X602254Y72084D01*
X602254Y76748D02*
X606786Y76748D01*
X611754Y79716D02*
X611754Y72084D01*
X611754Y79716D02*
X616286Y79716D01*
X616286Y72084D01*
X611754Y72084D01*
X611754Y76748D02*
X616286Y76748D01*
D15*
X639934Y77554D02*
X647786Y77554D01*
X639934Y77554D02*
X639934Y110406D01*
X647786Y110406D01*
X647786Y77554D01*
X647786Y83908D02*
X639934Y83908D01*
X639934Y90262D02*
X647786Y90262D01*
X647786Y96616D02*
X639934Y96616D01*
X639934Y102970D02*
X647786Y102970D01*
X647786Y109324D02*
X639934Y109324D01*
X667934Y77554D02*
X675786Y77554D01*
X667934Y77554D02*
X667934Y110406D01*
X675786Y110406D01*
X675786Y77554D01*
X675786Y83908D02*
X667934Y83908D01*
X667934Y90262D02*
X675786Y90262D01*
X675786Y96616D02*
X667934Y96616D01*
X667934Y102970D02*
X675786Y102970D01*
X675786Y109324D02*
X667934Y109324D01*
D12*
X606459Y65519D02*
X602921Y65519D01*
X606459Y65519D02*
X606459Y61481D01*
X602921Y61481D01*
X602921Y65519D01*
X595959Y65519D02*
X592421Y65519D01*
X595959Y65519D02*
X595959Y61481D01*
X592421Y61481D01*
X592421Y65519D01*
X627901Y107621D02*
X627901Y111159D01*
X631939Y111159D01*
X631939Y107621D01*
X627901Y107621D01*
X627901Y100659D02*
X627901Y97121D01*
X627901Y100659D02*
X631939Y100659D01*
X631939Y97121D01*
X627901Y97121D01*
X613739Y114821D02*
X610201Y114821D01*
X610201Y118859D01*
X613739Y118859D01*
X613739Y114821D01*
X620701Y114821D02*
X624239Y114821D01*
X620701Y114821D02*
X620701Y118859D01*
X624239Y118859D01*
X624239Y114821D01*
X588339Y114821D02*
X584801Y114821D01*
X584801Y118859D01*
X588339Y118859D01*
X588339Y114821D01*
X595301Y114821D02*
X598839Y114821D01*
X595301Y114821D02*
X595301Y118859D01*
X598839Y118859D01*
X598839Y114821D01*
D16*
X639377Y62924D02*
X639377Y53916D01*
X633417Y53916D01*
X633417Y62924D01*
X639377Y62924D01*
X639377Y59355D02*
X633417Y59355D01*
X672143Y62924D02*
X672143Y53916D01*
X666183Y53916D01*
X666183Y62924D01*
X672143Y62924D01*
X672143Y59355D02*
X666183Y59355D01*
D12*
X540079Y114821D02*
X536541Y114821D01*
X536541Y118859D01*
X540079Y118859D01*
X540079Y114821D01*
X547041Y114821D02*
X550579Y114821D01*
X547041Y114821D02*
X547041Y118859D01*
X550579Y118859D01*
X550579Y114821D01*
D13*
X546941Y60239D02*
X539419Y60239D01*
X539419Y66761D01*
X546941Y66761D01*
X546941Y60239D01*
X546941Y65957D02*
X539419Y65957D01*
X555419Y60239D02*
X562941Y60239D01*
X555419Y60239D02*
X555419Y66761D01*
X562941Y66761D01*
X562941Y60239D01*
X562941Y65957D02*
X555419Y65957D01*
D17*
X581451Y132471D02*
X597549Y132471D01*
X581451Y132471D02*
X581451Y141569D01*
X597549Y141569D01*
X597549Y132471D01*
X597549Y139542D02*
X581451Y139542D01*
X581451Y178471D02*
X597549Y178471D01*
X581451Y178471D02*
X581451Y187569D01*
X597549Y187569D01*
X597549Y178471D01*
X597549Y185542D02*
X581451Y185542D01*
X672451Y178471D02*
X688549Y178471D01*
X672451Y178471D02*
X672451Y187569D01*
X688549Y187569D01*
X688549Y178471D01*
X688549Y185542D02*
X672451Y185542D01*
X672451Y132471D02*
X688549Y132471D01*
X672451Y132471D02*
X672451Y141569D01*
X688549Y141569D01*
X688549Y132471D01*
X688549Y139542D02*
X672451Y139542D01*
X941949Y197911D02*
X941949Y214009D01*
X941949Y197911D02*
X932851Y197911D01*
X932851Y214009D01*
X941949Y214009D01*
X941949Y204982D02*
X932851Y204982D01*
X932851Y212053D02*
X941949Y212053D01*
X895949Y214009D02*
X895949Y197911D01*
X886851Y197911D01*
X886851Y214009D01*
X895949Y214009D01*
X895949Y204982D02*
X886851Y204982D01*
X886851Y212053D02*
X895949Y212053D01*
X895949Y288911D02*
X895949Y305009D01*
X895949Y288911D02*
X886851Y288911D01*
X886851Y305009D01*
X895949Y305009D01*
X895949Y295982D02*
X886851Y295982D01*
X886851Y303053D02*
X895949Y303053D01*
X941949Y305009D02*
X941949Y288911D01*
X932851Y288911D01*
X932851Y305009D01*
X941949Y305009D01*
X941949Y295982D02*
X932851Y295982D01*
X932851Y303053D02*
X941949Y303053D01*
X782969Y132471D02*
X766871Y132471D01*
X766871Y141569D01*
X782969Y141569D01*
X782969Y132471D01*
X782969Y139542D02*
X766871Y139542D01*
X766871Y178471D02*
X782969Y178471D01*
X766871Y178471D02*
X766871Y187569D01*
X782969Y187569D01*
X782969Y178471D01*
X782969Y185542D02*
X766871Y185542D01*
X857871Y178471D02*
X873969Y178471D01*
X857871Y178471D02*
X857871Y187569D01*
X873969Y187569D01*
X873969Y178471D01*
X873969Y185542D02*
X857871Y185542D01*
X857871Y132471D02*
X873969Y132471D01*
X857871Y132471D02*
X857871Y141569D01*
X873969Y141569D01*
X873969Y132471D01*
X873969Y139542D02*
X857871Y139542D01*
D12*
X537539Y178321D02*
X534001Y178321D01*
X534001Y182359D01*
X537539Y182359D01*
X537539Y178321D01*
X544501Y178321D02*
X548039Y178321D01*
X544501Y178321D02*
X544501Y182359D01*
X548039Y182359D01*
X548039Y178321D01*
X855459Y47319D02*
X855459Y43781D01*
X851421Y43781D01*
X851421Y47319D01*
X855459Y47319D01*
X855459Y54281D02*
X855459Y57819D01*
X855459Y54281D02*
X851421Y54281D01*
X851421Y57819D01*
X855459Y57819D01*
D18*
X1105328Y206468D02*
X1150512Y206468D01*
X1105328Y206468D02*
X1105328Y251652D01*
X1150512Y251652D01*
X1150512Y206468D01*
X1150512Y213456D02*
X1105328Y213456D01*
X1105328Y220444D02*
X1150512Y220444D01*
X1150512Y227432D02*
X1105328Y227432D01*
X1105328Y234420D02*
X1150512Y234420D01*
X1150512Y241408D02*
X1105328Y241408D01*
X1105328Y248396D02*
X1150512Y248396D01*
D19*
X1061363Y301117D02*
X1044477Y301117D01*
X1044477Y307003D01*
X1061363Y307003D01*
X1061363Y301117D01*
X1061363Y306489D02*
X1044477Y306489D01*
X1044477Y288417D02*
X1061363Y288417D01*
X1044477Y288417D02*
X1044477Y294303D01*
X1061363Y294303D01*
X1061363Y288417D01*
X1061363Y293789D02*
X1044477Y293789D01*
X1044477Y275717D02*
X1061363Y275717D01*
X1044477Y275717D02*
X1044477Y281603D01*
X1061363Y281603D01*
X1061363Y275717D01*
X1061363Y281089D02*
X1044477Y281089D01*
X1044477Y263017D02*
X1061363Y263017D01*
X1044477Y263017D02*
X1044477Y268903D01*
X1061363Y268903D01*
X1061363Y263017D01*
X1061363Y268389D02*
X1044477Y268389D01*
X1044477Y250317D02*
X1061363Y250317D01*
X1044477Y250317D02*
X1044477Y256203D01*
X1061363Y256203D01*
X1061363Y250317D01*
X1061363Y255689D02*
X1044477Y255689D01*
X1044477Y237617D02*
X1061363Y237617D01*
X1044477Y237617D02*
X1044477Y243503D01*
X1061363Y243503D01*
X1061363Y237617D01*
X1061363Y242989D02*
X1044477Y242989D01*
X1044477Y224917D02*
X1061363Y224917D01*
X1044477Y224917D02*
X1044477Y230803D01*
X1061363Y230803D01*
X1061363Y224917D01*
X1061363Y230289D02*
X1044477Y230289D01*
X1044477Y212217D02*
X1061363Y212217D01*
X1044477Y212217D02*
X1044477Y218103D01*
X1061363Y218103D01*
X1061363Y212217D01*
X1061363Y217589D02*
X1044477Y217589D01*
X1044477Y199517D02*
X1061363Y199517D01*
X1044477Y199517D02*
X1044477Y205403D01*
X1061363Y205403D01*
X1061363Y199517D01*
X1061363Y204889D02*
X1044477Y204889D01*
X1044477Y186817D02*
X1061363Y186817D01*
X1044477Y186817D02*
X1044477Y192703D01*
X1061363Y192703D01*
X1061363Y186817D01*
X1061363Y192189D02*
X1044477Y192189D01*
X1044477Y174117D02*
X1061363Y174117D01*
X1044477Y174117D02*
X1044477Y180003D01*
X1061363Y180003D01*
X1061363Y174117D01*
X1061363Y179489D02*
X1044477Y179489D01*
X1044477Y161417D02*
X1061363Y161417D01*
X1044477Y161417D02*
X1044477Y167303D01*
X1061363Y167303D01*
X1061363Y161417D01*
X1061363Y166789D02*
X1044477Y166789D01*
X1044477Y148717D02*
X1061363Y148717D01*
X1044477Y148717D02*
X1044477Y154603D01*
X1061363Y154603D01*
X1061363Y148717D01*
X1061363Y154089D02*
X1044477Y154089D01*
X1044477Y136017D02*
X1061363Y136017D01*
X1044477Y136017D02*
X1044477Y141903D01*
X1061363Y141903D01*
X1061363Y136017D01*
X1061363Y141389D02*
X1044477Y141389D01*
X1083713Y137403D02*
X1083713Y120517D01*
X1077827Y120517D01*
X1077827Y137403D01*
X1083713Y137403D01*
X1083713Y125889D02*
X1077827Y125889D01*
X1077827Y131261D02*
X1083713Y131261D01*
X1083713Y136633D02*
X1077827Y136633D01*
X1096413Y137403D02*
X1096413Y120517D01*
X1090527Y120517D01*
X1090527Y137403D01*
X1096413Y137403D01*
X1096413Y125889D02*
X1090527Y125889D01*
X1090527Y131261D02*
X1096413Y131261D01*
X1096413Y136633D02*
X1090527Y136633D01*
X1109113Y137403D02*
X1109113Y120517D01*
X1103227Y120517D01*
X1103227Y137403D01*
X1109113Y137403D01*
X1109113Y125889D02*
X1103227Y125889D01*
X1103227Y131261D02*
X1109113Y131261D01*
X1109113Y136633D02*
X1103227Y136633D01*
X1121813Y137403D02*
X1121813Y120517D01*
X1115927Y120517D01*
X1115927Y137403D01*
X1121813Y137403D01*
X1121813Y125889D02*
X1115927Y125889D01*
X1115927Y131261D02*
X1121813Y131261D01*
X1121813Y136633D02*
X1115927Y136633D01*
X1134513Y137403D02*
X1134513Y120517D01*
X1128627Y120517D01*
X1128627Y137403D01*
X1134513Y137403D01*
X1134513Y125889D02*
X1128627Y125889D01*
X1128627Y131261D02*
X1134513Y131261D01*
X1134513Y136633D02*
X1128627Y136633D01*
X1147213Y137403D02*
X1147213Y120517D01*
X1141327Y120517D01*
X1141327Y137403D01*
X1147213Y137403D01*
X1147213Y125889D02*
X1141327Y125889D01*
X1141327Y131261D02*
X1147213Y131261D01*
X1147213Y136633D02*
X1141327Y136633D01*
X1159913Y137403D02*
X1159913Y120517D01*
X1154027Y120517D01*
X1154027Y137403D01*
X1159913Y137403D01*
X1159913Y125889D02*
X1154027Y125889D01*
X1154027Y131261D02*
X1159913Y131261D01*
X1159913Y136633D02*
X1154027Y136633D01*
X1172613Y137403D02*
X1172613Y120517D01*
X1166727Y120517D01*
X1166727Y137403D01*
X1172613Y137403D01*
X1172613Y125889D02*
X1166727Y125889D01*
X1166727Y131261D02*
X1172613Y131261D01*
X1172613Y136633D02*
X1166727Y136633D01*
X1185313Y137403D02*
X1185313Y120517D01*
X1179427Y120517D01*
X1179427Y137403D01*
X1185313Y137403D01*
X1185313Y125889D02*
X1179427Y125889D01*
X1179427Y131261D02*
X1185313Y131261D01*
X1185313Y136633D02*
X1179427Y136633D01*
X1198013Y137403D02*
X1198013Y120517D01*
X1192127Y120517D01*
X1192127Y137403D01*
X1198013Y137403D01*
X1198013Y125889D02*
X1192127Y125889D01*
X1192127Y131261D02*
X1198013Y131261D01*
X1198013Y136633D02*
X1192127Y136633D01*
X1214477Y141903D02*
X1231363Y141903D01*
X1231363Y136017D01*
X1214477Y136017D01*
X1214477Y141903D01*
X1214477Y141389D02*
X1231363Y141389D01*
X1231363Y154603D02*
X1214477Y154603D01*
X1231363Y154603D02*
X1231363Y148717D01*
X1214477Y148717D01*
X1214477Y154603D01*
X1214477Y154089D02*
X1231363Y154089D01*
X1231363Y167303D02*
X1214477Y167303D01*
X1231363Y167303D02*
X1231363Y161417D01*
X1214477Y161417D01*
X1214477Y167303D01*
X1214477Y166789D02*
X1231363Y166789D01*
X1231363Y180003D02*
X1214477Y180003D01*
X1231363Y180003D02*
X1231363Y174117D01*
X1214477Y174117D01*
X1214477Y180003D01*
X1214477Y179489D02*
X1231363Y179489D01*
X1231363Y192703D02*
X1214477Y192703D01*
X1231363Y192703D02*
X1231363Y186817D01*
X1214477Y186817D01*
X1214477Y192703D01*
X1214477Y192189D02*
X1231363Y192189D01*
X1231363Y205403D02*
X1214477Y205403D01*
X1231363Y205403D02*
X1231363Y199517D01*
X1214477Y199517D01*
X1214477Y205403D01*
X1214477Y204889D02*
X1231363Y204889D01*
X1231363Y218103D02*
X1214477Y218103D01*
X1231363Y218103D02*
X1231363Y212217D01*
X1214477Y212217D01*
X1214477Y218103D01*
X1214477Y217589D02*
X1231363Y217589D01*
X1231363Y230803D02*
X1214477Y230803D01*
X1231363Y230803D02*
X1231363Y224917D01*
X1214477Y224917D01*
X1214477Y230803D01*
X1214477Y230289D02*
X1231363Y230289D01*
X1231363Y243503D02*
X1214477Y243503D01*
X1231363Y243503D02*
X1231363Y237617D01*
X1214477Y237617D01*
X1214477Y243503D01*
X1214477Y242989D02*
X1231363Y242989D01*
X1231363Y256203D02*
X1214477Y256203D01*
X1231363Y256203D02*
X1231363Y250317D01*
X1214477Y250317D01*
X1214477Y256203D01*
X1214477Y255689D02*
X1231363Y255689D01*
X1231363Y268903D02*
X1214477Y268903D01*
X1231363Y268903D02*
X1231363Y263017D01*
X1214477Y263017D01*
X1214477Y268903D01*
X1214477Y268389D02*
X1231363Y268389D01*
X1231363Y281603D02*
X1214477Y281603D01*
X1231363Y281603D02*
X1231363Y275717D01*
X1214477Y275717D01*
X1214477Y281603D01*
X1214477Y281089D02*
X1231363Y281089D01*
X1231363Y294303D02*
X1214477Y294303D01*
X1231363Y294303D02*
X1231363Y288417D01*
X1214477Y288417D01*
X1214477Y294303D01*
X1214477Y293789D02*
X1231363Y293789D01*
X1231363Y307003D02*
X1214477Y307003D01*
X1231363Y307003D02*
X1231363Y301117D01*
X1214477Y301117D01*
X1214477Y307003D01*
X1214477Y306489D02*
X1231363Y306489D01*
D20*
X143430Y358120D02*
X133270Y358120D01*
X133270Y292120D02*
X143430Y292120D01*
D21*
X169114Y324106D02*
X169114Y326134D01*
X169114Y324106D02*
X156086Y324106D01*
X156086Y326134D01*
X169114Y326134D01*
X169114Y330606D02*
X169114Y332634D01*
X169114Y330606D02*
X156086Y330606D01*
X156086Y332634D01*
X169114Y332634D01*
X169114Y319634D02*
X169114Y317606D01*
X156086Y317606D01*
X156086Y319634D01*
X169114Y319634D01*
X169114Y313134D02*
X169114Y311106D01*
X156086Y311106D01*
X156086Y313134D01*
X169114Y313134D01*
X169114Y337106D02*
X169114Y339134D01*
X169114Y337106D02*
X156086Y337106D01*
X156086Y339134D01*
X169114Y339134D01*
D22*
X164304Y354646D02*
X157356Y354646D01*
X157356Y363594D01*
X164304Y363594D01*
X164304Y354646D01*
X164304Y286646D02*
X157356Y286646D01*
X157356Y295594D01*
X164304Y295594D01*
X164304Y286646D01*
D23*
X133611Y332381D02*
X133611Y341859D01*
X143089Y341859D01*
X143089Y332381D01*
X133611Y332381D01*
X133611Y317859D02*
X133611Y308381D01*
X133611Y317859D02*
X143089Y317859D01*
X143089Y308381D01*
X133611Y308381D01*
D24*
X510802Y181388D02*
X518498Y181388D01*
X518498Y179692D01*
X510802Y179692D01*
X510802Y181388D01*
X510802Y186388D02*
X518498Y186388D01*
X518498Y184692D01*
X510802Y184692D01*
X510802Y186388D01*
X510802Y191388D02*
X518498Y191388D01*
X518498Y189692D01*
X510802Y189692D01*
X510802Y191388D01*
X510802Y196388D02*
X518498Y196388D01*
X518498Y194692D01*
X510802Y194692D01*
X510802Y196388D01*
X510802Y201388D02*
X518498Y201388D01*
X518498Y199692D01*
X510802Y199692D01*
X510802Y201388D01*
X510802Y206388D02*
X518498Y206388D01*
X518498Y204692D01*
X510802Y204692D01*
X510802Y206388D01*
X479798Y206388D02*
X472102Y206388D01*
X479798Y206388D02*
X479798Y204692D01*
X472102Y204692D01*
X472102Y206388D01*
X472102Y201388D02*
X479798Y201388D01*
X479798Y199692D01*
X472102Y199692D01*
X472102Y201388D01*
X472102Y196388D02*
X479798Y196388D01*
X479798Y194692D01*
X472102Y194692D01*
X472102Y196388D01*
X472102Y191388D02*
X479798Y191388D01*
X479798Y189692D01*
X472102Y189692D01*
X472102Y191388D01*
X472102Y186388D02*
X479798Y186388D01*
X479798Y184692D01*
X472102Y184692D01*
X472102Y186388D01*
X472102Y181388D02*
X479798Y181388D01*
X479798Y179692D01*
X472102Y179692D01*
X472102Y181388D01*
X483648Y177538D02*
X483648Y169842D01*
X481952Y169842D01*
X481952Y177538D01*
X483648Y177538D01*
X483648Y173114D02*
X481952Y173114D01*
X481952Y176386D02*
X483648Y176386D01*
X488648Y177538D02*
X488648Y169842D01*
X486952Y169842D01*
X486952Y177538D01*
X488648Y177538D01*
X488648Y173114D02*
X486952Y173114D01*
X486952Y176386D02*
X488648Y176386D01*
X493648Y177538D02*
X493648Y169842D01*
X491952Y169842D01*
X491952Y177538D01*
X493648Y177538D01*
X493648Y173114D02*
X491952Y173114D01*
X491952Y176386D02*
X493648Y176386D01*
X498648Y177538D02*
X498648Y169842D01*
X496952Y169842D01*
X496952Y177538D01*
X498648Y177538D01*
X498648Y173114D02*
X496952Y173114D01*
X496952Y176386D02*
X498648Y176386D01*
X503648Y177538D02*
X503648Y169842D01*
X501952Y169842D01*
X501952Y177538D01*
X503648Y177538D01*
X503648Y173114D02*
X501952Y173114D01*
X501952Y176386D02*
X503648Y176386D01*
X508648Y177538D02*
X508648Y169842D01*
X506952Y169842D01*
X506952Y177538D01*
X508648Y177538D01*
X508648Y173114D02*
X506952Y173114D01*
X506952Y176386D02*
X508648Y176386D01*
X508648Y208542D02*
X508648Y216238D01*
X508648Y208542D02*
X506952Y208542D01*
X506952Y216238D01*
X508648Y216238D01*
X508648Y211814D02*
X506952Y211814D01*
X506952Y215086D02*
X508648Y215086D01*
X503648Y216238D02*
X503648Y208542D01*
X501952Y208542D01*
X501952Y216238D01*
X503648Y216238D01*
X503648Y211814D02*
X501952Y211814D01*
X501952Y215086D02*
X503648Y215086D01*
X498648Y216238D02*
X498648Y208542D01*
X496952Y208542D01*
X496952Y216238D01*
X498648Y216238D01*
X498648Y211814D02*
X496952Y211814D01*
X496952Y215086D02*
X498648Y215086D01*
X493648Y216238D02*
X493648Y208542D01*
X491952Y208542D01*
X491952Y216238D01*
X493648Y216238D01*
X493648Y211814D02*
X491952Y211814D01*
X491952Y215086D02*
X493648Y215086D01*
X488648Y216238D02*
X488648Y208542D01*
X486952Y208542D01*
X486952Y216238D01*
X488648Y216238D01*
X488648Y211814D02*
X486952Y211814D01*
X486952Y215086D02*
X488648Y215086D01*
X483648Y216238D02*
X483648Y208542D01*
X481952Y208542D01*
X481952Y216238D01*
X483648Y216238D01*
X483648Y211814D02*
X481952Y211814D01*
X481952Y215086D02*
X483648Y215086D01*
D25*
X505352Y203092D02*
X505352Y182988D01*
X485248Y182988D01*
X485248Y203092D01*
X505352Y203092D01*
X505352Y190052D02*
X485248Y190052D01*
X485248Y197116D02*
X505352Y197116D01*
D26*
X317490Y148598D03*
X292090Y161298D03*
X317490Y173998D03*
X292090Y186698D03*
X317490Y199398D03*
X292090Y212098D03*
X317490Y224798D03*
D27*
X292090Y237498D03*
D28*
X259090Y271798D03*
X259090Y114298D03*
D26*
X194804Y129785D03*
X179604Y256285D03*
X194809Y230904D03*
X179609Y155204D03*
D29*
X228590Y135898D03*
X228590Y250198D03*
D30*
X400050Y26670D03*
X400050Y90170D03*
X463550Y58420D03*
X971550Y26670D03*
X971550Y90170D03*
X908050Y58420D03*
D31*
X726484Y141986D02*
X722556Y141986D01*
X722556Y146414D01*
X726484Y146414D01*
X726484Y141986D01*
X726484Y146367D02*
X722556Y146367D01*
X736556Y141986D02*
X740484Y141986D01*
X736556Y141986D02*
X736556Y146414D01*
X740484Y146414D01*
X740484Y141986D01*
X740484Y146367D02*
X736556Y146367D01*
X736556Y132986D02*
X740484Y132986D01*
X736556Y132986D02*
X736556Y137414D01*
X740484Y137414D01*
X740484Y132986D01*
X740484Y137367D02*
X736556Y137367D01*
X726484Y132986D02*
X722556Y132986D01*
X722556Y137414D01*
X726484Y137414D01*
X726484Y132986D01*
X726484Y137367D02*
X722556Y137367D01*
D32*
X800100Y20320D03*
D26*
X774700Y20320D03*
X749300Y20320D03*
X723900Y20320D03*
X698500Y20320D03*
X673100Y20320D03*
X647700Y20320D03*
X622300Y20320D03*
X596900Y20320D03*
X571500Y20320D03*
D13*
X585139Y44999D02*
X592661Y44999D01*
X585139Y44999D02*
X585139Y51521D01*
X592661Y51521D01*
X592661Y44999D01*
X592661Y50717D02*
X585139Y50717D01*
X601139Y44999D02*
X608661Y44999D01*
X601139Y44999D02*
X601139Y51521D01*
X608661Y51521D01*
X608661Y44999D01*
X608661Y50717D02*
X601139Y50717D01*
X714679Y52619D02*
X722201Y52619D01*
X714679Y52619D02*
X714679Y59141D01*
X722201Y59141D01*
X722201Y52619D01*
X722201Y58337D02*
X714679Y58337D01*
X730679Y52619D02*
X738201Y52619D01*
X730679Y52619D02*
X730679Y59141D01*
X738201Y59141D01*
X738201Y52619D01*
X738201Y58337D02*
X730679Y58337D01*
D32*
X749300Y78740D03*
D26*
X723900Y78740D03*
D13*
X691467Y302184D02*
X688289Y309000D01*
X694199Y311756D01*
X697377Y304940D01*
X691467Y302184D01*
X688801Y307902D02*
X695996Y307902D01*
X695051Y294500D02*
X698229Y287684D01*
X695051Y294500D02*
X700961Y297256D01*
X704139Y290440D01*
X698229Y287684D01*
X695563Y293402D02*
X702758Y293402D01*
X763377Y304940D02*
X766555Y311756D01*
X772465Y309000D01*
X769287Y302184D01*
X763377Y304940D01*
X764758Y307902D02*
X771953Y307902D01*
X759793Y297256D02*
X756615Y290440D01*
X759793Y297256D02*
X765703Y294500D01*
X762525Y287684D01*
X756615Y290440D01*
X757996Y293402D02*
X765191Y293402D01*
D12*
X848961Y244361D02*
X852499Y244361D01*
X848961Y244361D02*
X848961Y248399D01*
X852499Y248399D01*
X852499Y244361D01*
X859461Y244361D02*
X862999Y244361D01*
X859461Y244361D02*
X859461Y248399D01*
X862999Y248399D01*
X862999Y244361D01*
X852499Y264681D02*
X848961Y264681D01*
X848961Y268719D01*
X852499Y268719D01*
X852499Y264681D01*
X859461Y264681D02*
X862999Y264681D01*
X859461Y264681D02*
X859461Y268719D01*
X862999Y268719D01*
X862999Y264681D01*
D13*
X514681Y107401D02*
X507159Y107401D01*
X514681Y107401D02*
X514681Y100879D01*
X507159Y100879D01*
X507159Y107401D01*
X507159Y106597D02*
X514681Y106597D01*
X498681Y107401D02*
X491159Y107401D01*
X498681Y107401D02*
X498681Y100879D01*
X491159Y100879D01*
X491159Y107401D01*
X491159Y106597D02*
X498681Y106597D01*
D33*
X254122Y358142D02*
X254122Y360758D01*
X267738Y360758D01*
X267738Y358142D01*
X254122Y358142D01*
X254122Y354258D02*
X254122Y351642D01*
X254122Y354258D02*
X267738Y354258D01*
X267738Y351642D01*
X254122Y351642D01*
X254122Y347758D02*
X254122Y345142D01*
X254122Y347758D02*
X267738Y347758D01*
X267738Y345142D01*
X254122Y345142D01*
X254122Y341258D02*
X254122Y338642D01*
X254122Y341258D02*
X267738Y341258D01*
X267738Y338642D01*
X254122Y338642D01*
X254122Y334758D02*
X254122Y332142D01*
X254122Y334758D02*
X267738Y334758D01*
X267738Y332142D01*
X254122Y332142D01*
X254122Y328258D02*
X254122Y325642D01*
X254122Y328258D02*
X267738Y328258D01*
X267738Y325642D01*
X254122Y325642D01*
X254122Y321758D02*
X254122Y319142D01*
X254122Y321758D02*
X267738Y321758D01*
X267738Y319142D01*
X254122Y319142D01*
X254122Y315258D02*
X254122Y312642D01*
X254122Y315258D02*
X267738Y315258D01*
X267738Y312642D01*
X254122Y312642D01*
X254122Y308758D02*
X254122Y306142D01*
X254122Y308758D02*
X267738Y308758D01*
X267738Y306142D01*
X254122Y306142D01*
X254122Y302258D02*
X254122Y299642D01*
X254122Y302258D02*
X267738Y302258D01*
X267738Y299642D01*
X254122Y299642D01*
X326622Y299642D02*
X326622Y302258D01*
X340238Y302258D01*
X340238Y299642D01*
X326622Y299642D01*
X326622Y306142D02*
X326622Y308758D01*
X340238Y308758D01*
X340238Y306142D01*
X326622Y306142D01*
X326622Y312642D02*
X326622Y315258D01*
X340238Y315258D01*
X340238Y312642D01*
X326622Y312642D01*
X326622Y319142D02*
X326622Y321758D01*
X340238Y321758D01*
X340238Y319142D01*
X326622Y319142D01*
X326622Y325642D02*
X326622Y328258D01*
X340238Y328258D01*
X340238Y325642D01*
X326622Y325642D01*
X326622Y332142D02*
X326622Y334758D01*
X340238Y334758D01*
X340238Y332142D01*
X326622Y332142D01*
X326622Y338642D02*
X326622Y341258D01*
X340238Y341258D01*
X340238Y338642D01*
X326622Y338642D01*
X326622Y345142D02*
X326622Y347758D01*
X340238Y347758D01*
X340238Y345142D01*
X326622Y345142D01*
X326622Y351642D02*
X326622Y354258D01*
X340238Y354258D01*
X340238Y351642D01*
X326622Y351642D01*
X326622Y358142D02*
X326622Y360758D01*
X340238Y360758D01*
X340238Y358142D01*
X326622Y358142D01*
D12*
X407341Y362699D02*
X410879Y362699D01*
X410879Y358661D01*
X407341Y358661D01*
X407341Y362699D01*
X400379Y362699D02*
X396841Y362699D01*
X400379Y362699D02*
X400379Y358661D01*
X396841Y358661D01*
X396841Y362699D01*
X407341Y352539D02*
X410879Y352539D01*
X410879Y348501D01*
X407341Y348501D01*
X407341Y352539D01*
X400379Y352539D02*
X396841Y352539D01*
X400379Y352539D02*
X400379Y348501D01*
X396841Y348501D01*
X396841Y352539D01*
D34*
X229331Y303061D02*
X229331Y295619D01*
X219389Y295619D01*
X219389Y303061D01*
X229331Y303061D01*
X229331Y301888D02*
X219389Y301888D01*
X207331Y303061D02*
X207331Y295619D01*
X197389Y295619D01*
X197389Y303061D01*
X207331Y303061D01*
X207331Y301888D02*
X197389Y301888D01*
X207331Y311619D02*
X207331Y319061D01*
X207331Y311619D02*
X197389Y311619D01*
X197389Y319061D01*
X207331Y319061D01*
X207331Y317888D02*
X197389Y317888D01*
X229331Y319061D02*
X229331Y311619D01*
X219389Y311619D01*
X219389Y319061D01*
X229331Y319061D01*
X229331Y317888D02*
X219389Y317888D01*
D12*
X189979Y303859D02*
X189979Y300321D01*
X185941Y300321D01*
X185941Y303859D01*
X189979Y303859D01*
X189979Y310821D02*
X189979Y314359D01*
X189979Y310821D02*
X185941Y310821D01*
X185941Y314359D01*
X189979Y314359D01*
X236741Y314359D02*
X236741Y310821D01*
X236741Y314359D02*
X240779Y314359D01*
X240779Y310821D01*
X236741Y310821D01*
X236741Y303859D02*
X236741Y300321D01*
X236741Y303859D02*
X240779Y303859D01*
X240779Y300321D01*
X236741Y300321D01*
D13*
X540299Y85701D02*
X546821Y85701D01*
X546821Y75179D01*
X540299Y75179D01*
X540299Y85701D01*
X540299Y80897D02*
X546821Y80897D01*
X537321Y107701D02*
X530799Y107701D01*
X537321Y107701D02*
X537321Y97179D01*
X530799Y97179D01*
X530799Y107701D01*
X530799Y102897D02*
X537321Y102897D01*
X549799Y107701D02*
X556321Y107701D01*
X556321Y97179D01*
X549799Y97179D01*
X549799Y107701D01*
X549799Y102897D02*
X556321Y102897D01*
X700319Y95581D02*
X700319Y88059D01*
X700319Y95581D02*
X706841Y95581D01*
X706841Y88059D01*
X700319Y88059D01*
X700319Y93777D02*
X706841Y93777D01*
X700319Y79581D02*
X700319Y72059D01*
X700319Y79581D02*
X706841Y79581D01*
X706841Y72059D01*
X700319Y72059D01*
X700319Y77777D02*
X706841Y77777D01*
X1261539Y132801D02*
X1269061Y132801D01*
X1269061Y126279D01*
X1261539Y126279D01*
X1261539Y132801D01*
X1261539Y131997D02*
X1269061Y131997D01*
X1253061Y132801D02*
X1245539Y132801D01*
X1253061Y132801D02*
X1253061Y126279D01*
X1245539Y126279D01*
X1245539Y132801D01*
X1245539Y131997D02*
X1253061Y131997D01*
D12*
X1198359Y100659D02*
X1198359Y97121D01*
X1194321Y97121D01*
X1194321Y100659D01*
X1198359Y100659D01*
X1198359Y107621D02*
X1198359Y111159D01*
X1198359Y107621D02*
X1194321Y107621D01*
X1194321Y111159D01*
X1198359Y111159D01*
D35*
X843041Y50538D02*
X832597Y50538D01*
X843041Y50538D02*
X843041Y48222D01*
X832597Y48222D01*
X832597Y50538D01*
X832597Y57038D02*
X843041Y57038D01*
X843041Y54722D01*
X832597Y54722D01*
X832597Y57038D01*
X832597Y63538D02*
X843041Y63538D01*
X843041Y61222D01*
X832597Y61222D01*
X832597Y63538D01*
X823483Y63538D02*
X813039Y63538D01*
X823483Y63538D02*
X823483Y61222D01*
X813039Y61222D01*
X813039Y63538D01*
X813039Y57038D02*
X823483Y57038D01*
X823483Y54722D01*
X813039Y54722D01*
X813039Y57038D01*
X813039Y50538D02*
X823483Y50538D01*
X823483Y48222D01*
X813039Y48222D01*
X813039Y50538D01*
X832597Y88638D02*
X843041Y88638D01*
X843041Y86322D01*
X832597Y86322D01*
X832597Y88638D01*
X832597Y95138D02*
X843041Y95138D01*
X843041Y92822D01*
X832597Y92822D01*
X832597Y95138D01*
X832597Y101638D02*
X843041Y101638D01*
X843041Y99322D01*
X832597Y99322D01*
X832597Y101638D01*
X823483Y101638D02*
X813039Y101638D01*
X823483Y101638D02*
X823483Y99322D01*
X813039Y99322D01*
X813039Y101638D01*
X813039Y95138D02*
X823483Y95138D01*
X823483Y92822D01*
X813039Y92822D01*
X813039Y95138D01*
X813039Y88638D02*
X823483Y88638D01*
X823483Y86322D01*
X813039Y86322D01*
X813039Y88638D01*
D12*
X855459Y85419D02*
X855459Y81881D01*
X851421Y81881D01*
X851421Y85419D01*
X855459Y85419D01*
X855459Y92381D02*
X855459Y95919D01*
X855459Y92381D02*
X851421Y92381D01*
X851421Y95919D01*
X855459Y95919D01*
X807119Y50279D02*
X803581Y50279D01*
X807119Y50279D02*
X807119Y46241D01*
X803581Y46241D01*
X803581Y50279D01*
X796619Y50279D02*
X793081Y50279D01*
X796619Y50279D02*
X796619Y46241D01*
X793081Y46241D01*
X793081Y50279D01*
X803581Y88379D02*
X807119Y88379D01*
X807119Y84341D01*
X803581Y84341D01*
X803581Y88379D01*
X796619Y88379D02*
X793081Y88379D01*
X796619Y88379D02*
X796619Y84341D01*
X793081Y84341D01*
X793081Y88379D01*
X831521Y75679D02*
X835059Y75679D01*
X835059Y71641D01*
X831521Y71641D01*
X831521Y75679D01*
X824559Y75679D02*
X821021Y75679D01*
X824559Y75679D02*
X824559Y71641D01*
X821021Y71641D01*
X821021Y75679D01*
X831521Y113779D02*
X835059Y113779D01*
X835059Y109741D01*
X831521Y109741D01*
X831521Y113779D01*
X824559Y113779D02*
X821021Y113779D01*
X824559Y113779D02*
X824559Y109741D01*
X821021Y109741D01*
X821021Y113779D01*
D36*
X132160Y17780D02*
X132162Y17921D01*
X132168Y18062D01*
X132178Y18202D01*
X132192Y18342D01*
X132210Y18482D01*
X132231Y18621D01*
X132257Y18760D01*
X132286Y18898D01*
X132320Y19034D01*
X132357Y19170D01*
X132398Y19305D01*
X132443Y19439D01*
X132492Y19571D01*
X132544Y19702D01*
X132600Y19831D01*
X132660Y19958D01*
X132723Y20084D01*
X132789Y20208D01*
X132860Y20331D01*
X132933Y20451D01*
X133010Y20569D01*
X133090Y20685D01*
X133174Y20798D01*
X133260Y20909D01*
X133350Y21018D01*
X133443Y21124D01*
X133538Y21227D01*
X133637Y21328D01*
X133738Y21426D01*
X133842Y21521D01*
X133949Y21613D01*
X134058Y21702D01*
X134170Y21787D01*
X134284Y21870D01*
X134400Y21950D01*
X134519Y22026D01*
X134640Y22098D01*
X134762Y22168D01*
X134887Y22233D01*
X135013Y22296D01*
X135141Y22354D01*
X135271Y22409D01*
X135402Y22461D01*
X135535Y22508D01*
X135669Y22552D01*
X135804Y22593D01*
X135940Y22629D01*
X136077Y22661D01*
X136215Y22690D01*
X136353Y22715D01*
X136493Y22735D01*
X136633Y22752D01*
X136773Y22765D01*
X136914Y22774D01*
X137054Y22779D01*
X137195Y22780D01*
X137336Y22777D01*
X137477Y22770D01*
X137617Y22759D01*
X137757Y22744D01*
X137897Y22725D01*
X138036Y22703D01*
X138174Y22676D01*
X138312Y22646D01*
X138448Y22611D01*
X138584Y22573D01*
X138718Y22531D01*
X138852Y22485D01*
X138984Y22436D01*
X139114Y22382D01*
X139243Y22325D01*
X139370Y22265D01*
X139496Y22201D01*
X139619Y22133D01*
X139741Y22062D01*
X139861Y21988D01*
X139978Y21910D01*
X140093Y21829D01*
X140206Y21745D01*
X140317Y21658D01*
X140425Y21567D01*
X140530Y21474D01*
X140633Y21377D01*
X140733Y21278D01*
X140830Y21176D01*
X140924Y21071D01*
X141015Y20964D01*
X141103Y20854D01*
X141188Y20742D01*
X141270Y20627D01*
X141349Y20510D01*
X141424Y20391D01*
X141496Y20270D01*
X141564Y20147D01*
X141629Y20022D01*
X141691Y19895D01*
X141748Y19766D01*
X141803Y19636D01*
X141853Y19505D01*
X141900Y19372D01*
X141943Y19238D01*
X141982Y19102D01*
X142017Y18966D01*
X142049Y18829D01*
X142076Y18691D01*
X142100Y18552D01*
X142120Y18412D01*
X142136Y18272D01*
X142148Y18132D01*
X142156Y17991D01*
X142160Y17850D01*
X142160Y17710D01*
X142156Y17569D01*
X142148Y17428D01*
X142136Y17288D01*
X142120Y17148D01*
X142100Y17008D01*
X142076Y16869D01*
X142049Y16731D01*
X142017Y16594D01*
X141982Y16458D01*
X141943Y16322D01*
X141900Y16188D01*
X141853Y16055D01*
X141803Y15924D01*
X141748Y15794D01*
X141691Y15665D01*
X141629Y15538D01*
X141564Y15413D01*
X141496Y15290D01*
X141424Y15169D01*
X141349Y15050D01*
X141270Y14933D01*
X141188Y14818D01*
X141103Y14706D01*
X141015Y14596D01*
X140924Y14489D01*
X140830Y14384D01*
X140733Y14282D01*
X140633Y14183D01*
X140530Y14086D01*
X140425Y13993D01*
X140317Y13902D01*
X140206Y13815D01*
X140093Y13731D01*
X139978Y13650D01*
X139861Y13572D01*
X139741Y13498D01*
X139619Y13427D01*
X139496Y13359D01*
X139370Y13295D01*
X139243Y13235D01*
X139114Y13178D01*
X138984Y13124D01*
X138852Y13075D01*
X138718Y13029D01*
X138584Y12987D01*
X138448Y12949D01*
X138312Y12914D01*
X138174Y12884D01*
X138036Y12857D01*
X137897Y12835D01*
X137757Y12816D01*
X137617Y12801D01*
X137477Y12790D01*
X137336Y12783D01*
X137195Y12780D01*
X137054Y12781D01*
X136914Y12786D01*
X136773Y12795D01*
X136633Y12808D01*
X136493Y12825D01*
X136353Y12845D01*
X136215Y12870D01*
X136077Y12899D01*
X135940Y12931D01*
X135804Y12967D01*
X135669Y13008D01*
X135535Y13052D01*
X135402Y13099D01*
X135271Y13151D01*
X135141Y13206D01*
X135013Y13264D01*
X134887Y13327D01*
X134762Y13392D01*
X134640Y13462D01*
X134519Y13534D01*
X134400Y13610D01*
X134284Y13690D01*
X134170Y13773D01*
X134058Y13858D01*
X133949Y13947D01*
X133842Y14039D01*
X133738Y14134D01*
X133637Y14232D01*
X133538Y14333D01*
X133443Y14436D01*
X133350Y14542D01*
X133260Y14651D01*
X133174Y14762D01*
X133090Y14875D01*
X133010Y14991D01*
X132933Y15109D01*
X132860Y15229D01*
X132789Y15352D01*
X132723Y15476D01*
X132660Y15602D01*
X132600Y15729D01*
X132544Y15858D01*
X132492Y15989D01*
X132443Y16121D01*
X132398Y16255D01*
X132357Y16390D01*
X132320Y16526D01*
X132286Y16662D01*
X132257Y16800D01*
X132231Y16939D01*
X132210Y17078D01*
X132192Y17218D01*
X132178Y17358D01*
X132168Y17498D01*
X132162Y17639D01*
X132160Y17780D01*
X444580Y363220D02*
X444582Y363361D01*
X444588Y363502D01*
X444598Y363642D01*
X444612Y363782D01*
X444630Y363922D01*
X444651Y364061D01*
X444677Y364200D01*
X444706Y364338D01*
X444740Y364474D01*
X444777Y364610D01*
X444818Y364745D01*
X444863Y364879D01*
X444912Y365011D01*
X444964Y365142D01*
X445020Y365271D01*
X445080Y365398D01*
X445143Y365524D01*
X445209Y365648D01*
X445280Y365771D01*
X445353Y365891D01*
X445430Y366009D01*
X445510Y366125D01*
X445594Y366238D01*
X445680Y366349D01*
X445770Y366458D01*
X445863Y366564D01*
X445958Y366667D01*
X446057Y366768D01*
X446158Y366866D01*
X446262Y366961D01*
X446369Y367053D01*
X446478Y367142D01*
X446590Y367227D01*
X446704Y367310D01*
X446820Y367390D01*
X446939Y367466D01*
X447060Y367538D01*
X447182Y367608D01*
X447307Y367673D01*
X447433Y367736D01*
X447561Y367794D01*
X447691Y367849D01*
X447822Y367901D01*
X447955Y367948D01*
X448089Y367992D01*
X448224Y368033D01*
X448360Y368069D01*
X448497Y368101D01*
X448635Y368130D01*
X448773Y368155D01*
X448913Y368175D01*
X449053Y368192D01*
X449193Y368205D01*
X449334Y368214D01*
X449474Y368219D01*
X449615Y368220D01*
X449756Y368217D01*
X449897Y368210D01*
X450037Y368199D01*
X450177Y368184D01*
X450317Y368165D01*
X450456Y368143D01*
X450594Y368116D01*
X450732Y368086D01*
X450868Y368051D01*
X451004Y368013D01*
X451138Y367971D01*
X451272Y367925D01*
X451404Y367876D01*
X451534Y367822D01*
X451663Y367765D01*
X451790Y367705D01*
X451916Y367641D01*
X452039Y367573D01*
X452161Y367502D01*
X452281Y367428D01*
X452398Y367350D01*
X452513Y367269D01*
X452626Y367185D01*
X452737Y367098D01*
X452845Y367007D01*
X452950Y366914D01*
X453053Y366817D01*
X453153Y366718D01*
X453250Y366616D01*
X453344Y366511D01*
X453435Y366404D01*
X453523Y366294D01*
X453608Y366182D01*
X453690Y366067D01*
X453769Y365950D01*
X453844Y365831D01*
X453916Y365710D01*
X453984Y365587D01*
X454049Y365462D01*
X454111Y365335D01*
X454168Y365206D01*
X454223Y365076D01*
X454273Y364945D01*
X454320Y364812D01*
X454363Y364678D01*
X454402Y364542D01*
X454437Y364406D01*
X454469Y364269D01*
X454496Y364131D01*
X454520Y363992D01*
X454540Y363852D01*
X454556Y363712D01*
X454568Y363572D01*
X454576Y363431D01*
X454580Y363290D01*
X454580Y363150D01*
X454576Y363009D01*
X454568Y362868D01*
X454556Y362728D01*
X454540Y362588D01*
X454520Y362448D01*
X454496Y362309D01*
X454469Y362171D01*
X454437Y362034D01*
X454402Y361898D01*
X454363Y361762D01*
X454320Y361628D01*
X454273Y361495D01*
X454223Y361364D01*
X454168Y361234D01*
X454111Y361105D01*
X454049Y360978D01*
X453984Y360853D01*
X453916Y360730D01*
X453844Y360609D01*
X453769Y360490D01*
X453690Y360373D01*
X453608Y360258D01*
X453523Y360146D01*
X453435Y360036D01*
X453344Y359929D01*
X453250Y359824D01*
X453153Y359722D01*
X453053Y359623D01*
X452950Y359526D01*
X452845Y359433D01*
X452737Y359342D01*
X452626Y359255D01*
X452513Y359171D01*
X452398Y359090D01*
X452281Y359012D01*
X452161Y358938D01*
X452039Y358867D01*
X451916Y358799D01*
X451790Y358735D01*
X451663Y358675D01*
X451534Y358618D01*
X451404Y358564D01*
X451272Y358515D01*
X451138Y358469D01*
X451004Y358427D01*
X450868Y358389D01*
X450732Y358354D01*
X450594Y358324D01*
X450456Y358297D01*
X450317Y358275D01*
X450177Y358256D01*
X450037Y358241D01*
X449897Y358230D01*
X449756Y358223D01*
X449615Y358220D01*
X449474Y358221D01*
X449334Y358226D01*
X449193Y358235D01*
X449053Y358248D01*
X448913Y358265D01*
X448773Y358285D01*
X448635Y358310D01*
X448497Y358339D01*
X448360Y358371D01*
X448224Y358407D01*
X448089Y358448D01*
X447955Y358492D01*
X447822Y358539D01*
X447691Y358591D01*
X447561Y358646D01*
X447433Y358704D01*
X447307Y358767D01*
X447182Y358832D01*
X447060Y358902D01*
X446939Y358974D01*
X446820Y359050D01*
X446704Y359130D01*
X446590Y359213D01*
X446478Y359298D01*
X446369Y359387D01*
X446262Y359479D01*
X446158Y359574D01*
X446057Y359672D01*
X445958Y359773D01*
X445863Y359876D01*
X445770Y359982D01*
X445680Y360091D01*
X445594Y360202D01*
X445510Y360315D01*
X445430Y360431D01*
X445353Y360549D01*
X445280Y360669D01*
X445209Y360792D01*
X445143Y360916D01*
X445080Y361042D01*
X445020Y361169D01*
X444964Y361298D01*
X444912Y361429D01*
X444863Y361561D01*
X444818Y361695D01*
X444777Y361830D01*
X444740Y361966D01*
X444706Y362102D01*
X444677Y362240D01*
X444651Y362379D01*
X444630Y362518D01*
X444612Y362658D01*
X444598Y362798D01*
X444588Y362938D01*
X444582Y363079D01*
X444580Y363220D01*
X1252300Y96520D02*
X1252302Y96661D01*
X1252308Y96802D01*
X1252318Y96942D01*
X1252332Y97082D01*
X1252350Y97222D01*
X1252371Y97361D01*
X1252397Y97500D01*
X1252426Y97638D01*
X1252460Y97774D01*
X1252497Y97910D01*
X1252538Y98045D01*
X1252583Y98179D01*
X1252632Y98311D01*
X1252684Y98442D01*
X1252740Y98571D01*
X1252800Y98698D01*
X1252863Y98824D01*
X1252929Y98948D01*
X1253000Y99071D01*
X1253073Y99191D01*
X1253150Y99309D01*
X1253230Y99425D01*
X1253314Y99538D01*
X1253400Y99649D01*
X1253490Y99758D01*
X1253583Y99864D01*
X1253678Y99967D01*
X1253777Y100068D01*
X1253878Y100166D01*
X1253982Y100261D01*
X1254089Y100353D01*
X1254198Y100442D01*
X1254310Y100527D01*
X1254424Y100610D01*
X1254540Y100690D01*
X1254659Y100766D01*
X1254780Y100838D01*
X1254902Y100908D01*
X1255027Y100973D01*
X1255153Y101036D01*
X1255281Y101094D01*
X1255411Y101149D01*
X1255542Y101201D01*
X1255675Y101248D01*
X1255809Y101292D01*
X1255944Y101333D01*
X1256080Y101369D01*
X1256217Y101401D01*
X1256355Y101430D01*
X1256493Y101455D01*
X1256633Y101475D01*
X1256773Y101492D01*
X1256913Y101505D01*
X1257054Y101514D01*
X1257194Y101519D01*
X1257335Y101520D01*
X1257476Y101517D01*
X1257617Y101510D01*
X1257757Y101499D01*
X1257897Y101484D01*
X1258037Y101465D01*
X1258176Y101443D01*
X1258314Y101416D01*
X1258452Y101386D01*
X1258588Y101351D01*
X1258724Y101313D01*
X1258858Y101271D01*
X1258992Y101225D01*
X1259124Y101176D01*
X1259254Y101122D01*
X1259383Y101065D01*
X1259510Y101005D01*
X1259636Y100941D01*
X1259759Y100873D01*
X1259881Y100802D01*
X1260001Y100728D01*
X1260118Y100650D01*
X1260233Y100569D01*
X1260346Y100485D01*
X1260457Y100398D01*
X1260565Y100307D01*
X1260670Y100214D01*
X1260773Y100117D01*
X1260873Y100018D01*
X1260970Y99916D01*
X1261064Y99811D01*
X1261155Y99704D01*
X1261243Y99594D01*
X1261328Y99482D01*
X1261410Y99367D01*
X1261489Y99250D01*
X1261564Y99131D01*
X1261636Y99010D01*
X1261704Y98887D01*
X1261769Y98762D01*
X1261831Y98635D01*
X1261888Y98506D01*
X1261943Y98376D01*
X1261993Y98245D01*
X1262040Y98112D01*
X1262083Y97978D01*
X1262122Y97842D01*
X1262157Y97706D01*
X1262189Y97569D01*
X1262216Y97431D01*
X1262240Y97292D01*
X1262260Y97152D01*
X1262276Y97012D01*
X1262288Y96872D01*
X1262296Y96731D01*
X1262300Y96590D01*
X1262300Y96450D01*
X1262296Y96309D01*
X1262288Y96168D01*
X1262276Y96028D01*
X1262260Y95888D01*
X1262240Y95748D01*
X1262216Y95609D01*
X1262189Y95471D01*
X1262157Y95334D01*
X1262122Y95198D01*
X1262083Y95062D01*
X1262040Y94928D01*
X1261993Y94795D01*
X1261943Y94664D01*
X1261888Y94534D01*
X1261831Y94405D01*
X1261769Y94278D01*
X1261704Y94153D01*
X1261636Y94030D01*
X1261564Y93909D01*
X1261489Y93790D01*
X1261410Y93673D01*
X1261328Y93558D01*
X1261243Y93446D01*
X1261155Y93336D01*
X1261064Y93229D01*
X1260970Y93124D01*
X1260873Y93022D01*
X1260773Y92923D01*
X1260670Y92826D01*
X1260565Y92733D01*
X1260457Y92642D01*
X1260346Y92555D01*
X1260233Y92471D01*
X1260118Y92390D01*
X1260001Y92312D01*
X1259881Y92238D01*
X1259759Y92167D01*
X1259636Y92099D01*
X1259510Y92035D01*
X1259383Y91975D01*
X1259254Y91918D01*
X1259124Y91864D01*
X1258992Y91815D01*
X1258858Y91769D01*
X1258724Y91727D01*
X1258588Y91689D01*
X1258452Y91654D01*
X1258314Y91624D01*
X1258176Y91597D01*
X1258037Y91575D01*
X1257897Y91556D01*
X1257757Y91541D01*
X1257617Y91530D01*
X1257476Y91523D01*
X1257335Y91520D01*
X1257194Y91521D01*
X1257054Y91526D01*
X1256913Y91535D01*
X1256773Y91548D01*
X1256633Y91565D01*
X1256493Y91585D01*
X1256355Y91610D01*
X1256217Y91639D01*
X1256080Y91671D01*
X1255944Y91707D01*
X1255809Y91748D01*
X1255675Y91792D01*
X1255542Y91839D01*
X1255411Y91891D01*
X1255281Y91946D01*
X1255153Y92004D01*
X1255027Y92067D01*
X1254902Y92132D01*
X1254780Y92202D01*
X1254659Y92274D01*
X1254540Y92350D01*
X1254424Y92430D01*
X1254310Y92513D01*
X1254198Y92598D01*
X1254089Y92687D01*
X1253982Y92779D01*
X1253878Y92874D01*
X1253777Y92972D01*
X1253678Y93073D01*
X1253583Y93176D01*
X1253490Y93282D01*
X1253400Y93391D01*
X1253314Y93502D01*
X1253230Y93615D01*
X1253150Y93731D01*
X1253073Y93849D01*
X1253000Y93969D01*
X1252929Y94092D01*
X1252863Y94216D01*
X1252800Y94342D01*
X1252740Y94469D01*
X1252684Y94598D01*
X1252632Y94729D01*
X1252583Y94861D01*
X1252538Y94995D01*
X1252497Y95130D01*
X1252460Y95266D01*
X1252426Y95402D01*
X1252397Y95540D01*
X1252371Y95679D01*
X1252350Y95818D01*
X1252332Y95958D01*
X1252318Y96098D01*
X1252308Y96238D01*
X1252302Y96379D01*
X1252300Y96520D01*
D37*
X490605Y121876D03*
M02*
