<svg width="87" height="74" viewBox="-.5 1 88 72" fill="none" xmlns="http://www.w3.org/2000/svg">
    <path stroke="white" stroke-width="3" fill-rule="evenodd" clip-rule="evenodd" d="M23.33 6.21999C24.5334 6.21999 25.5315 5.36826 25.7673 4.24176C25.8653 5.5314 26.9441 6.54 28.25 6.54C29.4592 6.54 30.4659 5.66743 30.6855 4.52056C30.6687 4.63786 30.66 4.75787 30.66 4.87998C30.66 6.25998 31.77 7.36998 33.15 7.36998C34.0679 7.36998 34.8664 6.87446 35.2982 6.13945C35.2215 6.37898 35.18 6.6345 35.18 6.9C35.18 8.28 36.29 9.39 37.67 9.39C38.3801 9.39 39.0187 9.09347 39.4714 8.61892C39.2917 8.96277 39.19 9.35412 39.19 9.77C39.19 11.15 40.3 12.26 41.68 12.26C42.2242 12.26 42.7263 12.0859 43.135 11.7909C43.5917 12.3004 44.2549 12.62 44.99 12.62C46.36 12.62 47.47 11.5 47.47 10.13C47.47 9.69581 47.3611 9.28837 47.1689 8.93381C47.618 9.37713 48.2358 9.64998 48.92 9.64998C50.3 9.64998 51.41 8.52998 51.41 7.15998C51.41 6.82788 51.3457 6.51142 51.2289 6.22229C51.6538 6.99134 52.4735 7.51 53.41 7.51C54.78 7.51 55.89 6.39 55.89 5.02C55.89 4.90275 55.8821 4.78745 55.8667 4.67461C56.0908 5.82087 57.0959 6.67998 58.31 6.67998C59.6596 6.67998 60.7509 5.6088 60.7984 4.28018C61.0428 5.39256 62.0267 6.23 63.22 6.23C64.3068 6.23 65.2262 5.53532 65.5678 4.57095C65.5626 4.6366 65.56 4.70298 65.56 4.77C65.56 6.15 66.67 7.26 68.05 7.26C68.9717 7.26 69.7729 6.76043 70.2035 6.02045C70.1169 6.27402 70.07 6.54631 70.07 6.83C70.07 8.21 71.18 9.32 72.56 9.32C73.358 9.32 74.0657 8.9455 74.5207 8.36471C74.2674 8.75419 74.12 9.21932 74.12 9.71998C74.12 11.1 75.23 12.21 76.61 12.21C77.1432 12.21 77.6361 12.0428 78.0403 11.7585C77.5955 12.2077 77.32 12.8256 77.32 13.51C77.32 14.89 78.43 16 79.81 16C80.0842 16 80.3478 15.9558 80.5941 15.8742C79.9725 16.3259 79.57 17.059 79.57 17.89C79.57 19.27 80.69 20.38 82.06 20.38C82.1141 20.38 82.1677 20.3783 82.2208 20.3748C81.3629 20.767 80.77 21.6314 80.77 22.64C80.77 23.9599 81.7855 25.0328 83.0814 25.1238C81.7664 25.1952 80.73 26.2765 80.73 27.61C80.73 28.6143 81.3179 29.4756 82.1699 29.8701C82.0652 29.8568 81.9584 29.85 81.85 29.85C80.47 29.85 79.36 30.96 79.36 32.34C79.36 33.3865 79.9983 34.2777 80.9086 34.6473C80.661 34.5648 80.3959 34.52 80.12 34.52C78.74 34.52 77.63 35.63 77.63 37.01C77.63 37.7671 77.9672 38.443 78.4977 38.8988C78.1452 38.7081 77.7407 38.6 77.31 38.6C75.93 38.6 74.82 39.71 74.82 41.09C74.82 41.8784 75.1856 42.5787 75.7545 43.0342C75.3632 42.7784 74.8946 42.63 74.39 42.63C73.01 42.63 71.9 43.74 71.9 45.12C71.9 45.7772 72.1517 46.3731 72.5644 46.8171C72.1602 46.5353 71.6687 46.37 71.14 46.37C69.77 46.37 68.66 47.47 68.66 48.85C68.66 50.23 69.76 51.34 71.14 51.34C72.52 51.34 73.63 50.23 73.63 48.85C73.63 48.1996 73.3776 47.6078 72.9658 47.1655C73.3688 47.4459 73.8595 47.61 74.39 47.61C75.77 47.61 76.88 46.5 76.88 45.12C76.88 44.3311 76.5173 43.6305 75.9488 43.175C76.3406 43.4313 76.8085 43.58 77.31 43.58C78.68 43.58 79.8 42.46 79.8 41.09C79.8 40.3326 79.4656 39.6565 78.9358 39.2006C79.2884 39.3917 79.692 39.5 80.12 39.5C81.49 39.5 82.61 38.38 82.61 37.01C82.61 35.9692 81.9694 35.0727 81.0565 34.702C81.3055 34.785 81.5723 34.83 81.85 34.83C83.23 34.83 84.34 33.72 84.34 32.34C84.34 31.3357 83.7521 30.4744 82.9001 30.0798C83.0048 30.0931 83.1116 30.1 83.22 30.1C84.6 30.1 85.71 28.98 85.71 27.61C85.71 26.29 84.6944 25.217 83.3984 25.1262C84.7134 25.0543 85.75 23.9639 85.75 22.64C85.75 21.26 84.64 20.15 83.26 20.15C83.2023 20.15 83.1451 20.1519 83.0884 20.1558C83.9449 19.7622 84.54 18.8931 84.54 17.89C84.54 16.52 83.44 15.4 82.06 15.4C81.784 15.4 81.5188 15.4444 81.2712 15.5265C81.8955 15.073 82.3 14.3371 82.3 13.51C82.3 12.13 81.18 11.02 79.81 11.02C79.2783 11.02 78.7842 11.1872 78.3787 11.4725C78.8251 11.0217 79.1 10.4018 79.1 9.71998C79.1 8.33998 77.98 7.22998 76.61 7.22998C75.8155 7.22998 75.1051 7.60328 74.6484 8.18607C74.9026 7.79531 75.05 7.32926 75.05 6.83C75.05 5.45 73.94 4.34 72.56 4.34C71.6387 4.34 70.8377 4.83476 70.407 5.57431C70.4933 5.32175 70.54 5.05114 70.54 4.77C70.54 3.39 69.43 2.28 68.05 2.28C66.9635 2.28 66.0443 2.96812 65.7025 3.93436C65.7075 3.8702 65.71 3.80539 65.71 3.74C65.71 2.36 64.59 1.25 63.22 1.25C61.8789 1.25 60.787 2.32321 60.7415 3.65358C60.4946 2.53932 59.496 1.69998 58.31 1.69998C56.94 1.69998 55.82 2.80998 55.82 4.18998C55.82 4.30605 55.8278 4.42022 55.8431 4.53197C55.6194 3.38741 54.6229 2.53 53.41 2.53C52.03 2.53 50.92 3.64 50.92 5.02C50.92 5.35018 50.9841 5.66491 51.1004 5.95267C50.6769 5.1864 49.8613 4.66998 48.92 4.66998C47.54 4.66998 46.43 5.77998 46.43 7.15998C46.43 7.59178 46.5387 7.99714 46.7303 8.35034C46.2842 7.91044 45.6712 7.63998 44.99 7.63998C44.4452 7.63998 43.9425 7.81299 43.5335 8.10732C43.0768 7.59889 42.4143 7.28 41.68 7.28C40.9728 7.28 40.3322 7.57582 39.8779 8.05188C40.0582 7.70697 40.16 7.31495 40.16 6.9C40.16 5.52 39.04 4.41 37.67 4.41C36.757 4.41 35.9551 4.90296 35.5216 5.64026C35.5985 5.40037 35.64 5.14485 35.64 4.87998C35.64 3.50998 34.53 2.38998 33.15 2.38998C31.9325 2.38998 30.9251 3.25405 30.7048 4.40526C30.7214 4.28917 30.73 4.17055 30.73 4.05C30.73 2.67 29.63 1.56 28.25 1.56C27.0463 1.56 26.048 2.40452 25.8126 3.5361C25.7135 2.24748 24.6352 1.23999 23.33 1.23999C21.96 1.23999 20.84 2.34999 20.84 3.72999C20.84 3.80961 20.8437 3.88833 20.8509 3.96599C20.4884 3.03583 19.5831 2.38 18.53 2.38C17.16 2.38 16.04 3.49 16.04 4.87C16.04 5.15639 16.0878 5.43114 16.1759 5.68676C15.7355 4.99037 14.9587 4.53 14.07 4.53C12.69 4.53 11.58 5.64 11.58 7.02C11.58 7.4823 11.7046 7.9143 11.9221 8.28442C11.4666 7.76605 10.7979 7.44 10.05 7.44C8.67001 7.44 7.56001 8.55 7.56001 9.93C7.56001 10.6569 7.86796 11.3088 8.3611 11.7631C7.95259 11.4653 7.44842 11.29 6.90002 11.29C5.52002 11.29 4.41002 12.4 4.41002 13.78C4.41002 14.6343 4.8393 15.3852 5.49143 15.8333C5.26581 15.7661 5.02696 15.73 4.77999 15.73C3.40999 15.73 2.28999 16.84 2.28999 18.22C2.28999 19.2513 2.90992 20.1318 3.79918 20.5109C3.7762 20.5103 3.75314 20.51 3.73001 20.51C2.36001 20.51 1.24001 21.62 1.24001 23C1.24001 24.38 2.35001 25.49 3.73001 25.49C5.11001 25.49 6.22001 24.37 6.22001 23C6.22001 21.9686 5.59437 21.088 4.70632 20.7089C4.73079 20.7096 4.75535 20.71 4.77999 20.71C6.15999 20.71 7.26999 19.59 7.26999 18.22C7.26999 17.3656 6.84071 16.6147 6.18859 16.1667C6.41421 16.2339 6.65305 16.27 6.90002 16.27C8.27002 16.27 9.38002 15.15 9.38002 13.78C9.38002 13.0511 9.07313 12.3975 8.58019 11.943C8.99153 12.2432 9.49927 12.42 10.05 12.42C11.43 12.42 12.54 11.3 12.54 9.93C12.54 9.4677 12.4154 9.0357 12.1979 8.66558C12.6535 9.18395 13.3221 9.51 14.07 9.51C15.45 9.51 16.56 8.39 16.56 7.02C16.56 6.73362 16.5122 6.45887 16.4241 6.20325C16.8645 6.89963 17.6413 7.36 18.53 7.36C19.91 7.36 21.02 6.24 21.02 4.87C21.02 4.79171 21.0164 4.71428 21.0093 4.63787C21.3705 5.56598 22.2707 6.21999 23.33 6.21999ZM6.26001 27.98C6.26001 28.9711 5.67912 29.8313 4.83535 30.2314C4.98268 30.2042 5.13463 30.19 5.29 30.19C6.67 30.19 7.77 31.3 7.77 32.68C7.77 33.6847 7.17305 34.5549 6.31437 34.9476C6.53496 34.884 6.76834 34.85 7.01 34.85C8.39 34.85 9.5 35.97 9.5 37.34C9.5 38.1594 9.10292 38.8894 8.48848 39.3438C8.89653 39.0516 9.39741 38.88 9.94 38.88C11.32 38.88 12.42 39.99 12.42 41.37C12.42 42.1473 12.0627 42.8441 11.5033 43.3016C11.89 43.0539 12.349 42.91 12.84 42.91C14.21 42.91 15.33 44.02 15.33 45.4C15.33 46.0631 15.07 46.6652 14.6451 47.1101C15.0655 46.7896 15.5912 46.6 16.16 46.6C17.53 46.6 18.65 47.71 18.65 49.08C18.65 49.6664 18.4495 50.2041 18.1131 50.6286C18.556 50.2201 19.1479 49.97 19.8 49.97C21.18 49.97 22.29 51.08 22.29 52.46C22.29 53.0754 22.066 53.6404 21.6942 54.076C22.1428 53.6383 22.7585 53.37 23.44 53.37C24.82 53.37 25.93 54.48 25.93 55.85C25.93 56.3885 25.761 56.8859 25.4728 57.2923C25.9216 56.8513 26.5378 56.58 27.22 56.58C28.6 56.58 29.71 57.69 29.71 59.07C29.71 59.5447 29.5767 59.9894 29.3451 60.3679C29.8003 59.7913 30.5054 59.42 31.3 59.42C32.68 59.42 33.79 60.53 33.79 61.91C33.79 62.4156 33.6388 62.8858 33.3787 63.2778C33.8308 62.6598 34.5618 62.26 35.39 62.26C36.77 62.26 37.88 63.38 37.88 64.75C37.88 65.2385 37.7409 65.6932 37.4999 66.0768C37.9546 65.4929 38.6665 65.12 39.47 65.12C40.85 65.12 41.96 66.23 41.96 67.6C41.96 67.9594 41.8847 68.3006 41.7489 68.6086C42.2063 68.082 42.8808 67.75 43.63 67.75C43.7626 67.75 43.8927 67.7604 44.0196 67.7804C44.7187 67.8442 45.3324 68.1966 45.7433 68.7158C45.513 68.3388 45.38 67.8954 45.38 67.42C45.38 66.04 46.49 64.93 47.87 64.93C48.6667 64.93 49.3734 65.3 49.8285 65.8783C49.5947 65.4986 49.46 65.0507 49.46 64.57C49.46 63.19 50.57 62.08 51.95 62.08C52.7582 62.08 53.4737 62.4641 53.928 63.0576C53.6822 62.6727 53.54 62.2167 53.54 61.73C53.54 60.37 54.66 59.24 56.03 59.24C56.8556 59.24 57.5904 59.6431 58.044 60.2655C57.7826 59.8719 57.63 59.3993 57.63 58.89C57.63 57.51 58.74 56.4 60.12 56.4C60.8111 56.4 61.432 56.6784 61.8797 57.1297C61.5602 56.7115 61.37 56.1887 61.37 55.62C61.37 54.24 62.48 53.13 63.86 53.13C64.5249 53.13 65.1272 53.3877 65.5728 53.8091C65.2265 53.3802 65.02 52.8335 65.02 52.24C65.02 50.87 66.13 49.76 67.5 49.76C68.87 49.76 69.99 50.87 69.99 52.24C69.99 53.61 68.88 54.73 67.5 54.73C66.8388 54.73 66.2419 54.4729 65.7995 54.0544C66.1441 54.4814 66.35 55.0257 66.35 55.62C66.35 56.99 65.23 58.11 63.86 58.11C63.1695 58.11 62.5425 57.828 62.0905 57.3717C62.4106 57.7913 62.6 58.3174 62.6 58.89C62.6 60.27 61.49 61.38 60.12 61.38C59.2944 61.38 58.5596 60.9769 58.106 60.3545C58.3674 60.7481 58.52 61.2206 58.52 61.73C58.52 63.1 57.41 64.21 56.03 64.21C55.2204 64.21 54.5037 63.8245 54.0496 63.2312C54.2969 63.6184 54.44 64.0781 54.44 64.57C54.44 65.95 53.33 67.06 51.95 67.06C51.1533 67.06 50.4466 66.69 49.9915 66.1117C50.2253 66.4914 50.36 66.9393 50.36 67.42C50.36 68.8 49.24 69.91 47.87 69.91C47.0798 69.91 46.3728 69.5407 45.9159 68.9634C46.147 69.3416 46.28 69.7858 46.28 70.26C46.28 71.63 45.16 72.75 43.79 72.75C43.6584 72.75 43.5291 72.7397 43.4029 72.7198C42.1383 72.6051 41.14 71.5429 41.14 70.24C41.14 69.8822 41.2153 69.5426 41.3507 69.2358C40.8949 69.7598 40.2226 70.09 39.47 70.09C38.09 70.09 36.98 68.98 36.98 67.6C36.98 67.1135 37.118 66.6618 37.3571 66.2808C36.9023 66.8653 36.1917 67.24 35.39 67.24C34.01 67.24 32.9 66.13 32.9 64.75C32.9 64.2391 33.0521 63.7652 33.3138 63.371C32.8618 63.9887 32.1297 64.39 31.3 64.39C29.92 64.39 28.81 63.28 28.81 61.91C28.81 61.4353 28.9433 60.9906 29.1749 60.6121C28.7197 61.1887 28.0146 61.56 27.22 61.56C25.84 61.56 24.73 60.45 24.73 59.07C24.73 58.5315 24.899 58.034 25.1872 57.6277C24.7384 58.0687 24.1222 58.34 23.44 58.34C22.06 58.34 20.95 57.23 20.95 55.85C20.95 55.2338 21.1713 54.6734 21.5392 54.2418C21.0912 54.6795 20.4782 54.95 19.8 54.95C18.42 54.95 17.31 53.83 17.31 52.46C17.31 51.8767 17.5113 51.3386 17.8489 50.9131C17.4058 51.3213 16.8131 51.57 16.16 51.57C14.78 51.57 13.67 50.46 13.67 49.08C13.67 48.4145 13.9304 47.8142 14.3537 47.3709C13.9349 47.6903 13.4105 47.88 12.84 47.88C11.46 47.88 10.35 46.77 10.35 45.4C10.35 44.6245 10.7088 43.9291 11.2688 43.4716C10.8847 43.7174 10.4289 43.86 9.94 43.86C8.57 43.86 7.45 42.75 7.45 41.37C7.45 40.5464 7.84533 39.819 8.45745 39.3663C8.05013 39.658 7.5508 39.83 7.01 39.83C5.63 39.83 4.52 38.72 4.52 37.34C4.52 36.331 5.11336 35.4664 5.97177 35.0744C5.75517 35.1366 5.52646 35.17 5.29 35.17C3.92 35.17 2.8 34.05 2.8 32.68C2.8 31.6889 3.3809 30.8287 4.22467 30.4286C4.07734 30.4558 3.92539 30.47 3.77001 30.47C2.39001 30.47 1.28001 29.35 1.28001 27.98C1.28001 26.61 2.39001 25.49 3.77001 25.49C5.15001 25.49 6.26001 26.6 6.26001 27.98Z" fill="black"/>
    <path d="M43.79 70.26C111.02 28.65 75.8 3.03999 61.93 3.56999C48.06 4.09999 43.79 11.57 43.79 11.57C43.79 11.57 43.67 12.13 43.19 11.5C43.19 11.5 38.92 4.02999 25.05 3.49999C11.18 2.96999 -24.03 28.57 43.19 70.19L43.79 70.26Z" fill="black"/>
    <path fill-rule="evenodd" clip-rule="evenodd" d="M23.33 6.21999C24.5334 6.21999 25.5315 5.36826 25.7673 4.24176C25.8653 5.5314 26.9441 6.54 28.25 6.54C29.4592 6.54 30.4659 5.66743 30.6855 4.52056C30.6687 4.63786 30.66 4.75787 30.66 4.87998C30.66 6.25998 31.77 7.36998 33.15 7.36998C34.0679 7.36998 34.8664 6.87446 35.2982 6.13945C35.2215 6.37898 35.18 6.6345 35.18 6.9C35.18 8.28 36.29 9.39 37.67 9.39C38.3801 9.39 39.0187 9.09347 39.4714 8.61892C39.2917 8.96277 39.19 9.35412 39.19 9.77C39.19 11.15 40.3 12.26 41.68 12.26C42.2242 12.26 42.7263 12.0859 43.135 11.7909C43.5917 12.3004 44.2549 12.62 44.99 12.62C46.36 12.62 47.47 11.5 47.47 10.13C47.47 9.69581 47.3611 9.28837 47.1689 8.93381C47.618 9.37713 48.2358 9.64998 48.92 9.64998C50.3 9.64998 51.41 8.52998 51.41 7.15998C51.41 6.82788 51.3457 6.51142 51.2289 6.22229C51.6538 6.99134 52.4735 7.51 53.41 7.51C54.78 7.51 55.89 6.39 55.89 5.02C55.89 4.90275 55.8821 4.78745 55.8667 4.67461C56.0908 5.82087 57.0959 6.67998 58.31 6.67998C59.6596 6.67998 60.7509 5.6088 60.7984 4.28018C61.0428 5.39256 62.0267 6.23 63.22 6.23C64.3068 6.23 65.2262 5.53532 65.5678 4.57095C65.5626 4.6366 65.56 4.70298 65.56 4.77C65.56 6.15 66.67 7.26 68.05 7.26C68.9717 7.26 69.7729 6.76043 70.2035 6.02045C70.1169 6.27402 70.07 6.54631 70.07 6.83C70.07 8.21 71.18 9.32 72.56 9.32C73.358 9.32 74.0657 8.9455 74.5207 8.36471C74.2674 8.75419 74.12 9.21932 74.12 9.71998C74.12 11.1 75.23 12.21 76.61 12.21C77.1432 12.21 77.6361 12.0428 78.0403 11.7585C77.5955 12.2077 77.32 12.8256 77.32 13.51C77.32 14.89 78.43 16 79.81 16C80.0842 16 80.3478 15.9558 80.5941 15.8742C79.9725 16.3259 79.57 17.059 79.57 17.89C79.57 19.27 80.69 20.38 82.06 20.38C82.1141 20.38 82.1677 20.3783 82.2208 20.3748C81.3629 20.767 80.77 21.6314 80.77 22.64C80.77 23.9599 81.7855 25.0328 83.0814 25.1238C81.7664 25.1952 80.73 26.2765 80.73 27.61C80.73 28.6143 81.3179 29.4756 82.1699 29.8701C82.0652 29.8568 81.9584 29.85 81.85 29.85C80.47 29.85 79.36 30.96 79.36 32.34C79.36 33.3865 79.9983 34.2777 80.9086 34.6473C80.661 34.5648 80.3959 34.52 80.12 34.52C78.74 34.52 77.63 35.63 77.63 37.01C77.63 37.7671 77.9672 38.443 78.4977 38.8988C78.1452 38.7081 77.7407 38.6 77.31 38.6C75.93 38.6 74.82 39.71 74.82 41.09C74.82 41.8784 75.1856 42.5787 75.7545 43.0342C75.3632 42.7784 74.8946 42.63 74.39 42.63C73.01 42.63 71.9 43.74 71.9 45.12C71.9 45.7772 72.1517 46.3731 72.5644 46.8171C72.1602 46.5353 71.6687 46.37 71.14 46.37C69.77 46.37 68.66 47.47 68.66 48.85C68.66 50.23 69.76 51.34 71.14 51.34C72.52 51.34 73.63 50.23 73.63 48.85C73.63 48.1996 73.3776 47.6078 72.9658 47.1655C73.3688 47.4459 73.8595 47.61 74.39 47.61C75.77 47.61 76.88 46.5 76.88 45.12C76.88 44.3311 76.5173 43.6305 75.9488 43.175C76.3406 43.4313 76.8085 43.58 77.31 43.58C78.68 43.58 79.8 42.46 79.8 41.09C79.8 40.3326 79.4656 39.6565 78.9358 39.2006C79.2884 39.3917 79.692 39.5 80.12 39.5C81.49 39.5 82.61 38.38 82.61 37.01C82.61 35.9692 81.9694 35.0727 81.0565 34.702C81.3055 34.785 81.5723 34.83 81.85 34.83C83.23 34.83 84.34 33.72 84.34 32.34C84.34 31.3357 83.7521 30.4744 82.9001 30.0798C83.0048 30.0931 83.1116 30.1 83.22 30.1C84.6 30.1 85.71 28.98 85.71 27.61C85.71 26.29 84.6944 25.217 83.3984 25.1262C84.7134 25.0543 85.75 23.9639 85.75 22.64C85.75 21.26 84.64 20.15 83.26 20.15C83.2023 20.15 83.1451 20.1519 83.0884 20.1558C83.9449 19.7622 84.54 18.8931 84.54 17.89C84.54 16.52 83.44 15.4 82.06 15.4C81.784 15.4 81.5188 15.4444 81.2712 15.5265C81.8955 15.073 82.3 14.3371 82.3 13.51C82.3 12.13 81.18 11.02 79.81 11.02C79.2783 11.02 78.7842 11.1872 78.3787 11.4725C78.8251 11.0217 79.1 10.4018 79.1 9.71998C79.1 8.33998 77.98 7.22998 76.61 7.22998C75.8155 7.22998 75.1051 7.60328 74.6484 8.18607C74.9026 7.79531 75.05 7.32926 75.05 6.83C75.05 5.45 73.94 4.34 72.56 4.34C71.6387 4.34 70.8377 4.83476 70.407 5.57431C70.4933 5.32175 70.54 5.05114 70.54 4.77C70.54 3.39 69.43 2.28 68.05 2.28C66.9635 2.28 66.0443 2.96812 65.7025 3.93436C65.7075 3.8702 65.71 3.80539 65.71 3.74C65.71 2.36 64.59 1.25 63.22 1.25C61.8789 1.25 60.787 2.32321 60.7415 3.65358C60.4946 2.53932 59.496 1.69998 58.31 1.69998C56.94 1.69998 55.82 2.80998 55.82 4.18998C55.82 4.30605 55.8278 4.42022 55.8431 4.53197C55.6194 3.38741 54.6229 2.53 53.41 2.53C52.03 2.53 50.92 3.64 50.92 5.02C50.92 5.35018 50.9841 5.66491 51.1004 5.95267C50.6769 5.1864 49.8613 4.66998 48.92 4.66998C47.54 4.66998 46.43 5.77998 46.43 7.15998C46.43 7.59178 46.5387 7.99714 46.7303 8.35034C46.2842 7.91044 45.6712 7.63998 44.99 7.63998C44.4452 7.63998 43.9425 7.81299 43.5335 8.10732C43.0768 7.59889 42.4143 7.28 41.68 7.28C40.9728 7.28 40.3322 7.57582 39.8779 8.05188C40.0582 7.70697 40.16 7.31495 40.16 6.9C40.16 5.52 39.04 4.41 37.67 4.41C36.757 4.41 35.9551 4.90296 35.5216 5.64026C35.5985 5.40037 35.64 5.14485 35.64 4.87998C35.64 3.50998 34.53 2.38998 33.15 2.38998C31.9325 2.38998 30.9251 3.25405 30.7048 4.40526C30.7214 4.28917 30.73 4.17055 30.73 4.05C30.73 2.67 29.63 1.56 28.25 1.56C27.0463 1.56 26.048 2.40452 25.8126 3.5361C25.7135 2.24748 24.6352 1.23999 23.33 1.23999C21.96 1.23999 20.84 2.34999 20.84 3.72999C20.84 3.80961 20.8437 3.88833 20.8509 3.96599C20.4884 3.03583 19.5831 2.38 18.53 2.38C17.16 2.38 16.04 3.49 16.04 4.87C16.04 5.15639 16.0878 5.43114 16.1759 5.68676C15.7355 4.99037 14.9587 4.53 14.07 4.53C12.69 4.53 11.58 5.64 11.58 7.02C11.58 7.4823 11.7046 7.9143 11.9221 8.28442C11.4666 7.76605 10.7979 7.44 10.05 7.44C8.67001 7.44 7.56001 8.55 7.56001 9.93C7.56001 10.6569 7.86796 11.3088 8.3611 11.7631C7.95259 11.4653 7.44842 11.29 6.90002 11.29C5.52002 11.29 4.41002 12.4 4.41002 13.78C4.41002 14.6343 4.8393 15.3852 5.49143 15.8333C5.26581 15.7661 5.02696 15.73 4.77999 15.73C3.40999 15.73 2.28999 16.84 2.28999 18.22C2.28999 19.2513 2.90992 20.1318 3.79918 20.5109C3.7762 20.5103 3.75314 20.51 3.73001 20.51C2.36001 20.51 1.24001 21.62 1.24001 23C1.24001 24.38 2.35001 25.49 3.73001 25.49C5.11001 25.49 6.22001 24.37 6.22001 23C6.22001 21.9686 5.59437 21.088 4.70632 20.7089C4.73079 20.7096 4.75535 20.71 4.77999 20.71C6.15999 20.71 7.26999 19.59 7.26999 18.22C7.26999 17.3656 6.84071 16.6147 6.18859 16.1667C6.41421 16.2339 6.65305 16.27 6.90002 16.27C8.27002 16.27 9.38002 15.15 9.38002 13.78C9.38002 13.0511 9.07313 12.3975 8.58019 11.943C8.99153 12.2432 9.49927 12.42 10.05 12.42C11.43 12.42 12.54 11.3 12.54 9.93C12.54 9.4677 12.4154 9.0357 12.1979 8.66558C12.6535 9.18395 13.3221 9.51 14.07 9.51C15.45 9.51 16.56 8.39 16.56 7.02C16.56 6.73362 16.5122 6.45887 16.4241 6.20325C16.8645 6.89963 17.6413 7.36 18.53 7.36C19.91 7.36 21.02 6.24 21.02 4.87C21.02 4.79171 21.0164 4.71428 21.0093 4.63787C21.3705 5.56598 22.2707 6.21999 23.33 6.21999ZM6.26001 27.98C6.26001 28.9711 5.67912 29.8313 4.83535 30.2314C4.98268 30.2042 5.13463 30.19 5.29 30.19C6.67 30.19 7.77 31.3 7.77 32.68C7.77 33.6847 7.17305 34.5549 6.31437 34.9476C6.53496 34.884 6.76834 34.85 7.01 34.85C8.39 34.85 9.5 35.97 9.5 37.34C9.5 38.1594 9.10292 38.8894 8.48848 39.3438C8.89653 39.0516 9.39741 38.88 9.94 38.88C11.32 38.88 12.42 39.99 12.42 41.37C12.42 42.1473 12.0627 42.8441 11.5033 43.3016C11.89 43.0539 12.349 42.91 12.84 42.91C14.21 42.91 15.33 44.02 15.33 45.4C15.33 46.0631 15.07 46.6652 14.6451 47.1101C15.0655 46.7896 15.5912 46.6 16.16 46.6C17.53 46.6 18.65 47.71 18.65 49.08C18.65 49.6664 18.4495 50.2041 18.1131 50.6286C18.556 50.2201 19.1479 49.97 19.8 49.97C21.18 49.97 22.29 51.08 22.29 52.46C22.29 53.0754 22.066 53.6404 21.6942 54.076C22.1428 53.6383 22.7585 53.37 23.44 53.37C24.82 53.37 25.93 54.48 25.93 55.85C25.93 56.3885 25.761 56.8859 25.4728 57.2923C25.9216 56.8513 26.5378 56.58 27.22 56.58C28.6 56.58 29.71 57.69 29.71 59.07C29.71 59.5447 29.5767 59.9894 29.3451 60.3679C29.8003 59.7913 30.5054 59.42 31.3 59.42C32.68 59.42 33.79 60.53 33.79 61.91C33.79 62.4156 33.6388 62.8858 33.3787 63.2778C33.8308 62.6598 34.5618 62.26 35.39 62.26C36.77 62.26 37.88 63.38 37.88 64.75C37.88 65.2385 37.7409 65.6932 37.4999 66.0768C37.9546 65.4929 38.6665 65.12 39.47 65.12C40.85 65.12 41.96 66.23 41.96 67.6C41.96 67.9594 41.8847 68.3006 41.7489 68.6086C42.2063 68.082 42.8808 67.75 43.63 67.75C43.7626 67.75 43.8927 67.7604 44.0196 67.7804C44.7187 67.8442 45.3324 68.1966 45.7433 68.7158C45.513 68.3388 45.38 67.8954 45.38 67.42C45.38 66.04 46.49 64.93 47.87 64.93C48.6667 64.93 49.3734 65.3 49.8285 65.8783C49.5947 65.4986 49.46 65.0507 49.46 64.57C49.46 63.19 50.57 62.08 51.95 62.08C52.7582 62.08 53.4737 62.4641 53.928 63.0576C53.6822 62.6727 53.54 62.2167 53.54 61.73C53.54 60.37 54.66 59.24 56.03 59.24C56.8556 59.24 57.5904 59.6431 58.044 60.2655C57.7826 59.8719 57.63 59.3993 57.63 58.89C57.63 57.51 58.74 56.4 60.12 56.4C60.8111 56.4 61.432 56.6784 61.8797 57.1297C61.5602 56.7115 61.37 56.1887 61.37 55.62C61.37 54.24 62.48 53.13 63.86 53.13C64.5249 53.13 65.1272 53.3877 65.5728 53.8091C65.2265 53.3802 65.02 52.8335 65.02 52.24C65.02 50.87 66.13 49.76 67.5 49.76C68.87 49.76 69.99 50.87 69.99 52.24C69.99 53.61 68.88 54.73 67.5 54.73C66.8388 54.73 66.2419 54.4729 65.7995 54.0544C66.1441 54.4814 66.35 55.0257 66.35 55.62C66.35 56.99 65.23 58.11 63.86 58.11C63.1695 58.11 62.5425 57.828 62.0905 57.3717C62.4106 57.7913 62.6 58.3174 62.6 58.89C62.6 60.27 61.49 61.38 60.12 61.38C59.2944 61.38 58.5596 60.9769 58.106 60.3545C58.3674 60.7481 58.52 61.2206 58.52 61.73C58.52 63.1 57.41 64.21 56.03 64.21C55.2204 64.21 54.5037 63.8245 54.0496 63.2312C54.2969 63.6184 54.44 64.0781 54.44 64.57C54.44 65.95 53.33 67.06 51.95 67.06C51.1533 67.06 50.4466 66.69 49.9915 66.1117C50.2253 66.4914 50.36 66.9393 50.36 67.42C50.36 68.8 49.24 69.91 47.87 69.91C47.0798 69.91 46.3728 69.5407 45.9159 68.9634C46.147 69.3416 46.28 69.7858 46.28 70.26C46.28 71.63 45.16 72.75 43.79 72.75C43.6584 72.75 43.5291 72.7397 43.4029 72.7198C42.1383 72.6051 41.14 71.5429 41.14 70.24C41.14 69.8822 41.2153 69.5426 41.3507 69.2358C40.8949 69.7598 40.2226 70.09 39.47 70.09C38.09 70.09 36.98 68.98 36.98 67.6C36.98 67.1135 37.118 66.6618 37.3571 66.2808C36.9023 66.8653 36.1917 67.24 35.39 67.24C34.01 67.24 32.9 66.13 32.9 64.75C32.9 64.2391 33.0521 63.7652 33.3138 63.371C32.8618 63.9887 32.1297 64.39 31.3 64.39C29.92 64.39 28.81 63.28 28.81 61.91C28.81 61.4353 28.9433 60.9906 29.1749 60.6121C28.7197 61.1887 28.0146 61.56 27.22 61.56C25.84 61.56 24.73 60.45 24.73 59.07C24.73 58.5315 24.899 58.034 25.1872 57.6277C24.7384 58.0687 24.1222 58.34 23.44 58.34C22.06 58.34 20.95 57.23 20.95 55.85C20.95 55.2338 21.1713 54.6734 21.5392 54.2418C21.0912 54.6795 20.4782 54.95 19.8 54.95C18.42 54.95 17.31 53.83 17.31 52.46C17.31 51.8767 17.5113 51.3386 17.8489 50.9131C17.4058 51.3213 16.8131 51.57 16.16 51.57C14.78 51.57 13.67 50.46 13.67 49.08C13.67 48.4145 13.9304 47.8142 14.3537 47.3709C13.9349 47.6903 13.4105 47.88 12.84 47.88C11.46 47.88 10.35 46.77 10.35 45.4C10.35 44.6245 10.7088 43.9291 11.2688 43.4716C10.8847 43.7174 10.4289 43.86 9.94 43.86C8.57 43.86 7.45 42.75 7.45 41.37C7.45 40.5464 7.84533 39.819 8.45745 39.3663C8.05013 39.658 7.5508 39.83 7.01 39.83C5.63 39.83 4.52 38.72 4.52 37.34C4.52 36.331 5.11336 35.4664 5.97177 35.0744C5.75517 35.1366 5.52646 35.17 5.29 35.17C3.92 35.17 2.8 34.05 2.8 32.68C2.8 31.6889 3.3809 30.8287 4.22467 30.4286C4.07734 30.4558 3.92539 30.47 3.77001 30.47C2.39001 30.47 1.28001 29.35 1.28001 27.98C1.28001 26.61 2.39001 25.49 3.77001 25.49C5.15001 25.49 6.26001 26.6 6.26001 27.98Z" fill="black"/>
    <path d="M44.04 64.06C39.15 64.06 35.18 60.09 35.18 55.2L29.14 35.77C28.09 32.89 26.07 21.24 28.18 20.05C29.98 19.04 37.9 25.28 37.9 25.28H49.86C49.86 25.28 56.63 18.11 59.32 19.64C61.43 20.83 59.44 32.89 58.39 35.77L52.35 55.2C52.35 60.09 48.39 64.06 43.49 64.06" fill="white"/>
    <path d="M44.04 64.06C39.15 64.06 35.18 60.09 35.18 55.2L29.14 35.77C28.09 32.89 26.07 21.24 28.18 20.05C29.98 19.04 37.9 25.28 37.9 25.28H49.86C49.86 25.28 56.63 18.11 59.32 19.64C61.43 20.83 59.44 32.89 58.39 35.77L52.35 55.2C52.35 60.09 48.39 64.06 43.49 64.06" stroke="black" stroke-miterlimit="10"/>
    <path d="M23.18 19.43H20.03L10.57 14.73C10.57 14.73 9.27 12.95 11.31 12.73H22.99L23.18 19.43Z" fill="white" stroke="black" stroke-miterlimit="10"/>
    <path d="M64.59 19.43H67.74L77.2 14.73C77.2 14.73 78.5 12.95 76.46 12.73H64.78L64.59 19.43Z" fill="white" stroke="black" stroke-miterlimit="10"/>
    <path d="M32.63 27.57C33.27 27.07 33.22 25.68 32.52 24.46C31.82 23.25 30.74 22.66 30.11 23.16C29.47 23.66 29.52 25.05 30.22 26.27C30.92 27.49 31.73 27.48 32.37 26.98" fill="black"/>
    <path d="M54.84 27.57C54.21 27.07 54.25 25.68 54.96 24.46C55.66 23.25 56.74 22.66 57.37 23.16C58.01 23.66 57.96 25.05 57.26 26.27C56.56 27.49 55.75 27.48 55.11 26.98" fill="black"/>
    <path fill-rule="evenodd" clip-rule="evenodd" d="M39.28 59.07C39.84 59.9 42.4 61.58 43.77 61.62L43.7749 61.2023L43.78 61.63C45.25 61.59 47.84 59.81 48.38 59.08C48.92 58.34 49.47 57.25 47.88 58.58C46.7632 59.5094 45.0548 59.9264 44.36 60.0645V57.7C45.0084 57.2131 45.8087 55.9325 45.92 55.59C46.05 55.19 48.06 52.65 48.53 52.78C49 52.91 49.4 52.04 48.8 51.64C48.19 51.24 46.32 53.47 45.65 54.61C45.1101 55.5287 44.1805 55.6875 43.8399 55.7146L43.84 55.71C43.84 55.71 42.57 55.73 41.9 54.6C41.23 53.47 39.35 51.23 38.75 51.63C38.15 52.03 38.55 52.9 39.02 52.77C39.49 52.63 41.5 55.18 41.63 55.58C41.7441 55.9312 42.5754 57.2695 43.23 57.7259V60.0568C42.608 59.9186 40.9983 59.4957 39.82 58.61C38.44 57.57 38.44 57.82 39.28 59.07Z" fill="black"/>
</svg>
