<svg width="348" height="382" version="1.1" xmlns="http://www.w3.org/2000/svg"
    desc="Created with imagetracer.js version 1.2.6">
    <path fill="rgb(58,175,40)" stroke="rgb(255,255,255)" stroke-width="10" opacity="1"
        d="M 83.5 30 L 85.5 30 L 103.5 30 L 104.5 31 L 106.5 30 L 107.5 31 L 119.5 31 L 120.5 32 L 128.5 32 L 129.5 33 L 149.5 35 L 169.5 39 L 206.5 49 L 249.5 65 Q 266.4 71.9 279 82 Q 289.9 94.8 297 112.5 L 307 138.5 L 315 165.5 L 321 190.5 L 328 230.5 L 329 247.5 L 330 248.5 L 330 278.5 L 328 289.5 L 321.5 298 L 312.5 304 L 279.5 320 L 273 326.5 L 272 333.5 L 288 362.5 L 290 368.5 L 290 374.5 L 285.5 380 L 278.5 382 L 273 379 L 267 367.5 L 260 346.5 L 255.5 341 L 249.5 342 Q 231.3 355.8 209.5 366 Q 198.3 372.3 181.5 373 L 168.5 370 L 160.5 366 L 129.5 356 L 86.5 336 Q 55.1 318.9 31 294.5 Q 20.4 283.6 13 269.5 L 6 247.5 L 2 225.5 L 1 206.5 L 0 205.5 L 0 167.5 L 1 166.5 L 1 154.5 L 2 153.5 L 2 143.5 L 3 142.5 L 5 119.5 L 10 91.5 L 14 76.5 Q 20.8 56.8 35.5 45 L 57.5 34 L 72.5 31 L 82.5 31 L 83.5 30 Z M 133 118 Q 124 119 120 124 L 112 135 L 111 143 L 110 146 Q 111 161 119 170 Q 127 180 142 183 L 150 183 L 160 179 Q 169 173 171 161 Q 172 142 164 134 Q 157 125 147 120 L 139 118 L 133 118 Z M 228 169 L 216 173 Q 206 179 204 192 L 204 203 L 206 210 L 215 224 L 224 230 L 235 234 Q 248 235 255 229 L 263 218 L 265 208 L 262 193 L 254 181 Q 246 170 228 169 Z M 141 223 Q 139 226 134 224 L 125 229 L 119 236 L 115 248 L 116 260 L 123 274 Q 131 284 146 288 L 155 288 L 165 284 Q 174 278 176 266 L 175 252 L 167 237 Q 159 225 141 223 Z " />
    <path fill="rgb(255,255,255)" stroke="rgb(255,255,255)" stroke-width="1" opacity="1"
        d="M 130.5 119 L 145.5 120 Q 155.2 123.3 161 130.5 Q 170.5 140 171 158.5 Q 169 171.5 160.5 178 L 152.5 182 L 138.5 182 Q 125.3 177.7 118 167.5 Q 109.9 158.6 111 140.5 Q 113.2 128.7 121.5 123 L 130.5 119 Z " />
    <path fill="rgb(255,255,255)" stroke="rgb(255,255,255)" stroke-width="1" opacity="1"
        d="M 224.5 170 L 234.5 170 L 241.5 172 Q 250.3 176.3 256 183.5 L 263 196.5 L 264 211.5 Q 261.8 224.3 252.5 230 Q 245.9 234.9 232.5 233 Q 219 229.5 212 219.5 Q 204 210.5 204 193.5 L 206 185.5 L 212.5 176 L 224.5 170 Z " />
    <path fill="rgb(255,255,255)" stroke="rgb(255,255,255)" stroke-width="1" opacity="1"
        d="M 135.5 224 L 145.5 224 L 152.5 226 Q 162.2 230.3 168 238.5 L 175 253.5 L 175 267.5 Q 172.9 276.9 166.5 282 L 159.5 286 L 151.5 288 L 148.5 287 L 143.5 287 L 135.5 284 L 125 275.5 L 117 261.5 Q 114.7 254.8 116 244.5 Q 118.4 233.4 126.5 228 L 135.5 224 Z " />
</svg>