M48
;GenerationSoftware,Autodesk,EAGLE,9.4.1*%
;CreationDate,2019-06-03T02:11:10Z*%
FMAT,2
ICI,OFF
METRIC,TZ,000.000
T11C0.305
T10C0.350
T9C0.508
T8C0.550
T7C0.900
T6C1.016
T5C1.400
T4C1.600
T3C3.300
T2C3.302
T1C5.080
%
G90
M71
T1
X5080Y15240
X132080Y15240
T2
X7620Y8890
X7620Y3175
X129540Y3175
X129540Y8890
T3
X22859Y13590
X22859Y25020
T4
X25909Y11430
X25909Y27180
T5
X90805Y5842
X97155Y9017
X97155Y2667
X46355Y5842
X40005Y9017
X40005Y2667
T6
X71120Y7620
X73660Y7620
X57150Y2032
X59690Y2032
X62230Y2032
X64770Y2032
X67310Y2032
X69850Y2032
X72390Y2032
X74930Y2032
X77470Y2032
X80010Y2032
T7
X29209Y18670
X31749Y17400
X29209Y16130
X31749Y14860
X31749Y19940
X29209Y21210
X31749Y22480
X29209Y23750
X19480Y12979
X17960Y25629
X19481Y23090
X17961Y15520
T8
X49060Y12188
T9
X13835Y29212
X13835Y35812
T10
X119380Y27940
X51816Y23949
X120650Y20320
X56388Y21161
X50280Y16291
X102362Y17526
X120650Y24130
X49982Y23114
X120650Y21844
X49019Y23117
X120650Y27940
X48260Y23876
X107442Y19050
X56633Y20201
X107442Y17780
X58166Y20320
X108204Y16764
X55372Y20320
X116586Y27686
X39624Y35060
X115570Y26670
X41402Y34290
X122215Y12192
X90576Y16358
X98298Y17272
X75946Y16002
X91948Y14478
X114300Y15494
X97282Y16510
X92456Y17526
X99568Y18288
X71120Y17018
X90932Y17526
X68072Y5842
X112268Y14732
X88900Y16510
X116078Y16764
X90678Y14224
X27686Y28702
X29718Y28702
X31750Y33528
X18034Y36582
X120650Y18034
X102362Y16510
X28702Y30480
X25146Y30480
X40640Y31750
X85598Y4826
X54102Y17018
X46990Y25654
X54820Y22142
X66802Y15491
X84836Y15240
X54356Y13462
X39370Y31750
X70413Y15803
X56134Y7620
X46482Y22860
X42418Y25908
X46228Y14732
X40190Y33528
X45195Y29193
X19050Y34290
X32512Y29972
X34290Y37084
X55626Y27940
X51562Y27940
X52832Y8128
X32766Y35306
X69088Y5334
X70104Y5842
X69088Y6350
X46990Y16764
X50038Y13462
X55626Y18034
X120650Y30480
X105156Y7620
X87376Y6604
X83058Y8382
X49784Y26924
X34798Y17272
X17780Y30988
X107188Y30226
X96012Y24130
X95250Y28194
X95250Y29718
X86106Y27432
X65786Y14224
X112776Y19812
X108204Y10668
X96012Y12192
X93980Y24130
X88646Y14986
T11
X49530Y19304
X48768Y18542
X50292Y18542
X50292Y20066
X48768Y20066
X99314Y29464
X86856Y24118
X75438Y12700
X100584Y29464
X117856Y28956
X87630Y25146
X122174Y9906
X44311Y19927
X44958Y20574
X44958Y18034
X44311Y18681
X124612Y16002
M30