G04 EAGLE Gerber RS-274X export*
G75*
%MOMM*%
%FSLAX34Y34*%
%LPD*%
%INSoldermask Bottom*%
%IPPOS*%
%AMOC8*
5,1,8,0,0,1.08239X$1,22.5*%
G01*
%ADD10C,5.283200*%
%ADD11C,3.505200*%
%ADD12C,1.219200*%
%ADD13C,1.981200*%
%ADD14C,1.903200*%
%ADD15C,2.743200*%
%ADD16C,3.503200*%
%ADD17R,4.013200X4.013200*%
%ADD18R,1.981200X1.981200*%
%ADD19C,1.159600*%


D10*
X50800Y152400D03*
X1320800Y152400D03*
D11*
X76200Y88900D03*
X76200Y31750D03*
X1295400Y31750D03*
X1295400Y88900D03*
D12*
X143430Y358120D02*
X133270Y358120D01*
X133270Y292120D02*
X143430Y292120D01*
D13*
X317490Y148598D03*
X292090Y161298D03*
X317490Y173998D03*
X292090Y186698D03*
X317490Y199398D03*
X292090Y212098D03*
X317490Y224798D03*
D14*
X292090Y237498D03*
D15*
X259090Y271798D03*
X259090Y114298D03*
D16*
X228590Y135898D03*
X228590Y250198D03*
D13*
X194804Y129785D03*
X179604Y256285D03*
X194809Y230904D03*
X179609Y155204D03*
D17*
X400050Y26670D03*
X400050Y90170D03*
X463550Y58420D03*
X971550Y26670D03*
X971550Y90170D03*
X908050Y58420D03*
D18*
X800100Y20320D03*
D13*
X774700Y20320D03*
X749300Y20320D03*
X723900Y20320D03*
X698500Y20320D03*
X673100Y20320D03*
X647700Y20320D03*
X622300Y20320D03*
X596900Y20320D03*
X571500Y20320D03*
D18*
X736600Y76200D03*
D13*
X711200Y76200D03*
D19*
X490605Y121876D03*
M02*
