G04 EAGLE Gerber RS-274X export*
G75*
%MOMM*%
%FSLAX34Y34*%
%LPD*%
%INSoldermask Top*%
%IPPOS*%
%AMOC8*
5,1,8,0,0,1.08239X$1,22.5*%
G01*
%ADD10C,5.283200*%
%ADD11C,3.505200*%
%ADD12C,0.399194*%
%ADD13C,0.553472*%
%ADD14C,0.446600*%
%ADD15C,0.617406*%
%ADD16C,0.525272*%
%ADD17C,0.689375*%
%ADD18C,0.728447*%
%ADD19C,0.518503*%
%ADD20C,1.219200*%
%ADD21C,0.404144*%
%ADD22C,0.897791*%
%ADD23C,1.156759*%
%ADD24C,0.335972*%
%ADD25C,0.725172*%
%ADD26C,0.296447*%
%ADD27C,0.702831*%
%ADD28C,1.981200*%
%ADD29C,1.903200*%
%ADD30C,2.743200*%
%ADD31C,3.503200*%
%ADD32R,4.013200X4.013200*%
%ADD33C,0.430031*%
%ADD34R,1.981200X1.981200*%
%ADD35C,0.329691*%
%ADD36C,1.000000*%
%ADD37C,1.159600*%


D10*
X50800Y152400D03*
X1320800Y152400D03*
D11*
X76200Y88900D03*
X76200Y31750D03*
X1295400Y31750D03*
X1295400Y88900D03*
D12*
X295160Y305740D02*
X295160Y309280D01*
X299200Y309280D01*
X299200Y305740D01*
X295160Y305740D01*
X295160Y298780D02*
X295160Y295240D01*
X295160Y298780D02*
X299200Y298780D01*
X299200Y295240D01*
X295160Y295240D01*
X345960Y194980D02*
X345960Y191440D01*
X345960Y194980D02*
X350000Y194980D01*
X350000Y191440D01*
X345960Y191440D01*
X345960Y184480D02*
X345960Y180940D01*
X345960Y184480D02*
X350000Y184480D01*
X350000Y180940D01*
X345960Y180940D01*
X499860Y246980D02*
X499860Y250520D01*
X499860Y246980D02*
X495820Y246980D01*
X495820Y250520D01*
X499860Y250520D01*
X499860Y257480D02*
X499860Y261020D01*
X499860Y257480D02*
X495820Y257480D01*
X495820Y261020D01*
X499860Y261020D01*
D13*
X579829Y66869D02*
X579829Y59371D01*
X573331Y59371D01*
X573331Y66869D01*
X579829Y66869D01*
X579829Y64629D02*
X573331Y64629D01*
X579829Y75371D02*
X579829Y82869D01*
X579829Y75371D02*
X573331Y75371D01*
X573331Y82869D01*
X579829Y82869D01*
X579829Y80629D02*
X573331Y80629D01*
X352351Y70169D02*
X352351Y62671D01*
X352351Y70169D02*
X358849Y70169D01*
X358849Y62671D01*
X352351Y62671D01*
X352351Y67929D02*
X358849Y67929D01*
X352351Y54169D02*
X352351Y46671D01*
X352351Y54169D02*
X358849Y54169D01*
X358849Y46671D01*
X352351Y46671D01*
X352351Y51929D02*
X358849Y51929D01*
D12*
X691400Y163500D02*
X691400Y167040D01*
X695440Y167040D01*
X695440Y163500D01*
X691400Y163500D01*
X691400Y156540D02*
X691400Y153000D01*
X691400Y156540D02*
X695440Y156540D01*
X695440Y153000D01*
X691400Y153000D01*
X995160Y272380D02*
X995160Y275920D01*
X995160Y272380D02*
X991120Y272380D01*
X991120Y275920D01*
X995160Y275920D01*
X995160Y282880D02*
X995160Y286420D01*
X995160Y282880D02*
X991120Y282880D01*
X991120Y286420D01*
X995160Y286420D01*
X865620Y156540D02*
X865620Y153000D01*
X861580Y153000D01*
X861580Y156540D01*
X865620Y156540D01*
X865620Y163500D02*
X865620Y167040D01*
X865620Y163500D02*
X861580Y163500D01*
X861580Y167040D01*
X865620Y167040D01*
D13*
X498511Y296471D02*
X498511Y302969D01*
X509009Y302969D01*
X509009Y296471D01*
X498511Y296471D01*
X498511Y301729D02*
X509009Y301729D01*
X476511Y293469D02*
X476511Y286971D01*
X476511Y293469D02*
X487009Y293469D01*
X487009Y286971D01*
X476511Y286971D01*
X476511Y292229D02*
X487009Y292229D01*
X476511Y305971D02*
X476511Y312469D01*
X487009Y312469D01*
X487009Y305971D01*
X476511Y305971D01*
X476511Y311229D02*
X487009Y311229D01*
X457871Y326951D02*
X457871Y333449D01*
X468369Y333449D01*
X468369Y326951D01*
X457871Y326951D01*
X457871Y332209D02*
X468369Y332209D01*
X435871Y323949D02*
X435871Y317451D01*
X435871Y323949D02*
X446369Y323949D01*
X446369Y317451D01*
X435871Y317451D01*
X435871Y322709D02*
X446369Y322709D01*
X435871Y336451D02*
X435871Y342949D01*
X446369Y342949D01*
X446369Y336451D01*
X435871Y336451D01*
X435871Y341709D02*
X446369Y341709D01*
D12*
X1029220Y98460D02*
X1029220Y94920D01*
X1029220Y98460D02*
X1033260Y98460D01*
X1033260Y94920D01*
X1029220Y94920D01*
X1029220Y87960D02*
X1029220Y84420D01*
X1029220Y87960D02*
X1033260Y87960D01*
X1033260Y84420D01*
X1029220Y84420D01*
X704100Y143180D02*
X704100Y146720D01*
X708140Y146720D01*
X708140Y143180D01*
X704100Y143180D01*
X704100Y136220D02*
X704100Y132680D01*
X704100Y136220D02*
X708140Y136220D01*
X708140Y132680D01*
X704100Y132680D01*
X1252820Y191020D02*
X1256360Y191020D01*
X1252820Y191020D02*
X1252820Y195060D01*
X1256360Y195060D01*
X1256360Y191020D01*
X1256360Y194812D02*
X1252820Y194812D01*
X1263320Y191020D02*
X1266860Y191020D01*
X1263320Y191020D02*
X1263320Y195060D01*
X1266860Y195060D01*
X1266860Y191020D01*
X1266860Y194812D02*
X1263320Y194812D01*
X1256360Y140220D02*
X1252820Y140220D01*
X1252820Y144260D01*
X1256360Y144260D01*
X1256360Y140220D01*
X1256360Y144012D02*
X1252820Y144012D01*
X1263320Y140220D02*
X1266860Y140220D01*
X1263320Y140220D02*
X1263320Y144260D01*
X1266860Y144260D01*
X1266860Y140220D01*
X1266860Y144012D02*
X1263320Y144012D01*
X1256360Y127520D02*
X1252820Y127520D01*
X1252820Y131560D01*
X1256360Y131560D01*
X1256360Y127520D01*
X1256360Y131312D02*
X1252820Y131312D01*
X1263320Y127520D02*
X1266860Y127520D01*
X1263320Y127520D02*
X1263320Y131560D01*
X1266860Y131560D01*
X1266860Y127520D01*
X1266860Y131312D02*
X1263320Y131312D01*
X676160Y163500D02*
X676160Y167040D01*
X680200Y167040D01*
X680200Y163500D01*
X676160Y163500D01*
X676160Y156540D02*
X676160Y153000D01*
X676160Y156540D02*
X680200Y156540D01*
X680200Y153000D01*
X676160Y153000D01*
X1007860Y272380D02*
X1007860Y275920D01*
X1007860Y272380D02*
X1003820Y272380D01*
X1003820Y275920D01*
X1007860Y275920D01*
X1007860Y282880D02*
X1007860Y286420D01*
X1007860Y282880D02*
X1003820Y282880D01*
X1003820Y286420D01*
X1007860Y286420D01*
X874280Y167040D02*
X874280Y163500D01*
X874280Y167040D02*
X878320Y167040D01*
X878320Y163500D01*
X874280Y163500D01*
X874280Y156540D02*
X874280Y153000D01*
X874280Y156540D02*
X878320Y156540D01*
X878320Y153000D01*
X874280Y153000D01*
X1200900Y100660D02*
X1200900Y97120D01*
X1196860Y97120D01*
X1196860Y100660D01*
X1200900Y100660D01*
X1200900Y107620D02*
X1200900Y111160D01*
X1200900Y107620D02*
X1196860Y107620D01*
X1196860Y111160D01*
X1200900Y111160D01*
X968260Y130480D02*
X968260Y134020D01*
X972300Y134020D01*
X972300Y130480D01*
X968260Y130480D01*
X968260Y123520D02*
X968260Y119980D01*
X968260Y123520D02*
X972300Y123520D01*
X972300Y119980D01*
X968260Y119980D01*
X976300Y256020D02*
X979840Y256020D01*
X979840Y251980D01*
X976300Y251980D01*
X976300Y256020D01*
X976300Y255772D02*
X979840Y255772D01*
X969340Y256020D02*
X965800Y256020D01*
X969340Y256020D02*
X969340Y251980D01*
X965800Y251980D01*
X965800Y256020D01*
X965800Y255772D02*
X969340Y255772D01*
X1043420Y87960D02*
X1043420Y84420D01*
X1039380Y84420D01*
X1039380Y87960D01*
X1043420Y87960D01*
X1043420Y94920D02*
X1043420Y98460D01*
X1043420Y94920D02*
X1039380Y94920D01*
X1039380Y98460D01*
X1043420Y98460D01*
X441360Y212840D02*
X437820Y212840D01*
X441360Y212840D02*
X441360Y208800D01*
X437820Y208800D01*
X437820Y212840D01*
X437820Y212592D02*
X441360Y212592D01*
X430860Y212840D02*
X427320Y212840D01*
X430860Y212840D02*
X430860Y208800D01*
X427320Y208800D01*
X427320Y212840D01*
X427320Y212592D02*
X430860Y212592D01*
X437820Y177280D02*
X441360Y177280D01*
X441360Y173240D01*
X437820Y173240D01*
X437820Y177280D01*
X437820Y177032D02*
X441360Y177032D01*
X430860Y177280D02*
X427320Y177280D01*
X430860Y177280D02*
X430860Y173240D01*
X427320Y173240D01*
X427320Y177280D01*
X427320Y177032D02*
X430860Y177032D01*
X430200Y187440D02*
X433740Y187440D01*
X433740Y183400D01*
X430200Y183400D01*
X430200Y187440D01*
X430200Y187192D02*
X433740Y187192D01*
X423240Y187440D02*
X419700Y187440D01*
X423240Y187440D02*
X423240Y183400D01*
X419700Y183400D01*
X419700Y187440D01*
X419700Y187192D02*
X423240Y187192D01*
X430200Y202680D02*
X433740Y202680D01*
X433740Y198640D01*
X430200Y198640D01*
X430200Y202680D01*
X430200Y202432D02*
X433740Y202432D01*
X423240Y202680D02*
X419700Y202680D01*
X423240Y202680D02*
X423240Y198640D01*
X419700Y198640D01*
X419700Y202680D01*
X419700Y202432D02*
X423240Y202432D01*
X526380Y201180D02*
X529920Y201180D01*
X526380Y201180D02*
X526380Y205220D01*
X529920Y205220D01*
X529920Y201180D01*
X529920Y204972D02*
X526380Y204972D01*
X536880Y201180D02*
X540420Y201180D01*
X536880Y201180D02*
X536880Y205220D01*
X540420Y205220D01*
X540420Y201180D01*
X540420Y204972D02*
X536880Y204972D01*
X554320Y152920D02*
X557860Y152920D01*
X554320Y152920D02*
X554320Y156960D01*
X557860Y156960D01*
X557860Y152920D01*
X557860Y156712D02*
X554320Y156712D01*
X564820Y152920D02*
X568360Y152920D01*
X564820Y152920D02*
X564820Y156960D01*
X568360Y156960D01*
X568360Y152920D01*
X568360Y156712D02*
X564820Y156712D01*
X568440Y178400D02*
X568440Y181940D01*
X568440Y178400D02*
X564400Y178400D01*
X564400Y181940D01*
X568440Y181940D01*
X568440Y188900D02*
X568440Y192440D01*
X568440Y188900D02*
X564400Y188900D01*
X564400Y192440D01*
X568440Y192440D01*
X529920Y226580D02*
X526380Y226580D01*
X526380Y230620D01*
X529920Y230620D01*
X529920Y226580D01*
X529920Y230372D02*
X526380Y230372D01*
X536880Y226580D02*
X540420Y226580D01*
X536880Y226580D02*
X536880Y230620D01*
X540420Y230620D01*
X540420Y226580D01*
X540420Y230372D02*
X536880Y230372D01*
X461760Y169240D02*
X461760Y165700D01*
X457720Y165700D01*
X457720Y169240D01*
X461760Y169240D01*
X461760Y176200D02*
X461760Y179740D01*
X461760Y176200D02*
X457720Y176200D01*
X457720Y179740D01*
X461760Y179740D01*
X441360Y141720D02*
X437820Y141720D01*
X441360Y141720D02*
X441360Y137680D01*
X437820Y137680D01*
X437820Y141720D01*
X437820Y141472D02*
X441360Y141472D01*
X430860Y141720D02*
X427320Y141720D01*
X430860Y141720D02*
X430860Y137680D01*
X427320Y137680D01*
X427320Y141720D01*
X427320Y141472D02*
X430860Y141472D01*
X439940Y305740D02*
X439940Y309280D01*
X443980Y309280D01*
X443980Y305740D01*
X439940Y305740D01*
X439940Y298780D02*
X439940Y295240D01*
X439940Y298780D02*
X443980Y298780D01*
X443980Y295240D01*
X439940Y295240D01*
X441360Y129020D02*
X437820Y129020D01*
X441360Y129020D02*
X441360Y124980D01*
X437820Y124980D01*
X437820Y129020D01*
X437820Y128772D02*
X441360Y128772D01*
X430860Y129020D02*
X427320Y129020D01*
X430860Y129020D02*
X430860Y124980D01*
X427320Y124980D01*
X427320Y129020D01*
X427320Y128772D02*
X430860Y128772D01*
X549580Y192520D02*
X553120Y192520D01*
X553120Y188480D01*
X549580Y188480D01*
X549580Y192520D01*
X549580Y192272D02*
X553120Y192272D01*
X542620Y192520D02*
X539080Y192520D01*
X542620Y192520D02*
X542620Y188480D01*
X539080Y188480D01*
X539080Y192520D01*
X539080Y192272D02*
X542620Y192272D01*
X529920Y213880D02*
X526380Y213880D01*
X526380Y217920D01*
X529920Y217920D01*
X529920Y213880D01*
X529920Y217672D02*
X526380Y217672D01*
X536880Y213880D02*
X540420Y213880D01*
X536880Y213880D02*
X536880Y217920D01*
X540420Y217920D01*
X540420Y213880D01*
X540420Y217672D02*
X536880Y217672D01*
X541540Y156880D02*
X541540Y153340D01*
X541540Y156880D02*
X545580Y156880D01*
X545580Y153340D01*
X541540Y153340D01*
X541540Y146380D02*
X541540Y142840D01*
X541540Y146380D02*
X545580Y146380D01*
X545580Y142840D01*
X541540Y142840D01*
X564820Y172200D02*
X568360Y172200D01*
X568360Y168160D01*
X564820Y168160D01*
X564820Y172200D01*
X564820Y171952D02*
X568360Y171952D01*
X557860Y172200D02*
X554320Y172200D01*
X557860Y172200D02*
X557860Y168160D01*
X554320Y168160D01*
X554320Y172200D01*
X554320Y171952D02*
X557860Y171952D01*
X487160Y246980D02*
X487160Y250520D01*
X487160Y246980D02*
X483120Y246980D01*
X483120Y250520D01*
X487160Y250520D01*
X487160Y257480D02*
X487160Y261020D01*
X487160Y257480D02*
X483120Y257480D01*
X483120Y261020D01*
X487160Y261020D01*
X754980Y86880D02*
X758520Y86880D01*
X754980Y86880D02*
X754980Y90920D01*
X758520Y90920D01*
X758520Y86880D01*
X758520Y90672D02*
X754980Y90672D01*
X765480Y86880D02*
X769020Y86880D01*
X765480Y86880D02*
X765480Y90920D01*
X769020Y90920D01*
X769020Y86880D01*
X769020Y90672D02*
X765480Y90672D01*
X464300Y295240D02*
X464300Y298780D01*
X464300Y295240D02*
X460260Y295240D01*
X460260Y298780D01*
X464300Y298780D01*
X464300Y305740D02*
X464300Y309280D01*
X464300Y305740D02*
X460260Y305740D01*
X460260Y309280D01*
X464300Y309280D01*
X404380Y309280D02*
X404380Y305740D01*
X404380Y309280D02*
X408420Y309280D01*
X408420Y305740D01*
X404380Y305740D01*
X404380Y298780D02*
X404380Y295240D01*
X404380Y298780D02*
X408420Y298780D01*
X408420Y295240D01*
X404380Y295240D01*
X395720Y295240D02*
X395720Y298780D01*
X395720Y295240D02*
X391680Y295240D01*
X391680Y298780D01*
X395720Y298780D01*
X395720Y305740D02*
X395720Y309280D01*
X395720Y305740D02*
X391680Y305740D01*
X391680Y309280D01*
X395720Y309280D01*
X1213600Y100660D02*
X1213600Y97120D01*
X1209560Y97120D01*
X1209560Y100660D01*
X1213600Y100660D01*
X1213600Y107620D02*
X1213600Y111160D01*
X1213600Y107620D02*
X1209560Y107620D01*
X1209560Y111160D01*
X1213600Y111160D01*
X751240Y162040D02*
X747700Y162040D01*
X751240Y162040D02*
X751240Y158000D01*
X747700Y158000D01*
X747700Y162040D01*
X747700Y161792D02*
X751240Y161792D01*
X740740Y162040D02*
X737200Y162040D01*
X740740Y162040D02*
X740740Y158000D01*
X737200Y158000D01*
X737200Y162040D01*
X737200Y161792D02*
X740740Y161792D01*
X715340Y158000D02*
X711800Y158000D01*
X711800Y162040D01*
X715340Y162040D01*
X715340Y158000D01*
X715340Y161792D02*
X711800Y161792D01*
X722300Y158000D02*
X725840Y158000D01*
X722300Y158000D02*
X722300Y162040D01*
X725840Y162040D01*
X725840Y158000D01*
X725840Y161792D02*
X722300Y161792D01*
D13*
X456249Y262329D02*
X448751Y262329D01*
X456249Y262329D02*
X456249Y255831D01*
X448751Y255831D01*
X448751Y262329D01*
X448751Y261089D02*
X456249Y261089D01*
X440249Y262329D02*
X432751Y262329D01*
X440249Y262329D02*
X440249Y255831D01*
X432751Y255831D01*
X432751Y262329D01*
X432751Y261089D02*
X440249Y261089D01*
X440249Y225351D02*
X432751Y225351D01*
X432751Y231849D01*
X440249Y231849D01*
X440249Y225351D01*
X440249Y230609D02*
X432751Y230609D01*
X448751Y225351D02*
X456249Y225351D01*
X448751Y225351D02*
X448751Y231849D01*
X456249Y231849D01*
X456249Y225351D01*
X456249Y230609D02*
X448751Y230609D01*
D12*
X1035800Y166700D02*
X1035800Y163160D01*
X1031760Y163160D01*
X1031760Y166700D01*
X1035800Y166700D01*
X1035800Y173660D02*
X1035800Y177200D01*
X1035800Y173660D02*
X1031760Y173660D01*
X1031760Y177200D01*
X1035800Y177200D01*
X464300Y206340D02*
X464300Y209880D01*
X464300Y206340D02*
X460260Y206340D01*
X460260Y209880D01*
X464300Y209880D01*
X464300Y216840D02*
X464300Y220380D01*
X464300Y216840D02*
X460260Y216840D01*
X460260Y220380D01*
X464300Y220380D01*
X470420Y159420D02*
X470420Y155880D01*
X470420Y159420D02*
X474460Y159420D01*
X474460Y155880D01*
X470420Y155880D01*
X470420Y148920D02*
X470420Y145380D01*
X470420Y148920D02*
X474460Y148920D01*
X474460Y145380D01*
X470420Y145380D01*
D13*
X524951Y137869D02*
X532449Y137869D01*
X532449Y131371D01*
X524951Y131371D01*
X524951Y137869D01*
X524951Y136629D02*
X532449Y136629D01*
X516449Y137869D02*
X508951Y137869D01*
X516449Y137869D02*
X516449Y131371D01*
X508951Y131371D01*
X508951Y137869D01*
X508951Y136629D02*
X516449Y136629D01*
X1024329Y282891D02*
X1024329Y290389D01*
X1024329Y282891D02*
X1017831Y282891D01*
X1017831Y290389D01*
X1024329Y290389D01*
X1024329Y288149D02*
X1017831Y288149D01*
X1024329Y298891D02*
X1024329Y306389D01*
X1024329Y298891D02*
X1017831Y298891D01*
X1017831Y306389D01*
X1024329Y306389D01*
X1024329Y304149D02*
X1017831Y304149D01*
D12*
X1035800Y293700D02*
X1035800Y290160D01*
X1031760Y290160D01*
X1031760Y293700D01*
X1035800Y293700D01*
X1035800Y300660D02*
X1035800Y304200D01*
X1035800Y300660D02*
X1031760Y300660D01*
X1031760Y304200D01*
X1035800Y304200D01*
D13*
X1012751Y70169D02*
X1012751Y62671D01*
X1012751Y70169D02*
X1019249Y70169D01*
X1019249Y62671D01*
X1012751Y62671D01*
X1012751Y67929D02*
X1019249Y67929D01*
X1012751Y54169D02*
X1012751Y46671D01*
X1012751Y54169D02*
X1019249Y54169D01*
X1019249Y46671D01*
X1012751Y46671D01*
X1012751Y51929D02*
X1019249Y51929D01*
X687631Y88071D02*
X687631Y95569D01*
X694129Y95569D01*
X694129Y88071D01*
X687631Y88071D01*
X687631Y93329D02*
X694129Y93329D01*
X687631Y79569D02*
X687631Y72071D01*
X687631Y79569D02*
X694129Y79569D01*
X694129Y72071D01*
X687631Y72071D01*
X687631Y77329D02*
X694129Y77329D01*
D12*
X1049540Y94920D02*
X1049540Y98460D01*
X1053580Y98460D01*
X1053580Y94920D01*
X1049540Y94920D01*
X1049540Y87960D02*
X1049540Y84420D01*
X1049540Y87960D02*
X1053580Y87960D01*
X1053580Y84420D01*
X1049540Y84420D01*
X511060Y155880D02*
X511060Y159420D01*
X515100Y159420D01*
X515100Y155880D01*
X511060Y155880D01*
X511060Y148920D02*
X511060Y145380D01*
X511060Y148920D02*
X515100Y148920D01*
X515100Y145380D01*
X511060Y145380D01*
X523760Y155880D02*
X523760Y159420D01*
X527800Y159420D01*
X527800Y155880D01*
X523760Y155880D01*
X523760Y148920D02*
X523760Y145380D01*
X523760Y148920D02*
X527800Y148920D01*
X527800Y145380D01*
X523760Y145380D01*
X262140Y305740D02*
X262140Y309280D01*
X266180Y309280D01*
X266180Y305740D01*
X262140Y305740D01*
X262140Y298780D02*
X262140Y295240D01*
X262140Y298780D02*
X266180Y298780D01*
X266180Y295240D01*
X262140Y295240D01*
X274840Y305740D02*
X274840Y309280D01*
X278880Y309280D01*
X278880Y305740D01*
X274840Y305740D01*
X274840Y298780D02*
X274840Y295240D01*
X274840Y298780D02*
X278880Y298780D01*
X278880Y295240D01*
X274840Y295240D01*
X307860Y305740D02*
X307860Y309280D01*
X311900Y309280D01*
X311900Y305740D01*
X307860Y305740D01*
X307860Y298780D02*
X307860Y295240D01*
X307860Y298780D02*
X311900Y298780D01*
X311900Y295240D01*
X307860Y295240D01*
D13*
X516291Y64209D02*
X516291Y57711D01*
X516291Y64209D02*
X526789Y64209D01*
X526789Y57711D01*
X516291Y57711D01*
X516291Y62969D02*
X526789Y62969D01*
X494291Y54709D02*
X494291Y48211D01*
X494291Y54709D02*
X504789Y54709D01*
X504789Y48211D01*
X494291Y48211D01*
X494291Y53469D02*
X504789Y53469D01*
X494291Y67211D02*
X494291Y73709D01*
X504789Y73709D01*
X504789Y67211D01*
X494291Y67211D01*
X494291Y72469D02*
X504789Y72469D01*
D12*
X182360Y340960D02*
X182360Y344500D01*
X182360Y340960D02*
X178320Y340960D01*
X178320Y344500D01*
X182360Y344500D01*
X182360Y351460D02*
X182360Y355000D01*
X182360Y351460D02*
X178320Y351460D01*
X178320Y355000D01*
X182360Y355000D01*
D13*
X448751Y247089D02*
X456249Y247089D01*
X456249Y240591D01*
X448751Y240591D01*
X448751Y247089D01*
X448751Y245849D02*
X456249Y245849D01*
X440249Y247089D02*
X432751Y247089D01*
X440249Y247089D02*
X440249Y240591D01*
X432751Y240591D01*
X432751Y247089D01*
X432751Y245849D02*
X440249Y245849D01*
D14*
X611787Y105683D02*
X611787Y98117D01*
X611787Y105683D02*
X616253Y105683D01*
X616253Y98117D01*
X611787Y98117D01*
X611787Y102360D02*
X616253Y102360D01*
X602287Y105683D02*
X602287Y98117D01*
X602287Y105683D02*
X606753Y105683D01*
X606753Y98117D01*
X602287Y98117D01*
X602287Y102360D02*
X606753Y102360D01*
X592787Y105683D02*
X592787Y98117D01*
X592787Y105683D02*
X597253Y105683D01*
X597253Y98117D01*
X592787Y98117D01*
X592787Y102360D02*
X597253Y102360D01*
X592787Y79683D02*
X592787Y72117D01*
X592787Y79683D02*
X597253Y79683D01*
X597253Y72117D01*
X592787Y72117D01*
X592787Y76360D02*
X597253Y76360D01*
X602287Y79683D02*
X602287Y72117D01*
X602287Y79683D02*
X606753Y79683D01*
X606753Y72117D01*
X602287Y72117D01*
X602287Y76360D02*
X606753Y76360D01*
X611787Y79683D02*
X611787Y72117D01*
X611787Y79683D02*
X616253Y79683D01*
X616253Y72117D01*
X611787Y72117D01*
X611787Y76360D02*
X616253Y76360D01*
D15*
X639931Y77551D02*
X647789Y77551D01*
X639931Y77551D02*
X639931Y110409D01*
X647789Y110409D01*
X647789Y77551D01*
X647789Y83416D02*
X639931Y83416D01*
X639931Y89281D02*
X647789Y89281D01*
X647789Y95146D02*
X639931Y95146D01*
X639931Y101011D02*
X647789Y101011D01*
X647789Y106876D02*
X639931Y106876D01*
X667931Y77551D02*
X675789Y77551D01*
X667931Y77551D02*
X667931Y110409D01*
X675789Y110409D01*
X675789Y77551D01*
X675789Y83416D02*
X667931Y83416D01*
X667931Y89281D02*
X675789Y89281D01*
X675789Y95146D02*
X667931Y95146D01*
X667931Y101011D02*
X675789Y101011D01*
X675789Y106876D02*
X667931Y106876D01*
D12*
X606460Y65520D02*
X602920Y65520D01*
X606460Y65520D02*
X606460Y61480D01*
X602920Y61480D01*
X602920Y65520D01*
X602920Y65272D02*
X606460Y65272D01*
X595960Y65520D02*
X592420Y65520D01*
X595960Y65520D02*
X595960Y61480D01*
X592420Y61480D01*
X592420Y65520D01*
X592420Y65272D02*
X595960Y65272D01*
X627900Y107620D02*
X627900Y111160D01*
X631940Y111160D01*
X631940Y107620D01*
X627900Y107620D01*
X627900Y100660D02*
X627900Y97120D01*
X627900Y100660D02*
X631940Y100660D01*
X631940Y97120D01*
X627900Y97120D01*
X613740Y114820D02*
X610200Y114820D01*
X610200Y118860D01*
X613740Y118860D01*
X613740Y114820D01*
X613740Y118612D02*
X610200Y118612D01*
X620700Y114820D02*
X624240Y114820D01*
X620700Y114820D02*
X620700Y118860D01*
X624240Y118860D01*
X624240Y114820D01*
X624240Y118612D02*
X620700Y118612D01*
X588340Y114820D02*
X584800Y114820D01*
X584800Y118860D01*
X588340Y118860D01*
X588340Y114820D01*
X588340Y118612D02*
X584800Y118612D01*
X595300Y114820D02*
X598840Y114820D01*
X595300Y114820D02*
X595300Y118860D01*
X598840Y118860D01*
X598840Y114820D01*
X598840Y118612D02*
X595300Y118612D01*
D16*
X639359Y62906D02*
X639359Y53934D01*
X633435Y53934D01*
X633435Y62906D01*
X639359Y62906D01*
X639359Y58924D02*
X633435Y58924D01*
X672125Y62906D02*
X672125Y53934D01*
X666201Y53934D01*
X666201Y62906D01*
X672125Y62906D01*
X672125Y58924D02*
X666201Y58924D01*
D12*
X550240Y114820D02*
X546700Y114820D01*
X546700Y118860D01*
X550240Y118860D01*
X550240Y114820D01*
X550240Y118612D02*
X546700Y118612D01*
X557200Y114820D02*
X560740Y114820D01*
X557200Y114820D02*
X557200Y118860D01*
X560740Y118860D01*
X560740Y114820D01*
X560740Y118612D02*
X557200Y118612D01*
D13*
X559471Y94689D02*
X559471Y88191D01*
X559471Y94689D02*
X569969Y94689D01*
X569969Y88191D01*
X559471Y88191D01*
X559471Y93449D02*
X569969Y93449D01*
X537471Y85189D02*
X537471Y78691D01*
X537471Y85189D02*
X547969Y85189D01*
X547969Y78691D01*
X537471Y78691D01*
X537471Y83949D02*
X547969Y83949D01*
X537471Y97691D02*
X537471Y104189D01*
X547969Y104189D01*
X547969Y97691D01*
X537471Y97691D01*
X537471Y102949D02*
X547969Y102949D01*
X546929Y60251D02*
X539431Y60251D01*
X539431Y66749D01*
X546929Y66749D01*
X546929Y60251D01*
X546929Y65509D02*
X539431Y65509D01*
X555431Y60251D02*
X562929Y60251D01*
X555431Y60251D02*
X555431Y66749D01*
X562929Y66749D01*
X562929Y60251D01*
X562929Y65509D02*
X555431Y65509D01*
D17*
X581431Y132451D02*
X597569Y132451D01*
X581431Y132451D02*
X581431Y141589D01*
X597569Y141589D01*
X597569Y132451D01*
X597569Y139000D02*
X581431Y139000D01*
X581431Y178451D02*
X597569Y178451D01*
X581431Y178451D02*
X581431Y187589D01*
X597569Y187589D01*
X597569Y178451D01*
X597569Y185000D02*
X581431Y185000D01*
X672431Y178451D02*
X688569Y178451D01*
X672431Y178451D02*
X672431Y187589D01*
X688569Y187589D01*
X688569Y178451D01*
X688569Y185000D02*
X672431Y185000D01*
X672431Y132451D02*
X688569Y132451D01*
X672431Y132451D02*
X672431Y141589D01*
X688569Y141589D01*
X688569Y132451D01*
X688569Y139000D02*
X672431Y139000D01*
X941969Y197891D02*
X941969Y214029D01*
X941969Y197891D02*
X932831Y197891D01*
X932831Y214029D01*
X941969Y214029D01*
X941969Y204440D02*
X932831Y204440D01*
X932831Y210989D02*
X941969Y210989D01*
X895969Y214029D02*
X895969Y197891D01*
X886831Y197891D01*
X886831Y214029D01*
X895969Y214029D01*
X895969Y204440D02*
X886831Y204440D01*
X886831Y210989D02*
X895969Y210989D01*
X895969Y288891D02*
X895969Y305029D01*
X895969Y288891D02*
X886831Y288891D01*
X886831Y305029D01*
X895969Y305029D01*
X895969Y295440D02*
X886831Y295440D01*
X886831Y301989D02*
X895969Y301989D01*
X941969Y305029D02*
X941969Y288891D01*
X932831Y288891D01*
X932831Y305029D01*
X941969Y305029D01*
X941969Y295440D02*
X932831Y295440D01*
X932831Y301989D02*
X941969Y301989D01*
X782989Y132451D02*
X766851Y132451D01*
X766851Y141589D01*
X782989Y141589D01*
X782989Y132451D01*
X782989Y139000D02*
X766851Y139000D01*
X766851Y178451D02*
X782989Y178451D01*
X766851Y178451D02*
X766851Y187589D01*
X782989Y187589D01*
X782989Y178451D01*
X782989Y185000D02*
X766851Y185000D01*
X857851Y178451D02*
X873989Y178451D01*
X857851Y178451D02*
X857851Y187589D01*
X873989Y187589D01*
X873989Y178451D01*
X873989Y185000D02*
X857851Y185000D01*
X857851Y132451D02*
X873989Y132451D01*
X857851Y132451D02*
X857851Y141589D01*
X873989Y141589D01*
X873989Y132451D01*
X873989Y139000D02*
X857851Y139000D01*
D12*
X537540Y178320D02*
X534000Y178320D01*
X534000Y182360D01*
X537540Y182360D01*
X537540Y178320D01*
X537540Y182112D02*
X534000Y182112D01*
X544500Y178320D02*
X548040Y178320D01*
X544500Y178320D02*
X544500Y182360D01*
X548040Y182360D01*
X548040Y178320D01*
X548040Y182112D02*
X544500Y182112D01*
X508520Y257480D02*
X508520Y261020D01*
X512560Y261020D01*
X512560Y257480D01*
X508520Y257480D01*
X508520Y250520D02*
X508520Y246980D01*
X508520Y250520D02*
X512560Y250520D01*
X512560Y246980D01*
X508520Y246980D01*
X861660Y53860D02*
X865200Y53860D01*
X861660Y53860D02*
X861660Y57900D01*
X865200Y57900D01*
X865200Y53860D01*
X865200Y57652D02*
X861660Y57652D01*
X872160Y53860D02*
X875700Y53860D01*
X872160Y53860D02*
X872160Y57900D01*
X875700Y57900D01*
X875700Y53860D01*
X875700Y57652D02*
X872160Y57652D01*
D18*
X1105546Y206686D02*
X1150294Y206686D01*
X1105546Y206686D02*
X1105546Y251434D01*
X1150294Y251434D01*
X1150294Y206686D01*
X1150294Y213606D02*
X1105546Y213606D01*
X1105546Y220526D02*
X1150294Y220526D01*
X1150294Y227446D02*
X1105546Y227446D01*
X1105546Y234366D02*
X1150294Y234366D01*
X1150294Y241286D02*
X1105546Y241286D01*
X1105546Y248206D02*
X1150294Y248206D01*
D19*
X1061344Y301136D02*
X1044496Y301136D01*
X1044496Y306984D01*
X1061344Y306984D01*
X1061344Y301136D01*
X1061344Y306062D02*
X1044496Y306062D01*
X1044496Y288436D02*
X1061344Y288436D01*
X1044496Y288436D02*
X1044496Y294284D01*
X1061344Y294284D01*
X1061344Y288436D01*
X1061344Y293362D02*
X1044496Y293362D01*
X1044496Y275736D02*
X1061344Y275736D01*
X1044496Y275736D02*
X1044496Y281584D01*
X1061344Y281584D01*
X1061344Y275736D01*
X1061344Y280662D02*
X1044496Y280662D01*
X1044496Y263036D02*
X1061344Y263036D01*
X1044496Y263036D02*
X1044496Y268884D01*
X1061344Y268884D01*
X1061344Y263036D01*
X1061344Y267962D02*
X1044496Y267962D01*
X1044496Y250336D02*
X1061344Y250336D01*
X1044496Y250336D02*
X1044496Y256184D01*
X1061344Y256184D01*
X1061344Y250336D01*
X1061344Y255262D02*
X1044496Y255262D01*
X1044496Y237636D02*
X1061344Y237636D01*
X1044496Y237636D02*
X1044496Y243484D01*
X1061344Y243484D01*
X1061344Y237636D01*
X1061344Y242562D02*
X1044496Y242562D01*
X1044496Y224936D02*
X1061344Y224936D01*
X1044496Y224936D02*
X1044496Y230784D01*
X1061344Y230784D01*
X1061344Y224936D01*
X1061344Y229862D02*
X1044496Y229862D01*
X1044496Y212236D02*
X1061344Y212236D01*
X1044496Y212236D02*
X1044496Y218084D01*
X1061344Y218084D01*
X1061344Y212236D01*
X1061344Y217162D02*
X1044496Y217162D01*
X1044496Y199536D02*
X1061344Y199536D01*
X1044496Y199536D02*
X1044496Y205384D01*
X1061344Y205384D01*
X1061344Y199536D01*
X1061344Y204462D02*
X1044496Y204462D01*
X1044496Y186836D02*
X1061344Y186836D01*
X1044496Y186836D02*
X1044496Y192684D01*
X1061344Y192684D01*
X1061344Y186836D01*
X1061344Y191762D02*
X1044496Y191762D01*
X1044496Y174136D02*
X1061344Y174136D01*
X1044496Y174136D02*
X1044496Y179984D01*
X1061344Y179984D01*
X1061344Y174136D01*
X1061344Y179062D02*
X1044496Y179062D01*
X1044496Y161436D02*
X1061344Y161436D01*
X1044496Y161436D02*
X1044496Y167284D01*
X1061344Y167284D01*
X1061344Y161436D01*
X1061344Y166362D02*
X1044496Y166362D01*
X1044496Y148736D02*
X1061344Y148736D01*
X1044496Y148736D02*
X1044496Y154584D01*
X1061344Y154584D01*
X1061344Y148736D01*
X1061344Y153662D02*
X1044496Y153662D01*
X1044496Y136036D02*
X1061344Y136036D01*
X1044496Y136036D02*
X1044496Y141884D01*
X1061344Y141884D01*
X1061344Y136036D01*
X1061344Y140962D02*
X1044496Y140962D01*
X1083694Y137384D02*
X1083694Y120536D01*
X1077846Y120536D01*
X1077846Y137384D01*
X1083694Y137384D01*
X1083694Y125462D02*
X1077846Y125462D01*
X1077846Y130388D02*
X1083694Y130388D01*
X1083694Y135314D02*
X1077846Y135314D01*
X1096394Y137384D02*
X1096394Y120536D01*
X1090546Y120536D01*
X1090546Y137384D01*
X1096394Y137384D01*
X1096394Y125462D02*
X1090546Y125462D01*
X1090546Y130388D02*
X1096394Y130388D01*
X1096394Y135314D02*
X1090546Y135314D01*
X1109094Y137384D02*
X1109094Y120536D01*
X1103246Y120536D01*
X1103246Y137384D01*
X1109094Y137384D01*
X1109094Y125462D02*
X1103246Y125462D01*
X1103246Y130388D02*
X1109094Y130388D01*
X1109094Y135314D02*
X1103246Y135314D01*
X1121794Y137384D02*
X1121794Y120536D01*
X1115946Y120536D01*
X1115946Y137384D01*
X1121794Y137384D01*
X1121794Y125462D02*
X1115946Y125462D01*
X1115946Y130388D02*
X1121794Y130388D01*
X1121794Y135314D02*
X1115946Y135314D01*
X1134494Y137384D02*
X1134494Y120536D01*
X1128646Y120536D01*
X1128646Y137384D01*
X1134494Y137384D01*
X1134494Y125462D02*
X1128646Y125462D01*
X1128646Y130388D02*
X1134494Y130388D01*
X1134494Y135314D02*
X1128646Y135314D01*
X1147194Y137384D02*
X1147194Y120536D01*
X1141346Y120536D01*
X1141346Y137384D01*
X1147194Y137384D01*
X1147194Y125462D02*
X1141346Y125462D01*
X1141346Y130388D02*
X1147194Y130388D01*
X1147194Y135314D02*
X1141346Y135314D01*
X1159894Y137384D02*
X1159894Y120536D01*
X1154046Y120536D01*
X1154046Y137384D01*
X1159894Y137384D01*
X1159894Y125462D02*
X1154046Y125462D01*
X1154046Y130388D02*
X1159894Y130388D01*
X1159894Y135314D02*
X1154046Y135314D01*
X1172594Y137384D02*
X1172594Y120536D01*
X1166746Y120536D01*
X1166746Y137384D01*
X1172594Y137384D01*
X1172594Y125462D02*
X1166746Y125462D01*
X1166746Y130388D02*
X1172594Y130388D01*
X1172594Y135314D02*
X1166746Y135314D01*
X1185294Y137384D02*
X1185294Y120536D01*
X1179446Y120536D01*
X1179446Y137384D01*
X1185294Y137384D01*
X1185294Y125462D02*
X1179446Y125462D01*
X1179446Y130388D02*
X1185294Y130388D01*
X1185294Y135314D02*
X1179446Y135314D01*
X1197994Y137384D02*
X1197994Y120536D01*
X1192146Y120536D01*
X1192146Y137384D01*
X1197994Y137384D01*
X1197994Y125462D02*
X1192146Y125462D01*
X1192146Y130388D02*
X1197994Y130388D01*
X1197994Y135314D02*
X1192146Y135314D01*
X1214496Y141884D02*
X1231344Y141884D01*
X1231344Y136036D01*
X1214496Y136036D01*
X1214496Y141884D01*
X1214496Y140962D02*
X1231344Y140962D01*
X1231344Y154584D02*
X1214496Y154584D01*
X1231344Y154584D02*
X1231344Y148736D01*
X1214496Y148736D01*
X1214496Y154584D01*
X1214496Y153662D02*
X1231344Y153662D01*
X1231344Y167284D02*
X1214496Y167284D01*
X1231344Y167284D02*
X1231344Y161436D01*
X1214496Y161436D01*
X1214496Y167284D01*
X1214496Y166362D02*
X1231344Y166362D01*
X1231344Y179984D02*
X1214496Y179984D01*
X1231344Y179984D02*
X1231344Y174136D01*
X1214496Y174136D01*
X1214496Y179984D01*
X1214496Y179062D02*
X1231344Y179062D01*
X1231344Y192684D02*
X1214496Y192684D01*
X1231344Y192684D02*
X1231344Y186836D01*
X1214496Y186836D01*
X1214496Y192684D01*
X1214496Y191762D02*
X1231344Y191762D01*
X1231344Y205384D02*
X1214496Y205384D01*
X1231344Y205384D02*
X1231344Y199536D01*
X1214496Y199536D01*
X1214496Y205384D01*
X1214496Y204462D02*
X1231344Y204462D01*
X1231344Y218084D02*
X1214496Y218084D01*
X1231344Y218084D02*
X1231344Y212236D01*
X1214496Y212236D01*
X1214496Y218084D01*
X1214496Y217162D02*
X1231344Y217162D01*
X1231344Y230784D02*
X1214496Y230784D01*
X1231344Y230784D02*
X1231344Y224936D01*
X1214496Y224936D01*
X1214496Y230784D01*
X1214496Y229862D02*
X1231344Y229862D01*
X1231344Y243484D02*
X1214496Y243484D01*
X1231344Y243484D02*
X1231344Y237636D01*
X1214496Y237636D01*
X1214496Y243484D01*
X1214496Y242562D02*
X1231344Y242562D01*
X1231344Y256184D02*
X1214496Y256184D01*
X1231344Y256184D02*
X1231344Y250336D01*
X1214496Y250336D01*
X1214496Y256184D01*
X1214496Y255262D02*
X1231344Y255262D01*
X1231344Y268884D02*
X1214496Y268884D01*
X1231344Y268884D02*
X1231344Y263036D01*
X1214496Y263036D01*
X1214496Y268884D01*
X1214496Y267962D02*
X1231344Y267962D01*
X1231344Y281584D02*
X1214496Y281584D01*
X1231344Y281584D02*
X1231344Y275736D01*
X1214496Y275736D01*
X1214496Y281584D01*
X1214496Y280662D02*
X1231344Y280662D01*
X1231344Y294284D02*
X1214496Y294284D01*
X1231344Y294284D02*
X1231344Y288436D01*
X1214496Y288436D01*
X1214496Y294284D01*
X1214496Y293362D02*
X1231344Y293362D01*
X1231344Y306984D02*
X1214496Y306984D01*
X1231344Y306984D02*
X1231344Y301136D01*
X1214496Y301136D01*
X1214496Y306984D01*
X1214496Y306062D02*
X1231344Y306062D01*
D20*
X143430Y358120D02*
X133270Y358120D01*
X133270Y292120D02*
X143430Y292120D01*
D21*
X169096Y324124D02*
X169096Y326116D01*
X169096Y324124D02*
X156104Y324124D01*
X156104Y326116D01*
X169096Y326116D01*
X169096Y330624D02*
X169096Y332616D01*
X169096Y330624D02*
X156104Y330624D01*
X156104Y332616D01*
X169096Y332616D01*
X169096Y319616D02*
X169096Y317624D01*
X156104Y317624D01*
X156104Y319616D01*
X169096Y319616D01*
X169096Y313116D02*
X169096Y311124D01*
X156104Y311124D01*
X156104Y313116D01*
X169096Y313116D01*
X169096Y337124D02*
X169096Y339116D01*
X169096Y337124D02*
X156104Y337124D01*
X156104Y339116D01*
X169096Y339116D01*
D22*
X164357Y354593D02*
X157303Y354593D01*
X157303Y363647D01*
X164357Y363647D01*
X164357Y354593D01*
X164357Y363122D02*
X157303Y363122D01*
X157303Y286593D02*
X164357Y286593D01*
X157303Y286593D02*
X157303Y295647D01*
X164357Y295647D01*
X164357Y286593D01*
X164357Y295122D02*
X157303Y295122D01*
D23*
X133618Y332388D02*
X133618Y341852D01*
X143082Y341852D01*
X143082Y332388D01*
X133618Y332388D01*
X133618Y317852D02*
X133618Y308388D01*
X133618Y317852D02*
X143082Y317852D01*
X143082Y308388D01*
X133618Y308388D01*
D24*
X327614Y339434D02*
X336386Y339434D01*
X327614Y339434D02*
X327614Y340806D01*
X336386Y340806D01*
X336386Y339434D01*
X336386Y334434D02*
X327614Y334434D01*
X327614Y335806D01*
X336386Y335806D01*
X336386Y334434D01*
X336386Y329434D02*
X327614Y329434D01*
X327614Y330806D01*
X336386Y330806D01*
X336386Y329434D01*
X336386Y324434D02*
X327614Y324434D01*
X327614Y325806D01*
X336386Y325806D01*
X336386Y324434D01*
X336386Y319434D02*
X327614Y319434D01*
X327614Y320806D01*
X336386Y320806D01*
X336386Y319434D01*
X336386Y314434D02*
X327614Y314434D01*
X327614Y315806D01*
X336386Y315806D01*
X336386Y314434D01*
X336386Y309434D02*
X327614Y309434D01*
X327614Y310806D01*
X336386Y310806D01*
X336386Y309434D01*
X341286Y305906D02*
X341286Y297134D01*
X339914Y297134D01*
X339914Y305906D01*
X341286Y305906D01*
X341286Y300326D02*
X339914Y300326D01*
X339914Y303518D02*
X341286Y303518D01*
X346286Y305906D02*
X346286Y297134D01*
X344914Y297134D01*
X344914Y305906D01*
X346286Y305906D01*
X346286Y300326D02*
X344914Y300326D01*
X344914Y303518D02*
X346286Y303518D01*
X351286Y305906D02*
X351286Y297134D01*
X349914Y297134D01*
X349914Y305906D01*
X351286Y305906D01*
X351286Y300326D02*
X349914Y300326D01*
X349914Y303518D02*
X351286Y303518D01*
X356286Y305906D02*
X356286Y297134D01*
X354914Y297134D01*
X354914Y305906D01*
X356286Y305906D01*
X356286Y300326D02*
X354914Y300326D01*
X354914Y303518D02*
X356286Y303518D01*
X361286Y305906D02*
X361286Y297134D01*
X359914Y297134D01*
X359914Y305906D01*
X361286Y305906D01*
X361286Y300326D02*
X359914Y300326D01*
X359914Y303518D02*
X361286Y303518D01*
X366286Y305906D02*
X366286Y297134D01*
X364914Y297134D01*
X364914Y305906D01*
X366286Y305906D01*
X366286Y300326D02*
X364914Y300326D01*
X364914Y303518D02*
X366286Y303518D01*
X371286Y305906D02*
X371286Y297134D01*
X369914Y297134D01*
X369914Y305906D01*
X371286Y305906D01*
X371286Y300326D02*
X369914Y300326D01*
X369914Y303518D02*
X371286Y303518D01*
X374814Y310806D02*
X383586Y310806D01*
X383586Y309434D01*
X374814Y309434D01*
X374814Y310806D01*
X374814Y315806D02*
X383586Y315806D01*
X383586Y314434D01*
X374814Y314434D01*
X374814Y315806D01*
X374814Y320806D02*
X383586Y320806D01*
X383586Y319434D01*
X374814Y319434D01*
X374814Y320806D01*
X374814Y325806D02*
X383586Y325806D01*
X383586Y324434D01*
X374814Y324434D01*
X374814Y325806D01*
X374814Y330806D02*
X383586Y330806D01*
X383586Y329434D01*
X374814Y329434D01*
X374814Y330806D01*
X374814Y335806D02*
X383586Y335806D01*
X383586Y334434D01*
X374814Y334434D01*
X374814Y335806D01*
X374814Y340806D02*
X383586Y340806D01*
X383586Y339434D01*
X374814Y339434D01*
X374814Y340806D01*
X369914Y344334D02*
X369914Y353106D01*
X371286Y353106D01*
X371286Y344334D01*
X369914Y344334D01*
X369914Y347526D02*
X371286Y347526D01*
X371286Y350718D02*
X369914Y350718D01*
X364914Y353106D02*
X364914Y344334D01*
X364914Y353106D02*
X366286Y353106D01*
X366286Y344334D01*
X364914Y344334D01*
X364914Y347526D02*
X366286Y347526D01*
X366286Y350718D02*
X364914Y350718D01*
X359914Y353106D02*
X359914Y344334D01*
X359914Y353106D02*
X361286Y353106D01*
X361286Y344334D01*
X359914Y344334D01*
X359914Y347526D02*
X361286Y347526D01*
X361286Y350718D02*
X359914Y350718D01*
X354914Y353106D02*
X354914Y344334D01*
X354914Y353106D02*
X356286Y353106D01*
X356286Y344334D01*
X354914Y344334D01*
X354914Y347526D02*
X356286Y347526D01*
X356286Y350718D02*
X354914Y350718D01*
X349914Y353106D02*
X349914Y344334D01*
X349914Y353106D02*
X351286Y353106D01*
X351286Y344334D01*
X349914Y344334D01*
X349914Y347526D02*
X351286Y347526D01*
X351286Y350718D02*
X349914Y350718D01*
X344914Y353106D02*
X344914Y344334D01*
X344914Y353106D02*
X346286Y353106D01*
X346286Y344334D01*
X344914Y344334D01*
X344914Y347526D02*
X346286Y347526D01*
X346286Y350718D02*
X344914Y350718D01*
X339914Y353106D02*
X339914Y344334D01*
X339914Y353106D02*
X341286Y353106D01*
X341286Y344334D01*
X339914Y344334D01*
X339914Y347526D02*
X341286Y347526D01*
X341286Y350718D02*
X339914Y350718D01*
D25*
X341960Y311480D02*
X369240Y311480D01*
X341960Y311480D02*
X341960Y338760D01*
X369240Y338760D01*
X369240Y311480D01*
X369240Y318369D02*
X341960Y318369D01*
X341960Y325258D02*
X369240Y325258D01*
X369240Y332147D02*
X341960Y332147D01*
D26*
X510816Y181374D02*
X518484Y181374D01*
X518484Y179706D01*
X510816Y179706D01*
X510816Y181374D01*
X510816Y186374D02*
X518484Y186374D01*
X518484Y184706D01*
X510816Y184706D01*
X510816Y186374D01*
X510816Y191374D02*
X518484Y191374D01*
X518484Y189706D01*
X510816Y189706D01*
X510816Y191374D01*
X510816Y196374D02*
X518484Y196374D01*
X518484Y194706D01*
X510816Y194706D01*
X510816Y196374D01*
X510816Y201374D02*
X518484Y201374D01*
X518484Y199706D01*
X510816Y199706D01*
X510816Y201374D01*
X510816Y206374D02*
X518484Y206374D01*
X518484Y204706D01*
X510816Y204706D01*
X510816Y206374D01*
X479784Y206374D02*
X472116Y206374D01*
X479784Y206374D02*
X479784Y204706D01*
X472116Y204706D01*
X472116Y206374D01*
X472116Y201374D02*
X479784Y201374D01*
X479784Y199706D01*
X472116Y199706D01*
X472116Y201374D01*
X472116Y196374D02*
X479784Y196374D01*
X479784Y194706D01*
X472116Y194706D01*
X472116Y196374D01*
X472116Y191374D02*
X479784Y191374D01*
X479784Y189706D01*
X472116Y189706D01*
X472116Y191374D01*
X472116Y186374D02*
X479784Y186374D01*
X479784Y184706D01*
X472116Y184706D01*
X472116Y186374D01*
X472116Y181374D02*
X479784Y181374D01*
X479784Y179706D01*
X472116Y179706D01*
X472116Y181374D01*
X483634Y177524D02*
X483634Y169856D01*
X481966Y169856D01*
X481966Y177524D01*
X483634Y177524D01*
X483634Y172672D02*
X481966Y172672D01*
X481966Y175488D02*
X483634Y175488D01*
X488634Y177524D02*
X488634Y169856D01*
X486966Y169856D01*
X486966Y177524D01*
X488634Y177524D01*
X488634Y172672D02*
X486966Y172672D01*
X486966Y175488D02*
X488634Y175488D01*
X493634Y177524D02*
X493634Y169856D01*
X491966Y169856D01*
X491966Y177524D01*
X493634Y177524D01*
X493634Y172672D02*
X491966Y172672D01*
X491966Y175488D02*
X493634Y175488D01*
X498634Y177524D02*
X498634Y169856D01*
X496966Y169856D01*
X496966Y177524D01*
X498634Y177524D01*
X498634Y172672D02*
X496966Y172672D01*
X496966Y175488D02*
X498634Y175488D01*
X503634Y177524D02*
X503634Y169856D01*
X501966Y169856D01*
X501966Y177524D01*
X503634Y177524D01*
X503634Y172672D02*
X501966Y172672D01*
X501966Y175488D02*
X503634Y175488D01*
X508634Y177524D02*
X508634Y169856D01*
X506966Y169856D01*
X506966Y177524D01*
X508634Y177524D01*
X508634Y172672D02*
X506966Y172672D01*
X506966Y175488D02*
X508634Y175488D01*
X508634Y208556D02*
X508634Y216224D01*
X508634Y208556D02*
X506966Y208556D01*
X506966Y216224D01*
X508634Y216224D01*
X508634Y211372D02*
X506966Y211372D01*
X506966Y214188D02*
X508634Y214188D01*
X503634Y216224D02*
X503634Y208556D01*
X501966Y208556D01*
X501966Y216224D01*
X503634Y216224D01*
X503634Y211372D02*
X501966Y211372D01*
X501966Y214188D02*
X503634Y214188D01*
X498634Y216224D02*
X498634Y208556D01*
X496966Y208556D01*
X496966Y216224D01*
X498634Y216224D01*
X498634Y211372D02*
X496966Y211372D01*
X496966Y214188D02*
X498634Y214188D01*
X493634Y216224D02*
X493634Y208556D01*
X491966Y208556D01*
X491966Y216224D01*
X493634Y216224D01*
X493634Y211372D02*
X491966Y211372D01*
X491966Y214188D02*
X493634Y214188D01*
X488634Y216224D02*
X488634Y208556D01*
X486966Y208556D01*
X486966Y216224D01*
X488634Y216224D01*
X488634Y211372D02*
X486966Y211372D01*
X486966Y214188D02*
X488634Y214188D01*
X483634Y216224D02*
X483634Y208556D01*
X481966Y208556D01*
X481966Y216224D01*
X483634Y216224D01*
X483634Y211372D02*
X481966Y211372D01*
X481966Y214188D02*
X483634Y214188D01*
D27*
X505302Y203042D02*
X505302Y183038D01*
X485298Y183038D01*
X485298Y203042D01*
X505302Y203042D01*
X505302Y189715D02*
X485298Y189715D01*
X485298Y196392D02*
X505302Y196392D01*
D28*
X317490Y148598D03*
X292090Y161298D03*
X317490Y173998D03*
X292090Y186698D03*
X317490Y199398D03*
X292090Y212098D03*
X317490Y224798D03*
D29*
X292090Y237498D03*
D30*
X259090Y271798D03*
X259090Y114298D03*
D31*
X228590Y135898D03*
X228590Y250198D03*
D28*
X194804Y129785D03*
X179604Y256285D03*
X194809Y230904D03*
X179609Y155204D03*
D32*
X400050Y26670D03*
X400050Y90170D03*
X463550Y58420D03*
X971550Y26670D03*
X971550Y90170D03*
X908050Y58420D03*
D33*
X1262024Y173024D02*
X1262024Y179656D01*
X1266156Y179656D01*
X1266156Y173024D01*
X1262024Y173024D01*
X1262024Y177109D02*
X1266156Y177109D01*
X1262024Y162256D02*
X1262024Y155624D01*
X1262024Y162256D02*
X1266156Y162256D01*
X1266156Y155624D01*
X1262024Y155624D01*
X1262024Y159709D02*
X1266156Y159709D01*
X1253524Y162256D02*
X1253524Y155624D01*
X1253524Y162256D02*
X1257656Y162256D01*
X1257656Y155624D01*
X1253524Y155624D01*
X1253524Y159709D02*
X1257656Y159709D01*
X1253524Y173024D02*
X1253524Y179656D01*
X1257656Y179656D01*
X1257656Y173024D01*
X1253524Y173024D01*
X1253524Y177109D02*
X1257656Y177109D01*
X743536Y137516D02*
X736904Y137516D01*
X743536Y137516D02*
X743536Y133384D01*
X736904Y133384D01*
X736904Y137516D01*
X736904Y137469D02*
X743536Y137469D01*
X726136Y137516D02*
X719504Y137516D01*
X726136Y137516D02*
X726136Y133384D01*
X719504Y133384D01*
X719504Y137516D01*
X719504Y137469D02*
X726136Y137469D01*
X726136Y146016D02*
X719504Y146016D01*
X726136Y146016D02*
X726136Y141884D01*
X719504Y141884D01*
X719504Y146016D01*
X719504Y145969D02*
X726136Y145969D01*
X736904Y146016D02*
X743536Y146016D01*
X743536Y141884D01*
X736904Y141884D01*
X736904Y146016D01*
X736904Y145969D02*
X743536Y145969D01*
D34*
X800100Y20320D03*
D28*
X774700Y20320D03*
X749300Y20320D03*
X723900Y20320D03*
X698500Y20320D03*
X673100Y20320D03*
X647700Y20320D03*
X622300Y20320D03*
X596900Y20320D03*
X571500Y20320D03*
D35*
X837816Y57788D02*
X851284Y57788D01*
X851284Y55496D01*
X837816Y55496D01*
X837816Y57788D01*
X837816Y64392D02*
X851284Y64392D01*
X851284Y62100D01*
X837816Y62100D01*
X837816Y64392D01*
X837816Y70742D02*
X851284Y70742D01*
X851284Y68450D01*
X837816Y68450D01*
X837816Y70742D01*
X837816Y77346D02*
X851284Y77346D01*
X851284Y75054D01*
X837816Y75054D01*
X837816Y77346D01*
X837816Y83950D02*
X851284Y83950D01*
X851284Y81658D01*
X837816Y81658D01*
X837816Y83950D01*
X837816Y90300D02*
X851284Y90300D01*
X851284Y88008D01*
X837816Y88008D01*
X837816Y90300D01*
X837816Y96904D02*
X851284Y96904D01*
X851284Y94612D01*
X837816Y94612D01*
X837816Y96904D01*
X792864Y96904D02*
X779396Y96904D01*
X792864Y96904D02*
X792864Y94612D01*
X779396Y94612D01*
X779396Y96904D01*
X779396Y90300D02*
X792864Y90300D01*
X792864Y88008D01*
X779396Y88008D01*
X779396Y90300D01*
X779396Y83950D02*
X792864Y83950D01*
X792864Y81658D01*
X779396Y81658D01*
X779396Y83950D01*
X779396Y77346D02*
X792864Y77346D01*
X792864Y75054D01*
X779396Y75054D01*
X779396Y77346D01*
X779396Y70742D02*
X792864Y70742D01*
X792864Y68450D01*
X779396Y68450D01*
X779396Y70742D01*
X779396Y64392D02*
X792864Y64392D01*
X792864Y62100D01*
X779396Y62100D01*
X779396Y64392D01*
X779396Y57788D02*
X792864Y57788D01*
X792864Y55496D01*
X779396Y55496D01*
X779396Y57788D01*
D13*
X592649Y45011D02*
X585151Y45011D01*
X585151Y51509D01*
X592649Y51509D01*
X592649Y45011D01*
X592649Y50269D02*
X585151Y50269D01*
X601151Y45011D02*
X608649Y45011D01*
X601151Y45011D02*
X601151Y51509D01*
X608649Y51509D01*
X608649Y45011D01*
X608649Y50269D02*
X601151Y50269D01*
X712151Y52631D02*
X719649Y52631D01*
X712151Y52631D02*
X712151Y59129D01*
X719649Y59129D01*
X719649Y52631D01*
X719649Y57889D02*
X712151Y57889D01*
X728151Y52631D02*
X735649Y52631D01*
X728151Y52631D02*
X728151Y59129D01*
X735649Y59129D01*
X735649Y52631D01*
X735649Y57889D02*
X728151Y57889D01*
D34*
X736600Y76200D03*
D28*
X711200Y76200D03*
D13*
X692686Y301962D02*
X689518Y308756D01*
X695406Y311502D01*
X698574Y304708D01*
X692686Y301962D01*
X690234Y307220D02*
X697403Y307220D01*
X696279Y294256D02*
X699447Y287462D01*
X696279Y294256D02*
X702167Y297002D01*
X705335Y290208D01*
X699447Y287462D01*
X696995Y292720D02*
X704164Y292720D01*
X764544Y304410D02*
X767712Y311204D01*
X773600Y308458D01*
X770432Y301664D01*
X764544Y304410D01*
X765715Y306922D02*
X772884Y306922D01*
X760950Y296703D02*
X757782Y289909D01*
X760950Y296703D02*
X766838Y293957D01*
X763670Y287163D01*
X757782Y289909D01*
X758953Y292421D02*
X766122Y292421D01*
D12*
X848960Y246900D02*
X852500Y246900D01*
X848960Y246900D02*
X848960Y250940D01*
X852500Y250940D01*
X852500Y246900D01*
X852500Y250692D02*
X848960Y250692D01*
X859460Y246900D02*
X863000Y246900D01*
X859460Y246900D02*
X859460Y250940D01*
X863000Y250940D01*
X863000Y246900D01*
X863000Y250692D02*
X859460Y250692D01*
X852500Y259600D02*
X848960Y259600D01*
X848960Y263640D01*
X852500Y263640D01*
X852500Y259600D01*
X852500Y263392D02*
X848960Y263392D01*
X859460Y259600D02*
X863000Y259600D01*
X859460Y259600D02*
X859460Y263640D01*
X863000Y263640D01*
X863000Y259600D01*
X863000Y263392D02*
X859460Y263392D01*
D36*
X434420Y363220D02*
X434422Y363361D01*
X434428Y363502D01*
X434438Y363642D01*
X434452Y363782D01*
X434470Y363922D01*
X434491Y364061D01*
X434517Y364200D01*
X434546Y364338D01*
X434580Y364474D01*
X434617Y364610D01*
X434658Y364745D01*
X434703Y364879D01*
X434752Y365011D01*
X434804Y365142D01*
X434860Y365271D01*
X434920Y365398D01*
X434983Y365524D01*
X435049Y365648D01*
X435120Y365771D01*
X435193Y365891D01*
X435270Y366009D01*
X435350Y366125D01*
X435434Y366238D01*
X435520Y366349D01*
X435610Y366458D01*
X435703Y366564D01*
X435798Y366667D01*
X435897Y366768D01*
X435998Y366866D01*
X436102Y366961D01*
X436209Y367053D01*
X436318Y367142D01*
X436430Y367227D01*
X436544Y367310D01*
X436660Y367390D01*
X436779Y367466D01*
X436900Y367538D01*
X437022Y367608D01*
X437147Y367673D01*
X437273Y367736D01*
X437401Y367794D01*
X437531Y367849D01*
X437662Y367901D01*
X437795Y367948D01*
X437929Y367992D01*
X438064Y368033D01*
X438200Y368069D01*
X438337Y368101D01*
X438475Y368130D01*
X438613Y368155D01*
X438753Y368175D01*
X438893Y368192D01*
X439033Y368205D01*
X439174Y368214D01*
X439314Y368219D01*
X439455Y368220D01*
X439596Y368217D01*
X439737Y368210D01*
X439877Y368199D01*
X440017Y368184D01*
X440157Y368165D01*
X440296Y368143D01*
X440434Y368116D01*
X440572Y368086D01*
X440708Y368051D01*
X440844Y368013D01*
X440978Y367971D01*
X441112Y367925D01*
X441244Y367876D01*
X441374Y367822D01*
X441503Y367765D01*
X441630Y367705D01*
X441756Y367641D01*
X441879Y367573D01*
X442001Y367502D01*
X442121Y367428D01*
X442238Y367350D01*
X442353Y367269D01*
X442466Y367185D01*
X442577Y367098D01*
X442685Y367007D01*
X442790Y366914D01*
X442893Y366817D01*
X442993Y366718D01*
X443090Y366616D01*
X443184Y366511D01*
X443275Y366404D01*
X443363Y366294D01*
X443448Y366182D01*
X443530Y366067D01*
X443609Y365950D01*
X443684Y365831D01*
X443756Y365710D01*
X443824Y365587D01*
X443889Y365462D01*
X443951Y365335D01*
X444008Y365206D01*
X444063Y365076D01*
X444113Y364945D01*
X444160Y364812D01*
X444203Y364678D01*
X444242Y364542D01*
X444277Y364406D01*
X444309Y364269D01*
X444336Y364131D01*
X444360Y363992D01*
X444380Y363852D01*
X444396Y363712D01*
X444408Y363572D01*
X444416Y363431D01*
X444420Y363290D01*
X444420Y363150D01*
X444416Y363009D01*
X444408Y362868D01*
X444396Y362728D01*
X444380Y362588D01*
X444360Y362448D01*
X444336Y362309D01*
X444309Y362171D01*
X444277Y362034D01*
X444242Y361898D01*
X444203Y361762D01*
X444160Y361628D01*
X444113Y361495D01*
X444063Y361364D01*
X444008Y361234D01*
X443951Y361105D01*
X443889Y360978D01*
X443824Y360853D01*
X443756Y360730D01*
X443684Y360609D01*
X443609Y360490D01*
X443530Y360373D01*
X443448Y360258D01*
X443363Y360146D01*
X443275Y360036D01*
X443184Y359929D01*
X443090Y359824D01*
X442993Y359722D01*
X442893Y359623D01*
X442790Y359526D01*
X442685Y359433D01*
X442577Y359342D01*
X442466Y359255D01*
X442353Y359171D01*
X442238Y359090D01*
X442121Y359012D01*
X442001Y358938D01*
X441879Y358867D01*
X441756Y358799D01*
X441630Y358735D01*
X441503Y358675D01*
X441374Y358618D01*
X441244Y358564D01*
X441112Y358515D01*
X440978Y358469D01*
X440844Y358427D01*
X440708Y358389D01*
X440572Y358354D01*
X440434Y358324D01*
X440296Y358297D01*
X440157Y358275D01*
X440017Y358256D01*
X439877Y358241D01*
X439737Y358230D01*
X439596Y358223D01*
X439455Y358220D01*
X439314Y358221D01*
X439174Y358226D01*
X439033Y358235D01*
X438893Y358248D01*
X438753Y358265D01*
X438613Y358285D01*
X438475Y358310D01*
X438337Y358339D01*
X438200Y358371D01*
X438064Y358407D01*
X437929Y358448D01*
X437795Y358492D01*
X437662Y358539D01*
X437531Y358591D01*
X437401Y358646D01*
X437273Y358704D01*
X437147Y358767D01*
X437022Y358832D01*
X436900Y358902D01*
X436779Y358974D01*
X436660Y359050D01*
X436544Y359130D01*
X436430Y359213D01*
X436318Y359298D01*
X436209Y359387D01*
X436102Y359479D01*
X435998Y359574D01*
X435897Y359672D01*
X435798Y359773D01*
X435703Y359876D01*
X435610Y359982D01*
X435520Y360091D01*
X435434Y360202D01*
X435350Y360315D01*
X435270Y360431D01*
X435193Y360549D01*
X435120Y360669D01*
X435049Y360792D01*
X434983Y360916D01*
X434920Y361042D01*
X434860Y361169D01*
X434804Y361298D01*
X434752Y361429D01*
X434703Y361561D01*
X434658Y361695D01*
X434617Y361830D01*
X434580Y361966D01*
X434546Y362102D01*
X434517Y362240D01*
X434491Y362379D01*
X434470Y362518D01*
X434452Y362658D01*
X434438Y362798D01*
X434428Y362938D01*
X434422Y363079D01*
X434420Y363220D01*
X1252300Y96520D02*
X1252302Y96661D01*
X1252308Y96802D01*
X1252318Y96942D01*
X1252332Y97082D01*
X1252350Y97222D01*
X1252371Y97361D01*
X1252397Y97500D01*
X1252426Y97638D01*
X1252460Y97774D01*
X1252497Y97910D01*
X1252538Y98045D01*
X1252583Y98179D01*
X1252632Y98311D01*
X1252684Y98442D01*
X1252740Y98571D01*
X1252800Y98698D01*
X1252863Y98824D01*
X1252929Y98948D01*
X1253000Y99071D01*
X1253073Y99191D01*
X1253150Y99309D01*
X1253230Y99425D01*
X1253314Y99538D01*
X1253400Y99649D01*
X1253490Y99758D01*
X1253583Y99864D01*
X1253678Y99967D01*
X1253777Y100068D01*
X1253878Y100166D01*
X1253982Y100261D01*
X1254089Y100353D01*
X1254198Y100442D01*
X1254310Y100527D01*
X1254424Y100610D01*
X1254540Y100690D01*
X1254659Y100766D01*
X1254780Y100838D01*
X1254902Y100908D01*
X1255027Y100973D01*
X1255153Y101036D01*
X1255281Y101094D01*
X1255411Y101149D01*
X1255542Y101201D01*
X1255675Y101248D01*
X1255809Y101292D01*
X1255944Y101333D01*
X1256080Y101369D01*
X1256217Y101401D01*
X1256355Y101430D01*
X1256493Y101455D01*
X1256633Y101475D01*
X1256773Y101492D01*
X1256913Y101505D01*
X1257054Y101514D01*
X1257194Y101519D01*
X1257335Y101520D01*
X1257476Y101517D01*
X1257617Y101510D01*
X1257757Y101499D01*
X1257897Y101484D01*
X1258037Y101465D01*
X1258176Y101443D01*
X1258314Y101416D01*
X1258452Y101386D01*
X1258588Y101351D01*
X1258724Y101313D01*
X1258858Y101271D01*
X1258992Y101225D01*
X1259124Y101176D01*
X1259254Y101122D01*
X1259383Y101065D01*
X1259510Y101005D01*
X1259636Y100941D01*
X1259759Y100873D01*
X1259881Y100802D01*
X1260001Y100728D01*
X1260118Y100650D01*
X1260233Y100569D01*
X1260346Y100485D01*
X1260457Y100398D01*
X1260565Y100307D01*
X1260670Y100214D01*
X1260773Y100117D01*
X1260873Y100018D01*
X1260970Y99916D01*
X1261064Y99811D01*
X1261155Y99704D01*
X1261243Y99594D01*
X1261328Y99482D01*
X1261410Y99367D01*
X1261489Y99250D01*
X1261564Y99131D01*
X1261636Y99010D01*
X1261704Y98887D01*
X1261769Y98762D01*
X1261831Y98635D01*
X1261888Y98506D01*
X1261943Y98376D01*
X1261993Y98245D01*
X1262040Y98112D01*
X1262083Y97978D01*
X1262122Y97842D01*
X1262157Y97706D01*
X1262189Y97569D01*
X1262216Y97431D01*
X1262240Y97292D01*
X1262260Y97152D01*
X1262276Y97012D01*
X1262288Y96872D01*
X1262296Y96731D01*
X1262300Y96590D01*
X1262300Y96450D01*
X1262296Y96309D01*
X1262288Y96168D01*
X1262276Y96028D01*
X1262260Y95888D01*
X1262240Y95748D01*
X1262216Y95609D01*
X1262189Y95471D01*
X1262157Y95334D01*
X1262122Y95198D01*
X1262083Y95062D01*
X1262040Y94928D01*
X1261993Y94795D01*
X1261943Y94664D01*
X1261888Y94534D01*
X1261831Y94405D01*
X1261769Y94278D01*
X1261704Y94153D01*
X1261636Y94030D01*
X1261564Y93909D01*
X1261489Y93790D01*
X1261410Y93673D01*
X1261328Y93558D01*
X1261243Y93446D01*
X1261155Y93336D01*
X1261064Y93229D01*
X1260970Y93124D01*
X1260873Y93022D01*
X1260773Y92923D01*
X1260670Y92826D01*
X1260565Y92733D01*
X1260457Y92642D01*
X1260346Y92555D01*
X1260233Y92471D01*
X1260118Y92390D01*
X1260001Y92312D01*
X1259881Y92238D01*
X1259759Y92167D01*
X1259636Y92099D01*
X1259510Y92035D01*
X1259383Y91975D01*
X1259254Y91918D01*
X1259124Y91864D01*
X1258992Y91815D01*
X1258858Y91769D01*
X1258724Y91727D01*
X1258588Y91689D01*
X1258452Y91654D01*
X1258314Y91624D01*
X1258176Y91597D01*
X1258037Y91575D01*
X1257897Y91556D01*
X1257757Y91541D01*
X1257617Y91530D01*
X1257476Y91523D01*
X1257335Y91520D01*
X1257194Y91521D01*
X1257054Y91526D01*
X1256913Y91535D01*
X1256773Y91548D01*
X1256633Y91565D01*
X1256493Y91585D01*
X1256355Y91610D01*
X1256217Y91639D01*
X1256080Y91671D01*
X1255944Y91707D01*
X1255809Y91748D01*
X1255675Y91792D01*
X1255542Y91839D01*
X1255411Y91891D01*
X1255281Y91946D01*
X1255153Y92004D01*
X1255027Y92067D01*
X1254902Y92132D01*
X1254780Y92202D01*
X1254659Y92274D01*
X1254540Y92350D01*
X1254424Y92430D01*
X1254310Y92513D01*
X1254198Y92598D01*
X1254089Y92687D01*
X1253982Y92779D01*
X1253878Y92874D01*
X1253777Y92972D01*
X1253678Y93073D01*
X1253583Y93176D01*
X1253490Y93282D01*
X1253400Y93391D01*
X1253314Y93502D01*
X1253230Y93615D01*
X1253150Y93731D01*
X1253073Y93849D01*
X1253000Y93969D01*
X1252929Y94092D01*
X1252863Y94216D01*
X1252800Y94342D01*
X1252740Y94469D01*
X1252684Y94598D01*
X1252632Y94729D01*
X1252583Y94861D01*
X1252538Y94995D01*
X1252497Y95130D01*
X1252460Y95266D01*
X1252426Y95402D01*
X1252397Y95540D01*
X1252371Y95679D01*
X1252350Y95818D01*
X1252332Y95958D01*
X1252318Y96098D01*
X1252308Y96238D01*
X1252302Y96379D01*
X1252300Y96520D01*
X132160Y17780D02*
X132162Y17921D01*
X132168Y18062D01*
X132178Y18202D01*
X132192Y18342D01*
X132210Y18482D01*
X132231Y18621D01*
X132257Y18760D01*
X132286Y18898D01*
X132320Y19034D01*
X132357Y19170D01*
X132398Y19305D01*
X132443Y19439D01*
X132492Y19571D01*
X132544Y19702D01*
X132600Y19831D01*
X132660Y19958D01*
X132723Y20084D01*
X132789Y20208D01*
X132860Y20331D01*
X132933Y20451D01*
X133010Y20569D01*
X133090Y20685D01*
X133174Y20798D01*
X133260Y20909D01*
X133350Y21018D01*
X133443Y21124D01*
X133538Y21227D01*
X133637Y21328D01*
X133738Y21426D01*
X133842Y21521D01*
X133949Y21613D01*
X134058Y21702D01*
X134170Y21787D01*
X134284Y21870D01*
X134400Y21950D01*
X134519Y22026D01*
X134640Y22098D01*
X134762Y22168D01*
X134887Y22233D01*
X135013Y22296D01*
X135141Y22354D01*
X135271Y22409D01*
X135402Y22461D01*
X135535Y22508D01*
X135669Y22552D01*
X135804Y22593D01*
X135940Y22629D01*
X136077Y22661D01*
X136215Y22690D01*
X136353Y22715D01*
X136493Y22735D01*
X136633Y22752D01*
X136773Y22765D01*
X136914Y22774D01*
X137054Y22779D01*
X137195Y22780D01*
X137336Y22777D01*
X137477Y22770D01*
X137617Y22759D01*
X137757Y22744D01*
X137897Y22725D01*
X138036Y22703D01*
X138174Y22676D01*
X138312Y22646D01*
X138448Y22611D01*
X138584Y22573D01*
X138718Y22531D01*
X138852Y22485D01*
X138984Y22436D01*
X139114Y22382D01*
X139243Y22325D01*
X139370Y22265D01*
X139496Y22201D01*
X139619Y22133D01*
X139741Y22062D01*
X139861Y21988D01*
X139978Y21910D01*
X140093Y21829D01*
X140206Y21745D01*
X140317Y21658D01*
X140425Y21567D01*
X140530Y21474D01*
X140633Y21377D01*
X140733Y21278D01*
X140830Y21176D01*
X140924Y21071D01*
X141015Y20964D01*
X141103Y20854D01*
X141188Y20742D01*
X141270Y20627D01*
X141349Y20510D01*
X141424Y20391D01*
X141496Y20270D01*
X141564Y20147D01*
X141629Y20022D01*
X141691Y19895D01*
X141748Y19766D01*
X141803Y19636D01*
X141853Y19505D01*
X141900Y19372D01*
X141943Y19238D01*
X141982Y19102D01*
X142017Y18966D01*
X142049Y18829D01*
X142076Y18691D01*
X142100Y18552D01*
X142120Y18412D01*
X142136Y18272D01*
X142148Y18132D01*
X142156Y17991D01*
X142160Y17850D01*
X142160Y17710D01*
X142156Y17569D01*
X142148Y17428D01*
X142136Y17288D01*
X142120Y17148D01*
X142100Y17008D01*
X142076Y16869D01*
X142049Y16731D01*
X142017Y16594D01*
X141982Y16458D01*
X141943Y16322D01*
X141900Y16188D01*
X141853Y16055D01*
X141803Y15924D01*
X141748Y15794D01*
X141691Y15665D01*
X141629Y15538D01*
X141564Y15413D01*
X141496Y15290D01*
X141424Y15169D01*
X141349Y15050D01*
X141270Y14933D01*
X141188Y14818D01*
X141103Y14706D01*
X141015Y14596D01*
X140924Y14489D01*
X140830Y14384D01*
X140733Y14282D01*
X140633Y14183D01*
X140530Y14086D01*
X140425Y13993D01*
X140317Y13902D01*
X140206Y13815D01*
X140093Y13731D01*
X139978Y13650D01*
X139861Y13572D01*
X139741Y13498D01*
X139619Y13427D01*
X139496Y13359D01*
X139370Y13295D01*
X139243Y13235D01*
X139114Y13178D01*
X138984Y13124D01*
X138852Y13075D01*
X138718Y13029D01*
X138584Y12987D01*
X138448Y12949D01*
X138312Y12914D01*
X138174Y12884D01*
X138036Y12857D01*
X137897Y12835D01*
X137757Y12816D01*
X137617Y12801D01*
X137477Y12790D01*
X137336Y12783D01*
X137195Y12780D01*
X137054Y12781D01*
X136914Y12786D01*
X136773Y12795D01*
X136633Y12808D01*
X136493Y12825D01*
X136353Y12845D01*
X136215Y12870D01*
X136077Y12899D01*
X135940Y12931D01*
X135804Y12967D01*
X135669Y13008D01*
X135535Y13052D01*
X135402Y13099D01*
X135271Y13151D01*
X135141Y13206D01*
X135013Y13264D01*
X134887Y13327D01*
X134762Y13392D01*
X134640Y13462D01*
X134519Y13534D01*
X134400Y13610D01*
X134284Y13690D01*
X134170Y13773D01*
X134058Y13858D01*
X133949Y13947D01*
X133842Y14039D01*
X133738Y14134D01*
X133637Y14232D01*
X133538Y14333D01*
X133443Y14436D01*
X133350Y14542D01*
X133260Y14651D01*
X133174Y14762D01*
X133090Y14875D01*
X133010Y14991D01*
X132933Y15109D01*
X132860Y15229D01*
X132789Y15352D01*
X132723Y15476D01*
X132660Y15602D01*
X132600Y15729D01*
X132544Y15858D01*
X132492Y15989D01*
X132443Y16121D01*
X132398Y16255D01*
X132357Y16390D01*
X132320Y16526D01*
X132286Y16662D01*
X132257Y16800D01*
X132231Y16939D01*
X132210Y17078D01*
X132192Y17218D01*
X132178Y17358D01*
X132168Y17498D01*
X132162Y17639D01*
X132160Y17780D01*
D13*
X507171Y107389D02*
X514669Y107389D01*
X514669Y100891D01*
X507171Y100891D01*
X507171Y107389D01*
X507171Y106149D02*
X514669Y106149D01*
X498669Y107389D02*
X491171Y107389D01*
X498669Y107389D02*
X498669Y100891D01*
X491171Y100891D01*
X491171Y107389D01*
X491171Y106149D02*
X498669Y106149D01*
D37*
X490605Y121876D03*
M02*
