<svg xmlns="http://www.w3.org/2000/svg"
     version="1.1" focusable="false"
     viewBox="0 0 25 64" width="25" height="64"
     preserveAspectRatio="none">
    <defs>
        <linearGradient id="gradient" gradientUnits="userSpaceOnUse" x1="12.5" y1="0" x2="12.5" y2="50"
                        gradientTransform="matrix(1, 0, 0, 1.281417, 0.854204, 0.000001)">
            <stop offset="0" stop-color="#6ABBC0"/>
            <stop offset="0.1" stop-color="#6ABBC0"/>
            <stop offset="0.1" stop-color="#00A4D1"/>
            <stop offset="0.9" stop-color="#6ABBC0"/>
            <stop offset="0.9" stop-color="#00A4D1"/>
            <stop offset="1" stop-color="#00A4D1"/>
        </linearGradient>
    </defs>
    <mask id="led">
        <rect x="0" y="0" width="25" height="64" fill="white"/>
        <rect x="1" y="30" width="23" height="5" rx="2" fill="black" stroke="#0040ff"/>
    </mask>
    <rect x="1" y="30" width="25" height="5" fill="#00FF28"/>
    <rect x="0" y="0" width="25" height="64" fill="url(#gradient)" mask="url(#led)"/>
    <path stroke="#007DA9" d="M 0 6.5 L 25 6.5" opacity=".25"/>
    <path stroke="#007DA9" d="M 0 13.5 L 25 13.5"/>
    <path stroke="#B8D5CF" d="M 0 14.5 L 25 14.5"/>
    <path stroke="#007DA9" d="M 0 22 L 25 22"/>
    <path stroke="#B8D5CF" d="M 0 23 L 25 23"/>
    <path stroke="#007DA9" d="M 0 41 L 25 41"/>
    <path stroke="#B8D5CF" d="M 0 42 L 25 42"/>
    <path stroke="#007DA9" d="M 0 50 L 25 50"/>
    <path stroke="#B8D5CF" d="M 0 51 L 25 51"/>
    <path stroke="#B8D5CF" d="M 0 58 L 25 58" opacity=".25"/>
    <path stroke="#007DA9" fill="none" opacity=".75" d="M 24.5 0.5 L 24.5 63.5 L .5 63.5"/>
    <path stroke="#B8D5CF" fill="none" opacity=".75" d="M 25 0.5 L .5 0 L .5 64"/>
    <rect x="1" y="30" width="23" height="5" rx="2" fill="none" stroke="#0040ff"/>
</svg>