G04 EAGLE Gerber RS-274X export*
G75*
%MOMM*%
%FSLAX34Y34*%
%LPD*%
%INSilkscreen Bottom*%
%IPPOS*%
%AMOC8*
5,1,8,0,0,1.08239X$1,22.5*%
G01*
%ADD10C,0.177800*%


D10*
X888936Y19431D02*
X888936Y10936D01*
X888938Y10838D01*
X888944Y10741D01*
X888954Y10643D01*
X888967Y10547D01*
X888985Y10451D01*
X889007Y10355D01*
X889032Y10261D01*
X889061Y10167D01*
X889094Y10075D01*
X889130Y9985D01*
X889170Y9896D01*
X889214Y9808D01*
X889261Y9723D01*
X889312Y9639D01*
X889366Y9557D01*
X889423Y9478D01*
X889483Y9401D01*
X889546Y9327D01*
X889613Y9255D01*
X889682Y9186D01*
X889754Y9119D01*
X889828Y9056D01*
X889905Y8996D01*
X889984Y8939D01*
X890066Y8885D01*
X890150Y8834D01*
X890235Y8787D01*
X890323Y8743D01*
X890412Y8703D01*
X890502Y8667D01*
X890594Y8634D01*
X890688Y8605D01*
X890782Y8580D01*
X890878Y8558D01*
X890974Y8540D01*
X891070Y8527D01*
X891168Y8517D01*
X891265Y8511D01*
X891363Y8509D01*
X892577Y8509D01*
X879920Y19432D02*
X879818Y19430D01*
X879716Y19424D01*
X879614Y19415D01*
X879513Y19401D01*
X879412Y19384D01*
X879312Y19364D01*
X879213Y19339D01*
X879115Y19311D01*
X879018Y19279D01*
X878922Y19243D01*
X878828Y19204D01*
X878735Y19162D01*
X878644Y19116D01*
X878555Y19066D01*
X878467Y19013D01*
X878382Y18957D01*
X878298Y18898D01*
X878217Y18836D01*
X878139Y18771D01*
X878062Y18703D01*
X877989Y18632D01*
X877918Y18559D01*
X877850Y18482D01*
X877785Y18404D01*
X877723Y18323D01*
X877664Y18239D01*
X877608Y18154D01*
X877555Y18066D01*
X877505Y17977D01*
X877459Y17886D01*
X877417Y17793D01*
X877378Y17699D01*
X877342Y17603D01*
X877310Y17506D01*
X877282Y17408D01*
X877257Y17309D01*
X877237Y17209D01*
X877220Y17108D01*
X877206Y17007D01*
X877197Y16905D01*
X877191Y16803D01*
X877189Y16701D01*
X879920Y19431D02*
X880036Y19429D01*
X880152Y19423D01*
X880268Y19414D01*
X880383Y19400D01*
X880498Y19383D01*
X880612Y19362D01*
X880725Y19337D01*
X880838Y19309D01*
X880949Y19277D01*
X881060Y19241D01*
X881169Y19201D01*
X881277Y19158D01*
X881383Y19111D01*
X881488Y19061D01*
X881591Y19008D01*
X881692Y18951D01*
X881791Y18890D01*
X881888Y18827D01*
X881983Y18760D01*
X882076Y18690D01*
X882166Y18617D01*
X882254Y18542D01*
X882340Y18463D01*
X882422Y18381D01*
X882502Y18297D01*
X882580Y18211D01*
X882654Y18121D01*
X882725Y18030D01*
X882793Y17936D01*
X882858Y17839D01*
X882920Y17741D01*
X882979Y17641D01*
X883034Y17539D01*
X883086Y17435D01*
X883134Y17329D01*
X883179Y17222D01*
X883220Y17114D01*
X883257Y17004D01*
X878099Y14577D02*
X878026Y14650D01*
X877955Y14725D01*
X877887Y14802D01*
X877821Y14882D01*
X877759Y14964D01*
X877699Y15048D01*
X877642Y15135D01*
X877589Y15223D01*
X877538Y15313D01*
X877491Y15405D01*
X877447Y15498D01*
X877406Y15593D01*
X877369Y15690D01*
X877335Y15787D01*
X877305Y15886D01*
X877278Y15985D01*
X877254Y16086D01*
X877234Y16187D01*
X877218Y16289D01*
X877205Y16392D01*
X877196Y16495D01*
X877191Y16598D01*
X877189Y16701D01*
X878099Y14577D02*
X883257Y8509D01*
X877189Y8509D01*
M02*
